<?xml version="1.0" encoding="UTF-8" standalone="no"?><svg xmlns="http://www.w3.org/2000/svg" xmlns:xlink="http://www.w3.org/1999/xlink" contentStyleType="text/css" height="239px" preserveAspectRatio="none" style="width:232px;height:239px;background:#00000000;" version="1.1" viewBox="0 0 232 239" width="232px" zoomAndPan="magnify"><defs/><g><polygon fill="#FFFFFF" points="37,73.5035,37,73.5736,39,73.3654,41,73.5679,43,73.6367,45,73.2657,47,73.5035,46.9223,73.5035,46.5735,83.5477,46.6165,93.5918,46.9318,103.636,46.3086,113.6802,47.5536,123.7243,46.3697,133.7685,46.8022,143.8126,47.4319,153.8568,46.9142,163.901,47.0682,173.9451,46.9681,183.9893,47.1785,194.0334,47.2391,204.0776,47,214.1218,47,214.317,45,214.3455,43,214.3482,41,214.2066,39,214.2763,37,214.1218,37.7022,214.1218,36.2788,204.0776,37.6785,194.0334,36.7035,183.9893,37.5338,173.9451,36.505,163.901,36.9315,153.8568,37.7416,143.8126,36.9513,133.7685,37.1053,123.7243,37.3386,113.6802,37.4162,103.636,36.9961,93.5918,37.2872,83.5477,37,73.5035" style="stroke:#181818;stroke-width:1.0;"/><polygon fill="#FFFFFF" points="103,105.5609,103,105.6309,105,105.4228,107,105.6253,109,105.6941,111,105.3231,113,105.5609,112.9223,105.5609,112.5735,115.1238,112.6165,124.6868,112.9318,134.2497,112.3086,143.8126,113.5536,153.3756,112.3697,162.9385,112.8022,172.5015,113,182.0644,113,182.2084,111,182.0358,109,182.0871,107,182.0538,105,182.1239,103,182.0644,103.2391,182.0644,103.5857,172.5015,103.6711,162.9385,103.6793,153.3756,103.2546,143.8126,103.4636,134.2497,103.7022,124.6868,102.2788,115.1238,103,105.5609" style="stroke:#181818;stroke-width:1.0;"/><path d="M41.5,39.4461 L41.7802,39.4461 L40.9476,49.587 L41.7577,59.7278 L42.0329,69.8686 L40.5488,80.0094 L41.3964,90.1503 L40.9313,100.2911 L40.9887,110.4319 L41.4091,120.5727 L40.5782,130.7135 L42.2382,140.8544 L40.6596,150.9952 L41.2363,161.136 L42.0759,171.2768 L41.3856,181.4177 L41.591,191.5585 L41.4574,201.6993 L41.738,211.8401 L41.8188,221.981 L41.5,232.1218 " fill="none" style="stroke:#181818;stroke-width:0.5;stroke-dasharray:5.0,5.0;"/><path d="M108,39.4461 L108.2802,39.4461 L107.4476,49.587 L108.2577,59.7278 L108.5329,69.8686 L107.0488,80.0094 L107.8964,90.1503 L107.4313,100.2911 L107.4887,110.4319 L107.9091,120.5727 L107.0782,130.7135 L108.7382,140.8544 L107.1596,150.9952 L107.7363,161.136 L108.5759,171.2768 L107.8856,181.4177 L108.091,191.5585 L107.9574,201.6993 L108.238,211.8401 L108.3188,221.981 L108,232.1218 " fill="none" style="stroke:#181818;stroke-width:0.5;stroke-dasharray:5.0,5.0;"/><path d="M200,145.784 L200.2802,145.784 L199.4476,155.377 L200.2577,164.9701 L200.5329,174.5632 L199.0488,184.1563 L199.8964,193.7494 L199.4313,203.3425 L199.4887,212.9356 L199.9091,222.5287 L200,232.1218 " fill="none" style="stroke:#181818;stroke-width:0.5;stroke-dasharray:5.0,5.0;"/><polygon fill="#E2E2F0" points="12,5,12,5.2102,22,4.5857,32,5.1933,42,5.3997,52,4.2866,62,4.9223,72,5,71.9456,4.8687,72.3046,5.0283,72.6984,5.2719,72.9725,5.2264,73.4848,5.7563,73.7678,5.7322,73.5737,5.6518,73.8533,6.0606,74.1937,6.4944,74.1807,6.782,74.3746,7.1552,74.5,7.5,74.4894,7.5,74.5595,13.1892,74.5797,18.8785,74.6952,24.5677,74.7237,30.2569,74.5,35.9461,74.7092,36.0328,74.432,36.3322,74.3499,36.7124,74.2769,37.0964,73.6921,37.2684,73.7678,37.7139,73.8543,37.9229,73.3764,37.769,73.1288,38.1712,72.644,38.0008,72.3448,38.2786,72,38.4461,72,39.1877,62,38.3974,52,38.5514,42,38.7848,32,38.8624,22,38.4422,12,38.4461,12.0366,38.5346,11.5734,38.1234,11.3292,38.2408,11.0093,38.1756,10.6425,37.9973,10.2322,37.7139,10.421,37.7921,9.937,37.2987,9.7385,36.9236,9.6015,36.574,9.6283,36.2922,9.5,35.9461,9.4345,35.9461,9.7271,30.2569,9.4418,24.5677,9.3856,18.8785,9.5761,13.1892,9.5,7.5,9.2946,7.4149,9.4866,7.0802,9.9927,6.8757,10.0735,6.4949,10.312,6.1795,10.2322,5.7322,10.1912,5.6331,10.6265,5.6841,11.0147,5.6212,11.2326,5.1474,11.6342,5.1169,12,5" style="stroke:#181818;stroke-width:0.5;"/><text fill="#000000" font-family="xkcd Script" font-size="14" lengthAdjust="spacing" textLength="51" x="16.5" y="27.2593">:Bernard</text><polygon fill="#E2E2F0" points="88.5,5,88.5,5.0701,96.3,4.8619,104.1,5.0644,111.9,5.1332,119.7,4.7622,127.5,5,127.4901,4.9761,127.7991,5.0151,128.1582,5.1748,128.552,5.4184,128.826,5.3729,129.2678,5.7322,129.4383,5.8029,129.2201,6.0054,129.4998,6.4141,129.8401,6.848,129.8271,7.1355,130,7.5,130.0227,7.5,129.9894,13.1892,130.0595,18.8785,130.0797,24.5677,130.1952,30.2569,130,35.9461,130.2067,36.0317,130.0627,36.3863,129.7855,36.6857,129.7034,37.0659,129.6305,37.4499,129.2678,37.7139,129.1758,37.4918,129.0008,38.0693,128.5228,37.9155,128.2752,38.3176,127.7904,38.1472,127.5,38.4461,127.5,38.4233,119.7,38.6933,111.9,38.4299,104.1,38.4812,96.3,38.559,88.5,38.4461,88.5531,38.5743,88.1459,38.2985,87.8295,38.2417,87.3663,37.8305,87.1221,37.9479,86.7322,37.7139,86.9011,37.7838,86.7227,37.4171,86.6281,37.085,86.1441,36.5916,85.9456,36.2165,86,35.9461,85.7929,35.9461,85.9804,30.2569,85.9345,24.5677,86.2271,18.8785,85.9418,13.1892,86,7.5,85.8944,7.4562,86.2167,7.1756,86.0875,6.7078,86.2795,6.3731,86.7856,6.1686,86.7322,5.7322,86.7878,5.8664,87.1795,5.812,87.3983,5.3402,87.8336,5.3912,88.2218,5.3283,88.5,5" style="stroke:#181818;stroke-width:0.5;"/><text fill="#000000" font-family="xkcd Script" font-size="14" lengthAdjust="spacing" textLength="30" x="93" y="27.2593">:Alice</text><polygon fill="#FFFFFF" points="37,73.5035,37,73.5736,39,73.3654,41,73.5679,43,73.6367,45,73.2657,47,73.5035,46.9223,73.5035,46.5735,83.5477,46.6165,93.5918,46.9318,103.636,46.3086,113.6802,47.5536,123.7243,46.3697,133.7685,46.8022,143.8126,47.4319,153.8568,46.9142,163.901,47.0682,173.9451,46.9681,183.9893,47.1785,194.0334,47.2391,204.0776,47,214.1218,47,214.317,45,214.3455,43,214.3482,41,214.2066,39,214.2763,37,214.1218,37.7022,214.1218,36.2788,204.0776,37.6785,194.0334,36.7035,183.9893,37.5338,173.9451,36.505,163.901,36.9315,153.8568,37.7416,143.8126,36.9513,133.7685,37.1053,123.7243,37.3386,113.6802,37.4162,103.636,36.9961,93.5918,37.2872,83.5477,37,73.5035" style="stroke:#181818;stroke-width:1.0;"/><polygon fill="#FFFFFF" points="103,105.5609,103,105.6309,105,105.4228,107,105.6253,109,105.6941,111,105.3231,113,105.5609,112.9223,105.5609,112.5735,115.1238,112.6165,124.6868,112.9318,134.2497,112.3086,143.8126,113.5536,153.3756,112.3697,162.9385,112.8022,172.5015,113,182.0644,113,182.2084,111,182.0358,109,182.0871,107,182.0538,105,182.1239,103,182.0644,103.2391,182.0644,103.5857,172.5015,103.6711,162.9385,103.6793,153.3756,103.2546,143.8126,103.4636,134.2497,103.7022,124.6868,102.2788,115.1238,103,105.5609" style="stroke:#181818;stroke-width:1.0;"/><polygon fill="#181818" points="25,69.5035,25.026,69.5686,26.9487,70.1753,29.0239,71.1633,31.0495,72.0272,32.9117,72.4827,35,73.5035,34.9904,73.4795,32.9472,74.1715,30.9525,74.9848,28.9916,75.8824,26.9144,76.4895,25,77.5035,25.1845,77.5035,24.7899,75.9035,24.9341,74.3035,25.144,72.7035,24.9714,71.1035,25,69.5035" style="stroke:#181818;stroke-width:1.0;"/><path d="M0,73.5035 L0,73.5969 L6.2,73.3194 L12.4,73.5894 L18.6,73.6811 L24.8,73.1864 L31,73.5035 " fill="none" style="stroke:#181818;stroke-width:1.0;"/><text fill="#000000" font-family="xkcd Script" font-size="13" lengthAdjust="spacing" textLength="18" x="7" y="67.6156">init</text><polygon fill="#181818" points="91,101.5609,91.026,101.6259,92.9487,102.2327,95.0239,103.2207,97.0495,104.0846,98.9117,104.5401,101,105.5609,100.9904,105.5368,98.9472,106.2289,96.9525,107.0422,94.9916,107.9398,92.9144,108.5469,91,109.5609,91.1845,109.5609,90.7899,107.9609,90.9341,106.3609,91.144,104.7609,90.9714,103.1609,91,101.5609" style="stroke:#181818;stroke-width:1.0;"/><path d="M47,105.5609 L47,105.8411 L57,105.0085 L67,105.8186 L77,106.0938 L87,104.6097 L97,105.5609 " fill="none" style="stroke:#181818;stroke-width:1.0;"/><text fill="#000000" font-family="xkcd Script" font-size="13" lengthAdjust="spacing" textLength="37" x="54" y="99.673">allô(12)</text><polygon fill="#181818" points="163,133.6183,163.026,133.6833,164.9487,134.29,167.0239,135.2781,169.0495,136.142,170.9117,136.5975,173,137.6183,172.9904,137.5942,170.9472,138.2863,168.9525,139.0996,166.9916,139.9972,164.9144,140.6043,163,141.6183,163.1845,141.6183,162.7899,140.0183,162.9341,138.4183,163.144,136.8183,162.9714,135.2183,163,133.6183" style="stroke:#181818;stroke-width:1.0;"/><path d="M113,137.6183 L113,137.8985 L122.3333,137.0658 L131.6667,137.876 L141,138.1512 L150.3333,136.6671 L159.6667,137.5146 L169,137.6183 " fill="none" style="stroke:#181818;stroke-width:1.0;stroke-dasharray:2.0,2.0;"/><text fill="#000000" font-family="xkcd Script" font-size="13" lengthAdjust="spacing" textLength="38" x="120" y="131.7304">create</text><polygon fill="#E2E2F0" points="177.5,113.5609,177.5,113.7711,186.7,113.1466,195.9,113.7542,205.1,113.9606,214.3,112.8475,223.5,113.5609,223.4901,113.537,223.7991,113.576,224.1582,113.7357,224.552,113.9792,224.826,113.9338,225.2678,114.2931,225.4383,114.3637,225.2201,114.5663,225.4998,114.975,225.8401,115.4089,225.8271,115.6964,226,116.0609,226.0227,116.0609,225.9894,121.7501,226.0595,127.4393,226.0797,133.1286,226.1952,138.8178,226,144.507,226.2067,144.5926,226.0627,144.9472,225.7855,145.2466,225.7034,145.6268,225.6305,146.0108,225.2678,146.2748,225.1758,146.0527,225.0008,146.6302,224.5228,146.4764,224.2752,146.8785,223.7904,146.7081,223.5,147.007,223.5,146.9385,214.3,147.7486,205.1,146.9583,195.9,147.1123,186.7,147.3457,177.5,147.007,177.5531,147.1352,177.1459,146.8594,176.8295,146.8026,176.3663,146.3914,176.1221,146.5088,175.7322,146.2748,175.9011,146.3447,175.7227,145.9779,175.6281,145.6459,175.1441,145.1525,174.9456,144.7774,175,144.507,174.7929,144.507,174.9804,138.8178,174.9345,133.1286,175.2271,127.4393,174.9418,121.7501,175,116.0609,174.8944,116.0171,175.2167,115.7365,175.0875,115.2687,175.2795,114.934,175.7856,114.7295,175.7322,114.2931,175.7878,114.4273,176.1795,114.3729,176.3983,113.9011,176.8336,113.9521,177.2218,113.8892,177.5,113.5609" style="stroke:#181818;stroke-width:0.5;"/><text fill="#000000" font-family="xkcd Script" font-size="14" lengthAdjust="spacing" textLength="37" x="182" y="135.8201">:Autre</text><path d="M48,182.0644 L48.0347,182.1511 L49.9316,181.0934 L52.0319,180.5442 L54.066,179.8293 L55.8822,178.57 L58,178.0644 " fill="none" style="stroke:#181818;stroke-width:1.0;"/><path d="M48,182.0644 L48.0347,182.1511 L49.9316,182.6934 L52.0319,183.7442 L54.066,184.6293 L55.8822,184.97 L58,186.0644 " fill="none" style="stroke:#181818;stroke-width:1.0;"/><path d="M47,182.0644 L47,182.3446 L57,181.512 L67,182.3221 L77,182.5973 L87,181.1132 L97,181.9608 L107,182.0644 " fill="none" style="stroke:#181818;stroke-width:1.0;stroke-dasharray:2.0,2.0;"/><text fill="#000000" font-family="xkcd Script" font-size="13" lengthAdjust="spacing" textLength="23" x="64" y="176.1765">"oui"</text><path d="M1,214.1218 L1.0347,214.2085 L2.9316,213.1508 L5.0319,212.6015 L7.066,211.8867 L8.8822,210.6274 L11,210.1218 " fill="none" style="stroke:#181818;stroke-width:1.0;"/><path d="M1,214.1218 L1.0347,214.2085 L2.9316,214.7508 L5.0319,215.8015 L7.066,216.6867 L8.8822,217.0274 L11,218.1218 " fill="none" style="stroke:#181818;stroke-width:1.0;"/><path d="M0,214.1218 L0,214.2152 L8.2,213.9376 L16.4,214.2077 L24.6,214.2994 L32.8,213.8047 L41,214.1218 " fill="none" style="stroke:#181818;stroke-width:1.0;stroke-dasharray:2.0,2.0;"/><text fill="#000000" font-family="xkcd Script" font-size="13" lengthAdjust="spacing" textLength="11" x="17" y="208.2339">15</text><!--MD5=[b0fbef60d1ae18908238742bf9cd548c]
@startuml
!include ecriture.pumlinclude
participant ":Bernard" as Bob
participant ":Alice" as Alice
participant ":Autre" as Other
[-> Bob : init
activate Bob
Bob -> Alice : allô(12)
activate Alice

create Other
Alice - -> Other : create

Alice - ->> Bob : "oui"
deactivate Alice
[<<- - Bob : 15
deactivate Bob
@enduml

@startuml
skinparam style strictuml
skinparam backgroundcolor transparent
skinparam defaultfontname xkcd Script
skinparam handwritten true
participant ":Bernard" as Bob
participant ":Alice" as Alice
participant ":Autre" as Other
[-> Bob : init
activate Bob
Bob -> Alice : allô(12)
activate Alice

create Other
Alice - -> Other : create

Alice - ->> Bob : "oui"
deactivate Alice
[<<- - Bob : 15
deactivate Bob
@enduml

PlantUML version 1.2022.6(Tue Jun 21 17:34:49 UTC 2022)
(GPL source distribution)
Java Runtime: OpenJDK Runtime Environment
JVM: OpenJDK 64-Bit Server VM
Default Encoding: UTF-8
Language: en
Country: null
--></g></svg>