<?xml version="1.0" encoding="UTF-8" standalone="no"?><svg xmlns="http://www.w3.org/2000/svg" xmlns:xlink="http://www.w3.org/1999/xlink" contentStyleType="text/css" height="246px" preserveAspectRatio="none" style="width:249px;height:246px;background:#00000000;" version="1.1" viewBox="0 0 249 246" width="249px" zoomAndPan="magnify"><defs/><g><!--MD5=[6ea93574f71f75ac542a4032e198fe98]
cluster Système--><g id="cluster_Système"><polygon points="96.5,7,96.5,7.2102,106.7857,6.5857,117.0714,7.1933,127.3571,7.3997,137.6429,6.2866,147.9286,6.9223,158.2143,6.5735,168.5,6.6165,178.7857,6.9318,189.0714,6.3086,199.3571,7.5536,209.6429,6.3697,219.9286,6.8022,230.2143,7.4319,240.5,7,240.4891,6.9736,240.8623,7.1675,241.203,7.2831,241.5834,7.4943,241.9447,7.6594,242.2678,7.7322,242.4481,7.8069,242.6209,8.1714,242.7698,8.526,242.7855,8.8254,242.9963,9.2056,243,9.5,243.7022,9.5,242.2788,19.413,243.6785,29.3261,242.7035,39.2391,243.5338,49.1522,242.505,59.0652,242.9315,68.9783,243.7416,78.8913,242.9513,88.8043,243.1053,98.7174,243.3386,108.6304,243.4162,118.5435,242.9961,128.4565,243.2872,138.3696,242.4276,148.2826,243.2844,158.1957,243.5482,168.1087,243.4445,178.0217,243.613,187.9348,242.5169,197.8478,242.3478,207.7609,242.3786,217.6739,242.9411,227.587,243,237.5,242.9395,237.4749,243.0634,237.9405,242.6533,238.1848,242.455,238.5169,242.4845,238.9433,242.2678,239.2678,242.1827,239.0624,241.848,239.2543,241.6434,239.7605,241.2627,239.8413,240.9472,240.0797,240.5,240,240.5,239.6782,230.2143,240.3192,219.9286,240.5904,209.6429,239.5276,199.3571,239.9041,189.0714,240.126,178.7857,240.6518,168.5,239.9958,158.2143,240.4626,147.9286,239.4462,137.6429,239.3227,127.3571,240.5036,117.0714,239.2831,106.7857,240.509,96.5,240,96.5264,240.0636,96.1123,239.771,95.7478,239.5982,95.4979,239.7019,95.0476,239.322,94.7322,239.2678,94.9145,239.3433,94.4156,238.8437,94.6295,238.6394,94.442,238.2689,94.2219,237.8848,94,237.5,94.0472,237.5,94.7266,227.587,94.6136,217.6739,94.1693,207.7609,94.2682,197.8478,93.8697,187.9348,94.7165,178.0217,94.1549,168.1087,94.1726,158.1957,93.3916,148.2826,93.5948,138.3696,94.5307,128.4565,94.4298,118.5435,93.9571,108.6304,93.6778,98.7174,93.7811,88.8043,93.3138,78.8913,94.4147,68.9783,94.7396,59.0652,94.5264,49.1522,94.6949,39.2391,93.8633,29.3261,94.0872,19.413,94,9.5,93.8806,9.4506,94.2339,9.1827,94.3689,8.8244,94.6095,8.5098,94.5151,8.0565,94.7322,7.7322,94.7151,7.6908,95.1424,7.7224,95.5117,7.6141,95.7275,7.1351,96.1217,7.0867,96.5,7" style="stroke:#181818;stroke-width:1.0;fill:none;"/><text fill="#000000" font-family="sage sans" font-size="14" font-weight="bold" lengthAdjust="spacing" textLength="68" x="134.5" y="21.9951">Système</text></g><g id="elem_other"><polygon fill="#F1F1F1" points="188.0833,59.2142,187.6843,61.6721,186.1615,63.5424,184.4142,65.4056,182.9718,67.5697,180.2504,68.8036,177.7641,70.1295,174.846,70.985,171.6309,71.3948,168.8388,71.815,165.0516,71.154,162.635,71.0805,159.5094,70.0409,156.5021,68.6062,154.3949,67.3266,152.2777,65.534,150.6937,63.6296,149.3824,61.4425,148.6185,59.203,148.1881,56.7968,148.3885,54.4917,149.1157,52.2725,150.5411,50.3314,152.0672,48.3073,153.9753,46.4819,157.1162,45.5531,159.0428,43.8202,162.4572,43.3257,165.0622,42.4721,168.7342,42.6917,171.6311,42.7053,174.2469,42.9236,177.563,44.1019,180.1529,45.233,182.4115,46.6227,184.4054,48.3256,186.2665,50.4316,187.3107,52.4243,188.5001,54.9733,188.2897,56.9135" style="stroke:#181818;stroke-width:0.5;"/><text fill="#000000" font-family="sage sans" font-size="14" lengthAdjust="spacing" textLength="12" x="162.4706" y="59.8703">...</text></g><g id="elem_JP"><polygon fill="#F1F1F1" points="220.9559,136.976,219.893,141.3841,215.836,144.7382,211.1809,148.0798,207.3381,151.961,200.0877,154.1739,193.4641,156.5518,185.6898,158.0861,177.1243,158.8212,169.6855,159.5747,159.5961,158.3893,153.1577,158.2575,144.8308,156.3929,136.8189,153.8199,131.205,151.525,125.5644,148.3101,121.3443,144.8947,117.8507,140.9723,115.8158,136.9559,114.669,132.6404,115.203,128.5065,117.1403,124.5264,120.9377,121.0452,125.0034,117.4151,130.0869,114.1413,138.4549,112.4755,143.5875,109.3677,152.6841,108.4808,159.6242,106.9499,169.4069,107.3438,177.1248,107.3683,184.0935,107.7597,192.9281,109.8728,199.828,111.9014,205.8455,114.3939,211.1574,117.448,216.1158,121.2248,218.8977,124.7987,222.0663,129.3702,221.5057,132.8497" style="stroke:#181818;stroke-width:0.5;"/><text fill="#000000" font-family="sage sans" font-size="14" lengthAdjust="spacing" textLength="59" x="139.2046" y="127.7455">Attaquer</text><text fill="#000000" font-family="sage sans" font-size="14" lengthAdjust="spacing" textLength="54" x="141.7046" y="144.0424">un pays</text></g><g id="elem_Démarrer"><polygon fill="#D3D3D3" points="226.0968,210.9885,224.9266,213.4867,220.4602,215.3876,215.3354,217.2814,211.1048,219.481,203.1229,220.7352,195.8309,222.0828,187.2722,222.9523,177.8424,223.3689,169.653,223.796,158.5455,223.1242,151.4575,223.0494,142.2904,221.9927,133.47,220.5345,127.2896,219.2339,121.0799,217.4119,116.434,215.4763,112.5879,213.2533,110.3476,210.9771,109.0852,208.5314,109.673,206.1885,111.8058,203.9328,115.9864,201.9599,120.4624,199.9026,126.0588,198.0472,135.2711,197.1032,140.9217,195.3419,150.9361,194.8392,158.5765,193.9716,169.3463,194.1949,177.8429,194.2087,185.5148,194.4306,195.2408,195.6281,202.837,196.7778,209.4616,198.1904,215.3096,199.9212,220.7682,202.0617,223.8308,204.0872,227.3191,206.678,226.702,208.65" style="stroke:#181818;stroke-width:0.5;"/><text fill="#000000" font-family="sage sans" font-size="14" lengthAdjust="spacing" textLength="65" x="133.0731" y="212.5095">Démarrer</text></g><!--MD5=[0cfebb0c7f68f9aba321a3cfa8dd0164]
entity J--><g id="elem_J"><polygon fill="#F1F1F1" points="36.0442,67.4459,34.8715,69.0482,33.4845,71.3951,31.5008,72.9767,29.4163,73.8415,27.7542,73.9166,25.618,72.8349,23.6023,72.1283,22.0724,70.6936,21.2699,69.0511,20.7939,67.7433,20.3277,66.0351,19.5709,64.5651,20.1525,63.1298,20.662,61.5576,22.574,60.3142,23.9192,58.7008,25.5843,58.165,27.5637,57.7037,30.1021,57.9778,31.4924,58.6335,33.1089,58.9307,35.0743,60.9443,35.7595,63.0701,36.0571,64.5206,35.72,66.9108" style="stroke:#181818;stroke-width:0.5;"/><path d="M28,73.5 L28.1868,73.5 L27.6317,78.9 L28.1718,84.3 L28.3553,89.7 L27.3659,95.1 L28,100.5 M15,81.5 L15,81.4309 L20.2,81.1209 L25.4,81.1591 L30.6,81.4394 L35.8,80.8854 L41,81.5 M28,100.5 L28.3719,100.8223 L24.9766,103.1331 L22.6672,106.3849 L20.4901,109.7515 L17.5424,112.4501 L15,115.5 M28,100.5 L28.0458,100.5397 L30.5785,103.4814 L33.3199,106.6039 L35.9606,109.6392 L38.7934,112.841 L41,115.5 " fill="none" style="stroke:#181818;stroke-width:0.5;"/><text fill="#000000" font-family="sage sans" font-size="14" lengthAdjust="spacing" textLength="44" x="6" y="129.9951">Joueur</text></g><!--MD5=[377e2cd37c5d25b46661956537368ef0]
link J to JP--><g id="link_J_JP"><path d="M50.04,100.77 L50.1142,101.0402 L60.1524,103.053 L70.6254,106.65 L80.9568,109.731 L90.8225,111.1156 L101.3054,114.7486 L111.4409,117.1159 L121.85,120.48 " fill="none" style="stroke:#181818;stroke-width:1.0;"/></g><!--MD5=[57d6df1e9842fcea7fc7c58d92fd981d]
link J to other--><g id="link_J_other"><path d="M50.04,89.23 L50.1141,89.5003 L59.8258,85.9723 L69.9722,84.0285 L79.977,81.5689 L89.5163,77.4127 L99.6726,75.5051 L109.4815,72.3316 L119.4287,69.6619 L129.472,67.3424 L139.1841,63.816 L149.36,61.98 " fill="none" style="stroke:#181818;stroke-width:1.0;"/></g><!--MD5=[09bb991c0c52c0361d28db963994b34e]
@startuml
skinparam style strictuml
skinparam backgroundcolor transparent
skinparam defaultfontname sage sans
skinparam handwritten true
scale 1
left to right direction
skinparam packageStyle rect
actor Joueur as J
rectangle "Système" {
  (...) as other
  (Attaquer\nun pays) as JP
  (Démarrer) #lightgray
  J - - JP
  J - - other
}
@enduml

PlantUML version 1.2022.6(Tue Jun 21 17:34:49 UTC 2022)
(GPL source distribution)
Java Runtime: OpenJDK Runtime Environment
JVM: OpenJDK 64-Bit Server VM
Default Encoding: UTF-8
Language: en
Country: null
--></g></svg>