<?xml version="1.0" encoding="UTF-8" standalone="no"?><svg xmlns="http://www.w3.org/2000/svg" xmlns:xlink="http://www.w3.org/1999/xlink" contentStyleType="text/css" height="210.6px" preserveAspectRatio="none" style="width:204px;height:210px;background:#00000000;" version="1.1" viewBox="0 0 204 210" width="204.1px" zoomAndPan="magnify"><defs/><g><path d="M42.25,51.28 L42.6143,51.28 L41.5318,63.8653 L42.585,76.4506 L42.9428,89.0359 L41.0134,101.6212 L42.1153,114.2065 L41.5107,126.7919 L41.5853,139.3772 L42.1319,151.9625 L41.0516,164.5478 L43.2096,177.1331 L41.1575,189.7184 L42.25,202.3037 " fill="none" style="stroke:#181818;stroke-width:0.65;stroke-dasharray:5.0,5.0;"/><path d="M159.9,51.28 L160.2643,51.28 L159.1818,63.8653 L160.235,76.4506 L160.5928,89.0359 L158.6634,101.6212 L159.7653,114.2065 L159.1607,126.7919 L159.2353,139.3772 L159.7819,151.9625 L158.7016,164.5478 L160.8596,177.1331 L158.8075,189.7184 L159.9,202.3037 " fill="none" style="stroke:#181818;stroke-width:0.65;stroke-dasharray:5.0,5.0;"/><polygon fill="#E2E2F0" points="26,6.5,26,6.5911,32.76,6.3205,39.52,6.5838,46.28,6.6732,53.04,6.1909,59.8,6.5,59.7871,6.4689,60.1889,6.5196,60.6556,6.7272,61.1676,7.0439,61.5238,6.9847,62.0981,7.4519,62.3197,7.5437,62.0361,7.807,62.3997,8.3383,62.8422,8.9024,62.8253,9.2762,63.05,9.75,63.0796,9.75,63.0362,17.146,63.1274,24.542,63.1536,31.938,63.3038,39.334,63.05,46.73,63.3187,46.8413,63.1316,47.3022,62.7712,47.6914,62.6645,48.1857,62.5696,48.6849,62.0981,49.0281,61.9785,48.7394,61.751,49.4901,61.1297,49.2901,60.8078,49.8129,60.1775,49.5914,59.8,49.98,59.8,49.9503,53.04,50.3013,46.28,49.9589,39.52,50.0256,32.76,50.1267,26,49.98,26.069,50.1466,25.5397,49.788,25.1284,49.7142,24.5262,49.1797,24.2087,49.3323,23.7019,49.0281,23.9214,49.119,23.6895,48.6422,23.5666,48.2105,22.9374,47.5691,22.6793,47.0815,22.75,46.73,22.4807,46.73,22.7245,39.334,22.6648,31.938,23.0453,24.542,22.6743,17.146,22.75,9.75,22.6127,9.6931,23.0318,9.3282,22.8638,8.7202,23.1133,8.2851,23.7713,8.0191,23.7019,7.4519,23.7741,7.6263,24.2833,7.5556,24.5678,6.9423,25.1337,7.0086,25.6383,6.9268,26,6.5" style="stroke:#181818;stroke-width:0.65;"/><text fill="#000000" font-family="xkcd Script" font-size="18.2" lengthAdjust="spacing" textLength="22.1" x="31.85" y="35.437">a:A</text><polygon fill="#E2E2F0" points="143.65,6.5,143.65,6.5911,150.15,6.3205,156.65,6.5838,163.15,6.6732,169.65,6.1909,176.15,6.5,176.1371,6.4689,176.5389,6.5196,177.0056,6.7272,177.5176,7.0439,177.8738,6.9847,178.4481,7.4519,178.6697,7.5437,178.3861,7.807,178.7497,8.3383,179.1922,8.9024,179.1753,9.2762,179.4,9.75,179.4296,9.75,179.3862,17.146,179.4774,24.542,179.5036,31.938,179.6538,39.334,179.4,46.73,179.6687,46.8413,179.4816,47.3022,179.1212,47.6914,179.0145,48.1857,178.9196,48.6849,178.4481,49.0281,178.3285,48.7394,178.101,49.4901,177.4797,49.2901,177.1578,49.8129,176.5275,49.5914,176.15,49.98,176.15,49.9503,169.65,50.3013,163.15,49.9589,156.65,50.0256,150.15,50.1267,143.65,49.98,143.719,50.1466,143.1897,49.788,142.7784,49.7142,142.1762,49.1797,141.8587,49.3323,141.3519,49.0281,141.5714,49.119,141.3395,48.6422,141.2166,48.2105,140.5874,47.5691,140.3293,47.0815,140.4,46.73,140.1307,46.73,140.3745,39.334,140.3148,31.938,140.6953,24.542,140.3243,17.146,140.4,9.75,140.2627,9.6931,140.6818,9.3282,140.5138,8.7202,140.7633,8.2851,141.4213,8.0191,141.3519,7.4519,141.4241,7.6263,141.9333,7.5556,142.2178,6.9423,142.7837,7.0086,143.2883,6.9268,143.65,6.5" style="stroke:#181818;stroke-width:0.65;"/><text fill="#000000" font-family="xkcd Script" font-size="18.2" lengthAdjust="spacing" textLength="20.8" x="149.5" y="35.437">b:B</text><polygon fill="#181818" points="27.3,90.3546,27.3338,90.4391,29.8333,91.2279,32.5311,92.5123,35.1643,93.6354,37.5852,94.2275,40.3,95.5546,40.2875,95.5233,37.6314,96.423,35.0383,97.4803,32.489,98.6471,29.7887,99.4364,27.3,100.7546,27.5399,100.7546,27.0269,98.6746,27.2143,96.5946,27.4872,94.5146,27.2628,92.4346,27.3,90.3546" style="stroke:#181818;stroke-width:1.3;"/><path d="M0,95.5546 L0,95.676 L7.02,95.3152 L14.04,95.6662 L21.06,95.7855 L28.08,95.1424 L35.1,95.5546 " fill="none" style="stroke:#181818;stroke-width:1.3;"/><text fill="#000000" font-family="xkcd Script" font-size="16.9" lengthAdjust="spacing" textLength="11.7" x="9.1" y="87.9003">...</text><polygon fill="#181818" points="144.3,132.0292,144.3338,132.1137,146.8333,132.9025,149.5311,134.1869,152.1643,135.31,154.5852,135.9021,157.3,137.2292,157.2875,137.1979,154.6314,138.0976,152.0383,139.1549,149.489,140.3217,146.7887,141.111,144.3,142.4292,144.5399,142.4292,144.0269,140.3492,144.2143,138.2692,144.4872,136.1892,144.2628,134.1092,144.3,132.0292" style="stroke:#181818;stroke-width:1.3;"/><path d="M42.9,137.2292 L42.9,137.5935 L56.55,136.511 L70.2,137.5642 L83.85,137.9219 L97.5,135.9926 L111.15,137.0944 L124.8,136.4899 L138.45,136.5644 L152.1,137.2292 " fill="none" style="stroke:#181818;stroke-width:1.3;"/><text fill="#000000" font-family="xkcd Script" font-size="16.9" lengthAdjust="spacing" textLength="85.8" x="52" y="129.5749">unMessage()</text><polygon fill="#181818" points="187.2,173.7037,187.2338,173.7883,189.7333,174.577,192.4311,175.8615,195.0643,176.9845,197.4852,177.5767,200.2,178.9037,200.1875,178.8725,197.5314,179.7721,194.9383,180.8294,192.389,181.9963,189.6887,182.7856,187.2,184.1037,187.4399,184.1037,186.9269,182.0237,187.1143,179.9437,187.3872,177.8637,187.1628,175.7837,187.2,173.7037" style="stroke:#181818;stroke-width:1.3;"/><path d="M159.9,178.9037 L159.9,179.0252 L166.92,178.6644 L173.94,179.0154 L180.96,179.1347 L187.98,178.4916 L195,178.9037 " fill="none" style="stroke:#181818;stroke-width:1.3;"/><text fill="#000000" font-family="xkcd Script" font-size="16.9" lengthAdjust="spacing" textLength="11.7" x="169" y="171.2495">...</text><!--MD5=[5bbcd00aff812c48d1e607ab62d50d9b]
@startuml
!include ecriture.pumlinclude
scale 1.3
skinparam sequenceMessageAlign left
participant "a:A" as A
participant "b:B" as B
-> A : ...
A -> B : unMessage()
B -> : ...
@enduml

@startuml
skinparam style strictuml
skinparam backgroundcolor transparent
skinparam defaultfontname xkcd Script
skinparam handwritten true
scale 1.3
skinparam sequenceMessageAlign left
participant "a:A" as A
participant "b:B" as B
-> A : ...
A -> B : unMessage()
B -> : ...
@enduml

PlantUML version 1.2022.6(Tue Jun 21 17:34:49 UTC 2022)
(GPL source distribution)
Java Runtime: OpenJDK Runtime Environment
JVM: OpenJDK 64-Bit Server VM
Default Encoding: UTF-8
Language: en
Country: null
--></g></svg>