<?xml version="1.0" encoding="UTF-8" standalone="no"?><svg xmlns="http://www.w3.org/2000/svg" xmlns:xlink="http://www.w3.org/1999/xlink" contentStyleType="text/css" height="204.6px" preserveAspectRatio="none" style="width:519px;height:204px;background:#00000000;" version="1.1" viewBox="0 0 519 204" width="519.2px" zoomAndPan="magnify"><defs/><g><path d="M218.9,43.3908 L219.2083,43.3908 L218.2923,54.4088 L219.1835,65.4268 L219.4862,76.4448 L217.8537,87.4629 L218.786,98.4809 L218.2745,109.4989 L218.3375,120.517 L218.8,131.535 L217.886,142.553 L219.712,153.5711 L217.9756,164.5891 L218.6099,175.6071 L219.5335,186.6252 L218.9,197.6432 " fill="none" style="stroke:#181818;stroke-width:0.55;stroke-dasharray:5.0,5.0;"/><path d="M379.5,43.3908 L379.8083,43.3908 L378.8923,54.4088 L379.7835,65.4268 L380.0862,76.4448 L378.4537,87.4629 L379.386,98.4809 L378.8745,109.4989 L378.9375,120.517 L379.4,131.535 L378.486,142.553 L380.312,153.5711 L378.5756,164.5891 L379.2099,175.6071 L380.1335,186.6252 L379.5,197.6432 " fill="none" style="stroke:#181818;stroke-width:0.55;stroke-dasharray:5.0,5.0;"/><path d="M455.4,43.3908 L455.7083,43.3908 L454.7923,54.4088 L455.6835,65.4268 L455.9862,76.4448 L454.3537,87.4629 L455.286,98.4809 L454.7745,109.4989 L454.8375,120.517 L455.3,131.535 L454.386,142.553 L456.212,153.5711 L454.4756,164.5891 L455.1099,175.6071 L456.0335,186.6252 L455.4,197.6432 " fill="none" style="stroke:#181818;stroke-width:0.55;stroke-dasharray:5.0,5.0;"/><polygon fill="#E2E2F0" points="184.25,5.5,184.25,5.7312,195.8,5.0442,207.35,5.7126,218.9,5.9396,230.45,4.7153,242,5.4145,253.55,5.5,253.4902,5.3555,253.8851,5.5312,254.3183,5.7991,254.6197,5.7491,255.1833,6.3319,255.4945,6.3055,255.281,6.217,255.5886,6.6666,255.9631,7.1439,255.9488,7.4601,256.162,7.8707,256.3,8.25,256.2883,8.25,256.3655,14.5082,256.3877,20.7663,256.5148,27.0245,256.5461,33.2826,256.3,39.5408,256.5301,39.6361,256.2252,39.9654,256.1349,40.3836,256.0546,40.806,255.4113,40.9952,255.4945,41.4853,255.5898,41.7151,255.064,41.5459,254.7916,41.9883,254.2584,41.8009,253.9293,42.1065,253.55,42.2908,253.55,43.1065,242,42.2371,230.45,42.4066,218.9,42.6632,207.35,42.7486,195.8,42.2865,184.25,42.2908,184.2903,42.388,183.7808,41.9358,183.5121,42.0649,183.1602,41.9932,182.7567,41.797,182.3055,41.4853,182.5131,41.5713,181.9807,41.0286,181.7623,40.616,181.6117,40.2314,181.6411,39.9214,181.5,39.5408,181.4279,39.5408,181.7499,33.2826,181.436,27.0245,181.3742,20.7663,181.5837,14.5082,181.5,8.25,181.2741,8.1564,181.4852,7.7882,182.042,7.5632,182.1309,7.1444,182.3932,6.7974,182.3055,6.3055,182.2603,6.1964,182.7392,6.2525,183.1661,6.1833,183.4059,5.6622,183.8476,5.6286,184.25,5.5" style="stroke:#181818;stroke-width:0.55;"/><text fill="#000000" font-family="xkcd Script" font-size="15.4" lengthAdjust="spacing" textLength="59.4" x="189.2" y="29.9852">:Registre</text><polygon fill="#E2E2F0" points="348.15,5.5,348.15,5.7312,358.6,5.0442,369.05,5.7126,379.5,5.9396,389.95,4.7153,400.4,5.4145,410.85,5.5,410.7902,5.3555,411.1851,5.5312,411.6183,5.7991,411.9197,5.7491,412.4833,6.3319,412.7945,6.3055,412.581,6.217,412.8886,6.6666,413.2631,7.1439,413.2488,7.4601,413.462,7.8707,413.6,8.25,413.5883,8.25,413.6655,14.5082,413.6877,20.7663,413.8148,27.0245,413.8461,33.2826,413.6,39.5408,413.8301,39.6361,413.5252,39.9654,413.4349,40.3836,413.3546,40.806,412.7113,40.9952,412.7945,41.4853,412.8898,41.7151,412.364,41.5459,412.0916,41.9883,411.5584,41.8009,411.2293,42.1065,410.85,42.2908,410.85,43.1065,400.4,42.2371,389.95,42.4066,379.5,42.6632,369.05,42.7486,358.6,42.2865,348.15,42.2908,348.1903,42.388,347.6808,41.9358,347.4121,42.0649,347.0602,41.9932,346.6567,41.797,346.2055,41.4853,346.4131,41.5713,345.8807,41.0286,345.6623,40.616,345.5117,40.2314,345.5411,39.9214,345.4,39.5408,345.3279,39.5408,345.6499,33.2826,345.336,27.0245,345.2742,20.7663,345.4837,14.5082,345.4,8.25,345.1741,8.1564,345.3852,7.7882,345.942,7.5632,346.0309,7.1444,346.2932,6.7974,346.2055,6.3055,346.1603,6.1964,346.6392,6.2525,347.0661,6.1833,347.3059,5.6622,347.7476,5.6286,348.15,5.5" style="stroke:#181818;stroke-width:0.55;"/><text fill="#000000" font-family="xkcd Script" font-size="15.4" lengthAdjust="spacing" textLength="52.8" x="353.1" y="29.9852">:Magasin</text><polygon fill="#E2E2F0" points="427.35,5.5,427.35,5.7312,438.79,5.0442,450.23,5.7126,461.67,5.9396,473.11,4.7153,484.55,5.5,484.5391,5.4737,484.8791,5.5166,485.274,5.6923,485.7072,5.9602,486.0086,5.9102,486.4945,6.3055,486.6821,6.3831,486.4421,6.6059,486.7497,7.0555,487.1241,7.5328,487.1099,7.8491,487.3,8.25,487.325,8.25,487.2883,14.5082,487.3655,20.7663,487.3877,27.0245,487.5148,33.2826,487.3,39.5408,487.5273,39.6349,487.369,40.025,487.0641,40.3543,486.9738,40.7725,486.8935,41.1949,486.4945,41.4853,486.3933,41.241,486.2008,41.8762,485.6751,41.707,485.4027,42.1494,484.8694,41.962,484.55,42.2908,484.55,42.2154,473.11,43.1065,461.67,42.2371,450.23,42.4066,438.79,42.6632,427.35,42.2908,427.4084,42.4318,426.9605,42.1283,426.6125,42.0659,426.103,41.6136,425.8343,41.7427,425.4055,41.4853,425.5912,41.5622,425.395,41.1588,425.2909,40.7935,424.7585,40.2508,424.5402,39.8382,424.6,39.5408,424.3722,39.5408,424.5784,33.2826,424.5279,27.0245,424.8499,20.7663,424.536,14.5082,424.6,8.25,424.4838,8.2019,424.8384,7.8931,424.6963,7.3786,424.9074,7.0104,425.4642,6.7854,425.4055,6.3055,425.4666,6.453,425.8974,6.3932,426.1381,5.8743,426.617,5.9303,427.0439,5.8611,427.35,5.5" style="stroke:#181818;stroke-width:0.55;"/><text fill="#000000" font-family="xkcd Script" font-size="15.4" lengthAdjust="spacing" textLength="47.3" x="432.3" y="29.9852">v:Vente</text><polygon fill="#181818" points="205.7,76.4539,205.7286,76.5254,207.8436,77.1928,210.1263,78.2797,212.3544,79.2299,214.4029,79.731,216.7,80.8539,216.6894,80.8274,214.4419,81.5887,212.2478,82.4833,210.0907,83.4707,207.8059,84.1385,205.7,85.2539,205.903,85.2539,205.4689,83.4939,205.6275,81.7339,205.8584,79.9739,205.6685,78.2139,205.7,76.4539" style="stroke:#181818;stroke-width:1.1;"/><path d="M0,80.8539 L0,81.1621 L11.1737,80.2462 L22.3474,81.1374 L33.5211,81.4401 L44.6947,79.8076 L55.8684,80.7399 L67.0421,80.2283 L78.2158,80.2914 L89.3895,80.7539 L100.5632,79.8399 L111.7368,81.6659 L122.9105,79.9295 L134.0842,80.5638 L145.2579,81.4874 L156.4316,80.7281 L167.6053,80.9539 L178.7789,80.807 L189.9526,81.1157 L201.1263,81.2046 L212.3,80.8539 " fill="none" style="stroke:#181818;stroke-width:1.1;"/><text fill="#000000" font-family="xkcd Script" font-size="14.3" lengthAdjust="spacing" textLength="192.5" x="13.2" y="74.3772">saisirClientPourRemise(idClient)</text><polygon fill="#181818" points="366.3,124.9485,366.3286,125.0201,368.4436,125.6875,370.7263,126.7743,372.9544,127.7246,375.0029,128.2257,377.3,129.3485,377.2894,129.3221,375.0419,130.0833,372.8478,130.978,370.6907,131.9653,368.4059,132.6332,366.3,133.7485,366.503,133.7485,366.0689,131.9885,366.2275,130.2285,366.4584,128.4685,366.2685,126.7085,366.3,124.9485" style="stroke:#181818;stroke-width:1.1;"/><path d="M218.9,129.3485 L218.9,129.6568 L229.9,128.7409 L240.9,129.632 L251.9,129.9347 L262.9,128.3022 L273.9,129.2346 L284.9,128.723 L295.9,128.7861 L306.9,129.2486 L317.9,128.3345 L328.9,130.1605 L339.9,128.4241 L350.9,129.0585 L361.9,129.9821 L372.9,129.3485 " fill="none" style="stroke:#181818;stroke-width:1.1;"/><text fill="#000000" font-family="xkcd Script" font-size="14.3" lengthAdjust="spacing" textLength="134.2" x="232.1" y="122.8719">c = getClient(idClient)</text><path d="M385,95.1539 L385.6165,95.1539 L383.7847,105.2739 L385.567,115.3939 L386.1724,125.5139 L382.9074,135.6339 L385,145.7539 L385,145.5259 L395.5417,144.5028 L406.0833,144.6289 L416.625,145.5539 L427.1667,143.7258 L437.7083,147.3779 L448.25,143.905 L458.7917,145.1737 L469.3333,147.0209 L479.875,145.5023 L490.4167,145.954 L500.9583,145.6602 L511.5,145.7539 L511.6746,145.7539 L511.7338,137.8339 L512.0727,129.9139 L512.1561,121.9939 L512.1642,114.0739 L511.5,106.1539 L511.676,106.3299 L509.6205,104.2744 L507.5855,102.2394 L504.4014,99.0552 L503.1691,97.823 L500.5,95.1539 L500.5,94.2841 L490,96.7197 L479.5,93.7018 L469,94.9529 L458.5,97.3292 L448,95.0109 L437.5,95.4628 L427,96.1472 L416.5,96.3748 L406,95.1424 L395.5,95.9964 L385,95.1539 " fill="#FEFFDD" style="stroke:#181818;stroke-width:0.55;"/><path d="M500.5,95.1539 L499.9403,95.1539 L500.7781,97.3539 L501.036,99.5539 L500.9347,101.7539 L501.0994,103.9539 L500.5,106.1539 L500.5,105.6815 L502.7,105.5162 L504.9,105.5463 L507.1,106.0963 L509.3,105.9617 L511.5,106.1539 L511.9711,106.625 L509.1792,103.8331 L506.8628,101.5167 L505.0578,99.7117 L502.239,96.8928 L500.5,95.1539 " fill="#FEFFDD" style="stroke:#181818;stroke-width:0.55;"/><text fill="#000000" font-family="xkcd Script" font-size="14.3" lengthAdjust="spacing" textLength="97.9" x="391.6" y="116.2403">Selon Expert et</text><text fill="#000000" font-family="xkcd Script" font-size="14.3" font-weight="bold" lengthAdjust="spacing" textLength="103.7609" x="391.6" y="136.1034">les ID en objets</text><polygon fill="#181818" points="442.75,173.4432,442.7786,173.5148,444.8936,174.1821,447.1763,175.269,449.4044,176.2193,451.4529,176.7203,453.75,177.8432,453.7394,177.8167,451.4919,178.578,449.2978,179.4726,447.1407,180.46,444.8559,181.1278,442.75,182.2432,442.953,182.2432,442.5189,180.4832,442.6775,178.7232,442.9084,176.9632,442.7185,175.2032,442.75,173.4432" style="stroke:#181818;stroke-width:1.1;"/><path d="M218.9,177.8432 L218.9,178.1515 L229.8738,177.2355 L240.8476,178.1267 L251.8214,178.4294 L262.7952,176.7969 L273.769,177.7292 L284.7429,177.2177 L295.7167,177.2807 L306.6905,177.7432 L317.6643,176.8292 L328.6381,178.6552 L339.6119,176.9188 L350.5857,177.5531 L361.5595,178.4767 L372.5333,177.7174 L383.5071,177.9433 L394.481,177.7963 L405.4548,178.105 L416.4286,178.1939 L427.4024,178.7022 L438.3762,178.8274 L449.35,177.8432 " fill="none" style="stroke:#181818;stroke-width:1.1;"/><text fill="#000000" font-family="xkcd Script" font-size="14.3" lengthAdjust="spacing" textLength="192.5" x="241.175" y="171.3665">saisirClientPourRemise(c:Client)</text><!--MD5=[cd6c7dfa0d5c0a4c93655eccad0f4608]
@startuml
!include ecriture.pumlinclude
scale 1.1
skinparam sequenceMessageAlign center
participant ":Registre" as R
participant ":Magasin" as M
participant "v:Vente" as v
-> R : saisirClientPourRemise(idClient)
R -> M : c = getClient(idClient)
note right: Selon Expert et\n**les ID en objets**
R -> v : saisirClientPourRemise(c:Client)
@enduml

@startuml
skinparam style strictuml
skinparam backgroundcolor transparent
skinparam defaultfontname xkcd Script
skinparam handwritten true
scale 1.1
skinparam sequenceMessageAlign center
participant ":Registre" as R
participant ":Magasin" as M
participant "v:Vente" as v
-> R : saisirClientPourRemise(idClient)
R -> M : c = getClient(idClient)
note right: Selon Expert et\n**les ID en objets**
R -> v : saisirClientPourRemise(c:Client)
@enduml

PlantUML version 1.2022.6(Tue Jun 21 17:34:49 UTC 2022)
(GPL source distribution)
Java Runtime: OpenJDK Runtime Environment
JVM: OpenJDK 64-Bit Server VM
Default Encoding: UTF-8
Language: en
Country: null
--></g></svg>