<?xml version="1.0" encoding="UTF-8" standalone="no"?><svg xmlns="http://www.w3.org/2000/svg" xmlns:xlink="http://www.w3.org/1999/xlink" contentStyleType="text/css" height="187.2px" preserveAspectRatio="none" style="width:262px;height:187px;background:#00000000;" version="1.1" viewBox="0 0 262 187" width="262.6px" zoomAndPan="magnify"><defs/><g><polygon points="13,73.38,13,73.6532,25.7263,72.8414,38.4526,73.6313,51.1789,73.8996,63.9053,72.4526,76.6316,73.279,89.3579,72.8255,102.0842,72.8814,114.8105,73.2914,127.5368,72.4812,140.2632,74.0997,152.9895,72.5606,165.7158,73.1229,178.4421,73.9415,191.1684,73.2685,203.8947,73.4687,216.6211,73.3385,229.3474,73.6121,242.0737,73.6909,254.8,73.38,255.5614,73.38,255.6724,87.3557,255.683,101.3315,255.131,115.3073,255.4027,129.283,255.7129,143.2588,254.8,157.2345,254.8,156.297,242.0737,158.1166,229.3474,156.8491,216.6211,157.9285,203.8947,156.591,191.1684,157.1455,178.4421,158.1986,165.7158,157.1712,152.9895,157.3714,140.2632,157.6748,127.5368,157.7757,114.8105,157.2295,102.0842,157.6079,89.3579,156.4904,76.6316,157.6043,63.9053,157.9472,51.1789,157.8124,38.4526,158.0315,25.7263,156.6065,13,157.2345,12.1522,157.2345,12.1922,143.2588,12.9235,129.283,12.7445,115.3073,13.8858,101.3315,12.7729,87.3557,13,73.38" style="stroke:#000000;stroke-width:1.9500000000000002;fill:none;"/><path d="M66.3,51.28 L66.6643,51.28 L65.5818,64.0854 L66.635,76.8909 L66.9928,89.6964 L65.0634,102.5018 L66.1653,115.3073 L65.5607,128.1127 L65.6353,140.9182 L66.1819,153.7236 L65.1016,166.5291 L66.3,179.3345 " fill="none" style="stroke:#181818;stroke-width:0.65;stroke-dasharray:5.0,5.0;"/><path d="M213.2,141.3446 L213.3214,141.3446 L212.9606,148.9426 L213.3117,156.5406 L213.4309,164.1386 L212.7878,171.7366 L213.2,179.3345 " fill="none" style="stroke:#181818;stroke-width:0.65;stroke-dasharray:5.0,5.0;"/><polygon fill="#E2E2F0" points="29.25,6.5,29.25,6.7732,41.6,5.9614,53.95,6.7513,66.3,7.0196,78.65,5.5726,91,6.399,103.35,6.5,103.2793,6.3293,103.746,6.5368,104.2579,6.8535,104.6142,6.7944,105.2803,7.4832,105.6481,7.4519,105.3958,7.3474,105.7593,7.8787,106.2018,8.4428,106.1849,8.8165,106.4369,9.3017,106.6,9.75,106.5862,9.75,106.6774,17.146,106.7036,24.542,106.8538,31.938,106.8908,39.334,106.6,46.73,106.8719,46.8426,106.5116,47.2318,106.4048,47.7261,106.31,48.2253,105.5498,48.4489,105.6481,49.0281,105.7606,49.2997,105.1393,49.0998,104.8174,49.6226,104.1871,49.401,103.7983,49.7622,103.35,49.98,103.35,50.9441,91,49.9166,78.65,50.1169,66.3,50.4202,53.95,50.5211,41.6,49.9749,29.25,49.98,29.2976,50.095,28.6955,49.5604,28.3779,49.7131,27.962,49.6283,27.4852,49.3964,26.9519,49.0281,27.1973,49.1297,26.5681,48.4884,26.31,48.0007,26.132,47.5462,26.1668,47.1798,26,46.73,25.9148,46.73,26.2953,39.334,25.9243,31.938,25.8513,24.542,26.0989,17.146,26,9.75,25.733,9.6394,25.9825,9.2043,26.6406,8.9384,26.7456,8.4434,27.0556,8.0333,26.9519,7.4519,26.8985,7.3231,27.4645,7.3893,27.9691,7.3075,28.2524,6.6916,28.7745,6.652,29.25,6.5" style="stroke:#181818;stroke-width:0.65;"/><text fill="#000000" font-family="xkcd Script" font-size="18.2" lengthAdjust="spacing" textLength="62.4" x="35.1" y="35.437">:Plateau</text><path d="M13,73.38 L13,74.1086 L25.9188,71.9437 L38.8375,74.05 L51.7563,74.7655 L64.675,70.9069 L77.5938,73.1106 L90.5125,71.9015 L103.4313,73.38 L102.9881,73.38 L103.3525,75.9949 L102.6323,78.6098 L104.071,81.2247 L102.7029,83.8397 L103.4313,86.4546 L103.2697,86.293 L101.1842,89.4075 L98.1612,91.5845 L95.687,94.3103 L93.0051,96.8285 L90.4313,99.4546 L90.4313,100.0735 L77.526,100.2836 L64.6208,101.485 L51.7156,101.7809 L38.8104,101.8093 L25.9052,100.3373 L13,99.4546 L13.5357,99.4546 L13.8115,94.2397 L12.1666,89.0247 L13.7841,83.8098 L12.6574,78.5949 L13,73.38 " fill="#EEEEEE" style="stroke:#000000;stroke-width:1.9500000000000002;"/><polygon fill="none" points="13,73.38,13,73.6532,25.7263,72.8414,38.4526,73.6313,51.1789,73.8996,63.9053,72.4526,76.6316,73.279,89.3579,72.8255,102.0842,72.8814,114.8105,73.2914,127.5368,72.4812,140.2632,74.0997,152.9895,72.5606,165.7158,73.1229,178.4421,73.9415,191.1684,73.2685,203.8947,73.4687,216.6211,73.3385,229.3474,73.6121,242.0737,73.6909,254.8,73.38,255.5614,73.38,255.6724,87.3557,255.683,101.3315,255.131,115.3073,255.4027,129.283,255.7129,143.2588,254.8,157.2345,254.8,156.297,242.0737,158.1166,229.3474,156.8491,216.6211,157.9285,203.8947,156.591,191.1684,157.1455,178.4421,158.1986,165.7158,157.1712,152.9895,157.3714,140.2632,157.6748,127.5368,157.7757,114.8105,157.2295,102.0842,157.6079,89.3579,156.4904,76.6316,157.6043,63.9053,157.9472,51.1789,157.8124,38.4526,158.0315,25.7263,156.6065,13,157.2345,12.1522,157.2345,12.1922,143.2588,12.9235,129.283,12.7445,115.3073,13.8858,101.3315,12.7729,87.3557,13,73.38" style="stroke:#000000;stroke-width:1.9500000000000002;"/><text fill="#000000" font-family="xkcd Script" font-size="16.9" font-weight="bold" lengthAdjust="spacing" textLength="31.9313" x="32.5" y="93.1003">loop</text><path d="M182,130.7292 L182.0451,130.8419 L179.3111,129.4669 L176.8415,128.7528 L174.2858,127.8236 L171.4469,126.1864 L169,125.5292 " fill="none" style="stroke:#181818;stroke-width:1.3;"/><path d="M182,130.7292 L182.0451,130.8419 L179.3111,131.5469 L176.8415,132.9128 L174.2858,134.0636 L171.4469,134.5064 L169,135.9292 " fill="none" style="stroke:#181818;stroke-width:1.3;"/><path d="M66.3,130.7292 L66.3,131.0935 L79.3,130.011 L92.3,131.0642 L105.3,131.4219 L118.3,129.4926 L131.3,130.5944 L144.3,129.9899 L157.3,130.0644 L170.3,130.611 L183.3,130.7292 " fill="none" style="stroke:#181818;stroke-width:1.3;stroke-dasharray:2.0,2.0;"/><text fill="#000000" font-family="xkcd Script" font-size="16.9" lengthAdjust="spacing" textLength="87.1" x="75.4" y="123.0749">create(nom)</text><polygon fill="#E2E2F0" points="187.85,99.4546,187.85,99.5456,197.99,99.275,208.13,99.5383,218.27,99.6278,228.41,99.1454,238.55,99.4546,238.5371,99.4235,238.9389,99.4742,239.4056,99.6818,239.9176,99.9984,240.2738,99.9393,240.8481,100.4065,241.0697,100.4983,240.7861,100.7616,241.1497,101.2929,241.5922,101.857,241.5753,102.2307,241.8,102.7046,241.8296,102.7046,241.7862,110.1006,241.8774,117.4966,241.9036,124.8926,242.0538,132.2886,241.8,139.6845,242.0687,139.7958,241.8816,140.2568,241.5212,140.646,241.4145,141.1403,241.3196,141.6395,240.8481,141.9826,240.7285,141.6939,240.501,142.4447,239.8797,142.2447,239.5578,142.7675,238.9275,142.546,238.55,142.9345,238.55,142.9049,228.41,143.2559,218.27,142.9134,208.13,142.9802,197.99,143.0813,187.85,142.9345,187.919,143.1012,187.3897,142.7426,186.9784,142.6688,186.3762,142.1342,186.0587,142.2869,185.5519,141.9826,185.7714,142.0736,185.5395,141.5967,185.4166,141.1651,184.7874,140.5237,184.5293,140.036,184.6,139.6845,184.3307,139.6845,184.5745,132.2886,184.5148,124.8926,184.8953,117.4966,184.5243,110.1006,184.6,102.7046,184.4627,102.6477,184.8818,102.2828,184.7138,101.6747,184.9633,101.2396,185.6213,100.9737,185.5519,100.4065,185.6241,100.5809,186.1333,100.5101,186.4178,99.8969,186.9837,99.9631,187.4883,99.8813,187.85,99.4546" style="stroke:#181818;stroke-width:0.65;"/><text fill="#000000" font-family="xkcd Script" font-size="18.2" lengthAdjust="spacing" textLength="39" x="193.7" y="128.3916">:Case</text><!--MD5=[6573af2b8c9e4edab12d452be635992a]
@startuml
!include ecriture.pumlinclude
scale 1.3
skinparam sequenceMessageAlign left
participant ":Plateau" as p
participant ":Case" as c
loop
create c
p - ->> c : create(nom)
end loop
@enduml

@startuml
skinparam style strictuml
skinparam backgroundcolor transparent
skinparam defaultfontname xkcd Script
skinparam handwritten true
scale 1.3
skinparam sequenceMessageAlign left
participant ":Plateau" as p
participant ":Case" as c
loop
create c
p - ->> c : create(nom)
end loop
@enduml

PlantUML version 1.2022.6(Tue Jun 21 17:34:49 UTC 2022)
(GPL source distribution)
Java Runtime: OpenJDK Runtime Environment
JVM: OpenJDK 64-Bit Server VM
Default Encoding: UTF-8
Language: en
Country: null
--></g></svg>