<?xml version="1.0" encoding="UTF-8" standalone="no"?><svg xmlns="http://www.w3.org/2000/svg" xmlns:xlink="http://www.w3.org/1999/xlink" contentStyleType="text/css" height="211.2px" preserveAspectRatio="none" style="width:348px;height:211px;background:#00000000;" version="1.1" viewBox="0 0 348 211" width="348.7px" zoomAndPan="magnify"><defs/><g><path d="M132,64.7815 L132.3083,64.7815 L131.3923,75.4625 L132.2835,86.1434 L132.5862,96.8244 L130.9537,107.5053 L131.886,118.1863 L131.3745,128.8673 L131.4375,139.5482 L131.9,150.2292 L130.986,160.9101 L132.812,171.5911 L131.0756,182.272 L131.7099,192.953 L132,203.634 " fill="none" style="stroke:#181818;stroke-width:0.55;stroke-dasharray:5.0,5.0;"/><path d="M275.55,64.7815 L275.8583,64.7815 L274.9423,75.4625 L275.8335,86.1434 L276.1362,96.8244 L274.5037,107.5053 L275.436,118.1863 L274.9245,128.8673 L274.9875,139.5482 L275.45,150.2292 L274.536,160.9101 L276.362,171.5911 L274.6256,182.272 L275.2599,192.953 L275.55,203.634 " fill="none" style="stroke:#181818;stroke-width:0.55;stroke-dasharray:5.0,5.0;"/><polygon fill="#E2E2F0" points="100.65,26.8908,100.65,27.122,111.1,26.435,121.55,27.1034,132,27.3304,142.45,26.106,152.9,26.8053,163.35,26.8908,163.2902,26.7463,163.6851,26.9219,164.1183,27.1898,164.4197,27.1398,164.9833,27.7227,165.2945,27.6962,165.081,27.6078,165.3886,28.0574,165.7631,28.5346,165.7488,28.8509,165.962,29.2614,166.1,29.6408,166.0883,29.6408,166.1655,35.8989,166.1877,42.1571,166.3148,48.4152,166.3461,54.6734,166.1,60.9315,166.3301,61.0268,166.0252,61.3561,165.9349,61.7744,165.8546,62.1968,165.2113,62.3859,165.2945,62.8761,165.3898,63.1059,164.864,62.9367,164.5916,63.3791,164.0584,63.1916,163.7293,63.4972,163.35,63.6815,163.35,64.4973,152.9,63.6279,142.45,63.7973,132,64.054,121.55,64.1394,111.1,63.6772,100.65,63.6815,100.6903,63.7788,100.1808,63.3265,99.9121,63.4557,99.5602,63.3839,99.1567,63.1877,98.7055,62.8761,98.9131,62.9621,98.3807,62.4194,98.1623,62.0067,98.0117,61.6221,98.0411,61.3122,97.9,60.9315,97.8279,60.9315,98.1499,54.6734,97.836,48.4152,97.7742,42.1571,97.9837,35.8989,97.9,29.6408,97.6741,29.5472,97.8852,29.179,98.442,28.954,98.5309,28.5352,98.7932,28.1882,98.7055,27.6962,98.6603,27.5872,99.1392,27.6432,99.5661,27.574,99.8059,27.0529,100.2476,27.0194,100.65,26.8908" style="stroke:#181818;stroke-width:0.55;"/><text fill="#000000" font-family="xkcd Script" font-size="15.4" lengthAdjust="spacing" textLength="52.8" x="105.6" y="51.3759">:Plateau</text><polygon fill="#E2E2F0" points="212.3,5.5,212.3,5.7312,222.9333,5.0442,233.5667,5.7126,244.2,5.9396,254.8333,4.7153,265.4667,5.4145,276.1,5.0309,286.7333,5.0782,297.3667,5.425,308,4.7395,318.6333,6.109,329.2667,4.8067,339.9,5.5,339.8722,5.433,340.3495,5.8074,340.6658,5.7931,341.0763,6.0064,341.4512,6.1335,341.8445,6.3055,341.905,6.3305,342.0866,6.7279,342.3651,7.1655,342.5551,7.5663,342.719,7.9564,342.65,8.25,342.9301,8.25,343.1599,18.7863,343.4225,29.3226,341.8567,39.8589,343.3964,50.3952,342.65,60.9315,342.5496,60.8899,342.6697,61.3953,342.1601,61.6399,342.1435,62.0886,342.2569,62.5912,341.8445,62.8761,341.8377,62.8595,341.4704,63.0728,341.1142,63.3129,340.7362,63.5003,340.2884,63.5191,339.9,63.6815,339.9,63.9974,329.2667,63.0518,318.6333,63.9943,308,64.2845,297.3667,64.1705,286.7333,64.3558,276.1,63.1501,265.4667,62.9641,254.8333,62.998,244.2,63.6167,233.5667,63.4653,222.9333,64.4311,212.3,63.6815,212.2755,63.6223,211.863,63.4042,211.5542,63.4367,211.0397,62.9723,210.6715,62.8613,210.3555,62.8761,210.5753,62.9671,210.342,62.5483,210.2821,62.2013,209.7632,61.6642,209.8192,61.3652,209.55,60.9315,210.1995,60.9315,209.0304,50.3952,209.4446,39.8589,209.6886,29.3226,210.2669,18.7863,209.55,8.25,209.5486,8.2494,209.8678,7.926,209.6846,7.3945,209.8038,6.9882,210.365,6.765,210.3555,6.3055,210.2549,6.0626,210.8158,6.3168,211.1623,6.0533,211.4846,5.7314,211.8615,5.5412,212.3,5.5" style="stroke:#181818;stroke-width:0.55;"/><text fill="#000000" font-family="xkcd Script" font-size="15.4" lengthAdjust="spacing" textLength="30.8" x="260.7" y="29.9852">cMap</text><text fill="#000000" font-family="xkcd Script" font-size="15.4" lengthAdjust="spacing" textLength="117.7" x="217.25" y="51.3759">:Map&lt;String,Case&gt;</text><polygon fill="#181818" points="118.8,121.0077,118.8286,121.0793,120.9436,121.7467,123.2263,122.8335,125.4544,123.7838,127.5029,124.2849,129.8,125.4077,129.7894,125.3813,127.5419,126.1425,125.3478,127.0372,123.1907,128.0245,120.9059,128.6924,118.8,129.8077,119.003,129.8077,118.5689,128.0477,118.7275,126.2877,118.9584,124.5277,118.7685,122.7677,118.8,121.0077" style="stroke:#181818;stroke-width:1.1;"/><path d="M0,125.4077 L0,125.716 L11.4,124.8001 L22.8,125.6912 L34.2,125.9939 L45.6,124.3614 L57,125.2938 L68.4,124.7822 L79.8,124.8453 L91.2,125.3078 L102.6,124.3937 L114,126.2197 L125.4,125.4077 " fill="none" style="stroke:#181818;stroke-width:1.1;"/><text fill="#000000" font-family="xkcd Script" font-size="14.3" lengthAdjust="spacing" textLength="105.6" x="13.2" y="118.9311">s = getCase(nom)</text><path d="M137.5,81.2815 L138.1165,81.2815 L136.2847,93.0148 L138.067,104.7482 L138.6724,116.4815 L135.4074,128.2148 L137.272,139.9482 L137.5,151.6815 L137.5,150.4305 L148.1765,150.5566 L158.8529,151.4816 L169.5294,149.6535 L180.2059,153.3055 L190.8824,149.8327 L201.5588,151.1014 L212.2353,152.9486 L222.9118,151.4299 L233.5882,151.8817 L244.2647,151.5878 L254.9412,152.2052 L265.6176,152.383 L276.2941,153.3995 L286.9706,153.6499 L297.6471,153.674 L308.3235,152.4284 L319,151.6815 L320.3598,151.6815 L321.0599,139.8015 L316.8845,127.9215 L320.9903,116.0415 L318.1303,104.1615 L319,92.2815 L319.3691,92.6506 L316.4577,89.7393 L314.5526,87.8341 L312.9127,86.1942 L310.1663,83.4478 L308,81.2815 L308,81.5904 L297.3438,82.2748 L286.6875,82.5025 L276.0313,81.2701 L265.375,82.124 L254.7188,79.6024 L244.0625,82.1157 L233.4063,82.8895 L222.75,82.5855 L212.0938,83.0797 L201.4375,79.8645 L190.7813,79.3684 L180.125,79.4587 L169.4688,81.1088 L158.8125,80.705 L148.1563,83.2803 L137.5,81.2815 " fill="#FEFFDD" style="stroke:#181818;stroke-width:0.55;"/><path d="M308,81.2815 L307.8292,81.2815 L307.6646,83.4815 L308.2232,85.6815 L307.348,87.8815 L307.4924,90.0815 L308,92.2815 L308,92.916 L310.2,92.7075 L312.4,92.9997 L314.6,91.9669 L316.8,92.5936 L319,92.2815 L319.4082,92.6897 L316.4734,89.7549 L314.5337,87.8152 L312.4871,85.7686 L310.6506,83.9321 L308,81.2815 " fill="#FEFFDD" style="stroke:#181818;stroke-width:0.55;"/><text fill="#000000" font-family="xkcd Script" font-size="14.3" lengthAdjust="spacing" textLength="158.4" x="144.1" y="102.368">Plateau agrège toutes les</text><text fill="#000000" font-family="xkcd Script" font-size="14.3" lengthAdjust="spacing" textLength="152.9" x="144.1" y="122.2311">Cases et possède un Map</text><text fill="#000000" font-family="xkcd Script" font-size="14.3" lengthAdjust="spacing" textLength="125.4" x="144.1" y="142.0942">avec nom comme clé.</text><polygon fill="#181818" points="262.9,179.434,262.9286,179.5055,265.0436,180.1729,267.3263,181.2598,269.5544,182.21,271.6029,182.7111,273.9,183.834,273.8894,183.8075,271.6419,184.5688,269.4478,185.4634,267.2907,186.4507,265.0059,187.1186,262.9,188.234,263.103,188.234,262.6689,186.474,262.8275,184.714,263.0584,182.954,262.8685,181.194,262.9,179.434" style="stroke:#181818;stroke-width:1.1;"/><path d="M132,183.834 L132,184.1422 L142.5769,183.2263 L153.1538,184.1174 L163.7308,184.4201 L174.3077,182.7876 L184.8846,183.72 L195.4615,183.2084 L206.0385,183.2715 L216.6154,183.734 L227.1923,182.8199 L237.7692,184.646 L248.3462,182.9095 L258.9231,183.5439 L269.5,183.834 " fill="none" style="stroke:#181818;stroke-width:1.1;"/><text fill="#000000" font-family="xkcd Script" font-size="14.3" lengthAdjust="spacing" textLength="117.7" x="145.2" y="177.3573">c = get(nom) : Case</text><!--MD5=[f177b1685da23f5e8bab1565f741fed3]
@startuml
!include ecriture.pumlinclude
scale 1.1
skinparam sequenceMessageAlign center
participant ":Plateau" as P
participant "cMap\n:Map<String,Case>" as m
-> P : s = getCase(nom)
note right : Plateau agrège toutes les\nCases et possède un Map\navec nom comme clé.
'P -> P : cMap = getToutesCases
P -> m : c = get(nom) : Case
@enduml

@startuml
skinparam style strictuml
skinparam backgroundcolor transparent
skinparam defaultfontname xkcd Script
skinparam handwritten true
scale 1.1
skinparam sequenceMessageAlign center
participant ":Plateau" as P
participant "cMap\n:Map<String,Case>" as m
-> P : s = getCase(nom)
note right : Plateau agrège toutes les\nCases et possède un Map\navec nom comme clé.
P -> m : c = get(nom) : Case
@enduml

PlantUML version 1.2022.6(Tue Jun 21 17:34:49 UTC 2022)
(GPL source distribution)
Java Runtime: OpenJDK Runtime Environment
JVM: OpenJDK 64-Bit Server VM
Default Encoding: UTF-8
Language: en
Country: null
--></g></svg>