<?xml version="1.0" encoding="UTF-8" standalone="no"?><svg xmlns="http://www.w3.org/2000/svg" xmlns:xlink="http://www.w3.org/1999/xlink" contentStyleType="text/css" height="639px" preserveAspectRatio="none" style="width:654px;height:639px;background:#FFFFFF;" version="1.1" viewBox="0 0 654 639" width="654px" zoomAndPan="magnify"><defs/><g><rect fill="#FFFFFF" height="60.8906" rx="7.5" ry="7.5" style="stroke:#000000;stroke-width:1.0;" width="495" x="78" y="18"/><text fill="#000000" font-family="sans-serif" font-size="14" lengthAdjust="spacing" textLength="479" x="84" y="36.9951">Note: Une solution détaillée est faite pour chaque opération système.</text><text fill="#000000" font-family="sans-serif" font-size="14" lengthAdjust="spacing" textLength="450" x="100.5" y="53.292">Donc, il faut utiliser le DSS, les contrats d'opération, le MDD et les</text><text fill="#000000" font-family="sans-serif" font-size="14" lengthAdjust="spacing" textLength="219" x="216" y="69.5889">principes GRASP pour ce travail.</text><ellipse cx="182" cy="97.8906" fill="#222222" rx="10" ry="10" style="stroke:#222222;stroke-width:1.0;"/><path d="M294.5,176.3086 L294.5,184.875 L274.5,188.875 L294.5,192.875 L294.5,201.4414 A0,0 0 0 0 294.5,201.4414 L498.5,201.4414 A0,0 0 0 0 498.5,201.4414 L498.5,186.3086 L488.5,176.3086 L294.5,176.3086 A0,0 0 0 0 294.5,176.3086 " fill="#FEFFDD" style="stroke:#181818;stroke-width:0.5;"/><path d="M488.5,176.3086 L488.5,186.3086 L498.5,186.3086 L488.5,176.3086 " fill="#FEFFDD" style="stroke:#181818;stroke-width:0.5;"/><text fill="#000000" font-family="sans-serif" font-size="13" lengthAdjust="spacing" textLength="19" x="300.5" y="193.3755">ex.</text><text fill="#000000" font-family="monospace" font-size="13" font-weight="bold" lengthAdjust="spacing" textLength="160" x="323.5" y="193.3755">créerNouvelleVente()</text><rect fill="#F1F1F1" height="33.9688" rx="12.5" ry="12.5" style="stroke:#181818;stroke-width:0.5;" width="185" x="89.5" y="171.8906"/><text fill="#000000" font-family="sans-serif" font-size="12" lengthAdjust="spacing" textLength="165" x="99.5" y="193.0293">Revoir l'opération système</text><path d="M289,222.7109 L289,238.8438 L269,242.8438 L289,246.8438 L289,262.9766 A0,0 0 0 0 289,262.9766 L506,262.9766 A0,0 0 0 0 506,262.9766 L506,232.7109 L496,222.7109 L289,222.7109 A0,0 0 0 0 289,222.7109 " fill="#FEFFDD" style="stroke:#181818;stroke-width:0.5;"/><path d="M496,222.7109 L496,232.7109 L506,232.7109 L496,222.7109 " fill="#FEFFDD" style="stroke:#181818;stroke-width:0.5;"/><text fill="#000000" font-family="sans-serif" font-size="13" lengthAdjust="spacing" textLength="60" x="295" y="239.7778">Appliquer</text><text fill="#000000" font-family="sans-serif" font-size="13" font-weight="bold" lengthAdjust="spacing" textLength="132" x="359" y="239.7778">GRASP Contrôleur</text><text fill="#000000" font-family="sans-serif" font-size="13" lengthAdjust="spacing" textLength="160" x="295" y="254.9106">(Chapitre F16.13/A17.13)</text><rect fill="#DDFFDD" height="33.9688" rx="12.5" ry="12.5" style="stroke:#181818;stroke-width:0.5;" width="174" x="95" y="225.8594"/><text fill="#000000" font-family="sans-serif" font-size="12" lengthAdjust="spacing" textLength="154" x="105" y="246.998">Déterminer le contrôleur</text><path d="M310.5,272.9766 L310.5,304.2422 L290.5,308.2422 L310.5,312.2422 L310.5,343.5078 A0,0 0 0 0 310.5,343.5078 L575.5,343.5078 A0,0 0 0 0 575.5,343.5078 L575.5,282.9766 L565.5,272.9766 L310.5,272.9766 A0,0 0 0 0 310.5,272.9766 " fill="#FEFFDD" style="stroke:#181818;stroke-width:0.5;"/><path d="M565.5,272.9766 L565.5,282.9766 L575.5,282.9766 L565.5,272.9766 " fill="#FEFFDD" style="stroke:#181818;stroke-width:0.5;"/><text fill="#000000" font-family="sans-serif" font-size="13" lengthAdjust="spacing" textLength="22" x="316.5" y="290.0435">Les</text><text fill="#000000" font-family="sans-serif" font-size="13" font-weight="bold" lengthAdjust="spacing" textLength="109" x="342.5" y="290.0435">postconditions</text><text fill="#000000" font-family="sans-serif" font-size="13" lengthAdjust="spacing" textLength="31" x="451.5" y="290.0435">, ex.,</text><text fill="#000000" font-family="sans-serif" font-size="13" lengthAdjust="spacing" textLength="89" x="320.5" y="305.1763">-Une instance</text><text fill="#000000" font-family="sans-serif" font-size="13" font-style="italic" lengthAdjust="spacing" textLength="8" x="413.5" y="305.1763">v</text><text fill="#000000" font-family="sans-serif" font-size="13" lengthAdjust="spacing" textLength="135" x="425.5" y="305.1763">de Vente a été créée</text><text fill="#000000" font-family="sans-serif" font-size="13" lengthAdjust="spacing" textLength="5" x="320.5" y="320.3091">-</text><text fill="#000000" font-family="sans-serif" font-size="13" font-style="italic" lengthAdjust="spacing" textLength="8" x="325.5" y="320.3091">v</text><text fill="#000000" font-family="sans-serif" font-size="13" lengthAdjust="spacing" textLength="169" x="337.5" y="320.3091">a été associée au Registre</text><text fill="#000000" font-family="sans-serif" font-size="13" lengthAdjust="spacing" textLength="108" x="320.5" y="335.4419">-Des attributs de</text><text fill="#000000" font-family="sans-serif" font-size="13" font-style="italic" lengthAdjust="spacing" textLength="8" x="432.5" y="335.4419">v</text><text fill="#000000" font-family="sans-serif" font-size="13" lengthAdjust="spacing" textLength="108" x="444.5" y="335.4419">ont été initialisés</text><rect fill="#F1F1F1" height="33.9688" rx="12.5" ry="12.5" style="stroke:#181818;stroke-width:0.5;" width="217" x="73.5" y="291.2578"/><text fill="#000000" font-family="sans-serif" font-size="12" lengthAdjust="spacing" textLength="197" x="83.5" y="312.3965">Rappeler le contrat d'opération</text><path d="M373,424.7305 L373,448.4297 L353,452.4297 L373,456.4297 L373,480.1289 A0,0 0 0 0 373,480.1289 L598,480.1289 A0,0 0 0 0 598,480.1289 L598,434.7305 L588,424.7305 L373,424.7305 A0,0 0 0 0 373,424.7305 " fill="#FEFFDD" style="stroke:#181818;stroke-width:0.5;"/><path d="M588,424.7305 L588,434.7305 L598,434.7305 L588,424.7305 " fill="#FEFFDD" style="stroke:#181818;stroke-width:0.5;"/><text fill="#000000" font-family="sans-serif" font-size="13" lengthAdjust="spacing" textLength="60" x="379" y="441.7974">Appliquer</text><text fill="#000000" font-family="sans-serif" font-size="13" font-weight="bold" lengthAdjust="spacing" textLength="119" x="443" y="441.7974">GRASP Créateur</text><text fill="#000000" font-family="sans-serif" font-size="13" lengthAdjust="spacing" textLength="4" x="562" y="441.7974">,</text><text fill="#000000" font-family="sans-serif" font-size="13" font-weight="bold" lengthAdjust="spacing" textLength="103" x="379" y="456.9302">GRASP Expert</text><text fill="#000000" font-family="sans-serif" font-size="13" lengthAdjust="spacing" textLength="4" x="482" y="456.9302">,</text><text fill="#000000" font-family="sans-serif" font-size="13" font-weight="bold" lengthAdjust="spacing" textLength="89" x="490" y="456.9302">ID en objets</text><text fill="#000000" font-family="sans-serif" font-size="13" lengthAdjust="spacing" textLength="4" x="579" y="456.9302">,</text><text fill="#000000" font-family="sans-serif" font-size="13" lengthAdjust="spacing" textLength="162" x="379" y="472.063">etc. Chapitre F16.8/A17.8</text><rect fill="#FFDDDD" height="89.8438" rx="12.5" ry="12.5" style="stroke:#181818;stroke-width:0.5;" width="342" x="11" y="407.5078"/><text fill="#000000" font-family="sans-serif" font-size="12" lengthAdjust="spacing" textLength="314" x="25" y="428.6465">Concevoir (et raffiner) un diagramme d'interaction</text><text fill="#000000" font-family="sans-serif" font-size="12" lengthAdjust="spacing" textLength="160" x="32" y="442.6152">pour l'opération système,</text><text fill="#000000" font-family="sans-serif" font-size="12" font-weight="bold" lengthAdjust="spacing" textLength="136" x="196" y="442.6152">satisfaisant toutes</text><text fill="#000000" font-family="sans-serif" font-size="12" font-weight="bold" lengthAdjust="spacing" textLength="131" x="35" y="456.584">les postconditions</text><text fill="#000000" font-family="sans-serif" font-size="12" lengthAdjust="spacing" textLength="159" x="170" y="456.584">du contrat d'opération et</text><text fill="#000000" font-family="sans-serif" font-size="12" font-weight="bold" lengthAdjust="spacing" textLength="322" x="21" y="470.5527">retournant l'information selon le message de</text><text fill="#000000" font-family="sans-serif" font-size="12" font-weight="bold" lengthAdjust="spacing" textLength="45" x="84.5" y="484.5215">retour</text><text fill="#000000" font-family="sans-serif" font-size="12" lengthAdjust="spacing" textLength="146" x="133.5" y="484.5215">du DSS, le cas échéant</text><polygon fill="#F1F1F1" points="182,363.5078,194,375.5078,182,387.5078,170,375.5078,182,363.5078" style="stroke:#181818;stroke-width:0.5;"/><polygon fill="#F1F1F1" points="74,517.3516,290,517.3516,302,530.1563,290,542.9609,74,542.9609,62,530.1563,74,517.3516" style="stroke:#181818;stroke-width:0.5;"/><text fill="#000000" font-family="sans-serif" font-size="11" lengthAdjust="spacing" textLength="216" x="74" y="527.562">reste des postconditions insatisfaites</text><text fill="#000000" font-family="sans-serif" font-size="11" lengthAdjust="spacing" textLength="181" x="91.5" y="540.3667">ou infos pas encore retournées</text><polygon fill="#F1F1F1" points="182,127.8906,194,139.8906,182,151.8906,170,139.8906,182,127.8906" style="stroke:#181818;stroke-width:0.5;"/><polygon fill="#F1F1F1" points="95.5,562.9609,268.5,562.9609,280.5,574.9609,268.5,586.9609,95.5,586.9609,83.5,574.9609,95.5,562.9609" style="stroke:#181818;stroke-width:0.5;"/><text fill="#000000" font-family="sans-serif" font-size="11" lengthAdjust="spacing" textLength="173" x="95.5" y="578.769">reste des opérations système</text><ellipse cx="182" cy="617.9609" rx="11" ry="11" style="stroke:#222222;stroke-width:1.0;fill:none;"/><ellipse cx="182" cy="617.9609" fill="#222222" rx="6" ry="6" style="stroke:#111111;stroke-width:1.0;"/><line style="stroke:#181818;stroke-width:1.0;" x1="182" x2="182" y1="205.8594" y2="225.8594"/><polygon fill="#181818" points="178,215.8594,182,225.8594,186,215.8594,182,219.8594" style="stroke:#181818;stroke-width:1.0;"/><line style="stroke:#181818;stroke-width:1.0;" x1="182" x2="182" y1="259.8281" y2="291.2578"/><polygon fill="#181818" points="178,281.2578,182,291.2578,186,281.2578,182,285.2578" style="stroke:#181818;stroke-width:1.0;"/><line style="stroke:#181818;stroke-width:1.0;" x1="182" x2="182" y1="387.5078" y2="407.5078"/><polygon fill="#181818" points="178,397.5078,182,407.5078,186,397.5078,182,401.5078" style="stroke:#181818;stroke-width:1.0;"/><line style="stroke:#181818;stroke-width:1.0;" x1="302" x2="610" y1="530.1563" y2="530.1563"/><polygon fill="#181818" points="606,462.832,610,452.832,614,462.832,610,458.832" style="stroke:#181818;stroke-width:1.0;"/><line style="stroke:#181818;stroke-width:1.0;" x1="610" x2="610" y1="375.5078" y2="530.1563"/><line style="stroke:#181818;stroke-width:1.0;" x1="610" x2="194" y1="375.5078" y2="375.5078"/><polygon fill="#181818" points="204,371.5078,194,375.5078,204,379.5078,200,375.5078" style="stroke:#181818;stroke-width:1.0;"/><line style="stroke:#181818;stroke-width:1.0;" x1="182" x2="182" y1="497.3516" y2="517.3516"/><polygon fill="#181818" points="178,507.3516,182,517.3516,186,507.3516,182,511.3516" style="stroke:#181818;stroke-width:1.0;"/><line style="stroke:#181818;stroke-width:1.0;" x1="182" x2="182" y1="325.2266" y2="363.5078"/><polygon fill="#181818" points="178,353.5078,182,363.5078,186,353.5078,182,357.5078" style="stroke:#181818;stroke-width:1.0;"/><line style="stroke:#181818;stroke-width:1.0;" x1="182" x2="182" y1="151.8906" y2="171.8906"/><polygon fill="#181818" points="178,161.8906,182,171.8906,186,161.8906,182,165.8906" style="stroke:#181818;stroke-width:1.0;"/><line style="stroke:#181818;stroke-width:1.0;" x1="280.5" x2="628" y1="574.9609" y2="574.9609"/><polygon fill="#181818" points="624,366.3516,628,356.3516,632,366.3516,628,362.3516" style="stroke:#181818;stroke-width:1.0;"/><line style="stroke:#181818;stroke-width:1.0;" x1="628" x2="628" y1="139.8906" y2="574.9609"/><line style="stroke:#181818;stroke-width:1.0;" x1="628" x2="194" y1="139.8906" y2="139.8906"/><polygon fill="#181818" points="204,135.8906,194,139.8906,204,143.8906,200,139.8906" style="stroke:#181818;stroke-width:1.0;"/><line style="stroke:#181818;stroke-width:1.0;" x1="182" x2="182" y1="542.9609" y2="562.9609"/><polygon fill="#181818" points="178,552.9609,182,562.9609,186,552.9609,182,556.9609" style="stroke:#181818;stroke-width:1.0;"/><line style="stroke:#181818;stroke-width:1.0;" x1="182" x2="182" y1="107.8906" y2="127.8906"/><polygon fill="#181818" points="178,117.8906,182,127.8906,186,117.8906,182,121.8906" style="stroke:#181818;stroke-width:1.0;"/><line style="stroke:#181818;stroke-width:1.0;" x1="182" x2="182" y1="586.9609" y2="606.9609"/><polygon fill="#181818" points="178,596.9609,182,606.9609,186,596.9609,182,600.9609" style="stroke:#181818;stroke-width:1.0;"/><!--MD5=[1a58b1969cc889b7fb3ce36bd268395c]
@startuml 
'!include ecriture.pumlinclude
skinparam shadowing false
skinparam BackgroundColor hidden
skinparam DefaultTextAlignment center
skinparam NoteTextAlignment left
start 
repeat 
:Revoir l'opération système; 
note right: ex. ""**créerNouvelleVente()**""
#ddffdd:Déterminer le contrôleur;
note right: Appliquer **GRASP Contrôleur**\n(Chapitre F16.13/A17.13) 
:Rappeler le contrat d'opération; 
note right: Les **postconditions**, ex.,\n -Une instance <i>v</i> de Vente a été créée\n -<i>v</i> a été associée au Registre\n -Des attributs de <i>v</i> ont été initialisés 
repeat
#ffdddd:Concevoir (et raffiner) un diagramme d'interaction
pour l'opération système, **satisfaisant toutes**
**les postconditions** du contrat d'opération et
**retournant l'information selon le message de**
**retour** du DSS, le cas échéant;
note right
Appliquer **GRASP Créateur**, 
**GRASP Expert**, **ID en objets**,
etc. Chapitre F16.8/A17.8
end note
repeat while (reste des postconditions insatisfaites\nou infos pas encore retournées) 
repeat while (reste des opérations système) 
stop
legend top
Note: Une solution détaillée est faite pour chaque opération système. 
Donc, il faut utiliser le DSS, les contrats d'opération, le MDD et les
principes GRASP pour ce travail.
endlegend
@enduml

@startuml 
skinparam shadowing false
skinparam BackgroundColor hidden
skinparam DefaultTextAlignment center
skinparam NoteTextAlignment left
start 
repeat 
:Revoir l'opération système; 
note right: ex. ""**créerNouvelleVente()**""
#ddffdd:Déterminer le contrôleur;
note right: Appliquer **GRASP Contrôleur**\n(Chapitre F16.13/A17.13) 
:Rappeler le contrat d'opération; 
note right: Les **postconditions**, ex.,\n -Une instance <i>v</i> de Vente a été créée\n -<i>v</i> a été associée au Registre\n -Des attributs de <i>v</i> ont été initialisés 
repeat
#ffdddd:Concevoir (et raffiner) un diagramme d'interaction
pour l'opération système, **satisfaisant toutes**
**les postconditions** du contrat d'opération et
**retournant l'information selon le message de**
**retour** du DSS, le cas échéant;
note right
Appliquer **GRASP Créateur**, 
**GRASP Expert**, **ID en objets**,
etc. Chapitre F16.8/A17.8
end note
repeat while (reste des postconditions insatisfaites\nou infos pas encore retournées) 
repeat while (reste des opérations système) 
stop
legend top
Note: Une solution détaillée est faite pour chaque opération système. 
Donc, il faut utiliser le DSS, les contrats d'opération, le MDD et les
principes GRASP pour ce travail.
endlegend
@enduml

PlantUML version 1.2022.6(Tue Jun 21 17:34:49 UTC 2022)
(GPL source distribution)
Java Runtime: OpenJDK Runtime Environment
JVM: OpenJDK 64-Bit Server VM
Default Encoding: UTF-8
Language: en
Country: null
--></g></svg>