<?xml version="1.0" encoding="UTF-8" standalone="no"?>
<svg
   width="483.93799pt"
   height="476.66pt"
   version="1.1"
   viewBox="0 0 483.93799 476.66"
   id="svg488"
   sodipodi:docname="noun-objectives-1392483.svg"
   inkscape:version="1.2.2 (b0a8486541, 2022-12-01)"
   xmlns:inkscape="http://www.inkscape.org/namespaces/inkscape"
   xmlns:sodipodi="http://sodipodi.sourceforge.net/DTD/sodipodi-0.dtd"
   xmlns:xlink="http://www.w3.org/1999/xlink"
   xmlns="http://www.w3.org/2000/svg"
   xmlns:svg="http://www.w3.org/2000/svg">
  <sodipodi:namedview
     id="namedview490"
     pagecolor="#ffffff"
     bordercolor="#666666"
     borderopacity="1.0"
     inkscape:showpageshadow="2"
     inkscape:pageopacity="0.0"
     inkscape:pagecheckerboard="0"
     inkscape:deskcolor="#d1d1d1"
     inkscape:document-units="pt"
     showgrid="false"
     inkscape:zoom="0.25285714"
     inkscape:cx="33.615819"
     inkscape:cy="409.32203"
     inkscape:window-width="1368"
     inkscape:window-height="850"
     inkscape:window-x="-6"
     inkscape:window-y="-6"
     inkscape:window-maximized="1"
     inkscape:current-layer="svg488" />
  <defs
     id="defs370">
    <symbol
       id="h"
       overflow="visible">
      <path
         d="m 18.766,-1.125 c -0.96875,0.5 -1.9805,0.875 -3.0312,1.125 -1.043,0.25781 -2.1367,0.39062 -3.2812,0.39062 -3.3984,0 -6.0898,-0.94531 -8.0781,-2.8438 -1.9922,-1.9062 -2.9844,-4.4844 -2.9844,-7.7344 0,-3.2578 0.99219,-5.8359 2.9844,-7.7344 1.9883,-1.9062 4.6797,-2.8594 8.0781,-2.8594 1.1445,0 2.2383,0.13281 3.2812,0.39062 1.0508,0.25 2.0625,0.625 3.0312,1.125 v 4.2188 c -0.98047,-0.65625 -1.9453,-1.1406 -2.8906,-1.4531 -0.94922,-0.3125 -1.9492,-0.46875 -3,-0.46875 -1.875,0 -3.3516,0.60547 -4.4219,1.8125 -1.0742,1.1992 -1.6094,2.8555 -1.6094,4.9688 0,2.1055 0.53516,3.7617 1.6094,4.9688 1.0703,1.1992 2.5469,1.7969 4.4219,1.7969 1.0508,0 2.0508,-0.14844 3,-0.45312 0.94531,-0.3125 1.9102,-0.80078 2.8906,-1.4688 z"
         id="path307" />
    </symbol>
    <symbol
       id="d"
       overflow="visible">
      <path
         d="m 13.734,-11.141 c -0.4375,-0.19531 -0.87109,-0.34375 -1.2969,-0.4375 -0.41797,-0.10156 -0.83984,-0.15625 -1.2656,-0.15625 -1.2617,0 -2.2305,0.40625 -2.9062,1.2188 -0.67969,0.80469 -1.0156,1.9531 -1.0156,3.4531 v 7.0625 H 2.3591 v -15.312 h 4.8906 v 2.5156 c 0.625,-1 1.3438,-1.7266 2.1562,-2.1875 0.82031,-0.46875 1.8008,-0.70312 2.9375,-0.70312 0.16406,0 0.34375,0.01172 0.53125,0.03125 0.19531,0.01172 0.47656,0.03906 0.84375,0.07813 z"
         id="path310" />
    </symbol>
    <symbol
       id="a"
       overflow="visible">
      <path
         d="m 17.641,-7.7031 v 1.4062 H 6.188 c 0.125,1.1484 0.53906,2.0078 1.25,2.5781 0.70703,0.57422 1.7031,0.85938 2.9844,0.85938 1.0312,0 2.082,-0.14844 3.1562,-0.45312 1.082,-0.3125 2.1914,-0.77344 3.3281,-1.3906 v 3.7656 c -1.1562,0.4375 -2.3125,0.76562 -3.4688,0.98438 -1.1562,0.22656 -2.3125,0.34375 -3.4688,0.34375 -2.7734,0 -4.9297,-0.70312 -6.4688,-2.1094 -1.5312,-1.4062 -2.2969,-3.3789 -2.2969,-5.9219 0,-2.5 0.75391,-4.4609 2.2656,-5.8906 1.5078,-1.4375 3.582,-2.1562 6.2188,-2.1562 2.4062,0 4.332,0.73047 5.7812,2.1875 1.4453,1.4492 2.1719,3.3828 2.1719,5.7969 z m -5.0312,-1.625 c 0,-0.92578 -0.27344,-1.6719 -0.8125,-2.2344 -0.54297,-0.57031 -1.25,-0.85938 -2.125,-0.85938 -0.94922,0 -1.7188,0.26562 -2.3125,0.79688 -0.5937,0.53126 -0.96484,1.2969 -1.1094,2.2969 z"
         id="path313" />
    </symbol>
    <symbol
       id="c"
       overflow="visible">
      <path
         d="m 9.2188,-6.8906 c -1.0234,0 -1.793,0.17188 -2.3125,0.51562 -0.51172,0.34375 -0.76562,0.85547 -0.76562,1.5312 0,0.625 0.20703,1.1172 0.625,1.4688 0.41406,0.34375 0.98828,0.51562 1.7188,0.51562 0.92578,0 1.7031,-0.32812 2.3281,-0.98438 0.63281,-0.66406 0.95312,-1.4922 0.95312,-2.4844 v -0.5625 z m 7.4688,-1.8438 V 0 h -4.9219 v -2.2656 c -0.65625,0.92969 -1.3984,1.6055 -2.2188,2.0312 -0.82422,0.41406 -1.8242,0.625 -3,0.625 -1.5859,0 -2.8711,-0.45703 -3.8594,-1.375 -0.99219,-0.92578 -1.4844,-2.1289 -1.4844,-3.6094 0,-1.7891 0.61328,-3.1016 1.8438,-3.9375 1.2383,-0.84375 3.1797,-1.2656 5.8281,-1.2656 h 2.8906 v -0.39062 c 0,-0.76953 -0.30859,-1.332 -0.92188,-1.6875 -0.61719,-0.36328 -1.5703,-0.54688 -2.8594,-0.54688 -1.0547,0 -2.0312,0.10547 -2.9375,0.3125 -0.89844,0.21094 -1.7305,0.52344 -2.5,0.9375 v -3.7344 c 1.0391,-0.25 2.0859,-0.44141 3.1406,-0.57812 1.0625,-0.13281 2.125,-0.20312 3.1875,-0.20312 2.7578,0 4.75,0.54688 5.9688,1.6406 1.2266,1.0859 1.8438,2.8555 1.8438,5.3125 z"
         id="path316" />
    </symbol>
    <symbol
       id="b"
       overflow="visible">
      <path
         d="m 7.7031,-19.656 v 4.3438 H 12.75 v 3.5 H 7.7031 v 6.5 c 0,0.71094 0.14062,1.1875 0.42188,1.4375 0.28126,0.25 0.83594,0.375 1.6719,0.375 h 2.5156 v 3.5 h -4.1875 c -1.9375,0 -3.3125,-0.39844 -4.125,-1.2031 -0.80469,-0.8125 -1.2031,-2.1797 -1.2031,-4.1094 v -6.5 h -2.4219 v -3.5 h 2.4219 v -4.3438 z"
         id="path319" />
    </symbol>
    <symbol
       id="k"
       overflow="visible">
      <path
         d="m 12.766,-13.078 v -8.2031 h 4.9219 V -10e-5 H 12.766 v -2.2188 c -0.66797,0.90625 -1.4062,1.5703 -2.2188,1.9844 -0.8126,0.4141 -1.7578,0.625 -2.8281,0.625 -1.8867,0 -3.4336,-0.75 -4.6406,-2.25 -1.2109,-1.5 -1.8125,-3.4258 -1.8125,-5.7812 0,-2.3633 0.60156,-4.2969 1.8125,-5.7969 1.207,-1.5 2.7539,-2.25 4.6406,-2.25 1.0625,0 2,0.21484 2.8125,0.64062 0.82031,0.42969 1.5664,1.0859 2.2344,1.9688 z m -3.2188,9.9219 c 1.0391,0 1.8359,-0.37891 2.3906,-1.1406 0.55078,-0.76953 0.82812,-1.8828 0.82812,-3.3438 0,-1.457 -0.27734,-2.5664 -0.82812,-3.3281 -0.55469,-0.76953 -1.3516,-1.1562 -2.3906,-1.1562 -1.043,0 -1.8398,0.38672 -2.3906,1.1562 -0.55469,0.76172 -0.82812,1.8711 -0.82812,3.3281 0,1.4609 0.27344,2.5742 0.82812,3.3438 0.55078,0.76172 1.3477,1.1406 2.3906,1.1406 z"
         id="path322" />
    </symbol>
    <symbol
       id="j"
       overflow="visible">
      <path
         d="m 10.5,-3.1562 c 1.0508,0 1.8516,-0.37891 2.4062,-1.1406 0.55078,-0.76953 0.82812,-1.8828 0.82812,-3.3438 0,-1.457 -0.27734,-2.5664 -0.82812,-3.3281 -0.55469,-0.76953 -1.3555,-1.1562 -2.4062,-1.1562 -1.0547,0 -1.8594,0.38672 -2.4219,1.1562 -0.55469,0.77344 -0.82812,1.8828 -0.82812,3.3281 0,1.4492 0.27344,2.5586 0.82812,3.3281 0.5625,0.77344 1.3672,1.1562 2.4219,1.1562 z m -3.25,-9.9219 c 0.67578,-0.88281 1.4219,-1.5391 2.2344,-1.9688 0.82031,-0.42578 1.7656,-0.64062 2.8281,-0.64062 1.8945,0 3.4453,0.75 4.6562,2.25 1.207,1.5 1.8125,3.4336 1.8125,5.7969 0,2.3555 -0.60547,4.2812 -1.8125,5.7812 -1.2109,1.5 -2.7617,2.25 -4.6562,2.25 -1.0625,0 -2.0078,-0.21094 -2.8281,-0.625 C 8.6719,-0.6602 7.9258,-1.32032 7.25,-2.21882 V -2e-5 H 2.3594 v -21.281 H 7.25 Z"
         id="path325" />
    </symbol>
    <symbol
       id="i"
       overflow="visible">
      <path
         d="m 0.34375,-15.312 h 4.8906 l 4.125,10.391 3.5,-10.391 h 4.8906 l -6.4375,16.766 c -0.64844,1.6953 -1.4023,2.8828 -2.2656,3.5625 -0.86719,0.6875 -2,1.0312 -3.4062,1.0312 H 2.79685 V 2.8289 h 1.5312 c 0.83203,0 1.4375,-0.13672 1.8125,-0.40625 C 6.52336,2.16093 6.82024,1.69218 7.03117,1.01645 L 7.17179,0.59457 Z"
         id="path328" />
    </symbol>
    <symbol
       id="f"
       overflow="visible">
      <path
         d="M 2.3594,-15.312 H 7.25 V 0 H 2.3594 Z m 0,-5.9688 H 7.25 v 4 H 2.3594 Z"
         id="path331" />
    </symbol>
    <symbol
       id="u"
       overflow="visible">
      <path
         d="m 0.42188,-15.312 h 4.8906 l 3.8281,10.578 3.7969,-10.578 h 4.9062 L 11.81248,0 h -5.375 z"
         id="path334" />
    </symbol>
    <symbol
       id="t"
       overflow="visible">
      <path
         d="m 2.5781,-20.406 h 6.6875 l 4.6562,10.922 4.6719,-10.922 h 6.6875 V 0 H 20.2968 V -14.938 L 15.5937,-3.922 H 12.2656 L 7.5625,-14.938 V 0 H 2.5781 Z"
         id="path337" />
    </symbol>
    <symbol
       id="g"
       overflow="visible">
      <path
         d="M 17.75,-9.3281 V 0 h -4.9219 v -7.1406 c 0,-1.3203 -0.03125,-2.2344 -0.09375,-2.7344 -0.0625,-0.5 -0.16797,-0.86719 -0.3125,-1.1094 -0.1875,-0.3125 -0.44922,-0.55469 -0.78125,-0.73438 -0.32422,-0.17578 -0.69531,-0.26562 -1.1094,-0.26562 -1.0234,0 -1.8242,0.39844 -2.4062,1.1875 -0.58594,0.78125 -0.875,1.8711 -0.875,3.2656 V -1e-4 H 2.3594 v -15.312 H 7.25 v 2.2344 c 0.73828,-0.88281 1.5195,-1.5391 2.3438,-1.9688 0.83203,-0.42578 1.75,-0.64062 2.75,-0.64062 1.7695,0 3.1133,0.54688 4.0312,1.6406 0.91406,1.0859 1.375,2.6562 1.375,4.7188 z"
         id="path340" />
    </symbol>
    <symbol
       id="s"
       overflow="visible">
      <path
         d="m 12.422,-21.281 v 3.2188 H 9.7189 c -0.6875,0 -1.1719,0.125 -1.4531,0.375 -0.27344,0.25 -0.40625,0.6875 -0.40625,1.3125 v 1.0625 h 4.1875 v 3.5 H 7.85955 V -2e-4 h -4.8906 v -11.812 h -2.4375 v -3.5 h 2.4375 v -1.0625 c 0,-1.6641 0.46094,-2.8984 1.3906,-3.7031 0.92578,-0.80078 2.3672,-1.2031 4.3281,-1.2031 z"
         id="path343" />
    </symbol>
    <symbol
       id="e"
       overflow="visible">
      <path
         d="m 9.6406,-12.188 c -1.0859,0 -1.9141,0.39062 -2.4844,1.1719 -0.57422,0.78125 -0.85938,1.9062 -0.85938,3.375 0,1.4688 0.28516,2.5938 0.85938,3.375 0.57031,0.77344 1.3984,1.1562 2.4844,1.1562 1.0625,0 1.875,-0.38281 2.4375,-1.1562 0.57031,-0.78125 0.85938,-1.9062 0.85938,-3.375 0,-1.4688 -0.28906,-2.5938 -0.85938,-3.375 -0.5625,-0.78125 -1.375,-1.1719 -2.4375,-1.1719 z m 0,-3.5 c 2.6328,0 4.6914,0.71484 6.1719,2.1406 1.4766,1.418 2.2188,3.3867 2.2188,5.9062 0,2.5117 -0.74219,4.4805 -2.2188,5.9062 C 14.332,-0.317 12.2734,0.39 9.6406,0.39 6.9922,0.39 4.9258,-0.31703 3.4375,-1.735 1.9453,-3.1608 1.2031,-5.1295 1.2031,-7.6412 c 0,-2.5195 0.74219,-4.4883 2.2344,-5.9062 1.4883,-1.4258 3.5547,-2.1406 6.2031,-2.1406 z"
         id="path346" />
    </symbol>
    <symbol
       id="r"
       overflow="visible">
      <path
         d="m 16.547,-12.766 c 0.61328,-0.94531 1.3477,-1.6719 2.2031,-2.1719 0.85156,-0.5 1.7891,-0.75 2.8125,-0.75 1.7578,0 3.0977,0.54688 4.0156,1.6406 0.92578,1.0859 1.3906,2.6562 1.3906,4.7188 V -4e-4 h -4.9219 v -7.9844 -0.35938 c 0.0078,-0.13281 0.01563,-0.32031 0.01563,-0.5625 0,-1.082 -0.16406,-1.8633 -0.48438,-2.3438 -0.3125,-0.48828 -0.82422,-0.73438 -1.5312,-0.73438 -0.92969,0 -1.6484,0.38672 -2.1562,1.1562 -0.51172,0.76172 -0.77344,1.8672 -0.78125,3.3125 v 7.5156 h -4.9219 v -7.9844 c 0,-1.6953 -0.14844,-2.7852 -0.4375,-3.2656 -0.29297,-0.48828 -0.8125,-0.73438 -1.5625,-0.73438 -0.9375,0 -1.6641,0.38672 -2.1719,1.1562 -0.51172,0.76172 -0.76562,1.8594 -0.76562,3.2969 v 7.5312 h -4.9219 v -15.312 h 4.9219 v 2.2344 c 0.60156,-0.86328 1.2891,-1.5156 2.0625,-1.9531 0.78125,-0.4375 1.6406,-0.65625 2.5781,-0.65625 1.0625,0 2,0.25781 2.8125,0.76562 0.8125,0.51172 1.4258,1.2305 1.8438,2.1562 z"
         id="path349" />
    </symbol>
    <symbol
       id="q"
       overflow="visible">
      <path
         d="M 17.75,-9.3281 V 0 h -4.9219 v -7.1094 c 0,-1.3438 -0.03125,-2.2656 -0.09375,-2.7656 -0.0625,-0.5 -0.16797,-0.86719 -0.3125,-1.1094 -0.1875,-0.3125 -0.44922,-0.55469 -0.78125,-0.73438 -0.32422,-0.17578 -0.69531,-0.26562 -1.1094,-0.26562 -1.0234,0 -1.8242,0.39844 -2.4062,1.1875 -0.58594,0.78125 -0.875,1.8711 -0.875,3.2656 V -1e-4 H 2.3594 v -21.281 H 7.25 v 8.2031 c 0.73828,-0.88281 1.5195,-1.5391 2.3438,-1.9688 0.83203,-0.42578 1.75,-0.64062 2.75,-0.64062 1.7695,0 3.1133,0.54688 4.0312,1.6406 0.91406,1.0859 1.375,2.6562 1.375,4.7188 z"
         id="path352" />
    </symbol>
    <symbol
       id="p"
       overflow="visible">
      <path
         d="m 2.5781,-20.406 h 5.875 l 7.4219,14 v -14 h 4.9844 V 0 h -5.875 L 7.5625,-14 V 0 H 2.5781 Z"
         id="path355" />
    </symbol>
    <symbol
       id="o"
       overflow="visible">
      <path
         d="m 2.1875,-5.9688 v -9.3438 h 4.9219 v 1.5312 c 0,0.83594 -0.00781,1.875 -0.015625,3.125 -0.011719,1.25 -0.015625,2.0859 -0.015625,2.5 0,1.2422 0.03125,2.1328 0.09375,2.6719 0.070313,0.54297 0.17969,0.93359 0.32812,1.1719 0.20703,0.32422 0.47266,0.57422 0.79688,0.75 0.32031,0.16797 0.69141,0.25 1.1094,0.25 1.0195,0 1.8203,-0.39062 2.4062,-1.1719 0.58203,-0.78125 0.875,-1.8672 0.875,-3.2656 v -7.5625 h 4.8906 V -6e-4 H 12.6875 V -2.2194 C 11.94531,-1.32096 11.1641,-0.6608 10.3437,-0.235 9.51948,0.17906 8.6093,0.39 7.6093,0.39 5.8476,0.39 4.5038,-0.14906 3.5781,-1.235 2.64841,-2.317 2.1875,-3.8952 2.1875,-5.9694 Z"
         id="path358" />
    </symbol>
    <symbol
       id="n"
       overflow="visible">
      <path
         d="m 2.5781,-20.406 h 8.7344 c 2.5938,0 4.582,0.57812 5.9688,1.7344 1.3945,1.1484 2.0938,2.7891 2.0938,4.9219 0,2.1367 -0.69922,3.7812 -2.0938,4.9375 -1.3867,1.1562 -3.375,1.7344 -5.9688,1.7344 H 7.8281 V 3e-4 h -5.25 z m 5.25,3.8125 v 5.7031 H 10.75 c 1.0195,0 1.8047,-0.25 2.3594,-0.75 0.5625,-0.5 0.84375,-1.2031 0.84375,-2.1094 0,-0.91406 -0.28125,-1.6172 -0.84375,-2.1094 -0.55469,-0.48828 -1.3398,-0.73438 -2.3594,-0.73438 z"
         id="path361" />
    </symbol>
    <symbol
       id="m"
       overflow="visible">
      <path
         d="M 2.3594,-15.312 H 7.25 v 15.031 c 0,2.0508 -0.49609,3.6172 -1.4844,4.7031 -0.98047,1.082 -2.4062,1.625 -4.2812,1.625 H -0.9375 V 2.8283 h 0.85938 c 0.92578,0 1.5625,-0.21094 1.9062,-0.625 0.35156,-0.41797 0.53125,-1.2461 0.53125,-2.4844 z m 0,-5.9688 H 7.25 v 4 H 2.3594 Z"
         id="path364" />
    </symbol>
    <symbol
       id="l"
       overflow="visible">
      <path
         d="m 14.719,-14.828 v 3.9844 c -0.65625,-0.45703 -1.3242,-0.79688 -2,-1.0156 -0.66797,-0.21875 -1.3594,-0.32812 -2.0781,-0.32812 -1.3672,0 -2.4336,0.40234 -3.2031,1.2031 -0.76172,0.79297 -1.1406,1.9062 -1.1406,3.3438 0,1.4297 0.37891,2.543 1.1406,3.3438 0.76953,0.79297 1.8359,1.1875 3.2031,1.1875 0.75781,0 1.4844,-0.10938 2.1719,-0.32812 0.6875,-0.22656 1.3203,-0.56641 1.9062,-1.0156 v 4 c -0.76172,0.28125 -1.5391,0.48828 -2.3281,0.625 -0.78125,0.14453 -1.5742,0.21875 -2.375,0.21875 -2.7617,0 -4.9219,-0.70703 -6.4844,-2.125 -1.5547,-1.4141 -2.3281,-3.3828 -2.3281,-5.9062 0,-2.5312 0.77344,-4.5039 2.3281,-5.9219 1.5625,-1.4141 3.7227,-2.125 6.4844,-2.125 0.80078,0 1.5938,0.07422 2.375,0.21875 0.78125,0.13672 1.5547,0.35156 2.3281,0.64062 z"
         id="path367" />
    </symbol>
  </defs>
  <path
     d="m 35.938,0.008093 v 29.152 L 0,29.163993 V 453.824 h 35.938 v 22.836 h 448 V 0 Z M 14,439.82809 V 43.168093 H 35.938 V 439.82809 Z m 455.94,22.836 h -420 V 14.004093 h 420 z"
     id="path372" />
  <path
     d="m 116.178,125.23809 c 26.488,0 48.035,-21.547 48.035,-48.034997 0,-26.488 -21.547,-48.043 -48.035,-48.043 -26.488,0 -48.043,21.547 -48.043,48.043 0,26.483997 21.547,48.034997 48.043,48.034997 z m 0,-82.077997 c 18.77,0 34.035,15.27 34.035,34.043 0,18.77 -15.27,34.034997 -34.035,34.034997 -18.765,0 -34.043,-15.269997 -34.043,-34.034997 0,-18.77 15.27,-34.043 34.043,-34.043 z"
     id="path374" />
  <path
     d="m 116.178,102.99809 c 14.223,0 25.793,-11.569997 25.793,-25.792997 0,-14.223 -11.57,-25.793 -25.793,-25.793 -14.223,0 -25.793,11.57 -25.793,25.793 -0.008,14.215 11.57,25.792997 25.793,25.792997 z m 0,-37.593997 c 6.5,0 11.793,5.293 11.793,11.793 0,6.5 -5.293,11.793 -11.793,11.793 -6.5078,0 -11.793,-5.293 -11.793,-11.793 -0.008,-6.5 5.2852,-11.793 11.793,-11.793 z"
     id="path376" />
  <path
     d="m 177.058,70.208093 h 176.21 v 14 h -176.21 z"
     id="path378" />
  <path
     d="m 116.178,231.09809 c 26.488,0 48.035,-21.547 48.035,-48.035 0,-26.488 -21.547,-48.043 -48.035,-48.043 -26.488,0 -48.043,21.547 -48.043,48.043 0,26.48 21.547,48.035 48.043,48.035 z m 0,-82.078 c 18.77,0 34.035,15.27 34.035,34.043 0,18.766 -15.27,34.035 -34.035,34.035 -18.765,0 -34.043,-15.27 -34.043,-34.035 0,-18.773 15.27,-34.043 34.043,-34.043 z"
     id="path380" />
  <path
     d="m 116.178,208.85809 c 14.223,0 25.793,-11.57 25.793,-25.793 0,-14.223 -11.57,-25.793 -25.793,-25.793 -14.223,0 -25.793,11.57 -25.793,25.793 -0.008,14.219 11.57,25.793 25.793,25.793 z m 0,-37.594 c 6.5,0 11.793,5.293 11.793,11.793 0,6.5 -5.293,11.793 -11.793,11.793 -6.5078,0 -11.793,-5.293 -11.793,-11.793 -0.008,-6.5 5.2852,-11.793 11.793,-11.793 z"
     id="path382" />
  <path
     d="m 177.058,176.06809 h 176.21 v 14 h -176.21 z"
     id="path384" />
  <path
     d="m 116.178,336.95809 c 26.488,0 48.035,-21.547 48.035,-48.035 0,-26.488 -21.547,-48.035 -48.035,-48.035 -26.488,0 -48.043,21.547 -48.043,48.035 0,26.484 21.547,48.035 48.043,48.035 z m 0,-82.074 c 18.77,0 34.035,15.27 34.035,34.035 0,18.765 -15.27,34.035 -34.035,34.035 -18.765,0 -34.043,-15.27 -34.043,-34.035 0,-18.765 15.27,-34.035 34.043,-34.035 z"
     id="path386" />
  <path
     d="m 116.178,314.70809 c 14.223,0 25.793,-11.57 25.793,-25.793 0,-14.223 -11.57,-25.793 -25.793,-25.793 -14.223,0 -25.793,11.57 -25.793,25.793 0,14.223 11.57,25.793 25.793,25.793 z m 0,-37.59 c 6.5,0 11.793,5.293 11.793,11.793 0,6.5 -5.293,11.793 -11.793,11.793 -6.5078,0 -11.793,-5.293 -11.793,-11.793 0,-6.5039 5.2852,-11.793 11.793,-11.793 z"
     id="path388" />
  <path
     d="m 177.058,281.91809 h 176.21 v 14 h -176.21 z"
     id="path390" />
  <path
     d="m 116.178,443.35809 c 26.488,0 48.035,-21.547 48.035,-48.035 0,-26.488 -21.547,-48.035 -48.035,-48.035 -26.488,0 -48.043,21.547 -48.043,48.035 0,26.484 21.547,48.035 48.043,48.035 z m 0,-82.074 c 18.77,0 34.035,15.27 34.035,34.035 0,18.766 -15.27,34.035 -34.035,34.035 -18.765,0 -34.043,-15.27 -34.043,-34.035 0,-18.762 15.27,-34.035 34.043,-34.035 z"
     id="path392" />
  <path
     d="m 116.178,421.11809 c 14.223,0 25.793,-11.57 25.793,-25.793 0,-14.223 -11.57,-25.793 -25.793,-25.793 -14.223,0 -25.793,11.57 -25.793,25.793 0,14.223 11.57,25.793 25.793,25.793 z m 0,-37.594 c 6.5,0 11.793,5.293 11.793,11.793 0,6.5 -5.293,11.793 -11.793,11.793 -6.5078,0 -11.793,-5.293 -11.793,-11.793 0,-6.5 5.2852,-11.793 11.793,-11.793 z"
     id="path394" />
  <path
     d="m 177.058,388.31809 h 176.21 v 14 h -176.21 z"
     id="path396" />
  <path
     d="m 451.398,53.426093 -9.8945,-9.8945 -42.57,42.566 -15.508,-15.512 -9.8984,9.9023 25.406,25.405997 z"
     id="path398" />
  <path
     d="m 451.398,154.22809 -9.8945,-9.8945 -42.57,42.566 -15.508,-15.512 -9.8984,9.8984 25.406,25.41 z"
     id="path400" />
  <path
     d="m 451.398,260.63809 -9.8945,-9.9023 -42.57,42.566 -15.508,-15.512 -9.8984,9.9023 25.406,25.406 z"
     id="path402" />
  <path
     d="m 451.398,367.02809 -9.8945,-9.8984 -42.57,42.566 -15.508,-15.512 -9.8984,9.8984 25.406,25.406 z"
     id="path404" />
  <use
     x="70"
     y="644"
     xlink:href="#h"
     id="use406"
     transform="translate(-106.862,-45.971907)" />
  <use
     x="90.550781"
     y="644"
     xlink:href="#d"
     id="use408"
     transform="translate(-106.862,-45.971907)" />
  <use
     x="104.35938"
     y="644"
     xlink:href="#a"
     id="use410"
     transform="translate(-106.862,-45.971907)" />
  <use
     x="123.34766"
     y="644"
     xlink:href="#c"
     id="use412"
     transform="translate(-106.862,-45.971907)" />
  <use
     x="142.24219"
     y="644"
     xlink:href="#b"
     id="use414"
     transform="translate(-106.862,-45.971907)" />
  <use
     x="155.62891"
     y="644"
     xlink:href="#a"
     id="use416"
     transform="translate(-106.862,-45.971907)" />
  <use
     x="174.61719"
     y="644"
     xlink:href="#k"
     id="use418"
     transform="translate(-106.862,-45.971907)" />
  <use
     x="204.41016"
     y="644"
     xlink:href="#j"
     id="use420"
     transform="translate(-106.862,-45.971907)" />
  <use
     x="224.45312"
     y="644"
     xlink:href="#i"
     id="use422"
     transform="translate(-106.862,-45.971907)" />
  <use
     x="252.45312"
     y="644"
     xlink:href="#h"
     id="use424"
     transform="translate(-106.862,-45.971907)" />
  <use
     x="273"
     y="644"
     xlink:href="#d"
     id="use426"
     transform="translate(-106.862,-45.971907)" />
  <use
     x="286.80859"
     y="644"
     xlink:href="#a"
     id="use428"
     transform="translate(-106.862,-45.971907)" />
  <use
     x="305.79688"
     y="644"
     xlink:href="#c"
     id="use430"
     transform="translate(-106.862,-45.971907)" />
  <use
     x="324.69531"
     y="644"
     xlink:href="#b"
     id="use432"
     transform="translate(-106.862,-45.971907)" />
  <use
     x="338.07812"
     y="644"
     xlink:href="#f"
     id="use434"
     transform="translate(-106.862,-45.971907)" />
  <use
     x="347.67578"
     y="644"
     xlink:href="#u"
     id="use436"
     transform="translate(-106.862,-45.971907)" />
  <use
     x="365.92969"
     y="644"
     xlink:href="#a"
     id="use438"
     transform="translate(-106.862,-45.971907)" />
  <use
     x="394.66406"
     y="644"
     xlink:href="#t"
     id="use440"
     transform="translate(-106.862,-45.971907)" />
  <use
     x="422.53125"
     y="644"
     xlink:href="#c"
     id="use442"
     transform="translate(-106.862,-45.971907)" />
  <use
     x="441.42188"
     y="644"
     xlink:href="#g"
     id="use444"
     transform="translate(-106.862,-45.971907)" />
  <use
     x="461.35938"
     y="644"
     xlink:href="#f"
     id="use446"
     transform="translate(-106.862,-45.971907)" />
  <use
     x="470.95312"
     y="644"
     xlink:href="#c"
     id="use448"
     transform="translate(-106.862,-45.971907)" />
  <use
     x="70"
     y="672"
     xlink:href="#s"
     id="use450"
     transform="translate(-106.862,-45.971907)" />
  <use
     x="82.183594"
     y="672"
     xlink:href="#d"
     id="use452"
     transform="translate(-106.862,-45.971907)" />
  <use
     x="95.992188"
     y="672"
     xlink:href="#e"
     id="use454"
     transform="translate(-106.862,-45.971907)" />
  <use
     x="115.22656"
     y="672"
     xlink:href="#r"
     id="use456"
     transform="translate(-106.862,-45.971907)" />
  <use
     x="154.15234"
     y="672"
     xlink:href="#b"
     id="use458"
     transform="translate(-106.862,-45.971907)" />
  <use
     x="167.53516"
     y="672"
     xlink:href="#q"
     id="use460"
     transform="translate(-106.862,-45.971907)" />
  <use
     x="187.46875"
     y="672"
     xlink:href="#a"
     id="use462"
     transform="translate(-106.862,-45.971907)" />
  <use
     x="216.20703"
     y="672"
     xlink:href="#p"
     id="use464"
     transform="translate(-106.862,-45.971907)" />
  <use
     x="239.64062"
     y="672"
     xlink:href="#e"
     id="use466"
     transform="translate(-106.862,-45.971907)" />
  <use
     x="258.87891"
     y="672"
     xlink:href="#o"
     id="use468"
     transform="translate(-106.862,-45.971907)" />
  <use
     x="278.8125"
     y="672"
     xlink:href="#g"
     id="use470"
     transform="translate(-106.862,-45.971907)" />
  <use
     x="308.49219"
     y="672"
     xlink:href="#n"
     id="use472"
     transform="translate(-106.862,-45.971907)" />
  <use
     x="329.01562"
     y="672"
     xlink:href="#d"
     id="use474"
     transform="translate(-106.862,-45.971907)" />
  <use
     x="342.82031"
     y="672"
     xlink:href="#e"
     id="use476"
     transform="translate(-106.862,-45.971907)" />
  <use
     x="362.05859"
     y="672"
     xlink:href="#m"
     id="use478"
     transform="translate(-106.862,-45.971907)" />
  <use
     x="371.65625"
     y="672"
     xlink:href="#a"
     id="use480"
     transform="translate(-106.862,-45.971907)" />
  <use
     x="390.64844"
     y="672"
     xlink:href="#l"
     id="use482"
     transform="translate(-106.862,-45.971907)" />
  <use
     x="407.24219"
     y="672"
     xlink:href="#b"
     id="use484"
     transform="translate(-106.862,-45.971907)" />
</svg>
