<?xml version="1.0" encoding="UTF-8" standalone="no"?>
<svg
   width="548.79443pt"
   height="483.72919pt"
   version="1.1"
   viewBox="0 0 548.79443 483.72919"
   id="svg4"
   sodipodi:docname="noun-volunteering-5289543.svg"
   inkscape:version="1.2.2 (b0a8486541, 2022-12-01)"
   xmlns:inkscape="http://www.inkscape.org/namespaces/inkscape"
   xmlns:sodipodi="http://sodipodi.sourceforge.net/DTD/sodipodi-0.dtd"
   xmlns="http://www.w3.org/2000/svg"
   xmlns:svg="http://www.w3.org/2000/svg">
  <defs
     id="defs8" />
  <sodipodi:namedview
     id="namedview6"
     pagecolor="#ffffff"
     bordercolor="#666666"
     borderopacity="1.0"
     inkscape:showpageshadow="2"
     inkscape:pageopacity="0.0"
     inkscape:pagecheckerboard="0"
     inkscape:deskcolor="#d1d1d1"
     inkscape:document-units="pt"
     showgrid="false"
     inkscape:zoom="0.25285714"
     inkscape:cx="330.22599"
     inkscape:cy="415.25424"
     inkscape:window-width="1920"
     inkscape:window-height="1017"
     inkscape:window-x="-8"
     inkscape:window-y="-8"
     inkscape:window-maximized="1"
     inkscape:current-layer="svg4" />
  <path
     d="m 262.83678,0 c -11.832,0 -22.324,6.0859 -29.738,14.734 -7.4141,8.6484 -11.984,19.961 -11.984,31.363 0,32.477 19.629,57.098 38.754,73.375 19.125,16.277 38.27,24.652 38.27,24.652 1.1719,0.51562 2.5039,0.51562 3.6797,0 0,0 19.145,-8.375 38.27,-24.652 19.129,-16.277 38.754,-40.902 38.754,-73.375 0,-11.402 -4.5703,-22.715 -11.984,-31.363 C 359.44438,6.0856 348.96348,0 337.12848,0 c -15.926,0 -29.754,10.148 -37.117,23.414 C 292.69508,10.078 278.82748,0 262.83548,0 Z m -124.17,90.488 c -1.125,-0.043 -2.2852,0.0859 -3.4531,0.38281 -6.1484,1.6484 -9.6758,7.7461 -8.0273,13.898 l 25.613,95.602 c 1.6758,5.9492 -7.3203,8.3555 -8.8359,2.3633 -6.7031,-25.027 -13.402,-50.055 -20.105,-75.082 -1.6484,-6.1523 -7.7539,-9.6758 -13.902,-8.0273 -6.1484,1.6484 -9.6719,7.75 -8.0234,13.902 l 28.336,105.8 c 21.859,-9.1797 47.547,-1.9961 59.586,18.422 3.4297,5.332 -4.8672,10.227 -7.8711,4.6445 -10.434,-17.691 -33.949,-23.668 -52.609,-13.113 -1.7891,1.0156 -4.0312,0.71094 -5.4883,-0.74219 l -41.886998,-41.914 c -5.5391,-5.543 -14.258,-5.543 -19.797,0 -5.5391,5.543 -5.5391,14.266 0,19.809 14.676,14.684 29.352,29.383 44.038998,44.051 20.738,21.094 47.273,36.535 76.027,43.34 1.7031,0.40234 3.0234,1.7383 3.4102,3.4414 l 12.629,55.703 7.9219,-2.125 c 0.98047,-0.26562 2.0273,-0.19141 2.9648,0.19141 l 30.777,12.949 20.184,-26.613 c 0.61328,-0.80469 1.4805,-1.3828 2.457,-1.6445 l 7.957,-2.1328 -16.898,-54.602 c -0.25,-0.8125 -0.27344,-1.6758 -0.0625,-2.5 4.25,-17.125 5.1484,-34.355 -1.0977,-57.68 l -30.902,-115.38 c -1.6484,-6.1523 -7.75,-9.6758 -13.898,-8.0273 -6.1484,1.6484 -9.668,7.75 -8.0195,13.902 l 14.617,54.582 c 1.6836,5.9531 -7.3242,8.3594 -8.8359,2.3633 l -14.613,-54.57 v -0.043 l -5.4883,-20.484 c -1.6484,-6.1523 -7.7539,-9.6758 -13.898,-8.0273 -6.1328,1.6445 -9.6484,7.7305 -8.0273,13.867 l 20.121,75.125 c 1.6406,5.9258 -7.2891,8.3242 -8.8359,2.3711 l -25.605,-95.602 c -1.375,-5.125 -5.5703,-8.2539 -10.441,-8.4062 z m -87.839998,14.73 c -3.4062,0.0195 -6.6914,0.84375 -9.707,2.543 -6.3164,3.6406 -9.793,10.117 -10.699,16.879 -6.3281,-2.6172 -13.695,-2.8164 -20.027,0.83203 -5.6055003,3.2305 -8.8281003,8.918 -9.93360035,14.805 -1.1055,5.8867 -0.23828,12.172 2.80860005,17.445 8.2383003,14.246 23.0160003,19.98 35.1840003,22.207 12.172,2.2266 22.406,1.082 22.406,1.082 1.2734,-0.14844 2.4219,-0.80859 3.1797,-1.8398 0,0 6.1172,-8.2812 10.273,-19.918 4.1562,-11.641 6.5664,-27.289 -1.6719,-41.531 -3.0508,-5.2734 -8.0703,-9.1523 -13.723,-11.141 -2.7227,-0.91406 -5.4414,-1.3789 -8.0898,-1.3633 z m 376.609998,16.055 c -3.9961,0.10547 -7.6406,2.7344 -8.8008,7.0664 -7.543,28.168 -15.086,56.348 -22.641,84.531 -1.5156,5.9922 -10.512,3.5859 -8.8359,-2.3633 l 17.816,-66.52 c 1.3086,-5.1328 -1.6133,-10.145 -6.7031,-11.508 -5.125,-1.375 -10.203,1.5625 -11.586,6.7383 l -17.781,66.395 c -1.5469,5.9531 -10.477,3.5547 -8.832,-2.3711 4.3047,-16.078 8.6406,-32.203 12.902,-48.258 1.3867,-5.1719 -1.543,-10.258 -6.668,-11.633 -5.125,-1.375 -10.207,1.5625 -11.594,6.7344 -9.1133,34.027 -18.246,68.062 -27.324,102.09 -4.7109,16.648 -5.1914,34.457 -1.0039,50.656 0.21094,0.82422 0.19141,1.6875 -0.0625,2.5 l -14.773,47.75 6.4688,1.7344 c 1.3516,0.35938 2.4648,1.3203 3.0195,2.6055 0,0 4.5156,10.918 18.945,14.789 14.43,3.8672 23.797,-3.3242 23.797,-3.3242 1.1211,-0.83594 2.5625,-1.1094 3.9141,-0.75 l 6.418,1.7227 11.047,-48.719 c 0.39062,-1.6992 1.707,-3.0312 3.4023,-3.4336 22.844,-5.7188 45.852,-17.285 66.82,-38.258 l 38.82,-38.949 c 4.6797,-4.7031 4.6797,-12.074 0,-16.766 -4.6797,-4.6953 -11.996,-4.6875 -16.684,0.0156 l -36.957,37.078 c -1.4531,1.4531 -3.6914,1.7617 -5.4805,0.75 -16.184,-9.1719 -36.578,-3.957 -45.641,11.445 -3.0234,5.5 -11.215,0.68359 -7.8828,-4.6328 10.66,-18.117 33.273,-24.582 52.656,-16.738 l 24.91,-93.016 c 1.3828,-5.1719 -1.543,-10.258 -6.668,-11.629 -5.1094,-1.3711 -10.172,1.543 -11.578,6.6797 l -17.801,66.453 c -1.5273,5.9844 -10.512,3.5742 -8.8359,-2.3711 7.5469,-28.18 15.094,-56.352 22.641,-84.527 1.3828,-5.1719 -1.5352,-10.258 -6.6562,-11.637 -0.004,0 -0.004,0 0,0 h -0.004 c -0.92969,-0.25 -1.8672,-0.35547 -2.7852,-0.33203 z m 79.883,11.406 c -7.7695,-0.36328 -15.191,4.3438 -18.902,10.539 -6.832,11.805 -4.8125,24.73 -1.4102,34.258 3.4023,9.5273 8.4141,16.297 8.4141,16.297 0.75781,1.0273 1.9102,1.6914 3.1797,1.832 0,0 8.3828,0.94141 18.348,-0.87891 9.9648,-1.8242 22.188,-6.5352 29.02,-18.336 5.7227,-10.43 2.2773,-22.211 -6.0781,-27.238 -5.332,-3.0703 -11.137,-2.3359 -16.438,-0.19141 -0.80078,-5.6406 -3.0508,-11.027 -8.3789,-14.094 -2.543,-1.3789 -5.1719,-2.0625 -7.7617,-2.1836 z m -218.56,225.5 -22.262,5.9648 -21.383,28.191 c -1.2617,1.6641 -3.4922,2.2617 -5.418,1.4531 l -32.602,-13.715 -22.27,5.9648 8.625,32.191 103.93,-27.859 z m 9.6992,0.86719 8.4844,31.68 71.453,19.156 7.3477,-27.438 -18.93,-5.0742 c -2.9844,1.8906 -13.387,7.9219 -29.207,3.6797 -15.82,-4.2422 -21.812,-14.668 -23.453,-17.801 z m 1.293,40.152 -103.93,27.863 15.18,56.668 103.93,-27.859 z m 9.9258,1.7344 14.609,54.559 38.645,12.121 13.098,-48.895 z"
     id="path2" />
</svg>
