<?xml version="1.0" encoding="UTF-8" standalone="no"?>
<svg
   width="542.5pt"
   height="542.5pt"
   version="1.1"
   viewBox="0 0 542.5 542.5"
   id="svg99"
   sodipodi:docname="noun-technical-2927762.svg"
   inkscape:version="1.2.2 (b0a8486541, 2022-12-01)"
   xmlns:inkscape="http://www.inkscape.org/namespaces/inkscape"
   xmlns:sodipodi="http://sodipodi.sourceforge.net/DTD/sodipodi-0.dtd"
   xmlns:xlink="http://www.w3.org/1999/xlink"
   xmlns="http://www.w3.org/2000/svg"
   xmlns:svg="http://www.w3.org/2000/svg">
  <sodipodi:namedview
     id="namedview101"
     pagecolor="#ffffff"
     bordercolor="#666666"
     borderopacity="1.0"
     inkscape:showpageshadow="2"
     inkscape:pageopacity="0.0"
     inkscape:pagecheckerboard="0"
     inkscape:deskcolor="#d1d1d1"
     inkscape:document-units="pt"
     showgrid="false"
     inkscape:zoom="0.25285714"
     inkscape:cx="69.20904"
     inkscape:cy="456.77966"
     inkscape:window-width="1368"
     inkscape:window-height="850"
     inkscape:window-x="-6"
     inkscape:window-y="-6"
     inkscape:window-maximized="1"
     inkscape:current-layer="svg99" />
  <defs
     id="defs41">
    <symbol
       id="m"
       overflow="visible">
      <path
         d="m 29.312,-1.75 c -1.5117,0.78125 -3.0898,1.3711 -4.7344,1.7656 -1.6367,0.40625 -3.3398,0.60938 -5.1094,0.60938 -5.3125,0 -9.5273,-1.4844 -12.641,-4.4531 -3.1055,-2.9688 -4.6562,-7 -4.6562,-12.094 0,-5.094 1.5508,-9.125 4.6562,-12.094 3.1133,-2.9688 7.3281,-4.4531 12.641,-4.4531 1.7695,0 3.4727,0.19922 5.1094,0.59375 1.6445,0.39844 3.2227,0.99219 4.7344,1.7812 v 6.5938 c -1.5312,-1.0391 -3.0391,-1.8008 -4.5156,-2.2812 -1.4805,-0.48828 -3.0391,-0.73438 -4.6719,-0.73438 -2.9375,0 -5.2461,0.94531 -6.9219,2.8281 -1.6797,1.875 -2.5156,4.4648 -2.5156,7.7656 0,3.293 0.83594,5.8828 2.5156,7.7656 1.6758,1.875 3.9844,2.8125 6.9219,2.8125 1.6328,0 3.1914,-0.23828 4.6719,-0.71875 1.4766,-0.48828 2.9844,-1.2539 4.5156,-2.2969 z"
         id="path2" />
    </symbol>
    <symbol
       id="h"
       overflow="visible">
      <path
         d="m 21.453,-17.406 c -0.67969,-0.3125 -1.3516,-0.53906 -2.0156,-0.6875 -0.65625,-0.15625 -1.3203,-0.23438 -1.9844,-0.23438 -1.9688,0 -3.4844,0.63281 -4.5469,1.8906 -1.0547,1.2617 -1.5781,3.0703 -1.5781,5.4219 V 6.2e-4 H 3.6718 v -23.922 h 7.6562 v 3.9219 c 0.97656,-1.5625 2.1016,-2.7031 3.375,-3.4219 1.2812,-0.71875 2.8125,-1.0781 4.5938,-1.0781 0.25,0 0.52344,0.01172 0.82812,0.03125 0.30078,0.02344 0.73438,0.07031 1.2969,0.14062 z"
         id="path5" />
    </symbol>
    <symbol
       id="c"
       overflow="visible">
      <path
         d="m 27.562,-12.031 v 2.1875 H 9.671 c 0.1875,1.793 0.83203,3.1367 1.9375,4.0312 1.1133,0.89844 2.6719,1.3438 4.6719,1.3438 1.6016,0 3.25,-0.23438 4.9375,-0.70312 1.6875,-0.47656 3.4219,-1.2031 5.2031,-2.1719 v 5.8906 c -1.8047,0.6875 -3.6094,1.2031 -5.4219,1.5469 -1.8125,0.35156 -3.6211,0.53125 -5.4219,0.53125 -4.3359,0 -7.7031,-1.0977 -10.109,-3.2969 -2.3984,-2.207 -3.5938,-5.2969 -3.5938,-9.2656 0,-3.9062 1.1758,-6.9727 3.5312,-9.2031 2.3633,-2.2383 5.6094,-3.3594 9.7344,-3.3594 3.7578,0 6.7695,1.1367 9.0312,3.4062 2.2578,2.2617 3.3906,5.2812 3.3906,9.0625 z m -7.8594,-2.5312 c 0,-1.457 -0.42969,-2.6289 -1.2812,-3.5156 -0.84375,-0.89453 -1.9492,-1.3438 -3.3125,-1.3438 -1.4922,0 -2.6992,0.41797 -3.625,1.25 -0.91797,0.83594 -1.4922,2.0391 -1.7188,3.6094 z"
         id="path8" />
    </symbol>
    <symbol
       id="b"
       overflow="visible">
      <path
         d="m 14.391,-10.766 c -1.5938,0 -2.793,0.27344 -3.5938,0.8125 -0.80469,0.54297 -1.2031,1.3398 -1.2031,2.3906 0,0.96875 0.32031,1.7305 0.96875,2.2812 0.64453,0.54297 1.5469,0.8125 2.7031,0.8125 1.4375,0 2.6445,-0.51562 3.625,-1.5469 0.98828,-1.0312 1.4844,-2.3203 1.4844,-3.875 v -0.875 z m 11.688,-2.8906 V -6e-4 h -7.7031 v -3.5469 c -1.0312,1.4492 -2.1875,2.5078 -3.4688,3.1719 -1.2813,0.6641 -2.8398,1 -4.6719,1 -2.4805,0 -4.4961,-0.72266 -6.0469,-2.1719 -1.543,-1.4453 -2.3125,-3.3203 -2.3125,-5.625 0,-2.8125 0.96094,-4.8672 2.8906,-6.1719 1.9375,-1.3125 4.9688,-1.9688 9.0938,-1.9688 h 4.5156 v -0.60938 c 0,-1.207 -0.48047,-2.0938 -1.4375,-2.6562 -0.94922,-0.5625 -2.4375,-0.84375 -4.4688,-0.84375 -1.6367,0 -3.1562,0.16797 -4.5625,0.5 -1.4062,0.32422 -2.7188,0.8125 -3.9375,1.4688 v -5.8281 c 1.6445,-0.40625 3.2891,-0.70703 4.9375,-0.90625 1.6562,-0.20703 3.3047,-0.3125 4.9531,-0.3125 4.3203,0 7.4375,0.85547 9.3438,2.5625 1.9141,1.6992 2.875,4.4609 2.875,8.2812 z"
         id="path11" />
    </symbol>
    <symbol
       id="g"
       overflow="visible">
      <path
         d="m 12.031,-30.719 v 6.7969 h 7.875 v 5.4688 h -7.875 v 10.141 c 0,1.1172 0.21875,1.8711 0.65625,2.2656 0.4375,0.38672 1.3125,0.57812 2.625,0.57812 h 3.9375 v 5.4688 h -6.5625 c -3.0234,0 -5.1641,-0.62891 -6.4219,-1.8906 -1.2617,-1.2578 -1.8906,-3.3984 -1.8906,-6.4219 v -10.141 h -3.7969 v -5.4688 h 3.7969 v -6.7969 z"
         id="path14" />
    </symbol>
    <symbol
       id="f"
       overflow="visible">
      <path
         d="m 19.953,-20.422 v -12.812 h 7.6875 V 0 H 19.953 v -3.4531 c -1.0547,1.4062 -2.2148,2.4375 -3.4844,3.0938 -1.2734,0.65625 -2.7422,0.98438 -4.4062,0.98438 -2.9492,0 -5.3711,-1.1719 -7.2656,-3.5156 -1.8867,-2.3438 -2.8281,-5.3594 -2.8281,-9.0469 0,-3.6875 0.94141,-6.7031 2.8281,-9.0469 1.8945,-2.3438 4.3164,-3.5156 7.2656,-3.5156 1.6562,0 3.1172,0.33594 4.3906,1 1.2812,0.65625 2.4453,1.6836 3.5,3.0781 z m -5.0469,15.484 c 1.6445,0 2.8945,-0.59766 3.75,-1.7969 0.86328,-1.1953 1.2969,-2.9297 1.2969,-5.2031 0,-2.2812 -0.43359,-4.0195 -1.2969,-5.2188 -0.85547,-1.1953 -2.1055,-1.7969 -3.75,-1.7969 -1.625,0 -2.8711,0.60156 -3.7344,1.7969 -0.85547,1.1992 -1.2812,2.9375 -1.2812,5.2188 0,2.2734 0.42578,4.0078 1.2812,5.2031 0.86328,1.1992 2.1094,1.7969 3.7344,1.7969 z"
         id="path17" />
    </symbol>
    <symbol
       id="e"
       overflow="visible">
      <path
         d="m 16.406,-4.9375 c 1.6328,0 2.8828,-0.59766 3.75,-1.7969 0.86328,-1.1953 1.2969,-2.9297 1.2969,-5.2031 0,-2.2812 -0.43359,-4.0195 -1.2969,-5.2188 -0.86719,-1.1953 -2.1172,-1.7969 -3.75,-1.7969 -1.6367,0 -2.8906,0.60547 -3.7656,1.8125 -0.875,1.1992 -1.3125,2.9336 -1.3125,5.2031 0,2.2617 0.4375,3.9961 1.3125,5.2031 0.875,1.1992 2.1289,1.7969 3.7656,1.7969 z m -5.0781,-15.484 c 1.0508,-1.3945 2.2188,-2.4219 3.5,-3.0781 1.2812,-0.66406 2.7539,-1 4.4219,-1 2.9453,0 5.3672,1.1719 7.2656,3.5156 1.8945,2.3438 2.8438,5.3594 2.8438,9.0469 0,3.6875 -0.94922,6.7031 -2.8438,9.0469 -1.8984,2.3438 -4.3203,3.5156 -7.2656,3.5156 -1.668,0 -3.1406,-0.33594 -4.4219,-1 -1.2813,-0.66406 -2.4492,-1.6914 -3.5,-3.0781 V 4e-4 H 3.6717 v -33.234 h 7.6562 z"
         id="path20" />
    </symbol>
    <symbol
       id="a"
       overflow="visible">
      <path
         d="m 0.53125,-23.922 h 7.6562 l 6.4219,16.234 5.4688,-16.234 h 7.6562 l -10.062,26.188 c -1.0117,2.6641 -2.1953,4.5234 -3.5469,5.5781 -1.3438,1.0625 -3.1211,1.5938 -5.3281,1.5938 H 4.37545 V 4.4223 h 2.3906 c 1.3008,0 2.2422,-0.21094 2.8281,-0.625 0.59375,-0.40625 1.0547,-1.1484 1.3906,-2.2188 l 0.20312,-0.65625 z"
         id="path23" />
    </symbol>
    <symbol
       id="d"
       overflow="visible">
      <path
         d="m 4.0156,-31.891 h 22.203 v 6.2188 h -13.984 v 5.9375 h 13.141 v 6.2188 h -13.141 v 7.2969 h 14.453 V -2e-4 H 4.0156 Z"
         id="path26" />
    </symbol>
    <symbol
       id="l"
       overflow="visible">
      <path
         d="m 3.4219,-9.3125 v -14.609 h 7.6875 v 2.3906 c 0,1.293 -0.01172,2.918 -0.03125,4.875 -0.01172,1.9609 -0.01563,3.2656 -0.01563,3.9219 0,1.9297 0.04687,3.3125 0.14062,4.1562 0.10156,0.84375 0.28125,1.4609 0.53125,1.8438 0.3125,0.5 0.71875,0.88672 1.2188,1.1562 0.50781,0.27344 1.0938,0.40625 1.75,0.40625 1.5938,0 2.8438,-0.60938 3.75,-1.8281 0.91406,-1.2266 1.375,-2.9297 1.375,-5.1094 v -11.812 h 7.6406 v 23.922 h -7.6406 v -3.4531 c -1.1562,1.3867 -2.3828,2.4141 -3.6719,3.0781 -1.2812,0.66406 -2.6992,1 -4.25,1 -2.7734,0 -4.8828,-0.84766 -6.3281,-2.5469 -1.4375,-1.6953 -2.1562,-4.1602 -2.1562,-7.3906 z"
         id="path29" />
    </symbol>
    <symbol
       id="k"
       overflow="visible">
      <path
         d="m 23,-23.172 v 6.2344 c -1.0312,-0.71875 -2.0742,-1.2422 -3.125,-1.5781 -1.043,-0.34375 -2.125,-0.51562 -3.25,-0.51562 -2.1367,0 -3.8047,0.625 -5,1.875 -1.1875,1.2422 -1.7812,2.9805 -1.7812,5.2188 0,2.2305 0.59375,3.9688 1.7812,5.2188 1.1953,1.25 2.8633,1.875 5,1.875 1.1953,0 2.332,-0.17578 3.4062,-0.53125 1.0703,-0.36328 2.0625,-0.89453 2.9688,-1.5938 v 6.2656 c -1.1875,0.4375 -2.4023,0.76562 -3.6406,0.98438 -1.2305,0.22656 -2.4648,0.34375 -3.7031,0.34375 -4.3125,0 -7.6875,-1.1094 -10.125,-3.3281 -2.4375,-2.2187 -3.6562,-5.2969 -3.6562,-9.2344 0,-3.9453 1.2188,-7.0234 3.6562,-9.2344 2.4375,-2.2188 5.8125,-3.3281 10.125,-3.3281 1.25,0 2.4844,0.10938 3.7031,0.32812 1.2187,0.21874 2.4297,0.55469 3.6406,1 z"
         id="path32" />
    </symbol>
    <symbol
       id="j"
       overflow="visible">
      <path
         d="m 3.6719,-33.234 h 7.6562 V 0 H 3.6719 Z"
         id="path35" />
    </symbol>
    <symbol
       id="i"
       overflow="visible">
      <path
         d="M 11.328,-3.4531 V 9.0939 H 3.6718 v -33.016 h 7.6562 v 3.5 c 1.0508,-1.3945 2.2188,-2.4219 3.5,-3.0781 1.2812,-0.66406 2.7539,-1 4.4219,-1 2.9453,0 5.3672,1.1719 7.2656,3.5156 1.8945,2.3438 2.8438,5.3594 2.8438,9.0469 0,3.6875 -0.94922,6.7031 -2.8438,9.0469 -1.8984,2.3438 -4.3203,3.5156 -7.2656,3.5156 -1.668,0 -3.1406,-0.33594 -4.4219,-1 -1.2813,-0.66406 -2.4492,-1.6914 -3.5,-3.0781 z m 5.0781,-15.5 c -1.6367,0 -2.8906,0.60547 -3.7656,1.8125 -0.875,1.1992 -1.3125,2.9336 -1.3125,5.2031 0,2.2617 0.4375,3.9961 1.3125,5.2031 0.875,1.1992 2.1289,1.7969 3.7656,1.7969 1.6328,0 2.8828,-0.59766 3.75,-1.7969 0.86328,-1.1953 1.2969,-2.9297 1.2969,-5.2031 0,-2.2812 -0.43359,-4.0195 -1.2969,-5.2188 -0.86719,-1.1953 -2.1172,-1.7969 -3.75,-1.7969 z"
         id="path38" />
    </symbol>
  </defs>
  <path
     d="m 190.7337,430.324 14.262,-9.9297 9.9961,14.352 -14.262,9.9297 z"
     id="path43" />
  <path
     d="m 222.5037,408.234 119.07,-82.926 9.9961,14.352 -119.07,82.926 z"
     id="path45" />
  <path
     d="m 519.4437,118.894 c -2.9062,-10.141 -6.957,-19.906 -12.082,-29.156 l 12.477,-20.152 -46.93,-46.922 -20.152,12.477 c -9.25,-5.1289 -19.016,-9.1797 -29.156,-12.082 L 418.1788,0 h -66.359 l -5.4258,23.055 c -10.141,2.9062 -19.906,6.957 -29.156,12.082 L 297.09,22.664 250.164,69.59 262.641,89.742 c -5.1289,9.25 -9.1797,19.016 -12.082,29.156 l -23.059,5.4219 v 16.766 c -4.1406,1.043 -8.0938,2.8008 -11.516,5.3711 l -59.07,44.293 c -1.5039,1.1289 -3.3672,1.75 -5.25,1.75 h -21.387 c 11.387,-11.129 18.473,-26.617 18.473,-43.75 0,-33.766 -27.484,-61.25 -61.25,-61.25 -33.766,0 -61.25,27.484 -61.25,61.25 0,20.02 9.6953,37.766 24.598,48.949 C 21.176,208.992 0,237.66 0,271.25 V 507.5 c 0,19.301 15.699,35 35,35 H 542.5 V 124.32 Z m -475.7,29.855 c 0,-24.125 19.625,-43.75 43.75,-43.75 24.125,0 43.75,19.625 43.75,43.75 0,24.125 -19.625,43.75 -43.75,43.75 -24.125,0 -43.75,-19.625 -43.75,-43.75 z m -26.25,122.5 c 0,-33.766 27.484,-61.25 61.25,-61.25 h 72.914 c 5.6523,0 11.242,-1.8711 15.75,-5.2578 l 59.062,-44.293 c 2.5469,-1.8984 5.6875,-2.9492 8.8633,-2.9492 h 3.6562 c 8.1289,0 14.754,6.625 14.754,14.762 0,4.5859 -2.0742,8.8281 -5.6953,11.645 l -55.457,43.137 c -7.6328,5.9336 -17.168,9.207 -26.863,9.207 h -69.484 v 96.25 h 35 c 14.473,0 26.25,11.777 26.25,26.25 v 78.742 c 0,9.6602 -7.8477,17.508 -17.508,17.508 -4.6719,0 -9.0742,-1.8203 -12.383,-5.1289 -3.2969,-3.3086 -5.1172,-7.6992 -5.1172,-12.371 l 0.008,-52.5 c 0,-9.6523 -7.8477,-17.5 -17.5,-17.5 h -61.25 c -14.473,0 -26.249998,-11.777 -26.249998,-26.25 z m 113.75,43.75 h -17.5 v -61.25 h 51.984 c 13.562,0 26.914,-4.5781 37.609,-12.906 l 49.289,-38.332 c 2.668,7.8594 5.9688,15.48 10.012,22.75 l -12.477,20.152 46.926,46.926 20.152,-12.477 c 5.5039,3.0547 11.242,5.5898 17.09,7.8672 l -159.34,110.9 v -39.883 c 0,-24.125 -19.625,-43.75 -43.75,-43.75 z m -61.25,70 h 35 l -0.008,52.484 v 0.008 c 0,3.0469 0.51562,5.9766 1.2617,8.8477 l -36.254,25.328 z m -52.5,122.5 v -131.48 c 7.332,5.5547 16.363,8.9766 26.25,8.9766 h 8.75 v 122.5 c 0,9.6523 -7.8477,17.5 -17.5,17.5 -9.6523,0 -17.5,-7.8477 -17.5,-17.5 z m 507.5,17.5 h -459.86 c 3.0078,-5.1719 4.8633,-11.094 4.8633,-17.5 v -14.48 l 44.801,-31.309 c 0.15625,0.16797 0.26953,0.36719 0.4375,0.53516 6.6133,6.6133 15.406,10.254 24.754,10.254 19.301,0 35.008,-15.707 35.008,-35.008 v -17.543 l 173.15,-120.52 3.668,15.574 h 66.359 l 5.4258,-23.055 c 10.141,-2.9062 19.906,-6.957 29.156,-12.082 l 20.152,12.477 46.926,-46.926 -12.477,-20.152 c 5.1289,-9.25 9.1797,-19.016 12.082,-29.156 l 5.5547,-1.3047 z m 0,-348.18 -19.891,4.6797 -1.2773,5.2148 c -2.9414,12.039 -7.707,23.52 -14.148,34.152 l -2.7812,4.5781 10.754,17.379 -27.328,27.328 -17.379,-10.754 -4.5781,2.7812 c -10.633,6.4414 -22.109,11.207 -34.152,14.148 l -5.2148,1.2773 -4.6836,19.895 h -38.641 l -4.6797,-19.891 -5.2148,-1.2773 c -12.039,-2.9414 -23.52,-7.707 -34.152,-14.148 l -4.5781,-2.7812 -17.379,10.754 -27.328,-27.328 10.754,-17.379 -2.7812,-4.5781 c -6.125,-10.098 -10.676,-20.984 -13.641,-32.375 2.8633,-4.8672 4.5703,-10.383 4.5703,-16.234 0,-15.734 -11.332,-28.824 -26.25,-31.648 v -2.4219 l 19.891,-4.6797 1.2773,-5.2148 c 2.9414,-12.039 7.707,-23.52 14.148,-34.152 l 2.7812,-4.5781 -10.754,-17.379 27.328,-27.328 17.379,10.754 4.5781,-2.7812 c 10.633,-6.4414 22.109,-11.207 34.152,-14.148 l 5.2148,-1.2773 4.6836,-19.906 h 38.641 l 4.6797,19.891 5.2148,1.2773 c 12.039,2.9414 23.52,7.707 34.152,14.148 l 4.5781,2.7812 17.379,-10.754 27.328,27.328 -10.754,17.379 2.7812,4.5781 c 6.4414,10.633 11.207,22.109 14.148,34.152 l 1.2773,5.2148 19.895,4.6836 z"
     id="path47" />
  <path
     d="m 384.9937,52.504 c -57.898,0 -105,47.102 -105,105 0,57.898 47.102,105 105,105 57.898,0 105,-47.102 105,-105 0,-57.898 -47.102,-105 -105,-105 z m 0,192.5 c -48.246,0 -87.5,-39.254 -87.5,-87.5 0,-48.246 39.254,-87.5 87.5,-87.5 48.246,0 87.5,39.254 87.5,87.5 0,48.246 -39.254,87.5 -87.5,87.5 z"
     id="path49" />
  <path
     d="m 384.9937,105.004 c -28.953,0 -52.5,23.547 -52.5,52.5 0,28.953 23.547,52.5 52.5,52.5 28.953,0 52.5,-23.547 52.5,-52.5 0,-28.953 -23.547,-52.5 -52.5,-52.5 z m 0,87.5 c -19.301,0 -35,-15.699 -35,-35 0,-19.301 15.699,-35 35,-35 19.301,0 35,15.699 35,35 0,19.301 -15.699,35 -35,35 z"
     id="path51" />
  <path
     d="m 489.9937,490.004 h 17.5 v 17.5 h -17.5 z"
     id="path53" />
  <path
     d="m 489.9937,455.004 h 17.5 v 17.5 h -17.5 z"
     id="path55" />
  <path
     d="m 489.9937,420.004 h 17.5 v 17.5 h -17.5 z"
     id="path57" />
  <path
     d="m 87.4937,490.004 h 17.5 v 17.5 h -17.5 z"
     id="path59" />
  <path
     d="m 122.4937,490.004 h 17.5 v 17.5 h -17.5 z"
     id="path61" />
  <path
     d="m 157.4937,490.004 h 17.5 v 17.5 h -17.5 z"
     id="path63" />
  <use
     x="70"
     y="691.25"
     xlink:href="#m"
     id="use65"
     transform="translate(-78.7563,-8.746)" />
  <use
     x="102.10938"
     y="691.25"
     xlink:href="#h"
     id="use67"
     transform="translate(-78.7563,-8.746)" />
  <use
     x="123.68359"
     y="691.25"
     xlink:href="#c"
     id="use69"
     transform="translate(-78.7563,-8.746)" />
  <use
     x="153.35547"
     y="691.25"
     xlink:href="#b"
     id="use71"
     transform="translate(-78.7563,-8.746)" />
  <use
     x="182.87891"
     y="691.25"
     xlink:href="#g"
     id="use73"
     transform="translate(-78.7563,-8.746)" />
  <use
     x="203.79297"
     y="691.25"
     xlink:href="#c"
     id="use75"
     transform="translate(-78.7563,-8.746)" />
  <use
     x="233.46484"
     y="691.25"
     xlink:href="#f"
     id="use77"
     transform="translate(-78.7563,-8.746)" />
  <use
     x="280.01172"
     y="691.25"
     xlink:href="#e"
     id="use79"
     transform="translate(-78.7563,-8.746)" />
  <use
     x="311.32812"
     y="691.25"
     xlink:href="#a"
     id="use81"
     transform="translate(-78.7563,-8.746)" />
  <use
     x="355.07812"
     y="691.25"
     xlink:href="#d"
     id="use83"
     transform="translate(-78.7563,-8.746)" />
  <use
     x="384.96484"
     y="691.25"
     xlink:href="#l"
     id="use85"
     transform="translate(-78.7563,-8.746)" />
  <use
     x="416.11328"
     y="691.25"
     xlink:href="#k"
     id="use87"
     transform="translate(-78.7563,-8.746)" />
  <use
     x="442.04688"
     y="691.25"
     xlink:href="#b"
     id="use89"
     transform="translate(-78.7563,-8.746)" />
  <use
     x="471.57031"
     y="691.25"
     xlink:href="#j"
     id="use91"
     transform="translate(-78.7563,-8.746)" />
  <use
     x="486.56641"
     y="691.25"
     xlink:href="#a"
     id="use93"
     transform="translate(-78.7563,-8.746)" />
  <use
     x="515.08203"
     y="691.25"
     xlink:href="#i"
     id="use95"
     transform="translate(-78.7563,-8.746)" />
</svg>
