<?xml version="1.0" encoding="UTF-8" standalone="no"?><svg xmlns="http://www.w3.org/2000/svg" xmlns:xlink="http://www.w3.org/1999/xlink" contentStyleType="text/css" height="463px" preserveAspectRatio="none" style="width:471px;height:463px;background:#00000000;" version="1.1" viewBox="0 0 471 463" width="471px" zoomAndPan="magnify"><defs/><g><path d="M204.5,10 L204.6868,10 L204.1317,12.0057 L204.6718,14.0115 L204.8553,16.0172 L203.8659,18.0229 L204.5,20.0287 L204.4865,19.9609 L200.4257,20.4569 L196.4331,21.2944 L192.4881,22.3693 L188.3795,22.6261 L184.5,24.0287 L184.5965,24.5113 L188.3901,24.2793 L192.4655,25.4563 L196.5753,26.8052 L200.485,27.1539 L204.5,28.0287 L204.5607,28.0287 L204.4716,30.0344 L204.6587,32.0402 L204.7126,34.0459 L205.0206,36.0516 L204.5,38.0574 L204.5,38.0574 L204.5,39.8469 L215.3,39.8687 L226.1,38.7364 L236.9,39.2936 L247.7,39.93 L258.5,38.0574 L258.5,38.0574 L257.8589,38.0574 L259.1031,34.4459 L258.2364,30.8344 L258.9745,27.2229 L258.06,23.6115 L258.5,20 L258.4569,19.9569 L256.9661,18.4661 L254.4694,15.9694 L252.5662,14.0662 L250.7128,12.2128 L248.5,10 L248.5,10.37 L239.7,9.9965 L230.9,10.2553 L222.1,9.4912 L213.3,10.2528 L204.5,10 L204.5,10 " fill="#FEFFDD" style="stroke:#181818;stroke-width:0.5;"/><path d="M248.5,10 L248.6868,10 L248.1317,12 L248.6718,14 L248.8553,16 L247.8659,18 L248.5,20 L248.5,19.9309 L250.5,19.6209 L252.5,19.6591 L254.5,19.9394 L256.5,19.3854 L258.5,20 L258.848,20.348 L256.1038,17.6038 L254.3757,15.8757 L252.7715,14.2715 L250.4461,11.9461 L248.5,10 " fill="#FEFFDD" style="stroke:#181818;stroke-width:0.5;"/><text fill="#000000" font-family="xkcd Script" font-size="13" lengthAdjust="spacing" textLength="33" x="210.5" y="29.1695">Début</text><polygon fill="#222222" points="184.5552,26.4611,183.0894,28.464,181.3556,31.3975,178.876,33.3745,176.2703,34.4556,174.1927,34.5494,171.5224,33.1974,169.0029,32.3141,167.0905,30.5207,166.0873,28.4676,165.4924,26.8328,164.9096,24.6975,163.9636,22.86,164.6906,21.066,165.3275,19.1007,167.7175,17.5464,169.3991,15.5297,171.4804,14.86,173.9547,14.2833,177.1276,14.6259,178.8655,15.4455,180.8861,15.817,183.3429,18.3341,184.1993,20.9914,184.5714,22.8045,184.15,25.7922" style="stroke:#222222;stroke-width:1.0;"/><path d="M237.5,62.3628 L237.6868,62.3628 L237.1317,64.3686 L237.6718,66.3743 L237.8553,68.3801 L236.8659,70.3858 L237.5,72.3915 L237.4865,72.3238 L233.4257,72.8198 L229.4331,73.6573 L225.4881,74.7321 L221.3795,74.9889 L217.5,76.3915 L217.5965,76.8741 L221.3901,76.6422 L225.4655,77.8192 L229.5753,79.168 L233.485,79.5168 L237.5,80.3915 L237.5607,80.3915 L237.4716,82.3973 L237.6587,84.403 L237.7126,86.4087 L238.0206,88.4145 L237.5,90.4202 L237.5,90.4202 L237.5,92.2097 L246.7857,92.2316 L256.0714,91.0992 L265.3571,91.6564 L274.6429,92.2928 L283.9286,88.4971 L293.2143,92.2296 L302.5,90.4202 L302.5,90.4202 L302.2364,90.4202 L302.9745,86.8087 L302.06,83.1973 L302.4391,79.5858 L303.1592,75.9743 L302.5,72.3628 L302.4694,72.3322 L300.5662,70.429 L298.7128,68.5757 L296.7616,66.6245 L294.4975,64.3604 L292.5,62.3628 L292.5,63.1287 L283.3333,60.8364 L274.1667,63.1212 L265,63.8247 L255.8333,63.5483 L246.6667,63.9976 L237.5,62.3628 L237.5,62.3628 " fill="#FEFFDD" style="stroke:#181818;stroke-width:0.5;"/><path d="M292.5,62.3628 L292.6868,62.3628 L292.1317,64.3628 L292.6718,66.3628 L292.8553,68.3628 L291.8659,70.3628 L292.5,72.3628 L292.5,72.2938 L294.5,71.9837 L296.5,72.022 L298.5,72.3023 L300.5,71.7483 L302.5,72.3628 L302.848,72.7108 L300.1038,69.9667 L298.3757,68.2385 L296.7715,66.6343 L294.4461,64.3089 L292.5,62.3628 " fill="#FEFFDD" style="stroke:#181818;stroke-width:0.5;"/><text fill="#000000" font-family="xkcd Script" font-size="13" lengthAdjust="spacing" textLength="44" x="243.5" y="81.5323">Activité</text><polygon fill="#F1F1F1" points="144,58.0574,144,58.2676,154.1667,57.6431,164.3333,58.2507,174.5,58.4571,184.6667,57.344,194.8333,57.9797,205,58.0574,204.9456,57.926,206.7188,58.6715,208.5268,59.5008,210.2151,60.0412,212.1417,61.1568,213.8388,61.7185,213.6447,61.6381,214.5102,63.4611,215.4363,65.3092,216.0091,67.0109,216.7888,68.7983,217.5,70.5574,217.4894,70.5574,217.5595,72.891,217.5797,75.2247,217.6952,77.5584,217.7237,79.892,217.5,82.2257,217.7092,82.3123,216.8462,84.0259,216.1783,85.8204,215.5196,87.6186,214.349,89.2048,213.8388,91.0645,213.9254,91.2735,212.0332,91.7055,210.3714,92.6934,208.4724,93.1088,206.759,93.9724,205,94.7257,205,95.4673,194.8333,94.677,184.6667,94.831,174.5,95.0643,164.3333,95.1419,154.1667,94.7218,144,94.7257,144.0366,94.8141,142.1592,93.8172,140.5007,93.3488,138.7666,92.6978,136.9856,91.9337,135.1612,91.0645,135.35,91.1427,134.2802,89.2351,133.4959,87.4458,132.7731,85.682,132.2141,83.986,131.5,82.2257,131.4345,82.2257,131.7271,79.892,131.4418,77.5584,131.3856,75.2247,131.5761,72.891,131.5,70.5574,131.2946,70.4723,132.0724,68.7234,133.1643,67.1046,133.8309,65.3096,134.6551,63.58,135.1612,61.7185,135.1201,61.6194,136.9696,61.0846,138.772,60.4359,140.4042,59.3764,142.22,58.7601,144,58.0574" style="stroke:#181818;stroke-width:0.5;"/><text fill="#000000" font-family="xkcd Script" font-size="12" lengthAdjust="spacing" textLength="66" x="141.5" y="81.1369">Rédiger code</text><path d="M237.5,119.0312 L237.6868,119.0312 L237.1317,121.0369 L237.6718,123.0426 L237.8553,125.0484 L236.8659,127.0541 L237.5,129.0599 L237.4865,128.9921 L233.4257,129.4881 L229.4331,130.3256 L225.4881,131.4004 L221.3795,131.6572 L217.5,133.0599 L217.5965,133.5424 L221.3901,133.3105 L225.4655,134.4875 L229.5753,135.8364 L233.485,136.1851 L237.5,137.0599 L237.5607,137.0599 L237.4716,139.0656 L237.6587,141.0713 L237.7126,143.0771 L238.0206,145.0828 L237.5,147.0885 L237.5,147.0885 L237.5,148.878 L247.7222,148.8999 L257.9444,147.7675 L268.1667,148.3248 L278.3889,148.9612 L288.6111,145.1654 L298.8333,148.8979 L309.0556,146.2979 L319.2778,148.512 L329.5,147.0885 L329.5,147.0885 L329.06,147.0885 L329.4391,143.4771 L330.1592,139.8656 L329.4567,136.2541 L329.5936,132.6426 L329.5,129.0312 L329.7128,129.244 L327.7616,127.2928 L325.4975,125.0287 L323.6805,123.2117 L321.1402,120.6714 L319.5,119.0312 L319.5,119.7895 L309.25,120.493 L299,120.2166 L288.75,120.6659 L278.5,117.743 L268.25,117.292 L258,117.3741 L247.75,118.8742 L237.5,119.0312 L237.5,119.0312 " fill="#FEFFDD" style="stroke:#181818;stroke-width:0.5;"/><path d="M319.5,119.0312 L319.6868,119.0312 L319.1317,121.0312 L319.6718,123.0312 L319.8553,125.0312 L318.8659,127.0312 L319.5,129.0312 L319.5,128.9621 L321.5,128.6521 L323.5,128.6903 L325.5,128.9706 L327.5,128.4166 L329.5,129.0312 L329.848,129.3792 L327.1038,126.635 L325.3757,124.9069 L323.7715,123.3027 L321.4461,120.9773 L319.5,119.0312 " fill="#FEFFDD" style="stroke:#181818;stroke-width:0.5;"/><text fill="#000000" font-family="xkcd Script" font-size="13" lengthAdjust="spacing" textLength="71" x="243.5" y="138.2007">Nœud d'objet</text><polygon fill="#F1F1F1" points="131.5,114.7257,131.5,114.9359,141.0556,114.3114,150.6111,114.919,160.1667,115.1254,169.7222,114.0123,179.2778,114.648,188.8333,114.2992,198.3889,114.3422,207.9444,114.6575,217.5,114.7257,217.2695,114.7257,217.6845,122.0594,217.2899,129.393,217.4341,136.7267,217.644,144.0604,217.5,151.394,217.5,151.3082,207.9444,151.4623,198.3889,151.3621,188.8333,151.5725,179.2778,151.6332,169.7222,151.9797,160.1667,152.0651,150.6111,152.0733,141.0556,151.6486,131.5,151.394,131.6545,151.394,131.7341,144.0604,131.2596,136.7267,131.7262,129.393,131.4012,122.0594,131.5,114.7257" style="stroke:#181818;stroke-width:0.5;"/><text fill="#000000" font-family="xkcd Script" font-size="12" lengthAdjust="spacing" textLength="66" x="141.5" y="137.8052">Code modifié</text><path d="M339.5,282.6471 L339.6868,282.6471 L339.1317,288.2586 L339.6718,293.87 L339.8553,299.4815 L338.8659,305.093 L339.5,310.7045 L339.5,310.4972 L349.5,309.5671 L359.5,309.6818 L369.5,310.5227 L379.5,308.8608 L389.5,312.1808 L399.5,309.0237 L409.5,310.1771 L419.5,311.8563 L429.5,310.4757 L439.5,310.8864 L449.5,310.6193 L459.5,310.7045 L459.6587,310.7045 L459.7126,307.093 L460.0206,303.4815 L460.0965,299.87 L460.1038,296.2586 L459.5,292.6471 L459.66,292.8071 L457.7914,290.9385 L455.9414,289.0885 L453.0467,286.1938 L451.9265,285.0736 L449.5,282.6471 L449.5,281.8564 L439.5,284.0706 L429.5,281.327 L419.5,282.4644 L409.5,284.6247 L399.5,282.5171 L389.5,282.9279 L379.5,283.5501 L369.5,283.757 L359.5,282.6367 L349.5,283.413 L339.5,282.6471 " fill="#FEFFDD" style="stroke:#181818;stroke-width:0.5;"/><path d="M449.5,282.6471 L449.6868,282.6471 L449.1317,284.6471 L449.6718,286.6471 L449.8553,288.6471 L448.8659,290.6471 L449.5,292.6471 L449.5,292.578 L451.5,292.268 L453.5,292.3062 L455.5,292.5865 L457.5,292.0325 L459.5,292.6471 L459.848,292.9951 L457.1038,290.2509 L455.3757,288.5228 L453.7715,286.9186 L451.4461,284.5932 L449.5,282.6471 " fill="#FEFFDD" style="stroke:#181818;stroke-width:0.5;"/><text fill="#000000" font-family="xkcd Script" font-size="13" lengthAdjust="spacing" textLength="99" x="345.5" y="301.8166">Décision et fusion</text><polygon fill="#F1F1F1" points="141,171.394,141,171.6042,150.5714,170.9797,160.1429,171.5873,169.7143,171.7937,179.2857,170.6806,188.8571,171.3163,198.4286,170.9675,208,171.394,207.8995,171.3151,210.3821,174.4358,212.6188,177.3634,215.3451,180.6756,217.4348,183.4877,220,186.6733,219.9482,186.6326,217.7132,189.8181,215.1775,192.7673,212.8179,195.8549,210.3916,198.8901,208,201.9526,208,202.1311,198.4286,202.1917,188.8571,202.5383,179.2857,202.6236,169.7143,202.6318,160.1429,202.2072,150.5714,202.4161,141,201.9526,141.1841,202.0971,138.4109,198.7482,136.3779,195.9805,133.7223,192.724,131.5399,189.839,129,186.6733,128.8702,186.5714,131.382,183.6033,133.9944,180.7143,136.1872,177.4957,138.6276,174.4716,141,171.394" style="stroke:#181818;stroke-width:0.5;"/><text fill="#000000" font-family="xkcd Script" font-size="11" lengthAdjust="spacing" textLength="32" x="158.5" y="183.3836">Garder</text><text fill="#000000" font-family="xkcd Script" font-size="11" lengthAdjust="spacing" textLength="67" x="141" y="198.6628">modifications?</text><text fill="#000000" font-family="xkcd Script" font-size="11" lengthAdjust="spacing" textLength="14" x="115" y="183.3836">Oui</text><text fill="#000000" font-family="xkcd Script" font-size="11" lengthAdjust="spacing" textLength="16" x="220" y="183.3836">Non</text><polygon fill="#F1F1F1" points="36,211.9526,36,212.1627,46.0909,211.5382,56.1818,212.1458,66.2727,212.3522,76.3636,211.2392,86.4545,211.8748,96.5455,211.5261,106.6364,211.5691,116.7273,211.8844,126.8182,211.2612,136.9091,212.5062,147,211.9526,146.9196,211.7585,148.7425,212.6239,150.5906,213.55,152.2924,214.1228,154.0798,214.9025,155.8388,215.6137,155.829,215.6097,156.626,217.4043,157.3769,219.1798,158.2159,220.9917,158.9744,222.7704,159.5,224.4526,159.7264,224.4526,159.5849,226.7862,159.6545,229.1199,159.7341,231.4536,159.2596,233.7872,159.5,236.1209,159.709,236.2074,158.6765,237.8508,158.1999,239.7245,157.1509,241.361,156.55,243.1832,155.8388,244.9597,155.9334,245.1881,154.0649,245.6769,152.3167,246.4566,150.5787,247.2607,148.8209,248.0168,147,248.6209,147,248.617,136.9091,248.9081,126.8182,248.0485,116.7273,248.9053,106.6364,249.1691,96.5455,249.0654,86.4545,249.2339,76.3636,248.1378,66.2727,247.9687,56.1818,247.9995,46.0909,248.562,36,248.6209,35.9749,248.5604,34.3192,248.0985,32.4422,247.1026,30.6529,246.3185,28.9581,245.7622,27.1612,244.9597,26.9558,244.8747,26.2691,243.1257,25.8965,241.507,25.0986,239.712,24.4584,237.9823,23.5,236.1209,23.3927,236.1209,23.6064,233.7872,23.6968,231.4536,23.3425,229.1199,23.468,226.7862,23.5,224.4526,23.5388,224.4686,24.4329,222.7679,24.9632,220.9165,25.8392,219.2083,26.2584,217.3109,27.1612,215.6137,27.0748,215.4052,28.9932,215.0366,30.6052,213.9285,32.5294,213.5738,34.2586,212.7484,36,211.9526" style="stroke:#181818;stroke-width:0.5;"/><text fill="#000000" font-family="xkcd Script" font-size="12" lengthAdjust="spacing" textLength="116" x="33.5" y="235.0321">Ajouter code à staging</text><polygon fill="#F1F1F1" points="46.5,283.6209,46.5,283.8311,56.5,283.2066,66.5,283.8142,76.5,284.0206,86.5,282.9075,96.5,283.5432,106.5,283.1944,116.5,283.2374,126.5,283.5527,136.5,283.6209,136.2695,283.6209,136.6845,290.9545,136.2899,298.2882,136.4341,305.6219,136.644,312.9555,136.5,320.2892,136.5,320.2034,126.5,320.3574,116.5,320.2573,106.5,320.4677,96.5,320.5283,86.5,320.8749,76.5,320.9603,66.5,320.9685,56.5,320.5438,46.5,320.2892,46.6545,320.2892,46.7341,312.9555,46.2596,305.6219,46.7262,298.2882,46.4012,290.9545,46.5,283.6209" style="stroke:#181818;stroke-width:0.5;"/><text fill="#000000" font-family="xkcd Script" font-size="12" lengthAdjust="spacing" textLength="70" x="56.5" y="306.7004">Code "staged"</text><polygon fill="#F1F1F1" points="23.5,340.2892,23.5,340.4994,33.2143,339.8749,42.9286,340.4825,52.6429,340.6889,62.3571,339.5758,72.0714,340.2115,81.7857,339.8627,91.5,339.9057,101.2143,340.221,110.9286,339.5978,120.6429,340.8428,130.3571,339.6589,140.0714,340.0914,149.7857,340.7212,159.5,340.2892,159.4891,340.2628,161.2765,341.0425,163.0315,341.7438,164.8261,342.5409,166.6016,343.2918,168.3388,343.9504,168.5192,344.0251,169.2777,345.8037,170.0125,347.5725,170.6139,349.2862,171.4105,351.0806,172,352.7892,172.2341,352.7892,171.7596,355.1229,172.2262,357.4565,171.9012,359.7902,172.1779,362.1239,172,364.4575,171.8476,364.3944,171.2467,366.2166,170.7639,368.0877,169.7883,369.7546,169.1035,371.542,168.3388,373.2964,168.382,373.4006,166.6242,374.1568,164.8028,374.7596,163.0722,375.5815,161.1947,376.049,159.5,376.9575,159.5,377.2419,149.7857,377.5057,140.0714,377.4021,130.3571,377.5706,120.6429,376.4744,110.9286,376.3053,101.2143,376.3361,91.5,376.8986,81.7857,376.761,72.0714,377.6389,62.3571,376.7828,52.6429,376.6145,42.9286,377.1858,33.2143,376.2907,23.5,376.9575,23.4338,376.7977,21.815,376.4251,20.02,375.6272,18.2904,374.987,16.3879,373.9295,14.6612,373.2964,14.7595,373.3371,14.1108,371.6039,13.0512,369.7006,12.4349,367.9808,11.771,366.2414,11,364.4575,11.2173,364.4575,10.9986,362.1239,11.1542,359.7902,10.8154,357.4565,10.7742,355.1229,11,352.7892,11.1551,352.8534,11.5114,350.93,12.6212,349.3186,13.2603,347.5123,13.8464,345.684,14.6612,343.9504,14.616,343.8414,16.4875,343.3594,18.1585,342.3937,20.04,341.9359,21.6617,340.8512,23.5,340.2892" style="stroke:#181818;stroke-width:0.5;"/><text fill="#000000" font-family="xkcd Script" font-size="12" lengthAdjust="spacing" textLength="141" x="21" y="363.3687">Faire "commit" au dépôt git</text><polygon fill="#F1F1F1" points="204.5,211.9526,204.5,212.1627,214.1364,211.5382,223.7727,212.1458,233.4091,212.3522,243.0455,211.2392,252.6818,211.8748,262.3182,211.5261,271.9545,211.5691,281.5909,211.8844,291.2273,211.2612,300.8636,212.5062,310.5,211.9526,310.4196,211.7585,312.2425,212.6239,314.0906,213.55,315.7924,214.1228,317.5798,214.9025,319.3388,215.6137,319.329,215.6097,320.126,217.4043,320.8769,219.1798,321.7159,220.9917,322.4744,222.7704,323,224.4526,323.2264,224.4526,323.0849,230.1199,323.1545,235.7872,323.2341,241.4545,322.7596,247.1219,323,252.7892,323.209,252.8758,322.1765,254.5191,321.6999,256.3928,320.6509,258.0294,320.05,259.8515,319.3388,261.628,319.4334,261.8564,317.5649,262.3453,315.8167,263.1249,314.0787,263.929,312.3209,264.6852,310.5,265.2892,310.5,265.2853,300.8636,265.5764,291.2273,264.7168,281.5909,265.5736,271.9545,265.8374,262.3182,265.7337,252.6818,265.9022,243.0455,264.8061,233.4091,264.637,223.7727,264.6678,214.1364,265.2303,204.5,265.2892,204.4749,265.2287,202.8192,264.7668,200.9422,263.7709,199.1529,262.9869,197.4581,262.4306,195.6612,261.628,195.4558,261.543,194.7691,259.7941,194.3965,258.1753,193.5986,256.3803,192.9584,254.6507,192,252.7892,191.8927,252.7892,192.1064,247.1219,192.1968,241.4545,191.8425,235.7872,191.968,230.1199,192,224.4526,192.0388,224.4686,192.9329,222.7679,193.4632,220.9165,194.3392,219.2083,194.7584,217.3109,195.6612,215.6137,195.5748,215.4052,197.4932,215.0366,199.1052,213.9285,201.0294,213.5738,202.7586,212.7484,204.5,211.9526" style="stroke:#181818;stroke-width:0.5;"/><text fill="#000000" font-family="xkcd Script" font-size="12" lengthAdjust="spacing" textLength="111" x="202" y="235.0321">Défaire modifications</text><text fill="#000000" font-family="xkcd Script" font-size="12" lengthAdjust="spacing" textLength="39" x="238" y="251.7004">au code</text><polygon fill="#F1F1F1" points="174.5,382.9575,174.5495,383.0071,176.8023,385.2599,179.3456,387.8031,181.7942,390.2517,183.9319,392.3894,186.5,394.9575,186.4817,394.9392,183.9995,397.257,181.6096,399.6671,179.2839,402.1415,176.737,404.3946,174.5,406.9575,174.6305,407.088,171.9514,404.409,169.6534,402.1109,167.4018,399.8593,164.8798,397.3373,162.5,394.9575,162.5161,394.9736,164.8925,392.55,167.3421,390.1996,169.7564,387.8139,172.238,385.4956,174.5,382.9575" style="stroke:#181818;stroke-width:0.5;"/><path d="M205.5,423.9288 L205.6868,423.9288 L205.1317,425.9346 L205.6718,427.9403 L205.8553,429.9461 L204.8659,431.9518 L205.5,433.9575 L205.4865,433.8898 L201.4257,434.3858 L197.4331,435.2233 L193.4881,436.2981 L189.3795,436.5549 L185.5,437.9575 L185.5965,438.4401 L189.3901,438.2082 L193.4655,439.3851 L197.5753,440.734 L201.485,441.0828 L205.5,441.9575 L205.5607,441.9575 L205.4716,443.9633 L205.6587,445.969 L205.7126,447.9747 L206.0206,449.9805 L205.5,451.9862 L205.5,451.9862 L205.5,452.5827 L212.9,452.59 L220.3,452.2125 L227.7,452.3983 L235.1,452.6104 L242.5,451.9862 L242.5,451.9862 L241.8589,451.9862 L243.1031,448.3747 L242.2364,444.7633 L242.9745,441.1518 L242.06,437.5403 L242.5,433.9288 L242.4569,433.8858 L240.9661,432.395 L238.4694,429.8982 L236.5662,427.995 L234.7128,426.1417 L232.5,423.9288 L232.5,424.2988 L227.1,423.9254 L221.7,424.1841 L216.3,423.42 L210.9,424.1816 L205.5,423.9288 L205.5,423.9288 " fill="#FEFFDD" style="stroke:#181818;stroke-width:0.5;"/><path d="M232.5,423.9288 L232.6868,423.9288 L232.1317,425.9288 L232.6718,427.9288 L232.8553,429.9288 L231.8659,431.9288 L232.5,433.9288 L232.5,433.8598 L234.5,433.5497 L236.5,433.588 L238.5,433.8683 L240.5,433.3143 L242.5,433.9288 L242.848,434.2768 L240.1038,431.5327 L238.3757,429.8045 L236.7715,428.2003 L234.4461,425.8749 L232.5,423.9288 " fill="#FEFFDD" style="stroke:#181818;stroke-width:0.5;"/><text fill="#000000" font-family="xkcd Script" font-size="13" lengthAdjust="spacing" textLength="16" x="211.5" y="443.0983">Fin</text><polygon points="185.5608,440.6332,183.9484,442.8363,182.0412,446.0632,179.3136,448.2379,176.4474,449.4271,174.162,449.5303,171.2247,448.0431,168.4532,447.0714,166.3495,445.0987,165.2461,442.8403,164.5917,441.0421,163.9506,438.6932,162.91,436.672,163.7096,434.6985,164.4102,432.5368,167.0393,430.827,168.889,428.6086,171.1784,427.872,173.9001,427.2376,177.3904,427.6145,179.3021,428.5161,181.5247,428.9247,184.2272,431.6935,185.1693,434.6165,185.5786,436.6109,185.115,439.8974" style="stroke:#222222;stroke-width:1.0;fill:none;"/><polygon fill="#222222" points="180.5331,439.417,179.6536,440.6187,178.6134,442.3788,177.1256,443.565,175.5622,444.2137,174.3156,444.27,172.7135,443.4587,171.2017,442.9288,170.0543,441.8527,169.4524,440.6209,169.0955,439.64,168.7458,438.3588,168.1782,437.2563,168.6143,436.1799,168.9965,435.0007,170.4305,434.0681,171.4394,432.8581,172.6882,432.4563,174.1728,432.1103,176.0766,432.3159,177.1193,432.8076,178.3317,433.0305,179.8057,434.5408,180.3196,436.1351,180.5429,437.223,180.29,439.0156" style="stroke:#111111;stroke-width:1.0;"/><path d="M174.5,34.0287 L174.5934,34.0287 L174.3159,38.8344 L174.5859,43.6402 L174.6776,48.4459 L174.1829,53.2516 L174.5,58.0574 " fill="#181818" style="stroke:#181818;stroke-width:1.0;"/><polygon fill="#181818" points="170.5,48.0574,170.565,48.0834,171.1718,50.0061,172.1598,52.0813,173.0237,54.1069,173.4792,55.9691,174.5,58.0574,174.4759,58.0478,175.168,56.0046,175.9813,54.0099,176.8789,52.0489,177.486,49.9718,178.5,48.0574,178.6305,48.1879,177.5514,48.7088,176.8534,49.6108,176.2018,50.5592,175.2798,51.2372,174.5,52.0574,174.5161,52.0735,173.6925,51.2498,172.9421,50.4995,172.1564,49.7137,171.438,48.9954,170.5,48.0574" style="stroke:#181818;stroke-width:1.0;"/><path d="M174.5,94.7257 L174.5934,94.7257 L174.3159,98.7257 L174.5859,102.7257 L174.6776,106.7257 L174.1829,110.7257 L174.5,114.7257 " fill="#181818" style="stroke:#181818;stroke-width:1.0;"/><polygon fill="#181818" points="170.5,104.7257,170.565,104.7517,171.1718,106.6744,172.1598,108.7496,173.0237,110.7752,173.4792,112.6374,174.5,114.7257,174.4759,114.7161,175.168,112.6729,175.9813,110.6782,176.8789,108.7173,177.486,106.6401,178.5,104.7257,178.6305,104.8562,177.5514,105.3771,176.8534,106.2791,176.2018,107.2275,175.2798,107.9055,174.5,108.7257,174.5161,108.7418,173.6925,107.9182,172.9421,107.1678,172.1564,106.3821,171.438,105.6637,170.5,104.7257" style="stroke:#181818;stroke-width:1.0;"/><path d="M91.5,248.6209 L91.5934,248.6209 L91.3159,255.6209 L91.5859,262.6209 L91.6776,269.6209 L91.1829,276.6209 L91.5,283.6209 " fill="#181818" style="stroke:#181818;stroke-width:1.0;"/><polygon fill="#181818" points="87.5,273.6209,87.565,273.6469,88.1718,275.5696,89.1598,277.6448,90.0237,279.6704,90.4792,281.5326,91.5,283.6209,91.4759,283.6113,92.168,281.5681,92.9813,279.5734,93.8789,277.6124,94.486,275.5353,95.5,273.6209,95.6305,273.7514,94.5514,274.2723,93.8534,275.1743,93.2018,276.1227,92.2798,276.8007,91.5,277.6209,91.5161,277.637,90.6925,276.8134,89.9421,276.063,89.1564,275.2772,88.438,274.5589,87.5,273.6209" style="stroke:#181818;stroke-width:1.0;"/><path d="M91.5,320.2892 L91.5934,320.2892 L91.3159,324.2892 L91.5859,328.2892 L91.6776,332.2892 L91.1829,336.2892 L91.5,340.2892 " fill="#181818" style="stroke:#181818;stroke-width:1.0;"/><polygon fill="#181818" points="87.5,330.2892,87.565,330.3152,88.1718,332.2379,89.1598,334.3131,90.0237,336.3387,90.4792,338.2009,91.5,340.2892,91.4759,340.2796,92.168,338.2364,92.9813,336.2417,93.8789,334.2808,94.486,332.2036,95.5,330.2892,95.6305,330.4197,94.5514,330.9406,93.8534,331.8426,93.2018,332.791,92.2798,333.469,91.5,334.2892,91.5161,334.3053,90.6925,333.4817,89.9421,332.7313,89.1564,331.9456,88.438,331.2273,87.5,330.2892" style="stroke:#181818;stroke-width:1.0;"/><path d="M129,186.6733 L129,186.7667 L121.5,186.4891 L114,186.7592 L106.5,186.8509 L99,186.3562 L91.5,186.6733 " fill="#181818" style="stroke:#181818;stroke-width:1.0;"/><path d="M91.5,186.6733 L91.5934,186.6733 L91.3159,191.7291 L91.5859,196.785 L91.6776,201.8409 L91.1829,206.8967 L91.5,211.9526 " fill="#181818" style="stroke:#181818;stroke-width:1.0;"/><polygon fill="#181818" points="87.5,201.9526,87.565,201.9786,88.1718,203.9013,89.1598,205.9765,90.0237,208.002,90.4792,209.8642,91.5,211.9526,91.4759,211.9429,92.168,209.8998,92.9813,207.9051,93.8789,205.9441,94.486,203.867,95.5,201.9526,95.6305,202.0831,94.5514,202.604,93.8534,203.5059,93.2018,204.4544,92.2798,205.1323,91.5,205.9526,91.5161,205.9686,90.6925,205.145,89.9421,204.3946,89.1564,203.6089,88.438,202.8906,87.5,201.9526" style="stroke:#181818;stroke-width:1.0;"/><path d="M220,186.6733 L220,186.7667 L227.5,186.4891 L235,186.7592 L242.5,186.8509 L250,186.3562 L257.5,186.6733 " fill="#181818" style="stroke:#181818;stroke-width:1.0;"/><path d="M257.5,186.6733 L257.5934,186.6733 L257.3159,191.7291 L257.5859,196.785 L257.6776,201.8409 L257.1829,206.8967 L257.5,211.9526 " fill="#181818" style="stroke:#181818;stroke-width:1.0;"/><polygon fill="#181818" points="253.5,201.9526,253.565,201.9786,254.1718,203.9013,255.1598,205.9765,256.0237,208.002,256.4792,209.8642,257.5,211.9526,257.4759,211.9429,258.168,209.8998,258.9813,207.9051,259.8789,205.9441,260.486,203.867,261.5,201.9526,261.6305,202.0831,260.5514,202.604,259.8534,203.5059,259.2018,204.4544,258.2798,205.1323,257.5,205.9526,257.5161,205.9686,256.6925,205.145,255.9421,204.3946,255.1564,203.6089,254.438,202.8906,253.5,201.9526" style="stroke:#181818;stroke-width:1.0;"/><path d="M91.5,376.9575 L91.5934,376.9575 L91.3159,380.5575 L91.5859,384.1575 L91.6776,387.7575 L91.1829,391.3575 L91.5,394.9575 " fill="#181818" style="stroke:#181818;stroke-width:1.0;"/><path d="M91.5,394.9575 L91.5,395.2378 L101.6429,394.4051 L111.7857,395.2152 L121.9286,395.4904 L132.0714,394.0063 L142.2143,394.8539 L152.3571,394.3889 L162.5,394.9575 " fill="#181818" style="stroke:#181818;stroke-width:1.0;"/><polygon fill="#181818" points="152.5,390.9575,152.526,391.0226,154.4487,391.6293,156.5239,392.6173,158.5495,393.4812,160.4117,393.9367,162.5,394.9575,162.4904,394.9335,160.4472,395.6255,158.4525,396.4388,156.4916,397.3364,154.4144,397.9436,152.5,398.9575,152.6305,399.088,153.1514,398.009,154.0534,397.3109,155.0018,396.6593,155.6798,395.7373,156.5,394.9575,156.5161,394.9736,155.6925,394.15,154.9421,393.3996,154.1564,392.6139,153.438,391.8956,152.5,390.9575" style="stroke:#181818;stroke-width:1.0;"/><path d="M257.5,265.2892 L257.7802,265.2892 L256.9476,275.2637 L257.7577,285.2382 L258.0329,295.2127 L256.5488,305.1871 L257.3964,315.1616 L256.9313,325.1361 L256.9887,335.1106 L257.4091,345.0851 L256.5782,355.0596 L258.2382,365.0341 L256.6596,375.0086 L257.2363,384.983 L257.5,394.9575 " fill="#181818" style="stroke:#181818;stroke-width:1.0;"/><path d="M257.5,394.9575 L257.5,395.2378 L247.3571,394.4051 L237.2143,395.2152 L227.0714,395.4904 L216.9286,394.0063 L206.7857,394.8539 L196.6429,394.3889 L186.5,394.9575 " fill="#181818" style="stroke:#181818;stroke-width:1.0;"/><polygon fill="#181818" points="196.5,390.9575,196.526,391.0226,194.4487,391.6293,192.5239,392.6173,190.5495,393.4812,188.4117,393.9367,186.5,394.9575,186.4904,394.9335,188.4472,395.6255,190.4525,396.4388,192.4916,397.3364,194.4144,397.9436,196.5,398.9575,196.6305,399.088,195.5514,398.009,194.8534,397.3109,194.2018,396.6593,193.2798,395.7373,192.5,394.9575,192.5161,394.9736,193.2925,394.15,194.1421,393.3996,194.9564,392.6139,195.838,391.8956,196.5,390.9575" style="stroke:#181818;stroke-width:1.0;"/><path d="M174.5,151.394 L174.5934,151.394 L174.3159,155.394 L174.5859,159.394 L174.6776,163.394 L174.1829,167.394 L174.5,171.394 " fill="#181818" style="stroke:#181818;stroke-width:1.0;"/><polygon fill="#181818" points="170.5,161.394,170.565,161.42,171.1718,163.3427,172.1598,165.4179,173.0237,167.4435,173.4792,169.3057,174.5,171.394,174.4759,171.3844,175.168,169.3412,175.9813,167.3465,176.8789,165.3856,177.486,163.3084,178.5,161.394,178.6305,161.5245,177.5514,162.0455,176.8534,162.9474,176.2018,163.8958,175.2798,164.5738,174.5,165.394,174.5161,165.4101,173.6925,164.5865,172.9421,163.8361,172.1564,163.0504,171.438,162.3321,170.5,161.394" style="stroke:#181818;stroke-width:1.0;"/><path d="M174.5,406.9575 L174.5934,406.9575 L174.3159,410.9575 L174.5859,414.9575 L174.6776,418.9575 L174.1829,422.9575 L174.5,426.9575 " fill="#181818" style="stroke:#181818;stroke-width:1.0;"/><polygon fill="#181818" points="170.5,416.9575,170.565,416.9835,171.1718,418.9062,172.1598,420.9815,173.0237,423.007,173.4792,424.8692,174.5,426.9575,174.4759,426.9479,175.168,424.9047,175.9813,422.91,176.8789,420.9491,177.486,418.8719,178.5,416.9575,178.6305,417.088,177.5514,417.609,176.8534,418.5109,176.2018,419.4593,175.2798,420.1373,174.5,420.9575,174.5161,420.9736,173.6925,420.15,172.9421,419.3996,172.1564,418.6139,171.438,417.8956,170.5,416.9575" style="stroke:#181818;stroke-width:1.0;"/><!--MD5=[838cb6972a08ea541655ccbe6bd66284]
@startuml
!include ecriture.pumlinclude
skinparam DefaultTextAlignment center
skinparam style strictuml
start
note right : Début
:Rédiger code;
note right : Activité
:Code modifié]
note right : Nœud d'objet

if (Garder\nmodifications?) then (Oui)
    note right : Décision et fusion
    :Ajouter code à staging;
    :Code "staged"]
    :Faire "commit" au dépôt git;    
else (Non)
    :Défaire modifications
    au code;
endif
stop
note right : Fin
@enduml

@startuml
skinparam style strictuml
skinparam backgroundcolor transparent
skinparam defaultfontname xkcd Script
skinparam handwritten true
skinparam DefaultTextAlignment center
skinparam style strictuml
start
note right : Début
:Rédiger code;
note right : Activité
:Code modifié]
note right : Nœud d'objet

if (Garder\nmodifications?) then (Oui)
    note right : Décision et fusion
    :Ajouter code à staging;
    :Code "staged"]
    :Faire "commit" au dépôt git;    
else (Non)
    :Défaire modifications
    au code;
endif
stop
note right : Fin
@enduml

PlantUML version 1.2022.6(Tue Jun 21 17:34:49 UTC 2022)
(GPL source distribution)
Java Runtime: OpenJDK Runtime Environment
JVM: OpenJDK 64-Bit Server VM
Default Encoding: UTF-8
Language: en
Country: null
--></g></svg>