<?xml version="1.0" encoding="UTF-8" standalone="no"?>
<svg
   width="402.5pt"
   height="402.5pt"
   version="1.1"
   viewBox="0 0 402.5 402.5"
   id="svg12"
   sodipodi:docname="noun-open-source-software-1326330.svg"
   inkscape:version="1.2.2 (b0a8486541, 2022-12-01)"
   xmlns:inkscape="http://www.inkscape.org/namespaces/inkscape"
   xmlns:sodipodi="http://sodipodi.sourceforge.net/DTD/sodipodi-0.dtd"
   xmlns="http://www.w3.org/2000/svg"
   xmlns:svg="http://www.w3.org/2000/svg">
  <defs
     id="defs16" />
  <sodipodi:namedview
     id="namedview14"
     pagecolor="#ffffff"
     bordercolor="#666666"
     borderopacity="1.0"
     inkscape:showpageshadow="2"
     inkscape:pageopacity="0.0"
     inkscape:pagecheckerboard="0"
     inkscape:deskcolor="#d1d1d1"
     inkscape:document-units="pt"
     showgrid="false"
     inkscape:zoom="0.25285714"
     inkscape:cx="-21.751412"
     inkscape:cy="361.86441"
     inkscape:window-width="1368"
     inkscape:window-height="850"
     inkscape:window-x="-6"
     inkscape:window-y="-6"
     inkscape:window-maximized="1"
     inkscape:current-layer="svg12" />
  <g
     id="g10"
     transform="translate(-148.75,-78.75)">
    <path
       d="m 306.25,297.5 v 8.75 h -17.5 v 70 h 122.5 v -70 h -87.5 v -8.75 c 0,-14.473 11.777,-26.25 26.25,-26.25 4.9883,0 9.8359,1.3984 14.016,4.043 l 9.3438,-14.805 c -6.9805,-4.3945 -15.062,-6.7383 -23.359,-6.7383 -24.113,0 -43.75,19.617 -43.75,43.75 z m 87.5,61.25 h -87.5 v -35 h 87.5 z"
       id="path2" />
    <path
       d="m 420,131.25 h 35 v 17.5 h -35 z"
       id="path4" />
    <path
       d="m 472.5,131.25 h 35 v 17.5 h -35 z"
       id="path6" />
    <path
       d="m 148.75,78.75 v 402.5 h 402.5 V 78.75 Z m 385,385 h -367.5 v -315 H 332.5 v -17.5 H 166.25 v -35 h 367.5 z"
       id="path8" />
  </g>
</svg>
