<?xml version="1.0" encoding="UTF-8"?>
<svg width="1200pt" height="1200pt" version="1.1" viewBox="0 0 1200 1200" xmlns="http://www.w3.org/2000/svg">
 <g>
  <path d="m951.74 555.64c-19.031 0-34.465 15.434-34.465 34.477v245.98l-389.7 216.09v-487.79l175.51-97.32c16.645-9.2266 22.656-30.215 13.43-46.871-9.2539-16.645-30.215-22.656-46.848-13.43l-176.57 97.906-383.58-212.7 383.59-184.24 172.13 82.547c17.172 8.2422 37.754 0.98438 45.984-16.176 8.2578-17.172 0.99609-37.754-16.164-45.996l-187.05-89.695c-9.4336-4.5234-20.41-4.5117-29.832 0.011719l-458.64 220.27c-0.070313 0.023438-0.13281 0.070313-0.20312 0.12109-1.3438 0.64844-2.6289 1.3906-3.8867 2.2188-0.17969 0.12109-0.35938 0.25391-0.53906 0.38281-1.0547 0.73047-2.0898 1.5234-3.0586 2.3867-0.20312 0.16797-0.42188 0.34766-0.61328 0.52734-1.0781 0.99609-2.1133 2.0273-3.0703 3.168-0.070312 0.097656-0.14453 0.20312-0.22656 0.28906-0.81641 0.99609-1.5859 2.0391-2.293 3.1445-0.22656 0.35938-0.45703 0.71875-0.67188 1.0781-0.21484 0.33594-0.44531 0.67187-0.64844 1.0312-0.35938 0.63672-0.64844 1.2969-0.96094 1.9453-0.14453 0.30078-0.30078 0.57422-0.42188 0.875-0.58984 1.332-1.0938 2.6875-1.5 4.0547-0.070313 0.23828-0.12109 0.48047-0.19141 0.71875-0.33594 1.2227-0.60156 2.4492-0.80469 3.6953-0.046875 0.30078-0.097656 0.60156-0.13281 0.89844-0.20312 1.4883-0.3125 2.9766-0.3125 4.4648 0 0.019531-0.011719 0.046875-0.011719 0.070313v566.62c0 12.527 6.793 24.07 17.762 30.145l458.63 254.33h0.046875c1.1992 0.70703 2.4727 1.2852 3.7695 1.8008 0.21484 0.097656 0.43359 0.15625 0.64844 0.25391 1.0312 0.38281 2.0898 0.74219 3.1797 1.0195 0.33594 0.10938 0.68359 0.19141 1.0195 0.27734 0.99609 0.23828 2.0039 0.43359 3.0234 0.5625 0.33594 0.058594 0.67188 0.13281 1.0195 0.17969 1.3086 0.13281 2.6523 0.23828 4.0078 0.23828s2.6875-0.10938 3.9961-0.23828c0.34766-0.046876 0.68359-0.12109 1.0195-0.17969 1.0195-0.13281 2.0391-0.32422 3.0234-0.5625 0.33594-0.097656 0.68359-0.17969 1.0195-0.27734 1.0781-0.27734 2.1484-0.63672 3.1797-1.0195 0.21484-0.097656 0.43359-0.15625 0.64844-0.25391 1.3086-0.51562 2.5547-1.1055 3.7812-1.8008h0.035156l458.63-254.33c10.957-6.0703 17.762-17.617 17.762-30.145v-266.28c0.03125-19.047-15.398-34.477-34.457-34.477zm-493.1 496.55-389.7-216.09v-487.78l389.7 216.08z"/>
  <path d="m951.74 43.703c-135.7 0-246.07 110.39-246.07 246.07 0 135.68 110.38 246.07 246.07 246.07 135.68 0 246.09-110.39 246.09-246.07 0-135.68-110.4-246.07-246.09-246.07zm0 423.2c-97.668 0-177.12-79.465-177.12-177.12 0-97.668 79.453-177.13 177.12-177.13 97.656 0 177.13 79.465 177.13 177.13 0 97.66-79.477 177.12-177.13 177.12z"/>
  <path d="m924.07 313.07c-4.6211 5.9648-14.988 15.984-32.641 15.984-22.262 0-39.059-16.883-39.059-39.277 0-22.02 16.645-39.266 37.906-39.266 10.309 0 20.207 4.1992 27.816 11.832l5.0156 5.0039 26.305-27.793-4.9062-4.7383c-14.113-13.656-33.289-21.18-54.035-21.18-44.387 0-77.867 32.734-77.867 76.141 0 43.402 33.637 76.141 78.254 76.141 25.223 0 47.809-10.344 61.957-28.414l4.0195-5.0898-28.246-25.199z"/>
  <path d="m949.19 289.78c0 43.402 33.648 76.141 78.254 76.141 25.223 0 47.785-10.344 61.98-28.414l3.9961-5.0898-28.234-25.199-4.5352 5.8438c-4.6328 5.9648-15 15.984-32.652 15.984-22.262 0-39.059-16.883-39.059-39.277 0-22.02 16.645-39.266 37.906-39.266 10.309 0 20.207 4.1992 27.84 11.832l4.9922 5.0039 26.281-27.793-4.8828-4.7383c-14.102-13.656-33.289-21.18-54.035-21.18-44.383 0.011719-77.852 32.746-77.852 76.152z"/>
 </g>
</svg>
