<?xml version="1.0" encoding="UTF-8" standalone="no"?><svg xmlns="http://www.w3.org/2000/svg" xmlns:xlink="http://www.w3.org/1999/xlink" contentStyleType="text/css" height="580px" preserveAspectRatio="none" style="width:565px;height:580px;background:#FFFFFF;" version="1.1" viewBox="0 0 565 580" width="565px" zoomAndPan="magnify"><defs/><g><!--MD5=[b02ba6fdf0f59e0142cfc0c33806eebc]
cluster Browser moderne--><g id="cluster_Browser moderne"><polygon points="276,26.5,286,16.5,530,16.5,530,157.5,520,167.5,276,167.5,276,26.5" style="stroke:#181818;stroke-width:1.0;fill:none;"/><line style="stroke:#181818;stroke-width:1.0;fill:none;" x1="520" x2="530" y1="26.5" y2="16.5"/><line style="stroke:#181818;stroke-width:1.0;fill:none;" x1="276" x2="520" y1="26.5" y2="26.5"/><line style="stroke:#181818;stroke-width:1.0;fill:none;" x1="520" x2="520" y1="26.5" y2="167.5"/><text fill="#000000" font-family="sans-serif" font-size="14" font-weight="bold" lengthAdjust="spacing" textLength="143" x="327.5" y="42.4951">Browser moderne</text></g><!--MD5=[0c5ebc11d1f9055b162fb809766bcc2a]
cluster Système de gestion\ndes apprentissages\n(SGA)--><g id="cluster_Système de gestion\ndes apprentissages\n(SGA)"><polygon points="16,16,26,6,249,6,249,553.5,239,563.5,16,563.5,16,16" style="stroke:#181818;stroke-width:1.0;fill:none;"/><line style="stroke:#181818;stroke-width:1.0;fill:none;" x1="239" x2="249" y1="16" y2="6"/><line style="stroke:#181818;stroke-width:1.0;fill:none;" x1="16" x2="239" y1="16" y2="16"/><line style="stroke:#181818;stroke-width:1.0;fill:none;" x1="239" x2="239" y1="16" y2="563.5"/><text fill="#000000" font-family="sans-serif" font-size="14" font-style="italic" lengthAdjust="spacing" textLength="78" x="89.5" y="31.9951">«Système»</text><text fill="#000000" font-family="sans-serif" font-size="14" font-weight="bold" lengthAdjust="spacing" textLength="157" x="50" y="48.292">Système de gestion</text><text fill="#000000" font-family="sans-serif" font-size="14" font-weight="bold" lengthAdjust="spacing" textLength="156" x="50.5" y="64.5889">des apprentissages</text><text fill="#000000" font-family="sans-serif" font-size="14" font-weight="bold" lengthAdjust="spacing" textLength="45" x="106" y="80.8857">(SGA)</text></g><!--MD5=[a7e36d4aa44b43fc8fb02c9c2fa0b819]
cluster SGB--><g id="cluster_SGB"><polygon fill="#999999" points="313,218.5,323,208.5,548,208.5,548,420.5,538,430.5,313,430.5,313,218.5" style="stroke:#181818;stroke-width:1.0;"/><line style="stroke:#181818;stroke-width:1.0;" x1="538" x2="548" y1="218.5" y2="208.5"/><line style="stroke:#181818;stroke-width:1.0;" x1="313" x2="538" y1="218.5" y2="218.5"/><line style="stroke:#181818;stroke-width:1.0;" x1="538" x2="538" y1="218.5" y2="430.5"/><text fill="#000000" font-family="sans-serif" font-size="14" font-style="italic" lengthAdjust="spacing" textLength="78" x="387.5" y="234.4951">«Système»</text><text fill="#000000" font-family="sans-serif" font-size="14" font-weight="bold" lengthAdjust="spacing" textLength="157" x="348" y="250.792">Système de gestion</text><text fill="#000000" font-family="sans-serif" font-size="14" font-weight="bold" lengthAdjust="spacing" textLength="116" x="368.5" y="267.0889">des borderaux</text><text fill="#000000" font-family="sans-serif" font-size="14" font-weight="bold" lengthAdjust="spacing" textLength="44" x="404.5" y="283.3857">(SGB)</text></g><!--MD5=[beb5ad5244d3d849df9473931f7c2e5e]
entity GUI--><g id="elem_GUI"><rect fill="#F1F1F1" height="95.1875" rx="2.5" ry="2.5" style="stroke:#181818;stroke-width:0.5;" width="223" x="291.5" y="56.5"/><rect fill="#F1F1F1" height="10" style="stroke:#181818;stroke-width:0.5;" width="15" x="494.5" y="61.5"/><rect fill="#F1F1F1" height="2" style="stroke:#181818;stroke-width:0.5;" width="4" x="492.5" y="63.5"/><rect fill="#F1F1F1" height="2" style="stroke:#181818;stroke-width:0.5;" width="4" x="492.5" y="67.5"/><text fill="#000000" font-family="sans-serif" font-size="14" lengthAdjust="spacing" textLength="131" x="306.5" y="89.4951">Application frontale</text><text fill="#000000" font-family="sans-serif" font-size="14" lengthAdjust="spacing" textLength="170" x="306.5" y="105.792">minimaliste, par exemple</text><text fill="#000000" font-family="sans-serif" font-size="14" lengthAdjust="spacing" textLength="183" x="306.5" y="122.0889">les pages web (templates)</text><text fill="#000000" font-family="sans-serif" font-size="14" lengthAdjust="spacing" textLength="158" x="306.5" y="138.3857">et un peu de JavaScript</text></g><!--MD5=[953a8c67cfe21abaf9bf45dad8506ca8]
entity Router--><g id="elem_Router"><ellipse cx="132" cy="104" fill="#F1F1F1" rx="8" ry="8" style="stroke:#181818;stroke-width:0.5;"/><text fill="#000000" font-family="sans-serif" font-size="14" lengthAdjust="spacing" textLength="59" x="102.5" y="133.9951">Routage</text></g><!--MD5=[6e8f311b0aa23032184ffba0ef926f91]
entity App--><g id="elem_App"><rect fill="#F1F1F1" height="78.8906" rx="2.5" ry="2.5" style="stroke:#181818;stroke-width:0.5;" width="193" x="35.5" y="316.5"/><rect fill="#F1F1F1" height="10" style="stroke:#181818;stroke-width:0.5;" width="15" x="208.5" y="321.5"/><rect fill="#F1F1F1" height="2" style="stroke:#181818;stroke-width:0.5;" width="4" x="206.5" y="323.5"/><rect fill="#F1F1F1" height="2" style="stroke:#181818;stroke-width:0.5;" width="4" x="206.5" y="327.5"/><text fill="#000000" font-family="sans-serif" font-size="14" lengthAdjust="spacing" textLength="131" x="50.5" y="349.4951">Application conçue</text><text fill="#000000" font-family="sans-serif" font-size="14" lengthAdjust="spacing" textLength="153" x="50.5" y="365.792">selon la méthodologie</text><text fill="#000000" font-family="sans-serif" font-size="14" lengthAdjust="spacing" textLength="147" x="50.5" y="382.0889">proposée par Larman</text></g><!--MD5=[0f236602209a03542e21b89873b828ef]
entity SimpleDB--><g id="elem_SimpleDB"><path d="M94,495.5 C94,485.5 132,485.5 132,485.5 C132,485.5 170,485.5 170,495.5 L170,537.0938 C170,547.0938 132,547.0938 132,547.0938 C132,547.0938 94,547.0938 94,537.0938 L94,495.5 " fill="#F1F1F1" style="stroke:#181818;stroke-width:0.5;"/><path d="M94,495.5 C94,505.5 132,505.5 132,505.5 C132,505.5 170,505.5 170,495.5 " fill="none" style="stroke:#181818;stroke-width:0.5;"/><text fill="#000000" font-family="sans-serif" font-size="14" lengthAdjust="spacing" textLength="56" x="104" y="522.4951">Solution</text><text fill="#000000" font-family="sans-serif" font-size="14" lengthAdjust="spacing" textLength="45" x="104" y="538.792">simple</text></g><g id="elem_SGBNote"><path d="M356,305.5 L356,406.2969 L524,406.2969 L524,315.5 L514,305.5 L356,305.5 " fill="#FEFFDD" style="stroke:#181818;stroke-width:0.5;"/><path d="M514,305.5 L514,315.5 L524,315.5 L514,305.5 " fill="#FEFFDD" style="stroke:#181818;stroke-width:1.0;"/><path d="M367.3333,313.7161 C364.9392,313.7161 363,315.6553 363,318.0495 C363,320.4436 364.9392,322.3828 367.3333,322.3828 C369.7275,322.3828 371.6667,320.4436 371.6667,318.0495 C371.6667,315.6553 369.7275,313.7161 367.3333,313.7161 M367.3333,314.7995 L367.3333,316.9661 L370.5833,316.9661 L370.5833,319.1328 L367.3333,319.1328 L367.3333,321.2995 L364.0833,318.0495 L367.3333,314.7995 " fill="#000000" style="stroke:;stroke-width:0.0;stroke-dasharray:;"/><text fill="#000000" font-family="sans-serif" font-size="13" lengthAdjust="spacing" textLength="100" x="376.6667" y="322.5669">Source pour les</text><text fill="#000000" font-family="sans-serif" font-size="13" lengthAdjust="spacing" textLength="119" x="362" y="337.6997">infos sur les cours,</text><text fill="#000000" font-family="sans-serif" font-size="13" lengthAdjust="spacing" textLength="114" x="362" y="352.8325">les étudiants, etc.</text><path d="M367.3333,359.1146 C364.9392,359.1146 363,361.0538 363,363.4479 C363,365.8421 364.9392,367.7813 367.3333,367.7813 C369.7275,367.7813 371.6667,365.8421 371.6667,363.4479 C371.6667,361.0538 369.7275,359.1146 367.3333,359.1146 M367.3333,360.1979 L370.5833,363.4479 L367.3333,366.6979 L367.3333,364.5313 L364.0833,364.5313 L364.0833,362.3646 L367.3333,362.3646 L367.3333,360.1979 " fill="#000000" style="stroke:;stroke-width:0.0;stroke-dasharray:;"/><text fill="#000000" font-family="sans-serif" font-size="13" lengthAdjust="spacing" textLength="128" x="376.6667" y="367.9653">Destination pour les</text><text fill="#000000" font-family="sans-serif" font-size="13" lengthAdjust="spacing" textLength="147" x="362" y="383.0981">résultats des question-</text><text fill="#000000" font-family="sans-serif" font-size="13" lengthAdjust="spacing" textLength="110" x="362" y="398.231">naires et devoirs.</text></g><!--MD5=[56b72e7de0968c0cf25972f053180467]
reverse link Router to GUI--><g id="link_Router_GUI"><path d="M151.05,104 C180.27,104 238.35,104 291.39,104 " fill="none" id="Router-backto-GUI" style="stroke:#181818;stroke-width:1.0;"/><path d="M144.0982,112.4572 A9,9 0 0 0 144.0982 95.5428" fill="none" style="stroke:#181818;stroke-width:1.5;"/><text fill="#000000" font-family="sans-serif" font-size="13" lengthAdjust="spacing" textLength="114" x="159.25" y="97.0669">API REST niveau 1</text></g><!--MD5=[ee207bd21a41d647759085e7fca34991]
link Router to App--><g id="link_Router_App"><path d="M132,113.03 C132,143.87 132,255.94 132,316.14 " fill="none" id="Router-App" style="stroke:#181818;stroke-width:1.0;"/></g><!--MD5=[b87fad3cf41de54d892cd606074f6fe5]
link App to SimpleDB--><g id="link_App_SimpleDB"><path d="M132,395.77 C132,423.36 132,459.89 132,485.31 " fill="none" id="App-SimpleDB" style="stroke:#181818;stroke-width:1.0;"/></g><!--MD5=[8ceabf8ea623773f41dcf93e05bd7474]
link App to SGB--><g id="link_App_SGB"><path d="M228.71,356 C250.51,356 272.15,356 288.99,356 C297.41,356 304.63,356 310.07,356 C310.75,356 311.4022,356 312.0254,356 C312.3371,356 312.6414,356 312.9384,356 " fill="none" id="App-SGB" style="stroke:#181818;stroke-width:1.0;"/><text fill="#000000" font-family="sans-serif" font-size="13" lengthAdjust="spacing" textLength="56" x="246.57" y="349.0669">API REST</text></g><!--MD5=[825f9798b9cd53697d6c01c64fbf73c9]
@startuml
skinparam style strictuml
skinparam componentStyle uml2

node "Browser moderne" {
    component [Application frontale\nminimaliste, par exemple\nles pages web (templates)\net un peu de JavaScript] as GUI
}

node "Système de gestion\ndes apprentissages\n(SGA)" <<Système>> {
    interface Routage as Router

    [Application conçue\nselon la méthodologie\nproposée par Larman] as App

    database "Solution\nsimple" as SimpleDB {
    } 
}

node "Système de gestion\ndes borderaux\n(SGB)" as SGB <<Système>> #999999 {
note as SGBNote
<&arrow-circle-left> Source pour les
infos sur les cours, 
les étudiants, etc.
<&arrow-circle-right> Destination pour les
résultats des question-
naires et devoirs.
end note
}


GUI -left-( Router : API REST niveau 1
Router -down- App
App -down- SimpleDB
App -right- SGB : API REST
@enduml

PlantUML version 1.2022.6(Tue Jun 21 17:34:49 UTC 2022)
(GPL source distribution)
Java Runtime: OpenJDK Runtime Environment
JVM: OpenJDK 64-Bit Server VM
Default Encoding: UTF-8
Language: en
Country: null
--></g></svg>