<?xml version="1.0" encoding="UTF-8" standalone="no"?>
<svg
   xmlns:dc="http://purl.org/dc/elements/1.1/"
   xmlns:cc="http://creativecommons.org/ns#"
   xmlns:rdf="http://www.w3.org/1999/02/22-rdf-syntax-ns#"
   xmlns:svg="http://www.w3.org/2000/svg"
   xmlns="http://www.w3.org/2000/svg"
   xmlns:sodipodi="http://sodipodi.sourceforge.net/DTD/sodipodi-0.dtd"
   xmlns:inkscape="http://www.inkscape.org/namespaces/inkscape"
   inkscape:export-ydpi="300"
   inkscape:export-xdpi="300"
   inkscape:export-filename="C:\Users\Cris\Documents\GitHub\log210-notes-de-cours\images\Fig23.1.png"
   sodipodi:docname="FigF23.1.svg"
   inkscape:version="1.0 (4035a4fb49, 2020-05-01)"
   id="svg8"
   version="1.1"
   viewBox="0 0 130.9566 61.35725"
   height="61.35725mm"
   width="130.9566mm">
  <defs
     id="defs2">
    <clipPath
       clipPathUnits="userSpaceOnUse"
       id="clipEmfPath1">
      <path
         d="M 0,0 H 735.55421 V 537.11448 H 0 Z"
         id="path833" />
    </clipPath>
    <pattern
       id="EMFhbasepattern"
       patternUnits="userSpaceOnUse"
       width="6"
       height="6"
       x="0"
       y="0" />
  </defs>
  <sodipodi:namedview
     fit-margin-bottom="0"
     fit-margin-right="0"
     fit-margin-left="0"
     fit-margin-top="0"
     inkscape:window-maximized="1"
     inkscape:window-y="-8"
     inkscape:window-x="1272"
     inkscape:window-height="1017"
     inkscape:window-width="1920"
     showgrid="false"
     inkscape:document-rotation="0"
     inkscape:current-layer="layer1"
     inkscape:document-units="mm"
     inkscape:cy="103.94378"
     inkscape:cx="209.90345"
     inkscape:zoom="1.979899"
     inkscape:pageshadow="2"
     inkscape:pageopacity="0.0"
     borderopacity="1.0"
     bordercolor="#666666"
     pagecolor="#ffffff"
     id="base" />
  <metadata
     id="metadata5">
    <rdf:RDF>
      <cc:Work
         rdf:about="">
        <dc:format>image/svg+xml</dc:format>
        <dc:type
           rdf:resource="http://purl.org/dc/dcmitype/StillImage" />
        <dc:title></dc:title>
      </cc:Work>
    </rdf:RDF>
  </metadata>
  <g
     transform="translate(-8.8745937,-79.965608)"
     id="layer1"
     inkscape:groupmode="layer"
     inkscape:label="Layer 1">
    <g
       transform="matrix(0.26458333,0,0,0.26458333,8.525642,76.475136)"
       clip-path="url(#clipEmfPath1)"
       id="g839" />
    <g
       transform="matrix(0.26458333,0,0,0.26458333,8.525642,76.475136)"
       clip-path="url(#clipEmfPath1)"
       id="g841" />
    <path
       transform="matrix(0.26458333,0,0,0.26458333,8.525642,76.475136)"
       style="fill:#ffffff;fill-opacity:1;fill-rule:evenodd;stroke:#000000;stroke-width:0.376821px;stroke-linecap:round;stroke-linejoin:round;stroke-miterlimit:4;stroke-dasharray:none;stroke-opacity:1"
       clip-path="url(#clipEmfPath1)"
       d="M 1.5072832,173.29009 H 242.48419 V 145.02091 H 1.5072832 Z"
       id="path843" />
    <g
       transform="matrix(0.26458333,0,0,0.26458333,8.525642,76.475136)"
       clip-path="url(#clipEmfPath1)"
       id="g845" />
    <g
       transform="matrix(0.26458333,0,0,0.26458333,6.2874755,76.475136)"
       clip-path="url(#clipEmfPath1)"
       id="g853">
      <text
         xml:space="preserve"
         style="font-style:normal;font-variant:normal;font-weight:400;font-size:12.5px;line-height:125%;font-family:Helvetica;text-align:start;letter-spacing:0px;word-spacing:0px;text-anchor:start;fill:#000000;fill-opacity:1;stroke:none"
         transform="translate(70.936516,162.92472)"
         x="0"
         y="0"
         id="text851"><tspan
           sodipodi:role="line"
           x="0"
           y="0"
           id="tspan849">AdaptateurTaxMaster<tspan
   style="font-style:normal;font-variant:normal;font-weight:400;font-size:12.5px;font-family:Helvetica;fill:#000000"
   id="tspan847" /></tspan></text>
    </g>
    <path
       transform="matrix(0.26458333,0,0,0.26458333,8.525642,76.475136)"
       style="fill:#ffffff;fill-opacity:1;fill-rule:evenodd;stroke:#000000;stroke-width:0.376821px;stroke-linecap:round;stroke-linejoin:round;stroke-miterlimit:4;stroke-dasharray:none;stroke-opacity:1"
       clip-path="url(#clipEmfPath1)"
       d="M 1.5072832,201.55927 H 242.48419 V 173.29009 H 1.5072832 Z"
       id="path855" />
    <g
       transform="matrix(0.26458333,0,0,0.26458333,8.525642,76.475136)"
       clip-path="url(#clipEmfPath1)"
       id="g857" />
    <g
       transform="matrix(0.26458333,0,0,0.26458333,8.525642,76.475136)"
       clip-path="url(#clipEmfPath1)"
       id="g859" />
    <path
       transform="matrix(0.26458333,0,0,0.26458333,8.525642,76.475136)"
       style="fill:#ffffff;fill-opacity:1;fill-rule:evenodd;stroke:#000000;stroke-width:0.376821px;stroke-linecap:round;stroke-linejoin:round;stroke-miterlimit:4;stroke-dasharray:none;stroke-opacity:1"
       clip-path="url(#clipEmfPath1)"
       d="M 1.5072832,229.82846 H 242.48419 V 201.55927 H 1.5072832 Z"
       id="path861" />
    <g
       transform="matrix(0.26458333,0,0,0.26458333,8.525642,76.475136)"
       clip-path="url(#clipEmfPath1)"
       id="g863" />
    <g
       transform="matrix(0.26458333,0,0,0.26458333,8.525642,76.475136)"
       clip-path="url(#clipEmfPath1)"
       id="g871">
      <text
         xml:space="preserve"
         style="font-style:normal;font-variant:normal;font-weight:400;font-size:12.5px;line-height:125%;font-family:Helvetica;text-align:start;letter-spacing:0px;word-spacing:0px;text-anchor:start;fill:#000000;fill-opacity:1;stroke:none"
         transform="translate(8.949494,219.46309)"
         x="0"
         y="0"
         id="text869"><tspan
           sodipodi:role="line"
           x="0"
           y="0"
           id="tspan867">getTaxes( Vente ) : Liste de LigneTaxes<tspan
   style="font-style:normal;font-variant:normal;font-weight:400;font-size:12.5px;font-family:Helvetica;fill:#000000"
   id="tspan865" /></tspan></text>
    </g>
    <path
       transform="matrix(0.26458333,0,0,0.26458333,8.525642,76.475136)"
       style="fill:#ffffff;fill-opacity:1;fill-rule:evenodd;stroke:#000000;stroke-width:0.376821px;stroke-linecap:round;stroke-linejoin:round;stroke-miterlimit:4;stroke-dasharray:none;stroke-opacity:1"
       clip-path="url(#clipEmfPath1)"
       d="m 252.84676,188.36699 h 243.23783 v -42.7807 H 252.84676 Z"
       id="path873" />
    <g
       transform="matrix(0.26458333,0,0,0.26458333,8.525642,76.475136)"
       clip-path="url(#clipEmfPath1)"
       id="g875" />
    <g
       transform="matrix(0.26458333,0,0,0.26458333,8.525642,76.475136)"
       clip-path="url(#clipEmfPath1)"
       id="g887">
      <text
         xml:space="preserve"
         style="font-style:normal;font-variant:normal;font-weight:400;font-size:12.5px;line-height:120.615%;font-family:Helvetica;text-align:center;letter-spacing:0px;word-spacing:0px;text-anchor:middle;fill:#000000;fill-opacity:1;stroke:none"
         transform="translate(318.97881,163.20742)"
         x="55.236816"
         y="0"
         id="text885"><tspan
           sodipodi:role="line"
           x="55.236816"
           y="0"
           id="tspan879"><tspan
             style="font-style:normal;font-variant:normal;font-weight:400;font-size:12.5px;font-family:Helvetica;fill:#000000"
             id="tspan877">Adaptateur</tspan></tspan><tspan
           id="tspan1382"
           sodipodi:role="line"
           x="55.236816"
           y="15.076874"><tspan
             id="tspan1384"
             dx="0"
             dy="0"
             style="font-style:normal;font-variant:normal;font-weight:400;font-size:12.5px;font-family:Helvetica;fill:#000000">GoodAsGoldTaxPro</tspan></tspan><tspan
           sodipodi:role="line"
           x="55.236816"
           y="15.076874"
           id="tspan883"><tspan
             style="font-style:normal;font-variant:normal;font-weight:400;font-size:12.5px;font-family:Helvetica;fill:#000000"
             id="tspan881" /></tspan></text>
    </g>
    <path
       transform="matrix(0.26458333,0,0,0.26458333,8.525642,76.475136)"
       style="fill:#ffffff;fill-opacity:1;fill-rule:evenodd;stroke:#000000;stroke-width:0.376821px;stroke-linecap:round;stroke-linejoin:round;stroke-miterlimit:4;stroke-dasharray:none;stroke-opacity:1"
       clip-path="url(#clipEmfPath1)"
       d="M 252.84676,216.63617 H 496.08459 V 188.36699 H 252.84676 Z"
       id="path889" />
    <g
       transform="matrix(0.26458333,0,0,0.26458333,8.525642,76.475136)"
       clip-path="url(#clipEmfPath1)"
       id="g891" />
    <g
       transform="matrix(0.26458333,0,0,0.26458333,8.525642,76.475136)"
       clip-path="url(#clipEmfPath1)"
       id="g893" />
    <path
       transform="matrix(0.26458333,0,0,0.26458333,8.525642,76.475136)"
       style="fill:#ffffff;fill-opacity:1;fill-rule:evenodd;stroke:#000000;stroke-width:0.376821px;stroke-linecap:round;stroke-linejoin:round;stroke-miterlimit:4;stroke-dasharray:none;stroke-opacity:1"
       clip-path="url(#clipEmfPath1)"
       d="M 252.84676,244.90535 H 496.08459 V 216.63617 H 252.84676 Z"
       id="path895" />
    <g
       transform="matrix(0.26458333,0,0,0.26458333,8.525642,76.475136)"
       clip-path="url(#clipEmfPath1)"
       id="g897" />
    <g
       transform="matrix(0.26458333,0,0,0.26458333,8.525642,76.475136)"
       clip-path="url(#clipEmfPath1)"
       id="g905">
      <text
         xml:space="preserve"
         style="font-style:normal;font-variant:normal;font-weight:400;font-size:12.5px;line-height:125%;font-family:Helvetica;text-align:start;letter-spacing:0px;word-spacing:0px;text-anchor:start;fill:#000000;fill-opacity:1;stroke:none"
         transform="translate(260.28897,234.53999)"
         x="0"
         y="0"
         id="text903"><tspan
           sodipodi:role="line"
           x="0"
           y="0"
           id="tspan901">getTaxes( Vente ) : Liste de LigneTaxes<tspan
   style="font-style:normal;font-variant:normal;font-weight:400;font-size:12.5px;font-family:Helvetica;fill:#000000"
   id="tspan899" /></tspan></text>
    </g>
    <g
       transform="matrix(0.26458333,0,0,0.26458333,8.525642,76.475136)"
       clip-path="url(#clipEmfPath1)"
       id="g907" />
    <path
       transform="matrix(0.26458333,0,0,0.26458333,8.525642,76.475136)"
       style="fill:none;stroke:#000000;stroke-width:0.376821px;stroke-linecap:round;stroke-linejoin:round;stroke-miterlimit:4;stroke-dasharray:none;stroke-opacity:1"
       clip-path="url(#clipEmfPath1)"
       d="m 374.46567,145.58629 -5.36969,-2.73269 m -3.01457,-1.60192 -5.3697,-2.73268 m -3.01456,-1.50769 -5.3697,-2.73269 m -3.01456,-1.60192 -5.3697,-2.73269 m -3.01457,-1.60192 -5.36969,-2.73269 m -3.01457,-1.50769 -5.3697,-2.73268 m -3.01456,-1.60192 -5.3697,-2.73269 m -3.01457,-1.60192 -5.36969,-2.73269 m -3.01457,-1.50769 -5.3697,-2.73269 m -3.01456,-1.60192 -5.3697,-2.73269 m -3.01456,-1.60192 -5.3697,-2.732684 m -3.01457,-1.50769 -5.36969,-2.732688 m -3.01457,-1.60192 -1.13046,-0.565384"
       id="path909" />
    <g
       transform="matrix(0.26458333,0,0,0.26458333,8.525642,76.475136)"
       clip-path="url(#clipEmfPath1)"
       id="g911" />
    <g
       transform="matrix(0.26458333,0,0,0.26458333,8.525642,76.475136)"
       clip-path="url(#clipEmfPath1)"
       id="g913" />
    <path
       transform="matrix(0.26458333,0,0,0.26458333,8.525642,76.475136)"
       style="fill:none;stroke:#000000;stroke-width:0.376821px;stroke-linecap:round;stroke-linejoin:round;stroke-miterlimit:4;stroke-dasharray:none;stroke-opacity:1"
       clip-path="url(#clipEmfPath1)"
       d="m 275.73862,87.540237 -20.63094,-3.203841 14.60181,14.888436 6.02913,-11.684595"
       id="path915" />
    <g
       transform="matrix(0.26458333,0,0,0.26458333,8.525642,76.475136)"
       clip-path="url(#clipEmfPath1)"
       id="g917" />
    <path
       transform="matrix(0.26458333,0,0,0.26458333,8.525642,76.475136)"
       style="fill:#ffffff;fill-opacity:1;fill-rule:evenodd;stroke:#000000;stroke-width:0.376821px;stroke-linecap:round;stroke-linejoin:round;stroke-miterlimit:4;stroke-dasharray:none;stroke-opacity:1"
       clip-path="url(#clipEmfPath1)"
       d="M 133.58298,56.067213 H 376.63239 V 13.380747 H 133.58298 Z"
       id="path919" />
    <g
       transform="matrix(0.26458333,0,0,0.26458333,8.525642,76.475136)"
       clip-path="url(#clipEmfPath1)"
       id="g921" />
    <g
       transform="matrix(0.26458333,0,0,0.26458333,8.525642,76.475136)"
       clip-path="url(#clipEmfPath1)"
       id="g933">
      <text
         xml:space="preserve"
         style="font-style:normal;font-variant:normal;font-weight:400;font-size:12.5px;line-height:120.615%;font-family:Helvetica;text-align:center;letter-spacing:0px;word-spacing:0px;text-anchor:middle;fill:#000000;fill-opacity:1;stroke:none"
         transform="translate(224.49099,30.90764)"
         x="30.923462"
         y="0"
         id="text931"><tspan
           sodipodi:role="line"
           x="30.923462"
           y="0"
           id="tspan929"><tspan
             dx="0"
             dy="0"
             style="font-style:normal;font-variant:normal;font-weight:400;font-size:12.5px;font-family:Helvetica;fill:#000000"
             id="tspan923">«interface»</tspan></tspan><tspan
           id="tspan1380"
           sodipodi:role="line"
           x="30.923462"
           y="15.076874">IAdaptateurCalculTaxes</tspan></text>
    </g>
    <path
       transform="matrix(0.26458333,0,0,0.26458333,8.525642,76.475136)"
       style="fill:#ffffff;fill-opacity:1;fill-rule:evenodd;stroke:#000000;stroke-width:0.376821px;stroke-linecap:round;stroke-linejoin:round;stroke-miterlimit:4;stroke-dasharray:none;stroke-opacity:1"
       clip-path="url(#clipEmfPath1)"
       d="M 133.58298,84.336396 H 376.63239 V 56.067213 H 133.58298 Z"
       id="path935" />
    <g
       transform="matrix(0.26458333,0,0,0.26458333,8.525642,76.475136)"
       clip-path="url(#clipEmfPath1)"
       id="g937" />
    <g
       transform="matrix(0.26458333,0,0,0.26458333,8.525642,76.475136)"
       clip-path="url(#clipEmfPath1)"
       id="g945">
      <text
         xml:space="preserve"
         style="font-style:normal;font-variant:normal;font-weight:400;font-size:12.5px;line-height:125%;font-family:Helvetica;text-align:start;letter-spacing:0px;word-spacing:0px;text-anchor:start;fill:#000000;fill-opacity:1;stroke:none"
         transform="translate(141.02519,73.971029)"
         x="0"
         y="0"
         id="text943"><tspan
           sodipodi:role="line"
           x="0"
           y="0"
           id="tspan941"><tspan
             dx="0"
             dy="0"
             style="font-style:normal;font-variant:normal;font-weight:400;font-size:12.5px;font-family:Helvetica;fill:#000000"
             id="tspan939">getTaxes( Vente ) : Liste de LigneTaxes</tspan></tspan></text>
    </g>
    <g
       transform="matrix(0.26458333,0,0,0.26458333,8.525642,76.475136)"
       clip-path="url(#clipEmfPath1)"
       id="g947" />
    <path
       transform="matrix(0.26458333,0,0,0.26458333,8.525642,76.475136)"
       style="fill:none;stroke:#000000;stroke-width:0.376821px;stroke-linecap:round;stroke-linejoin:round;stroke-miterlimit:4;stroke-dasharray:none;stroke-opacity:1"
       clip-path="url(#clipEmfPath1)"
       d="m 121.99574,145.02091 5.4639,-2.54423 m 3.10877,-1.31923 5.4639,-2.54422 m 3.10877,-1.41346 5.4639,-2.54423 m 3.10878,-1.31923 5.4639,-2.54422 m 3.10877,-1.41346 5.4639,-2.45 m 3.10877,-1.41346 5.4639,-2.54422 m 3.10878,-1.41346 5.4639,-2.45 m 3.10877,-1.41346 5.4639,-2.54422 m 3.10877,-1.41346 5.4639,-2.45 m 3.10877,-1.41346 5.46391,-2.54423 m 3.10877,-1.41345 5.4639,-2.45 m 3.10877,-1.41346 5.4639,-2.544226 m 3.10877,-1.413459 5.46391,-2.449996 m 3.10877,-1.413459 3.674,-1.696151"
       id="path949" />
    <g
       transform="matrix(0.26458333,0,0,0.26458333,8.525642,76.475136)"
       clip-path="url(#clipEmfPath1)"
       id="g951" />
    <g
       transform="matrix(0.26458333,0,0,0.26458333,8.525642,76.475136)"
       clip-path="url(#clipEmfPath1)"
       id="g953" />
    <path
       transform="matrix(0.26458333,0,0,0.26458333,8.525642,76.475136)"
       style="fill:none;stroke:#000000;stroke-width:0.376821px;stroke-linecap:round;stroke-linejoin:round;stroke-miterlimit:4;stroke-dasharray:none;stroke-opacity:1"
       clip-path="url(#clipEmfPath1)"
       d="M 234.38254,86.5037 255.10768,84.336396 239.84644,98.565218 234.38254,86.5037"
       id="path955" />
    <g
       transform="matrix(0.26458333,0,0,0.26458333,8.525642,76.475136)"
       clip-path="url(#clipEmfPath1)"
       id="g957" />
    <g
       transform="matrix(0.26458333,0,0,0.26458333,8.525642,76.475136)"
       clip-path="url(#clipEmfPath1)"
       id="g961" />
    <g
       transform="matrix(0.26458333,0,0,0.26458333,8.525642,76.475136)"
       clip-path="url(#clipEmfPath1)"
       id="g987" />
    <g
       transform="matrix(0.26458333,0,0,0.26458333,8.525642,76.475136)"
       clip-path="url(#clipEmfPath1)"
       id="g989" />
    <g
       transform="matrix(0.26458333,0,0,0.26458333,8.525642,76.475136)"
       clip-path="url(#clipEmfPath1)"
       id="g993" />
    <g
       transform="matrix(0.26458333,0,0,0.26458333,8.525642,76.475136)"
       clip-path="url(#clipEmfPath1)"
       id="g1005" />
    <g
       transform="matrix(0.26458333,0,0,0.26458333,8.525642,76.475136)"
       clip-path="url(#clipEmfPath1)"
       id="g1007" />
    <g
       transform="matrix(0.26458333,0,0,0.26458333,8.525642,76.475136)"
       clip-path="url(#clipEmfPath1)"
       id="g1011" />
    <g
       transform="matrix(0.26458333,0,0,0.26458333,8.525642,76.475136)"
       clip-path="url(#clipEmfPath1)"
       id="g1031" />
    <g
       transform="matrix(0.26458333,0,0,0.26458333,8.525642,76.475136)"
       clip-path="url(#clipEmfPath1)"
       id="g1043" />
    <g
       transform="matrix(0.26458333,0,0,0.26458333,8.525642,76.475136)"
       clip-path="url(#clipEmfPath1)"
       id="g1045" />
    <g
       transform="matrix(0.26458333,0,0,0.26458333,8.525642,76.475136)"
       clip-path="url(#clipEmfPath1)"
       id="g1049" />
    <g
       transform="matrix(0.26458333,0,0,0.26458333,8.525642,76.475136)"
       clip-path="url(#clipEmfPath1)"
       id="g1067" />
    <g
       transform="matrix(0.26458333,0,0,0.26458333,8.525642,76.475136)"
       clip-path="url(#clipEmfPath1)"
       id="g1071" />
    <g
       transform="matrix(0.26458333,0,0,0.26458333,8.525642,76.475136)"
       clip-path="url(#clipEmfPath1)"
       id="g1073" />
    <g
       transform="matrix(0.26458333,0,0,0.26458333,8.525642,76.475136)"
       clip-path="url(#clipEmfPath1)"
       id="g1077" />
    <g
       transform="matrix(0.26458333,0,0,0.26458333,8.525642,76.475136)"
       clip-path="url(#clipEmfPath1)"
       id="g1081" />
    <g
       transform="matrix(0.26458333,0,0,0.26458333,8.525642,76.475136)"
       clip-path="url(#clipEmfPath1)"
       id="g1097" />
    <g
       transform="matrix(0.26458333,0,0,0.26458333,8.525642,76.475136)"
       clip-path="url(#clipEmfPath1)"
       id="g1115" />
    <g
       transform="matrix(0.26458333,0,0,0.26458333,8.525642,76.475136)"
       clip-path="url(#clipEmfPath1)"
       id="g1119" />
    <g
       transform="matrix(0.26458333,0,0,0.26458333,8.525642,76.475136)"
       clip-path="url(#clipEmfPath1)"
       id="g1121" />
    <g
       transform="matrix(0.26458333,0,0,0.26458333,8.525642,76.475136)"
       clip-path="url(#clipEmfPath1)"
       id="g1125" />
    <g
       transform="matrix(0.26458333,0,0,0.26458333,8.525642,76.475136)"
       clip-path="url(#clipEmfPath1)"
       id="g1129" />
    <g
       transform="matrix(0.26458333,0,0,0.26458333,8.525642,76.475136)"
       clip-path="url(#clipEmfPath1)"
       id="g1145" />
    <g
       transform="matrix(0.26458333,0,0,0.26458333,8.525642,76.475136)"
       clip-path="url(#clipEmfPath1)"
       id="g1157" />
    <g
       transform="matrix(0.26458333,0,0,0.26458333,8.525642,76.475136)"
       clip-path="url(#clipEmfPath1)"
       id="g1177" />
  </g>
</svg>
