<?xml version="1.0" encoding="UTF-8" standalone="no"?>
<!DOCTYPE svg PUBLIC "-//W3C//DTD SVG 1.1//EN"
 "http://www.w3.org/Graphics/SVG/1.1/DTD/svg11.dtd">
<!-- Generated by graphviz version 2.43.0 (0)
 -->
<!-- Title: git_basics Pages: 1 -->
<svg width="818pt" height="244pt"
 viewBox="0.00 0.00 818.00 244.00" xmlns="http://www.w3.org/2000/svg" xmlns:xlink="http://www.w3.org/1999/xlink">
<g id="graph0" class="graph" transform="scale(1 1) rotate(0) translate(4 240)">
<title>git_basics</title>
<polygon fill="white" stroke="transparent" points="-4,4 -4,-240 814,-240 814,4 -4,4"/>
<text text-anchor="middle" x="405" y="-216" font-family="Helvetica,Arial,sans-serif" font-size="20.00">Basic git concepts and operations</text>
<!-- changes -->
<g id="node1" class="node">
<title>changes</title>
<polygon fill="#880000" fill-opacity="0.133333" stroke="transparent" points="125,-182 0,-182 0,-106 125,-106 125,-182"/>
<polygon fill="none" stroke="#000000" stroke-opacity="0.266667" points="0.5,-144 0.5,-182 125.5,-182 125.5,-144 0.5,-144"/>
<text text-anchor="start" x="33.5" y="-166.8" font-family="Helvetica,Arial,sans-serif" font-size="14.00"> </text>
<text text-anchor="start" x="37.5" y="-166.8" font-family="Helvetica,Arial,sans-serif" font-weight="bold" font-size="14.00">changes</text>
<text text-anchor="start" x="5.5" y="-152.8" font-family="Helvetica,Arial,sans-serif" font-size="14.00">in the working tree </text>
<polygon fill="none" stroke="#000000" stroke-opacity="0.266667" points="0.5,-106 0.5,-144 125.5,-144 125.5,-106 0.5,-106"/>
<text text-anchor="start" x="5.5" y="-128.8" font-family="Helvetica,Arial,sans-serif" font-style="italic" font-size="14.00">To view: </text>
<text text-anchor="start" x="5.5" y="-114.8" font-family="Helvetica,Arial,sans-serif" font-size="14.00">git diff</text>
</g>
<!-- staging -->
<g id="node2" class="node">
<title>staging</title>
<polygon fill="#ff8800" fill-opacity="0.133333" stroke="transparent" points="391,-173 291,-173 291,-97 391,-97 391,-173"/>
<polygon fill="none" stroke="#000000" stroke-opacity="0.266667" points="291,-135 291,-173 391,-173 391,-135 291,-135"/>
<text text-anchor="start" x="299" y="-157.8" font-family="Helvetica,Arial,sans-serif" font-size="14.00"> </text>
<text text-anchor="start" x="303" y="-157.8" font-family="Helvetica,Arial,sans-serif" font-weight="bold" font-size="14.00">staging area</text>
<text text-anchor="start" x="298.5" y="-143.8" font-family="Helvetica,Arial,sans-serif" font-size="14.00">(cache, index)</text>
<polygon fill="none" stroke="#000000" stroke-opacity="0.266667" points="291,-97 291,-135 391,-135 391,-97 291,-97"/>
<text text-anchor="start" x="296" y="-119.8" font-family="Helvetica,Arial,sans-serif" font-style="italic" font-size="14.00">To view: </text>
<text text-anchor="start" x="296" y="-105.8" font-family="Helvetica,Arial,sans-serif" font-size="14.00">git diff &#45;&#45;staged</text>
</g>
<!-- changes&#45;&gt;staging -->
<g id="edge8" class="edge">
<title>changes&#45;&gt;staging</title>
<path fill="none" stroke="#880000" stroke-width="2" stroke-dasharray="1,5" stroke-opacity="0.533333" d="M125.21,-141.99C173.33,-140.43 239.52,-138.27 285.66,-136.77"/>
<polygon fill="#880000" fill-opacity="0.533333" stroke="#880000" stroke-width="2" stroke-opacity="0.533333" points="285.96,-138.51 290.9,-136.6 285.85,-135.01 285.96,-138.51"/>
<text text-anchor="middle" x="208" y="-158.8" font-family="Helvetica,Arial,sans-serif" font-size="14.00">git add ... &#160;&#160;&#160;</text>
<text text-anchor="middle" x="208" y="-143.8" font-family="Helvetica,Arial,sans-serif" font-size="14.00">git reset &#160;&#160;&#160;&#160;&#160;</text>
</g>
<!-- stash -->
<g id="node4" class="node">
<title>stash</title>
<polygon fill="#0044ff" fill-opacity="0.133333" stroke="transparent" points="248.5,-87.5 167.5,-87.5 167.5,-24.5 248.5,-24.5 248.5,-87.5"/>
<polygon fill="none" stroke="#000000" stroke-opacity="0.266667" points="168,-62 168,-87 249,-87 249,-62 168,-62"/>
<text text-anchor="start" x="188.5" y="-71.8" font-family="Helvetica,Arial,sans-serif" font-size="14.00"> </text>
<text text-anchor="start" x="192.5" y="-71.8" font-family="Helvetica,Arial,sans-serif" font-weight="bold" font-size="14.00">stash</text>
<polygon fill="none" stroke="#000000" stroke-opacity="0.266667" points="168,-24 168,-62 249,-62 249,-24 168,-24"/>
<text text-anchor="start" x="173" y="-46.8" font-family="Helvetica,Arial,sans-serif" font-style="italic" font-size="14.00">To view:</text>
<text text-anchor="start" x="173" y="-32.8" font-family="Helvetica,Arial,sans-serif" font-size="14.00">git stash list</text>
</g>
<!-- changes&#45;&gt;stash -->
<g id="edge4" class="edge">
<title>changes&#45;&gt;stash</title>
<path fill="none" stroke="#000000" stroke-width="2" stroke-dasharray="1,5" stroke-opacity="0.533333" d="M129.56,-103.49C142.46,-95.58 155.62,-87.51 167.34,-80.32"/>
<polygon fill="#000000" fill-opacity="0.533333" stroke="#000000" stroke-width="2" stroke-opacity="0.533333" points="128.54,-102.06 125.19,-106.17 130.37,-105.05 128.54,-102.06"/>
<text text-anchor="middle" x="184.7" y="-93.34" font-family="Helvetica,Arial,sans-serif" font-size="14.00">git stash pop</text>
</g>
<!-- stash_push -->
<g id="node5" class="node">
<title>stash_push</title>
<text text-anchor="middle" x="208" y="-109.3" font-family="Helvetica,Arial,sans-serif" font-size="14.00">git stash [push]</text>
</g>
<!-- changes&#45;&gt;stash_push -->
<g id="edge2" class="edge">
<title>changes&#45;&gt;stash_push</title>
<path fill="none" stroke="#000088" stroke-width="2" stroke-dasharray="1,5" stroke-opacity="0.266667" d="M125.19,-130.67C141.29,-127.19 158.09,-123.57 172.24,-120.51"/>
</g>
<!-- discard -->
<g id="node8" class="node">
<title>discard</title>
<text text-anchor="middle" x="62.5" y="-48.3" font-family="Helvetica,Arial,sans-serif" font-size="14.00">discard</text>
</g>
<!-- changes&#45;&gt;discard -->
<g id="edge9" class="edge">
<title>changes&#45;&gt;discard</title>
<path fill="none" stroke="#880000" stroke-width="2" stroke-dasharray="1,5" stroke-opacity="0.533333" d="M62.5,-105.7C62.5,-95.41 62.5,-84.6 62.5,-75.39"/>
<polygon fill="#880000" fill-opacity="0.533333" stroke="#880000" stroke-width="2" stroke-opacity="0.533333" points="64.25,-75.18 62.5,-70.18 60.75,-75.18 64.25,-75.18"/>
<text text-anchor="middle" x="52" y="-84.3" font-family="Helvetica,Arial,sans-serif" font-size="14.00">git restore ...</text>
</g>
<!-- HEAD -->
<g id="node3" class="node">
<title>HEAD</title>
<polygon fill="#88ff00" fill-opacity="0.133333" stroke="transparent" points="613,-146 491,-146 491,0 613,0 613,-146"/>
<polyline fill="none" stroke="#000000" stroke-opacity="0.266667" points="613,-123 613,-146 491,-146 491,-123 "/>
<text text-anchor="start" x="522.5" y="-131.8" font-family="Helvetica,Arial,sans-serif" font-size="14.00"> </text>
<text text-anchor="start" x="526.5" y="-131.8" font-family="Helvetica,Arial,sans-serif" font-weight="bold" font-size="14.00">HEAD </text>
<text text-anchor="start" x="569.5" y="-131.8" font-family="Helvetica,Arial,sans-serif" font-size="14.00">of</text>
<polyline fill="none" stroke="#000000" stroke-opacity="0.266667" points="491,-123 491,-100 613,-100 613,-123 "/>
<text text-anchor="start" x="495" y="-107.8" font-family="Helvetica,Arial,sans-serif" font-size="14.00"> the current branch</text>
<polygon fill="none" stroke="#000000" stroke-opacity="0.266667" points="491,-50 491,-100 613,-100 613,-50 491,-50"/>
<text text-anchor="start" x="495" y="-85.8" font-family="Helvetica,Arial,sans-serif" font-style="italic" font-size="14.00">To view:</text>
<text text-anchor="start" x="495" y="-71.8" font-family="Helvetica,Arial,sans-serif" font-size="14.00">git show</text>
<text text-anchor="start" x="495" y="-57.8" font-family="Helvetica,Arial,sans-serif" font-size="14.00">git log</text>
<polygon fill="none" stroke="#000000" stroke-opacity="0.266667" points="491,0 491,-50 613,-50 613,0 491,0"/>
<text text-anchor="start" x="495" y="-35.8" font-family="Helvetica,Arial,sans-serif" font-style="italic" font-size="14.00">To change branch:</text>
<text text-anchor="start" x="495" y="-21.8" font-family="Helvetica,Arial,sans-serif" font-size="14.00">git switch ...</text>
<text text-anchor="start" x="495" y="-7.8" font-family="Helvetica,Arial,sans-serif" font-size="14.00">git checkout ...</text>
</g>
<!-- staging&#45;&gt;HEAD -->
<g id="edge1" class="edge">
<title>staging&#45;&gt;HEAD:push</title>
<path fill="none" stroke="#880000" stroke-width="2" stroke-dasharray="1,5" stroke-opacity="0.533333" d="M391.33,-135C418.87,-135 453.98,-135 485.91,-135"/>
<polygon fill="#880000" fill-opacity="0.533333" stroke="#880000" stroke-width="2" stroke-opacity="0.533333" points="486,-136.75 491,-135 486,-133.25 486,-136.75"/>
<text text-anchor="middle" x="441" y="-138.8" font-family="Helvetica,Arial,sans-serif" font-size="14.00">git commit</text>
</g>
<!-- remote -->
<g id="node6" class="node">
<title>remote</title>
<polygon fill="#00ff00" fill-opacity="0.133333" stroke="#000000" stroke-opacity="0.133333" points="805.5,-164 701.5,-164 701.5,-128 805.5,-128 805.5,-164"/>
<text text-anchor="middle" x="753.5" y="-142.3" font-family="Helvetica,Arial,sans-serif" font-size="14.00">remote branch</text>
</g>
<!-- HEAD&#45;&gt;remote -->
<g id="edge6" class="edge">
<title>HEAD:push&#45;&gt;remote</title>
<path fill="none" stroke="#880000" stroke-width="2" stroke-dasharray="1,5" stroke-opacity="0.533333" d="M613,-135C640.44,-135 670.83,-137.14 696.22,-139.54"/>
<polygon fill="#880000" fill-opacity="0.533333" stroke="#880000" stroke-width="2" stroke-opacity="0.533333" points="696.09,-141.28 701.23,-140.02 696.42,-137.8 696.09,-141.28"/>
<text text-anchor="middle" x="655" y="-140.8" font-family="Helvetica,Arial,sans-serif" font-size="14.00">git push</text>
</g>
<!-- HEAD&#45;&gt;remote -->
<g id="edge7" class="edge">
<title>HEAD:pull&#45;&gt;remote</title>
<path fill="none" stroke="#004400" stroke-width="2" stroke-dasharray="1,5" stroke-opacity="0.533333" d="M618.27,-111.97C643.46,-111.72 652.14,-109.88 679,-116 691.09,-118.76 703.77,-123.28 715.12,-127.99"/>
<polygon fill="#004400" fill-opacity="0.533333" stroke="#004400" stroke-width="2" stroke-opacity="0.533333" points="617.99,-110.22 613,-112 618.01,-113.72 617.99,-110.22"/>
<text text-anchor="middle" x="655" y="-119.8" font-family="Helvetica,Arial,sans-serif" font-size="14.00">git pull</text>
</g>
<!-- branches -->
<g id="node7" class="node">
<title>branches</title>
<polygon fill="#008888" fill-opacity="0.133333" stroke="transparent" points="810,-106.5 697,-106.5 697,-43.5 810,-43.5 810,-106.5"/>
<polygon fill="none" stroke="#000000" stroke-opacity="0.266667" points="697.5,-81 697.5,-106 810.5,-106 810.5,-81 697.5,-81"/>
<text text-anchor="start" x="702.5" y="-90.8" font-family="Helvetica,Arial,sans-serif" font-size="14.00"> </text>
<text text-anchor="start" x="706.5" y="-90.8" font-family="Helvetica,Arial,sans-serif" font-weight="bold" font-size="14.00">local branches</text>
<text text-anchor="start" x="801.5" y="-90.8" font-family="Helvetica,Arial,sans-serif" font-size="14.00"> </text>
<polygon fill="none" stroke="#000000" stroke-opacity="0.266667" points="697.5,-43 697.5,-81 810.5,-81 810.5,-43 697.5,-43"/>
<text text-anchor="start" x="702.5" y="-65.8" font-family="Helvetica,Arial,sans-serif" font-style="italic" font-size="14.00">To view:</text>
<text text-anchor="start" x="702.5" y="-51.8" font-family="Helvetica,Arial,sans-serif" font-size="14.00">git branch [&#45;&#45;list]</text>
</g>
<!-- HEAD&#45;&gt;branches -->
<g id="edge10" class="edge">
<title>HEAD:switch&#45;&gt;branches</title>
<path fill="none" stroke="#000000" stroke-opacity="0.533333" d="M619.19,-75C645.14,-75 673.19,-75 696.84,-75"/>
<polygon fill="none" stroke="#000000" stroke-opacity="0.533333" points="619,-75 616,-77 613,-75 616,-73 619,-75"/>
</g>
<!-- stash_push&#45;&gt;staging -->
<g id="edge3" class="edge">
<title>stash_push&#45;&gt;staging</title>
<path fill="none" stroke="#000088" stroke-width="2" stroke-dasharray="1,5" stroke-opacity="0.266667" d="M253.72,-120.51C265.72,-122.53 278.77,-124.72 291,-126.77"/>
</g>
<!-- stash_push&#45;&gt;stash -->
<g id="edge5" class="edge">
<title>stash_push&#45;&gt;stash</title>
<path fill="none" stroke="#000088" stroke-width="2" stroke-dasharray="1,5" stroke-opacity="0.266667" d="M208,-105.46C208,-101.19 208,-96.91 208,-92.64"/>
<polygon fill="#000088" fill-opacity="0.266667" stroke="#000088" stroke-width="2" stroke-opacity="0.266667" points="209.75,-92.62 208,-87.62 206.25,-92.62 209.75,-92.62"/>
</g>
</g>
</svg>
