<?xml version="1.0" encoding="UTF-8" standalone="no"?>
<svg
   width="178.08728mm"
   height="44.599308mm"
   viewBox="0 0 178.08728 44.599309"
   version="1.1"
   id="svg8"
   sodipodi:docname="Instabilite_diminue_iterations.svg"
   inkscape:version="1.2.1 (9c6d41e410, 2022-07-14)"
   xmlns:inkscape="http://www.inkscape.org/namespaces/inkscape"
   xmlns:sodipodi="http://sodipodi.sourceforge.net/DTD/sodipodi-0.dtd"
   xmlns="http://www.w3.org/2000/svg"
   xmlns:svg="http://www.w3.org/2000/svg"
   xmlns:rdf="http://www.w3.org/1999/02/22-rdf-syntax-ns#"
   xmlns:cc="http://creativecommons.org/ns#"
   xmlns:dc="http://purl.org/dc/elements/1.1/">
  <defs
     id="defs2">
    <rect
       x="137.09032"
       y="141.86244"
       width="571.35426"
       height="22.559166"
       id="rect15548" />
    <marker
       style="overflow:visible"
       id="RoundedArrow"
       refX="0"
       refY="0"
       orient="auto-start-reverse"
       inkscape:stockid="RoundedArrow"
       markerWidth="6.1347523"
       markerHeight="5.9304948"
       viewBox="0 0 6.1347524 5.9304951"
       inkscape:isstock="true"
       inkscape:collect="always"
       preserveAspectRatio="xMidYMid">
      <path
         transform="scale(0.7)"
         d="m -0.21114562,-4.1055728 6.42229122,3.21114561 a 1,1 90 0 1 0,1.78885438 L -0.21114562,4.1055728 A 1.236068,1.236068 31.717474 0 1 -2,3 v -6 a 1.236068,1.236068 148.28253 0 1 1.78885438,-1.1055728 z"
         style="fill:context-stroke;fill-rule:evenodd;stroke:none"
         id="path1367" />
    </marker>
    <linearGradient
       id="linearGradient2733"
       inkscape:swatch="solid">
      <stop
         style="stop-color:#000000;stop-opacity:1;"
         offset="0"
         id="stop2731" />
    </linearGradient>
    <clipPath
       id="clipEmfPath1-0"
       clipPathUnits="userSpaceOnUse">
      <path
         id="path1400"
         d="M 0,0 H 863.47668 V 424.5427 H 0 Z" />
    </clipPath>
  </defs>
  <sodipodi:namedview
     id="base"
     pagecolor="#ffffff"
     bordercolor="#666666"
     borderopacity="1.0"
     inkscape:pageopacity="0.0"
     inkscape:pageshadow="2"
     inkscape:zoom="1.1525249"
     inkscape:cx="169.62757"
     inkscape:cy="31.235768"
     inkscape:document-units="mm"
     inkscape:current-layer="layer1"
     inkscape:document-rotation="0"
     showgrid="false"
     inkscape:window-width="1920"
     inkscape:window-height="1017"
     inkscape:window-x="-8"
     inkscape:window-y="-8"
     inkscape:window-maximized="1"
     inkscape:showpageshadow="2"
     inkscape:pagecheckerboard="0"
     inkscape:deskcolor="#d1d1d1" />
  <metadata
     id="metadata5">
    <rdf:RDF>
      <cc:Work
         rdf:about="">
        <dc:format>image/svg+xml</dc:format>
        <dc:type
           rdf:resource="http://purl.org/dc/dcmitype/StillImage" />
      </cc:Work>
    </rdf:RDF>
  </metadata>
  <g
     inkscape:label="Layer 1"
     inkscape:groupmode="layer"
     id="layer1"
     transform="translate(-173.226,-106.77764)">
    <g
       id="g1406"
       clip-path="url(#clipEmfPath1-0)"
       transform="matrix(0.26458333,0,0,0.26458333,171.28412,59.346066)" />
    <g
       id="g1408"
       clip-path="url(#clipEmfPath1-0)"
       transform="matrix(0.26458333,0,0,0.26458333,171.28412,59.346066)" />
    <g
       id="g1412"
       clip-path="url(#clipEmfPath1-0)"
       transform="matrix(0.26458333,0,0,0.26458333,171.28412,59.346066)" />
    <g
       id="g1442"
       clip-path="url(#clipEmfPath1-0)"
       transform="matrix(0.26458333,0,0,0.26458333,171.28412,59.346066)" />
    <g
       id="g1444"
       clip-path="url(#clipEmfPath1-0)"
       transform="matrix(0.26458333,0,0,0.26458333,171.28412,59.346066)" />
    <g
       id="g1448"
       clip-path="url(#clipEmfPath1-0)"
       transform="matrix(0.26458333,0,0,0.26458333,171.28412,59.346066)" />
    <g
       id="g1450"
       clip-path="url(#clipEmfPath1-0)"
       transform="matrix(0.26458333,0,0,0.26458333,171.28412,59.346066)" />
    <g
       id="g1452"
       clip-path="url(#clipEmfPath1-0)"
       transform="matrix(0.26458333,0,0,0.26458333,171.28412,59.346066)" />
    <g
       id="g1456"
       clip-path="url(#clipEmfPath1-0)"
       transform="matrix(0.26458333,0,0,0.26458333,171.28412,59.346066)" />
    <g
       id="g1458"
       clip-path="url(#clipEmfPath1-0)"
       transform="matrix(0.26458333,0,0,0.26458333,171.28412,59.346066)" />
    <g
       id="g1462"
       clip-path="url(#clipEmfPath1-0)"
       transform="matrix(0.26458333,0,0,0.26458333,171.28412,59.346066)" />
    <g
       id="g1464"
       clip-path="url(#clipEmfPath1-0)"
       transform="matrix(0.26458333,0,0,0.26458333,171.28412,59.346066)" />
    <g
       id="g1468"
       clip-path="url(#clipEmfPath1-0)"
       transform="matrix(0.26458333,0,0,0.26458333,171.28412,59.346066)" />
    <g
       id="g1470"
       clip-path="url(#clipEmfPath1-0)"
       transform="matrix(0.26458333,0,0,0.26458333,171.28412,59.346066)" />
    <g
       id="g1474"
       clip-path="url(#clipEmfPath1-0)"
       transform="matrix(0.26458333,0,0,0.26458333,171.28412,59.346066)" />
    <g
       id="g1476"
       clip-path="url(#clipEmfPath1-0)"
       transform="matrix(0.26458333,0,0,0.26458333,171.28412,59.346066)" />
    <g
       id="g1480"
       clip-path="url(#clipEmfPath1-0)"
       transform="matrix(0.26458333,0,0,0.26458333,171.28412,59.346066)" />
    <g
       id="g1482"
       clip-path="url(#clipEmfPath1-0)"
       transform="matrix(0.26458333,0,0,0.26458333,171.28412,59.346066)" />
    <g
       id="g1486"
       clip-path="url(#clipEmfPath1-0)"
       transform="matrix(0.26458333,0,0,0.26458333,171.28412,59.346066)" />
    <g
       id="g1488"
       clip-path="url(#clipEmfPath1-0)"
       transform="matrix(0.26458333,0,0,0.26458333,171.28412,59.346066)" />
    <g
       id="g1492"
       clip-path="url(#clipEmfPath1-0)"
       transform="matrix(0.26458333,0,0,0.26458333,171.28412,59.346066)" />
    <g
       id="g1494"
       clip-path="url(#clipEmfPath1-0)"
       transform="matrix(0.26458333,0,0,0.26458333,171.28412,59.346066)" />
    <g
       id="g1498"
       clip-path="url(#clipEmfPath1-0)"
       transform="matrix(0.26458333,0,0,0.26458333,171.28412,59.346066)" />
    <g
       id="g1500"
       clip-path="url(#clipEmfPath1-0)"
       transform="matrix(0.26458333,0,0,0.26458333,171.28412,59.346066)" />
    <g
       id="g1504"
       clip-path="url(#clipEmfPath1-0)"
       transform="matrix(0.26458333,0,0,0.26458333,171.28412,59.346066)" />
    <g
       id="g1506"
       clip-path="url(#clipEmfPath1-0)"
       transform="matrix(0.26458333,0,0,0.26458333,171.28412,59.346066)" />
    <g
       id="g1510"
       clip-path="url(#clipEmfPath1-0)"
       transform="matrix(0.26458333,0,0,0.26458333,171.28412,59.346066)" />
    <g
       id="g1512"
       clip-path="url(#clipEmfPath1-0)"
       transform="matrix(0.26458333,0,0,0.26458333,171.28412,59.346066)" />
    <g
       id="g1516"
       clip-path="url(#clipEmfPath1-0)"
       transform="matrix(0.26458333,0,0,0.26458333,171.28412,59.346066)" />
    <g
       id="g1518"
       clip-path="url(#clipEmfPath1-0)"
       transform="matrix(0.26458333,0,0,0.26458333,171.28412,59.346066)" />
    <g
       id="g1522"
       clip-path="url(#clipEmfPath1-0)"
       transform="matrix(0.26458333,0,0,0.26458333,171.28412,59.346066)" />
    <g
       id="g1524"
       clip-path="url(#clipEmfPath1-0)"
       transform="matrix(0.26458333,0,0,0.26458333,171.28412,59.346066)" />
    <g
       id="g1528"
       clip-path="url(#clipEmfPath1-0)"
       transform="matrix(0.26458333,0,0,0.26458333,171.28412,59.346066)" />
    <g
       id="g1530"
       clip-path="url(#clipEmfPath1-0)"
       transform="matrix(0.26458333,0,0,0.26458333,171.28412,59.346066)" />
    <g
       id="g1534"
       clip-path="url(#clipEmfPath1-0)"
       transform="matrix(0.26458333,0,0,0.26458333,171.28412,59.346066)" />
    <g
       id="g1536"
       clip-path="url(#clipEmfPath1-0)"
       transform="matrix(0.26458333,0,0,0.26458333,171.28412,59.346066)" />
    <g
       id="g1540"
       clip-path="url(#clipEmfPath1-0)"
       transform="matrix(0.26458333,0,0,0.26458333,171.28412,59.346066)" />
    <g
       id="g1542"
       clip-path="url(#clipEmfPath1-0)"
       transform="matrix(0.26458333,0,0,0.26458333,171.28412,59.346066)" />
    <g
       id="g1546"
       clip-path="url(#clipEmfPath1-0)"
       transform="matrix(0.26458333,0,0,0.26458333,171.28412,59.346066)" />
    <g
       id="g1550"
       clip-path="url(#clipEmfPath1-0)"
       transform="matrix(0.26458333,0,0,0.26458333,171.28412,59.346066)" />
    <g
       id="g1554"
       clip-path="url(#clipEmfPath1-0)"
       transform="matrix(0.26458333,0,0,0.26458333,171.28412,59.346066)" />
    <g
       id="g1556"
       clip-path="url(#clipEmfPath1-0)"
       transform="matrix(0.26458333,0,0,0.26458333,171.28412,59.346066)" />
    <g
       id="g1560"
       clip-path="url(#clipEmfPath1-0)"
       transform="matrix(0.26458333,0,0,0.26458333,171.28412,59.346066)" />
    <g
       id="g1564"
       clip-path="url(#clipEmfPath1-0)"
       transform="matrix(0.26458333,0,0,0.26458333,171.28412,59.346066)" />
    <g
       id="g1590"
       clip-path="url(#clipEmfPath1-0)"
       transform="matrix(0.26458333,0,0,0.26458333,171.28412,59.346066)" />
    <g
       id="g1592"
       clip-path="url(#clipEmfPath1-0)"
       transform="matrix(0.26458333,0,0,0.26458333,171.28412,59.346066)" />
    <g
       id="g1594"
       clip-path="url(#clipEmfPath1-0)"
       transform="matrix(0.26458333,0,0,0.26458333,171.28412,59.346066)" />
    <g
       id="g1598"
       clip-path="url(#clipEmfPath1-0)"
       transform="matrix(0.26458333,0,0,0.26458333,171.28412,59.346066)" />
    <g
       id="g1600"
       clip-path="url(#clipEmfPath1-0)"
       transform="matrix(0.26458333,0,0,0.26458333,171.28412,59.346066)" />
    <g
       id="g1604"
       clip-path="url(#clipEmfPath1-0)"
       transform="matrix(0.26458333,0,0,0.26458333,171.28412,59.346066)" />
    <g
       id="g1608"
       clip-path="url(#clipEmfPath1-0)"
       transform="matrix(0.26458333,0,0,0.26458333,171.28412,59.346066)" />
    <g
       id="g1622"
       clip-path="url(#clipEmfPath1-0)"
       transform="matrix(0.26458333,0,0,0.26458333,171.28412,59.346066)" />
    <rect
       style="fill:none;stroke:#adadad;stroke-width:0.308977;stroke-dasharray:none;stroke-opacity:1;stop-color:#000000"
       id="rect1254"
       width="11.090767"
       height="32.418552"
       x="184.49284"
       y="106.93213" />
    <rect
       style="fill:#ececec;stroke:#adadad;stroke-width:0.308977;stroke-dasharray:none;stroke-opacity:1;stop-color:#000000"
       id="rect1258"
       width="11.090767"
       height="32.418552"
       x="173.38049"
       y="106.93213" />
    <rect
       style="fill:#ececec;stroke:#adadad;stroke-width:0.308977;stroke-dasharray:none;stroke-opacity:1;stop-color:#000000"
       id="rect1260"
       width="11.090767"
       height="32.418552"
       x="195.60519"
       y="106.93213" />
    <rect
       style="fill:none;stroke:#adadad;stroke-width:0.308977;stroke-dasharray:none;stroke-opacity:1;stop-color:#000000"
       id="rect1262"
       width="11.090767"
       height="32.418552"
       x="206.71756"
       y="106.93213" />
    <rect
       style="fill:#ececec;stroke:#adadad;stroke-width:0.308977;stroke-dasharray:none;stroke-opacity:1;stop-color:#000000"
       id="rect1264"
       width="11.090767"
       height="32.418552"
       x="217.82991"
       y="106.93213" />
    <rect
       style="fill:none;stroke:#adadad;stroke-width:0.308977;stroke-dasharray:none;stroke-opacity:1;stop-color:#000000"
       id="rect1266"
       width="11.090767"
       height="32.418552"
       x="228.94228"
       y="106.93213" />
    <rect
       style="fill:#ececec;stroke:#adadad;stroke-width:0.308977;stroke-dasharray:none;stroke-opacity:1;stop-color:#000000"
       id="rect1268"
       width="11.090767"
       height="32.418552"
       x="240.05463"
       y="106.93213" />
    <rect
       style="fill:none;stroke:#adadad;stroke-width:0.308977;stroke-dasharray:none;stroke-opacity:1;stop-color:#000000"
       id="rect1270"
       width="11.090767"
       height="32.418552"
       x="251.16698"
       y="106.93213" />
    <rect
       style="fill:#ececec;stroke:#adadad;stroke-width:0.308977;stroke-dasharray:none;stroke-opacity:1;stop-color:#000000"
       id="rect1272"
       width="11.090767"
       height="32.418552"
       x="262.27951"
       y="106.93213" />
    <rect
       style="fill:none;stroke:#adadad;stroke-width:0.308977;stroke-dasharray:none;stroke-opacity:1;stop-color:#000000"
       id="rect1274"
       width="11.090767"
       height="32.418552"
       x="273.39218"
       y="106.93213" />
    <rect
       style="fill:#ececec;stroke:#adadad;stroke-width:0.308977;stroke-dasharray:none;stroke-opacity:1;stop-color:#000000"
       id="rect1276"
       width="11.090767"
       height="32.418552"
       x="284.50467"
       y="106.93213" />
    <rect
       style="fill:none;stroke:#adadad;stroke-width:0.308977;stroke-dasharray:none;stroke-opacity:1;stop-color:#000000"
       id="rect1278"
       width="11.090767"
       height="32.418552"
       x="295.61734"
       y="106.93213" />
    <rect
       style="fill:#ececec;stroke:#adadad;stroke-width:0.308977;stroke-dasharray:none;stroke-opacity:1;stop-color:#000000"
       id="rect1280"
       width="11.090767"
       height="32.418552"
       x="306.73001"
       y="106.93213" />
    <rect
       style="fill:none;stroke:#adadad;stroke-width:0.308977;stroke-dasharray:none;stroke-opacity:1;stop-color:#000000"
       id="rect1282"
       width="11.090767"
       height="32.418552"
       x="317.84268"
       y="106.93213" />
    <rect
       style="fill:#ececec;stroke:#adadad;stroke-width:0.308977;stroke-dasharray:none;stroke-opacity:1;stop-color:#000000"
       id="rect1284"
       width="11.090767"
       height="32.418552"
       x="328.95535"
       y="106.93213" />
    <rect
       style="fill:none;stroke:#adadad;stroke-width:0.308977;stroke-dasharray:none;stroke-opacity:1;stop-color:#000000"
       id="rect1286"
       width="11.090767"
       height="32.418552"
       x="340.06802"
       y="106.93213" />
    <g
       clip-path="none"
       transform="matrix(0.17383637,0,0,0.26499764,156.86115,79.754168)"
       id="g495">
      <path
         d="m 97.858797,169.26475 c 0,0 35.889003,-46.8215 58.660303,-46.48145 23.12445,0.34534 41.87349,78.9054 64.76249,84.4744 22.889,5.568 43.9742,-55.05791 65.3072,-55.39191 21.334,-0.334 42.6861,37.21174 63.3531,38.65974 20.666,1.448 42.7264,-24.32892 63.9484,-24.77492 21.223,-0.445 41.8286,22.79404 63.3846,23.90804 21.556,1.113 44.29481,-18.71372 64.62881,-20.16172 20.333,-1.448 43.3015,16.93203 64.6345,16.59803 21.333,-0.334 31.4765,-14.54332 63.3655,-15.21132 31.889,-0.668 96.9618,14.13523 128.6278,13.80123 31.667,-0.334 42.2421,-12.42079 63.3531,-12.53179 21.111,-0.111 42.3072,12.86144 63.9742,14.19744 21.667,1.337 37.03818,-12.54374 64.70518,-15.10574 43.97222,-0.75129 19.14552,-0.0215 63.32072,-0.39373 24.5543,-0.20689 56.7929,-0.47256 56.7929,-0.47256"
         stroke="#2f528f"
         stroke-width="1.33333"
         stroke-miterlimit="8"
         fill="none"
         fill-rule="evenodd"
         id="path493"
         sodipodi:nodetypes="cscscccsssssccsc"
         style="stroke-width:1.33252;stroke-dasharray:none;marker-end:url(#RoundedArrow)" />
    </g>
    <path
       style="fill:none;stroke:#000000;stroke-width:0.3;stroke-linecap:butt;stroke-linejoin:bevel;stroke-dasharray:none;stroke-opacity:1"
       d="m 217.91081,140.30181 c -0.0476,4.84007 4.34978,-1.55829 5.59604,3.42341 1.10359,-5.09654 5.71583,1.72048 5.58137,-3.80147"
       id="path6085"
       sodipodi:nodetypes="ccc" />
    <text
       xml:space="preserve"
       transform="matrix(0.26458333,0,0,0.26458333,164.77672,106.52279)"
       id="text15546"
       style="font-size:10.6667px;line-height:1.25;font-family:Arial;-inkscape-font-specification:'Arial, Normal';text-align:center;letter-spacing:0px;word-spacing:0px;white-space:pre;shape-inside:url(#rect15548);display:inline"><tspan
         x="167.07617"
         y="156.27535"
         id="tspan1038"><tspan
           style="font-size:16px"
           id="tspan1036">Une itération : analyse, conception, implémentation, tests et rétroactions</tspan></tspan></text>
  </g>
</svg>
