<?xml version="1.0" encoding="UTF-8" standalone="no"?>
<svg
   xmlns:dc="http://purl.org/dc/elements/1.1/"
   xmlns:cc="http://creativecommons.org/ns#"
   xmlns:rdf="http://www.w3.org/1999/02/22-rdf-syntax-ns#"
   xmlns:svg="http://www.w3.org/2000/svg"
   xmlns="http://www.w3.org/2000/svg"
   xmlns:sodipodi="http://sodipodi.sourceforge.net/DTD/sodipodi-0.dtd"
   xmlns:inkscape="http://www.inkscape.org/namespaces/inkscape"
   viewBox="0 0 143.99999 144"
   version="1.1"
   id="svg44"
   sodipodi:docname="logo_ets.svg"
   width="144"
   height="144"
   inkscape:version="0.92.4 (5da689c313, 2019-01-14)">
  <metadata
     id="metadata48">
    <rdf:RDF>
      <cc:Work
         rdf:about="">
        <dc:format>image/svg+xml</dc:format>
        <dc:type
           rdf:resource="http://purl.org/dc/dcmitype/StillImage" />
        <dc:title></dc:title>
      </cc:Work>
    </rdf:RDF>
  </metadata>
  <sodipodi:namedview
     pagecolor="#ffffff"
     bordercolor="#666666"
     borderopacity="1"
     objecttolerance="10"
     gridtolerance="10"
     guidetolerance="10"
     inkscape:pageopacity="0"
     inkscape:pageshadow="2"
     inkscape:window-width="1920"
     inkscape:window-height="1017"
     id="namedview46"
     showgrid="false"
     fit-margin-top="0"
     fit-margin-left="0"
     fit-margin-right="0"
     fit-margin-bottom="0"
     inkscape:zoom="2.8364169"
     inkscape:cx="9.0219934"
     inkscape:cy="26.916185"
     inkscape:window-x="4648"
     inkscape:window-y="382"
     inkscape:window-maximized="1"
     inkscape:current-layer="svg44" />
  <defs
     id="defs30">
    <style
       id="style2">.cls-3{fill:#fff}</style>
    <linearGradient
       id="linear-gradient"
       x1="224.7"
       x2="231.3"
       y1="97"
       y2="97"
       gradientUnits="userSpaceOnUse">
      <stop
         offset="0"
         stop-color="#fff"
         id="stop4" />
      <stop
         offset="1"
         stop-color="#fff"
         stop-opacity="0"
         id="stop6" />
    </linearGradient>
    <linearGradient
       id="linear-gradient-2"
       x1="237"
       x2="282.39999"
       y1="95.300003"
       y2="92"
       gradientTransform="translate(1.2,5)"
       gradientUnits="userSpaceOnUse">
      <stop
         offset="0"
         stop-color="#fff"
         stop-opacity="0"
         id="stop9" />
      <stop
         offset=".1"
         stop-color="#fff"
         stop-opacity=".1"
         id="stop11" />
      <stop
         offset=".2"
         stop-color="#fff"
         stop-opacity=".3"
         id="stop13" />
      <stop
         offset=".3"
         stop-color="#fff"
         stop-opacity=".5"
         id="stop15" />
      <stop
         offset=".4"
         stop-color="#fff"
         stop-opacity=".7"
         id="stop17" />
      <stop
         offset=".5"
         stop-color="#fff"
         stop-opacity=".8"
         id="stop19" />
      <stop
         offset=".6"
         stop-color="#fff"
         stop-opacity=".9"
         id="stop21" />
      <stop
         offset=".7"
         stop-color="#fff"
         stop-opacity=".9"
         id="stop23" />
      <stop
         offset=".8"
         stop-color="#fff"
         id="stop25" />
      <stop
         offset="1"
         stop-color="#fff"
         id="stop27" />
    </linearGradient>
  </defs>
  <g
     id="g866"
     transform="translate(-139.2)">
    <path
       id="path32"
       d="m 139.2,0 h 144 v 144 h -144 z"
       inkscape:connector-curvature="0"
       style="fill:#ef3730" />
    <path
       id="path34"
       transform="translate(-49.6,-27)"
       d="m 205,93 c 0.2,3.2 6.2,6 15.6,7.2 a 59.8,59.8 0 0 0 6.3,0.6 l 4.4,0.2 v -0.7 l -4.9,-0.2 a 40,40 0 0 1 -4.6,-0.4 C 211.4,98.4 206,95.4 205.8,93 Z"
       inkscape:connector-curvature="0"
       style="fill:url(#linear-gradient)" />
    <path
       id="path36"
       transform="translate(-49.6,-27)"
       class="cls-3"
       d="m 314.4,86 c -0.1,-3 -5.8,-5 -17,-6.3 a 176.4,176.4 0 0 0 -18.8,-0.9 c -6.2,0 -12.8,0.2 -19.6,0.7 A 250.9,250.9 0 0 0 224.7,84 l -2.5,0.6 -1.3,0.4 c -7.3,1.7 -16,4.6 -15.8,8 h 0.8 c -0.1,-2.2 5.5,-5 15.2,-7.3 l 2.3,-0.5 1.5,-0.3 a 251.8,251.8 0 0 1 34.2,-4.2 c 6.1,-0.4 12.2,-0.6 18,-0.6 a 187.6,187.6 0 0 1 20.1,1 c 11.2,1.2 15.2,3.4 15.3,5 z"
       inkscape:connector-curvature="0"
       style="fill:#ffffff" />
    <path
       id="path38"
       transform="translate(-49.6,-27)"
       class="cls-3"
       d="m 246.7,71.8 h -25.5 l -11.5,45.8 h 25.8 l 1.7,-7.1 h -17.1 l 3.3,-13.1 H 238 l 1.8,-7 H 225 L 227.8,79 h 17 l 1.8,-7.2 z m -2.6,-11.3 c -1,0 -2,0.6 -3.8,1.6 h -0.2 l -9,5.5 -1.3,0.8 h 1.5 l 2,0.3 h 0.1 l 10.3,-3.2 c 1.2,-0.3 2.4,-0.7 2.8,-2 a 2.3,2.3 0 0 0 -0.3,-1.8 2.3,2.3 0 0 0 -1.3,-1 2.7,2.7 0 0 0 -0.8,-0.1 z m 16.1,40.8 -4.5,0.3 h -1.3 l -2.6,10.8 h 8.5 l 2.8,-11.4 -3,0.3 z m -9.9,-34.6 -1.8,7 h 12.9 l -0.4,1.3 -5.8,23.5 1.3,-0.1 3.4,-0.3 4,-0.3 5.9,-24 h 12 l 1.5,-5.9 0.3,-1.1 z m 59.6,-0.2 a 21,21 0 0 0 -10.9,-3 14.9,14.9 0 0 0 -10.9,4.2 13.4,13.4 0 0 0 -3.8,9.3 13.2,13.2 0 0 0 4,9.3 41.8,41.8 0 0 0 3.1,3 24,24 0 0 1 2.8,2.9 10,10 0 0 1 0.6,0.9 h 0.1 l 2.8,-0.7 5.5,-1.6 a 15,15 0 0 0 -1.5,-2.3 32.8,32.8 0 0 0 -2.6,-2.8 l -1.4,-1.3 a 28.3,28.3 0 0 1 -2.1,-2 8.3,8.3 0 0 1 -2.7,-5.6 6.4,6.4 0 0 1 6.7,-6.4 11.9,11.9 0 0 1 8,3.5 l 0.7,0.6 0.2,-0.8 1.6,-6.5 V 67 l 0.1,-0.3 z m -5.6,27.3 a 87.9,87.9 0 0 1 -7.7,2.2 l -0.7,0.2 a 7.7,7.7 0 0 1 0,0.9 c 0,3.7 -2.3,7.4 -7.6,7.4 -3.5,0 -6.8,-1.5 -9.9,-4.5 l -0.6,-0.5 -0.2,0.8 -1.7,7 -0.1,0.4 0.3,0.2 0.8,0.5 a 24,24 0 0 0 11.9,3 c 10.4,0 15.9,-7.3 15.9,-14.5 a 13.7,13.7 0 0 0 -0.4,-3 z"
       inkscape:connector-curvature="0"
       style="fill:#ffffff" />
    <path
       id="path40"
       transform="translate(-49.6,-27)"
       d="m 312.5,86.1 c 0,1 -3,3.7 -14.7,6.7 -10,2.6 -23.5,4.6 -37.8,5.7 l -19.3,1.3 h -0.2 l -0.3,2.3 h 0.2 c 3.1,-0.1 16.4,-1 19.7,-1.3 a 270.8,270.8 0 0 0 28.6,-3.6 c 3.4,-0.7 6.7,-1.4 9.7,-2.2 11,-2.8 16.2,-5.7 16,-9 z"
       inkscape:connector-curvature="0"
       style="fill:url(#linear-gradient-2)" />
    <path
       sodipodi:nodetypes="ccccccccccsccccccccccccccccccccccccccccccccccccscccccccccccccccccccccccccccscccccccccccccccccsccccccccccccccccccccccccccccccsssssssscccsccccccccscccccccccccccccccccccccccccsccscccccccccccccccscccccccccccccccccccccccccccccsccccccccccccccccccccscccccscccccccccccccccccccccccccccssssccccccccscccccccccccc"
       style="fill:#ffffff"
       inkscape:connector-curvature="0"
       transform="translate(-49.6,-27)"
       id="path42"
       class="cls-3"
       d="m 201.6,137 h -5.1 v -9.1 h 1.2 v 8.2 h 4.4 z m 5.6,0 c -0.45856,0.10635 -0.93098,0.1401 -1.4,0.1 -1.93859,0.27286 -3.61488,-1.35413 -3.4,-3.3 0,-2 1.3,-3.3 3,-3.3 0.78689,0 1.52786,0.37049 2,1 0.40401,0.66184 0.61206,1.42468 0.6,2.2 h -4.4 c -0.0495,0.68667 0.16508,1.36632 0.6,1.9 0.52283,0.45464 1.21089,0.67193 1.9,0.6 0.58014,0.004 1.15612,-0.0981 1.7,-0.3 z m -0.4,-4.1 c 0.0162,-0.43522 -0.12588,-0.86156 -0.4,-1.2 -0.27232,-0.25253 -0.62864,-0.39506 -1,-0.4 -0.90118,-0.002 -1.64699,0.70038 -1.7,1.6 z m 9.7,3.7 c -0.36067,0.0816 -0.73053,0.11524 -1.1,0.1 -1.70668,0.12696 -3.12696,-1.29332 -3,-3 -0.0628,-1.8879 1.51482,-3.4191 3.4,-3.3 0.8268,-0.009 1.64573,0.16123 2.4,0.5 v 5.2 c 0.0682,0.69159 -0.0711,1.38783 -0.4,2 -0.57034,0.99364 -1.65681,1.57567 -2.8,1.5 -0.80541,3.7e-4 -1.59741,-0.20623 -2.3,-0.6 v -1.1 c 0.21112,0.16892 0.44729,0.30387 0.7,0.4 0.50166,0.23777 1.04547,0.37372 1.6,0.4 0.83591,0.093 1.6248,-0.40523 1.9,-1.2 0.17144,-0.58368 0.23914,-1.19292 0.2,-1.8 z m 0.6,-5 c -0.41288,-0.17393 -0.85265,-0.27541 -1.3,-0.3 -1.28228,-0.0671 -2.32405,1.02197 -2.2,2.3 -0.18507,1.21933 0.76678,2.31397 2,2.3 0.52364,-0.0194 1.03625,-0.15606 1.5,-0.4 z m 7,5.4 c -0.45831,0.10803 -0.93099,0.14179 -1.4,0.1 -1.89984,0.20173 -3.50173,-1.40016 -3.3,-3.3 0,-2 1.2,-3.3 2.9,-3.3 0.78689,0 1.52786,0.37049 2,1 0.40401,0.66184 0.61206,1.42468 0.6,2.2 h -4.4 c -0.0496,0.68667 0.16508,1.36632 0.6,1.9 0.52283,0.45464 1.21089,0.67193 1.9,0.6 0.58014,0.004 1.15612,-0.0981 1.7,-0.3 z m -0.4,-4.1 c 0.026,-0.43656 -0.11728,-0.86634 -0.4,-1.2 -0.27232,-0.25253 -0.62864,-0.39506 -1,-0.4 -0.90118,-0.002 -1.64699,0.70038 -1.7,1.6 z m -2.3,-3.1 v -0.9 l 2.4,-1 v 1 z m 4.6,7.2 v -6.4 h 1 v 1 l 0.7,-1 c 0.45775,-0.11163 0.93103,-0.14543 1.4,-0.1 0.57498,-0.0224 1.1401,0.15417 1.6,0.5 0.4751,0.4703 0.6979,1.1387 0.6,1.8 v 4.2 h -1 v -3.8 c 0,-1 -0.3,-1.8 -1.6,-1.8 -0.60244,0.003 -1.1917,0.17663 -1.7,0.5 v 5 z m 8,-8.6 c 0.004,0.29595 -0.20816,0.5507 -0.5,0.6 -0.36951,0.0625 -0.70525,-0.22528 -0.7,-0.6 0,-0.86667 1.3,-0.86667 1.3,0 z m 0,8.6 h -1 v -6.4 h 1 z m 6,0 c -0.49056,0.11914 -0.99797,0.15296 -1.5,0.1 -1.89984,0.20173 -3.50173,-1.40016 -3.3,-3.3 0,-2 1.2,-3.3 3,-3.3 0.78689,0 1.52786,0.37049 2,1 0.36912,0.67215 0.54235,1.43434 0.5,2.2 h -4.3 c -0.0779,0.67365 0.10064,1.35193 0.5,1.9 0.52283,0.45464 1.21089,0.67193 1.9,0.6 0.58014,0.004 1.15612,-0.0981 1.7,-0.3 z m -0.4,-4.1 c -0.001,-0.45045 -0.18093,-0.88204 -0.5,-1.2 -0.27232,-0.25253 -0.62864,-0.39506 -1,-0.4 -0.90118,-0.002 -1.64699,0.70038 -1.7,1.6 z m 7.6,-2.3 c 0.32096,-0.11808 0.65832,-0.18555 1,-0.2 1.82121,-0.07 3.2836,1.48671 3.1,3.3 0,2 -1.2,3.4 -3.1,3.4 -0.55028,0.0396 -1.10144,-0.0637 -1.6,-0.3 v 3 h -1 v -9.2 h 1 v 1 z m -0.6,5.2 c 0.41664,0.26929 0.90398,0.40853 1.4,0.4 1.5,0 2.1,-1.1 2.1,-2.5 0.0667,-0.59584 -0.0746,-1.1964 -0.4,-1.7 -0.3979,-0.46616 -0.98758,-0.72415 -1.6,-0.7 -0.52469,0.0122 -1.03892,0.14928 -1.5,0.4 z m 8.4,1.3 c -1.7,0 -2.9,-1.2 -2.9,-3.2 0,-2 1.1,-3.4 3,-3.4 1.8,0 3,1.3 3,3.3 0,2 -1.2,3.3 -3,3.3 z m 1.9,-3.3 c 0,-1.2 -0.5,-2.5 -1.8,-2.5 -1.1,0 -1.8,1 -1.8,2.5 -0.0382,0.5938 0.10103,1.18554 0.4,1.7 0.28836,0.49951 0.82325,0.80516 1.4,0.8 1.2,0 1.8,-1.4 1.8,-2.5 z m 7.7,3.2 h -1.1 v -1 l -0.7,1 c -0.42596,0.0977 -0.86411,0.13141 -1.3,0.1 -1.35226,0.22404 -2.52404,-0.94774 -2.3,-2.3 v -4.2 h 1.1 v 3.8 c 0,1 0.2,1.8 1.5,1.8 0.60244,-0.003 1.1917,-0.17663 1.7,-0.5 v -5.1 h 1.1 z m 2.7,0 h -1.1 v -6.4 h 1.1 v 1 l 0.6,-0.9 c 0.34949,-0.13994 0.72362,-0.20796 1.1,-0.2 0.27083,-0.0313 0.54521,0.003 0.8,0.1 v 1 c -0.31417,-0.14066 -0.6559,-0.209 -1,-0.2 -0.53978,0.007 -1.06403,0.18166 -1.5,0.5 z m 8,0 h -1 v -9.1 h 1 z m 1.8,-6.7 h -0.7 l 1,-2.4 h 1 z m 3.7,-1.9 c 0,0.33137 -0.26863,0.6 -0.6,0.6 -0.36951,0.0625 -0.70525,-0.22528 -0.7,-0.6 0,-0.86667 1.3,-0.86667 1.3,0 z m 0,8.6 h -1.2 v -6.4 h 1.1 z m 1.5,0 v -6.4 h 1 v 1 l 0.8,-1 c 0.42549,-0.1008 0.8641,-0.13454 1.3,-0.1 0.57498,-0.0224 1.1401,0.15417 1.6,0.5 0.51176,0.45075 0.77278,1.12193 0.7,1.8 v 4.2 h -1.1 v -3.8 c 0,-1 -0.2,-1.8 -1.5,-1.8 -0.60244,0.003 -1.1917,0.17663 -1.7,0.5 v 5 z m 12.4,0 h -1.1 v -1 l -0.6,1 c -2.03761,0.69496 -4.14581,-0.84762 -4.1,-3 -0.17316,-1.80621 1.18856,-3.39488 3,-3.5 0.58283,-0.0435 1.16727,0.0596 1.7,0.3 v -3 h 1 z m -1.1,-5.2 c -0.45624,-0.26263 -0.97356,-0.40059 -1.5,-0.4 -0.43395,-0.008 -0.85743,0.13352 -1.2,0.4 -0.59598,0.53233 -0.92554,1.30131 -0.9,2.1 -0.18507,1.21933 0.76678,2.31397 2,2.3 0.5495,0.0271 1.09766,-0.0756 1.6,-0.3 z m 8,5.2 h -1 v -1 l -0.7,1 c -0.45831,0.10803 -0.93099,0.14179 -1.4,0.1 -1.31309,0.14839 -2.40657,-0.9948 -2.2,-2.3 v -4.2 h 1 v 3.8 c 0,1 0.3,1.8 1.6,1.8 0.56829,-0.0215 1.12057,-0.19412 1.6,-0.5 v -5.1 h 1.1 z m 3.9,-3.6 c 0.81487,0.22214 1.38528,0.95552 1.4,1.8 0.006,1.18764 -1.0183,2.11878 -2.2,2 -0.62939,-0.0327 -1.24389,-0.20344 -1.8,-0.5 v -1 c 0.19023,0.11846 0.3911,0.21889 0.6,0.3 0.31064,0.16411 0.65032,0.26601 1,0.3 0.62806,0.12834 1.21298,-0.35909 1.2,-1 0,-0.7 -0.6,-1 -1,-1.1 l -0.4,-0.2 c -0.79932,-0.18178 -1.37487,-0.88066 -1.4,-1.7 0.10515,-1.10741 1.0937,-1.91622 2.2,-1.8 0.5169,-0.0227 1.03161,0.0802 1.5,0.3 v 1 c -0.35943,-0.31705 -0.82075,-0.49448 -1.3,-0.5 -0.9,0 -1.2,0.5 -1.2,1 0,0.5 0.4,0.7 0.8,0.9 z m 4.8,3.6 c -0.19559,0.0558 -0.39687,0.0894 -0.6,0.1 -0.45782,0.0404 -0.90632,-0.14646 -1.2,-0.5 -0.3,-0.3 -0.3,-0.7 -0.3,-1.4 v -3.8 h -0.7 l 0.6,-0.8 h 0.1 v -1.2 l 1.1,-0.4 v 1.6 h 1.3 v 0.8 h -1.3 v 3.3 c -0.0315,0.33259 -0.0315,0.66741 0,1 0.0515,0.38879 0.41234,0.65942 0.8,0.6 0.27726,-0.0131 0.54917,-0.0811 0.8,-0.2 z m 2.4,0 h -1.1 v -6.4 h 1 v 1 l 0.7,-0.9 c 0.34949,-0.13994 0.72362,-0.20796 1.1,-0.2 0.23776,-0.0161 0.47625,0.018 0.7,0.1 v 1 c -0.31307,-0.14407 -0.6556,-0.21258 -1,-0.2 -0.50538,0.0269 -0.99194,0.20063 -1.4,0.5 z m 4.3,-8.6 c 0,0.33137 -0.26863,0.6 -0.6,0.6 -0.33137,0 -0.6,-0.26863 -0.6,-0.6 0,-0.8 1.2,-0.8 1.2,0 z m 0,8.6 h -1.2 v -6.4 h 1.1 z m 5.9,0 c -0.45831,0.10803 -0.93099,0.14179 -1.4,0.1 -1.93859,0.27286 -3.61488,-1.35413 -3.4,-3.3 0,-2 1.3,-3.3 3,-3.3 0.78689,0 1.52786,0.37049 2,1 0.40401,0.66184 0.61206,1.42468 0.6,2.2 h -4.4 c -0.0496,0.68667 0.16508,1.36632 0.6,1.9 0.49785,0.42876 1.14447,0.6443 1.8,0.6 0.61366,0.016 1.2247,-0.0858 1.8,-0.3 z m -0.4,-4.1 c 0.026,-0.43656 -0.11728,-0.86634 -0.4,-1.2 -0.27232,-0.25253 -0.62864,-0.39506 -1,-0.4 -0.90118,-0.002 -1.64699,0.70038 -1.7,1.6 z" />
  </g>
</svg>
