<?xml version="1.0" encoding="UTF-8" standalone="no"?>
<svg
   xmlns:dc="http://purl.org/dc/elements/1.1/"
   xmlns:cc="http://creativecommons.org/ns#"
   xmlns:rdf="http://www.w3.org/1999/02/22-rdf-syntax-ns#"
   xmlns:svg="http://www.w3.org/2000/svg"
   xmlns="http://www.w3.org/2000/svg"
   xmlns:sodipodi="http://sodipodi.sourceforge.net/DTD/sodipodi-0.dtd"
   xmlns:inkscape="http://www.inkscape.org/namespaces/inkscape"
   sodipodi:docname="PanneConnexionService.svg"
   inkscape:version="1.0 (4035a4fb49, 2020-05-01)"
   id="svg8"
   version="1.1"
   viewBox="0 0 192.11918 98.64357"
   height="98.64357mm"
   width="192.11919mm">
  <defs
     id="defs2">
    <clipPath
       clipPathUnits="userSpaceOnUse"
       id="clipEmfPath1">
      <path
         d="M 0.15990309,-7.9951545 V 446.92913 H 832.29558 V -7.9951545 Z M 107.29497,229.46093 l -3.83767,0.15991 -2.87826,0.1599 -4.477283,0.31981 -4.797093,0.4797 -2.55845,0.31981 -1.119321,0.1599 -1.279225,0.15991 -1.119322,0.1599 -0.959418,0.1599 -1.119322,0.15991 -2.878255,0.47971 -0.799516,0.1599 -0.959418,0.1599 -1.599031,0.31981 -0.959419,0.1599 -0.639612,0.1599 -1.599031,0.31981 -0.639612,0.1599 -0.799516,0.15991 -0.639612,0.1599 -0.799516,0.1599 -4.477286,1.11932 -0.479709,0.15991 -0.639613,0.1599 -0.479709,0.1599 -1.279225,0.31981 -0.479709,0.1599 -0.639612,0.15991 -0.47971,0.1599 -0.639612,0.1599 -3.837674,1.27923 -0.639612,0.1599 -0.319807,0.1599 -1.918837,0.63962 -0.319806,0.1599 -1.439128,0.47971 -0.319806,0.1599 -0.959418,0.31981 -0.319807,0.1599 -0.479709,0.1599 -0.319806,0.15991 -0.479709,0.1599 -0.319806,0.1599 -0.47971,0.15991 -0.319806,0.1599 -0.479709,0.1599 -0.639612,0.31981 -0.47971,0.1599 -0.639612,0.31981 -0.479709,0.1599 -0.639613,0.31981 -0.479709,0.1599 -2.238643,1.11932 -0.479709,0.1599 -2.878256,1.43913 -0.159903,0.1599 -2.55845,1.27923 -0.159903,0.1599 -0.639612,0.31981 -0.159903,0.1599 -0.959419,0.47971 -0.159903,0.1599 -0.959418,0.47971 -0.159903,0.15991 -0.639613,0.3198 -0.159903,0.15991 -0.319806,0.1599 -0.159903,0.1599 -0.319806,0.15991 -0.159903,0.1599 -0.639613,0.3198 -0.159903,0.15991 -0.319806,0.1599 -0.159903,0.1599 -0.319806,0.15991 -0.159903,0.1599 -0.319807,0.1599 -0.159903,0.15991 -0.319806,0.1599 -0.159903,0.1599 -0.319806,0.15991 -0.319806,0.3198 -0.319806,0.1599 -0.159904,0.15991 -0.319806,0.1599 -0.319806,0.31981 -0.319806,0.1599 -0.159903,0.1599 -0.319806,0.15991 -0.319806,0.3198 -0.319807,0.15991 -0.479709,0.4797 -0.319806,0.15991 -0.479709,0.47971 -0.319807,0.1599 -0.319806,0.31981 -0.319806,0.1599 -0.799515,0.79951 -0.319807,0.15991 -0.799515,0.79951 -0.319806,0.15991 -1.918837,1.91883 -0.319806,0.15991 -1.439128,1.43912 -0.159903,0.31981 -1.758934,1.75893 -0.159903,0.31981 -0.639613,0.63961 -0.159903,0.31981 -0.479709,0.47971 -0.159903,0.3198 -0.479709,0.47971 -0.159904,0.31981 -0.319806,0.31981 -0.159903,0.3198 -0.319806,0.31981 -0.159903,0.3198 -0.159903,0.15991 -0.159903,0.3198 -0.319806,0.31981 -0.159904,0.31981 -0.159903,0.1599 -0.159903,0.31981 -0.159903,0.1599 -0.319806,0.63961 -0.159903,0.1599 -0.159903,0.31981 -0.159903,0.1599 -0.4797095,0.95942 -0.1599031,0.15991 -1.7589339,3.51786 -0.1599031,0.47971 -0.3198062,0.63961 -0.1599031,0.47971 -0.1599031,0.31981 -0.9594185,2.87826 -0.4797093,1.91883 -0.3198062,1.59903 -0.1599031,0.95942 -0.1599031,1.11932 -0.159903,1.75894 v 4.47728 h 0.159903 v 1.75894 h 0.1599031 v 1.11932 H 5.436705 v 0.95942 h 0.1599031 v 0.79951 h 0.1599031 v 0.79952 h 0.1599031 v 0.63961 h 0.1599031 v 0.63961 h 0.1599031 v 0.63962 h 0.1599031 v 0.47971 h 0.1599031 v 0.47971 h 0.159903 v 0.4797 h 0.1599031 v 0.47971 h 0.1599031 v 0.47971 H 7.195639 v 0.47971 h 0.1599031 v 0.31981 h 0.1599031 v 0.47971 h 0.1599031 v 0.3198 h 0.1599031 v 0.31981 h 0.1599031 v 0.47971 h 0.159903 v 0.31981 h 0.1599031 v 0.3198 h 0.1599031 v 0.31981 h 0.1599031 v 0.3198 h 0.1599031 v 0.31981 H 8.954573 v 0.31981 h 0.1599031 v 0.3198 h 0.1599031 v 0.31981 h 0.1599031 v 0.3198 h 0.159903 v 0.31981 h 0.1599031 v 0.31981 h 0.1599031 l 0.1599035,0.1599 v 0.31981 h 0.159903 v 0.3198 h 0.159903 v 0.31981 h 0.159903 l 0.159903,0.1599 v 0.31981 h 0.159903 v 0.3198 h 0.159903 l 0.159903,0.15991 v 0.3198 h 0.159903 l 0.159903,0.15991 v 0.3198 h 0.159903 l 0.159904,0.15991 v 0.3198 h 0.159903 l 0.319806,0.31981 v 0.3198 h 0.159903 l 0.159903,0.15991 v 0.3198 h 0.159903 l 0.319806,0.31981 v 0.31981 h 0.159903 l 0.159903,0.1599 v 0.31981 h 0.159904 l 0.639612,0.63961 v 0.3198 h 0.159903 l 0.479709,0.47971 v 0.31981 h 0.159903 l 0.639613,0.63961 v 0.31981 h 0.159903 l 1.758934,1.75893 v 0.31981 h 0.159903 l 1.279225,1.27922 0.319806,0.15991 1.918837,1.91883 0.319806,0.15991 0.959419,0.95941 0.319806,0.15991 0.639612,0.63961 0.319806,0.1599 0.47971,0.47971 0.319806,0.15991 0.319806,0.3198 0.319806,0.1599 0.479709,0.47971 0.319807,0.15991 0.319806,0.3198 0.319806,0.15991 0.319806,0.3198 0.319806,0.15991 0.159903,0.1599 0.319806,0.1599 0.159904,0.1599 0.319806,0.15991 0.319806,0.3198 0.319806,0.15991 0.159903,0.1599 0.319806,0.1599 0.159903,0.15991 0.319807,0.1599 0.159903,0.1599 0.319806,0.15991 0.159903,0.1599 0.319806,0.1599 0.159903,0.1599 0.639613,0.31981 0.159903,0.1599 0.319806,0.15991 0.159903,0.1599 0.319806,0.1599 0.159903,0.15991 0.639613,0.3198 0.159903,0.15991 0.959418,0.47971 0.159903,0.1599 0.639613,0.3198 0.159903,0.15991 0.959418,0.47971 0.159903,0.1599 2.238644,1.11932 0.159903,0.1599 3.198062,1.59904 0.479709,0.1599 2.238643,1.11932 0.479709,0.1599 0.639613,0.31981 0.479709,0.1599 0.639612,0.31981 0.47971,0.1599 0.639612,0.31981 0.479709,0.1599 0.319806,0.1599 0.47971,0.15991 0.319806,0.1599 0.479709,0.1599 0.319806,0.15991 0.479709,0.1599 0.319807,0.1599 0.479709,0.15991 0.319806,0.1599 1.918837,0.63961 0.319806,0.1599 1.918837,0.63962 0.319807,0.1599 0.479709,0.1599 0.639612,0.15991 3.357965,1.11932 0.639612,0.1599 0.47971,0.1599 0.639612,0.15991 0.479709,0.1599 0.639613,0.1599 0.479709,0.15991 1.279225,0.3198 0.479709,0.15991 4.477286,1.11932 0.799516,0.1599 0.639612,0.1599 0.799516,0.15991 0.639612,0.1599 0.799515,0.1599 0.639613,0.15991 1.599031,0.3198 0.959418,0.1599 1.599031,0.31981 0.959419,0.1599 0.799515,0.15991 1.119322,0.1599 1.918837,0.31981 3.357965,0.47971 3.837674,0.4797 1.599031,0.15991 1.758934,0.1599 1.599031,0.1599 2.07874,0.15991 2.39855,0.1599 2.87825,0.1599 3.67777,0.15991 11.19322,0.1599 v -0.1599 l 3.83767,-0.15991 2.87826,-0.1599 4.47729,-0.31981 4.79709,-0.47971 2.55845,-0.3198 1.11932,-0.1599 1.27922,-0.15991 1.11933,-0.1599 0.95941,-0.1599 1.11933,-0.15991 2.87825,-0.47971 0.79952,-0.1599 0.95942,-0.1599 1.59903,-0.31981 0.95941,-0.1599 0.79952,-0.1599 0.63961,-0.15991 0.79952,-0.1599 0.63961,-0.1599 0.79952,-0.15991 0.63961,-0.1599 0.79951,-0.1599 4.47729,-1.11932 0.47971,-0.15991 0.63961,-0.1599 0.47971,-0.1599 1.27923,-0.31981 0.4797,-0.1599 0.63962,-0.15991 0.47971,-0.1599 0.63961,-0.1599 3.83767,-1.27923 0.63962,-0.1599 0.3198,-0.1599 1.91884,-0.63962 0.3198,-0.1599 1.91884,-0.63961 0.31981,-0.1599 0.47971,-0.15991 0.3198,-0.1599 0.47971,-0.1599 0.31981,-0.15991 0.47971,-0.1599 0.3198,-0.1599 0.47971,-0.15991 0.31981,-0.1599 0.47971,-0.1599 0.63961,-0.31981 0.47971,-0.1599 0.63961,-0.31981 0.47971,-0.1599 0.63961,-0.31981 0.47971,-0.1599 2.23865,-1.11932 0.47971,-0.1599 3.19806,-1.59904 0.1599,-0.1599 2.23864,-1.11932 0.15991,-0.1599 0.95942,-0.47971 0.1599,-0.15991 0.63961,-0.3198 0.1599,-0.1599 0.95942,-0.47971 0.15991,-0.15991 0.63961,-0.3198 0.1599,-0.15991 0.31981,-0.1599 0.1599,-0.1599 0.31981,-0.15991 0.1599,-0.1599 0.63961,-0.31981 0.15991,-0.1599 0.3198,-0.1599 0.1599,-0.1599 0.31981,-0.15991 0.1599,-0.1599 0.31981,-0.1599 0.1599,-0.15991 0.31981,-0.1599 0.1599,-0.1599 0.31981,-0.15991 0.3198,-0.3198 0.31981,-0.15991 0.1599,-0.1599 0.31981,-0.1599 0.31981,-0.31981 0.3198,-0.1599 0.15991,-0.1599 0.3198,-0.15991 0.31981,-0.3198 0.3198,-0.15991 0.47971,-0.47971 0.31981,-0.1599 0.31981,-0.3198 0.3198,-0.15991 0.47971,-0.47971 0.31981,-0.1599 0.63961,-0.63961 0.31981,-0.15991 0.95941,-0.95941 0.31981,-0.15991 1.91884,-1.91883 0.3198,-0.15991 1.27923,-1.27922 0.1599,-0.31981 1.75894,-1.75893 0.1599,-0.31981 0.63961,-0.63961 0.1599,-0.31981 0.47971,-0.47971 0.15991,-0.3198 0.63961,-0.63961 0.1599,-0.31981 0.15991,-0.1599 0.1599,-0.31981 0.3198,-0.31981 0.15991,-0.3198 0.1599,-0.15991 0.1599,-0.3198 0.31981,-0.31981 0.1599,-0.3198 0.15991,-0.15991 0.1599,-0.3198 0.1599,-0.15991 0.31981,-0.63961 0.1599,-0.1599 0.1599,-0.31981 0.15991,-0.1599 0.47971,-0.95942 0.1599,-0.1599 1.75893,-3.51787 0.15991,-0.47971 0.3198,-0.63961 0.31981,-0.95942 0.1599,-0.31981 0.63962,-1.91883 0.1599,-0.63962 0.1599,-0.47971 0.31981,-1.27922 0.3198,-1.59903 0.15991,-0.95942 0.1599,-1.11932 0.1599,-1.75894 0.15991,-4.47728 h -0.15991 v -1.75894 h -0.1599 v -1.11932 h -0.1599 v -0.95942 h -0.15991 v -0.79951 h -0.1599 v -0.79952 h -0.1599 v -0.63961 h -0.15991 v -0.63961 h -0.1599 v -0.63961 h -0.1599 v -0.47971 h -0.1599 v -0.47971 h -0.15991 v -0.47971 h -0.1599 v -0.47971 h -0.1599 v -0.47971 h -0.15991 v -0.47971 h -0.1599 v -0.31981 h -0.1599 v -0.47971 h -0.15991 v -0.3198 h -0.1599 v -0.31981 h -0.1599 v -0.47971 h -0.15991 v -0.3198 h -0.1599 v -0.31981 h -0.1599 v -0.31981 h -0.15991 v -0.3198 h -0.1599 v -0.31981 h -0.1599 v -0.3198 h -0.1599 v -0.31981 h -0.15991 v -0.31981 h -0.1599 v -0.3198 h -0.1599 v -0.31981 h -0.15991 v -0.3198 l -0.1599,-0.15991 h -0.1599 v -0.3198 h -0.15991 v -0.31981 h -0.1599 v -0.31981 l -0.1599,-0.1599 h -0.15991 v -0.31981 h -0.1599 v -0.3198 l -0.1599,-0.1599 h -0.1599 v -0.31981 l -0.15991,-0.1599 h -0.1599 v -0.31981 l -0.1599,-0.1599 h -0.15991 v -0.31981 l -0.3198,-0.31981 h -0.15991 v -0.3198 l -0.1599,-0.15991 h -0.1599 v -0.3198 l -0.31981,-0.31981 h -0.1599 v -0.3198 l -0.31981,-0.31981 h -0.1599 v -0.31981 l -0.47971,-0.47971 h -0.1599 v -0.3198 l -0.47971,-0.47971 h -0.15991 v -0.31981 l -0.63961,-0.63961 h -0.1599 v -0.31981 l -1.75893,-1.75893 h -0.15991 v -0.31981 l -1.43913,-1.43912 -0.3198,-0.15991 -1.91884,-1.91883 -0.31981,-0.15991 -0.79951,-0.79951 -0.31981,-0.15991 -0.79951,-0.79951 -0.31981,-0.1599 -0.3198,-0.31981 -0.31981,-0.1599 -0.47971,-0.47971 -0.31981,-0.15991 -0.47971,-0.4797 -0.3198,-0.15991 -0.31981,-0.3198 -0.3198,-0.15991 -0.15991,-0.1599 -0.3198,-0.1599 -0.31981,-0.31981 -0.31981,-0.1599 -0.1599,-0.15991 -0.31981,-0.1599 -0.3198,-0.3198 -0.31981,-0.15991 -0.1599,-0.1599 -0.31981,-0.1599 -0.1599,-0.15991 -0.31981,-0.1599 -0.1599,-0.1599 -0.31981,-0.15991 -0.1599,-0.1599 -0.3198,-0.1599 -0.15991,-0.15991 -0.63961,-0.3198 -0.1599,-0.1599 -0.31981,-0.15991 -0.1599,-0.1599 -0.31981,-0.1599 -0.1599,-0.15991 -0.63961,-0.3198 -0.15991,-0.15991 -0.95942,-0.47971 -0.1599,-0.1599 -0.63961,-0.31981 -0.1599,-0.1599 -0.95942,-0.47971 -0.15991,-0.1599 -2.23864,-1.11932 -0.1599,-0.15991 -2.87826,-1.43912 -0.47971,-0.15991 -2.23864,-1.11932 -0.47971,-0.1599 -0.95942,-0.47971 -0.47971,-0.1599 -0.63961,-0.31981 -0.47971,-0.1599 -0.63961,-0.31981 -0.47971,-0.1599 -0.31981,-0.1599 -0.47971,-0.15991 -0.3198,-0.1599 -0.47971,-0.1599 -0.31981,-0.15991 -0.47971,-0.1599 -0.3198,-0.1599 -0.47971,-0.15991 -0.31981,-0.1599 -1.43913,-0.47971 -0.3198,-0.1599 -2.39855,-0.79952 -0.3198,-0.1599 -0.47971,-0.1599 -0.63962,-0.15991 -2.87825,-0.95942 -0.63961,-0.1599 -0.95942,-0.3198 -0.63962,-0.15991 -0.4797,-0.1599 -0.63962,-0.1599 -0.47971,-0.15991 -0.63961,-0.1599 -0.47971,-0.1599 -5.1169,-1.27923 -0.79951,-0.1599 -0.63961,-0.1599 -0.79952,-0.15991 -0.63961,-0.1599 -0.79952,-0.1599 -0.63961,-0.15991 -1.59903,-0.3198 -0.95942,-0.15991 -1.59903,-0.3198 -0.95942,-0.1599 -0.79951,-0.15991 -1.11933,-0.1599 -1.91883,-0.31981 -1.11932,-0.1599 -0.95942,-0.1599 -2.55845,-0.31981 -1.11932,-0.1599 -1.27923,-0.15991 -4.79709,-0.4797 -2.07874,-0.15991 -2.23865,-0.1599 -2.87825,-0.1599 -3.83767,-0.15991 z"
         id="path833" />
    </clipPath>
    <clipPath
       clipPathUnits="userSpaceOnUse"
       id="clipEmfPath2">
      <path
         d=""
         id="path836" />
    </clipPath>
    <clipPath
       clipPathUnits="userSpaceOnUse"
       id="clipEmfPath3">
      <path
         d="M 0.15990309,-7.9951545 V 446.92913 H 832.29558 V -7.9951545 Z M 567.65597,117.84858 l -4.957,0.1599 -3.83767,0.1599 -5.75652,0.31981 -6.23622,0.47971 -4.79709,0.47971 -1.75893,0.1599 -1.27923,0.1599 -1.43912,0.15991 -5.1169,0.63961 -0.95942,0.1599 -4.47729,0.63961 -6.71593,1.11933 -3.99758,0.79951 -0.95941,0.1599 -1.59903,0.31981 -0.63962,0.1599 -0.79951,0.15991 -0.63962,0.1599 -1.59903,0.31981 -0.63961,0.1599 -0.79951,0.1599 -7.67535,1.91884 -0.47971,0.1599 -1.27923,0.31981 -0.47971,0.1599 -1.27922,0.31981 -0.47971,0.1599 -0.63961,0.1599 -0.95942,0.31981 -0.63961,0.1599 -1.43913,0.47971 -0.63961,0.15991 -0.95942,0.3198 -0.63961,0.15991 -0.31981,0.1599 -5.75651,1.91884 -0.31981,0.1599 -0.95942,0.3198 -0.3198,0.15991 -0.95942,0.3198 -0.31981,0.15991 -0.95942,0.3198 -0.3198,0.15991 -0.47971,0.1599 -0.31981,0.1599 -0.47971,0.15991 -0.3198,0.1599 -0.47971,0.1599 -0.31981,0.1599 -0.47971,0.15991 -0.63961,0.3198 -0.47971,0.15991 -0.3198,0.1599 -0.47971,0.1599 -0.63962,0.31981 -0.47971,0.1599 -1.27922,0.63961 -0.47971,0.15991 -0.95942,0.47971 -0.47971,0.1599 -6.39612,3.19806 -0.1599,0.15991 -1.59903,0.79951 -0.15991,0.1599 -0.95942,0.47971 -0.1599,0.15991 -0.63961,0.3198 -0.15991,0.15991 -0.63961,0.3198 -0.1599,0.1599 -0.63961,0.31981 -0.15991,0.1599 -0.63961,0.31981 -0.1599,0.1599 -0.31981,0.15991 -0.1599,0.1599 -0.31981,0.1599 -0.1599,0.15991 -0.31981,0.1599 -0.1599,0.1599 -0.63961,0.31981 -0.31981,0.3198 -0.3198,0.15991 -0.15991,0.1599 -0.3198,0.1599 -0.15991,0.15991 -0.3198,0.1599 -0.15991,0.1599 -0.3198,0.15991 -0.31981,0.3198 -0.3198,0.15991 -0.31981,0.3198 -0.31981,0.1599 -0.1599,0.15991 -0.31981,0.1599 -0.4797,0.47971 -0.31981,0.1599 -0.31981,0.31981 -0.3198,0.1599 -0.47971,0.47971 -0.31981,0.1599 -0.63961,0.63962 -0.31981,0.1599 -0.79951,0.79952 -0.31981,0.1599 -1.43913,1.43913 -0.3198,0.1599 -1.75894,1.75893 -0.1599,0.31981 -1.43913,1.43913 -0.1599,0.3198 -0.79952,0.79952 -0.1599,0.31981 -0.47971,0.4797 -0.1599,0.31981 -0.31981,0.31981 -0.1599,0.3198 -0.31981,0.31981 -0.1599,0.31981 -0.1599,0.1599 -0.15991,0.3198 -0.3198,0.31981 -0.15991,0.31981 -0.1599,0.1599 -0.31981,0.63961 -0.1599,0.15991 -0.1599,0.3198 -0.1599,0.1599 -0.47971,0.95942 -0.15991,0.15991 -1.11932,2.23864 -0.1599,0.47971 -0.31981,0.63961 -0.1599,0.47971 -0.1599,0.31981 -0.79952,2.39854 -0.31981,1.27923 -0.3198,1.59903 -0.1599,0.95942 -0.15991,1.59903 v 3.83767 h 0.15991 v 1.59903 h 0.1599 v 0.95942 h 0.1599 v 0.79952 h 0.1599 v 0.79951 h 0.15991 v 0.63961 h 0.1599 v 0.63962 h 0.1599 v 0.47971 h 0.15991 v 0.47971 h 0.1599 v 0.4797 h 0.1599 v 0.47971 h 0.15991 v 0.47971 h 0.1599 v 0.31981 h 0.1599 v 0.47971 h 0.15991 v 0.31981 h 0.1599 v 0.3198 h 0.1599 v 0.47971 h 0.1599 v 0.31981 h 0.15991 v 0.3198 h 0.1599 v 0.31981 h 0.1599 v 0.31981 h 0.15991 v 0.3198 h 0.1599 v 0.31981 h 0.1599 v 0.3198 h 0.15991 l 0.1599,0.15991 v 0.3198 h 0.1599 v 0.31981 h 0.15991 v 0.31981 h 0.1599 l 0.1599,0.1599 v 0.3198 h 0.1599 l 0.15991,0.15991 v 0.3198 h 0.1599 v 0.31981 h 0.1599 l 0.15991,0.1599 v 0.31981 h 0.1599 l 0.31981,0.31981 v 0.3198 h 0.1599 l 0.1599,0.1599 v 0.31981 h 0.15991 l 0.3198,0.31981 v 0.3198 h 0.15991 l 0.3198,0.31981 v 0.31981 h 0.1599 l 0.47971,0.4797 v 0.31981 h 0.15991 l 0.63961,0.63961 v 0.31981 h 0.1599 l 1.43913,1.43913 v 0.3198 h 0.1599 l 1.75894,1.75894 0.3198,0.1599 1.43913,1.43913 0.31981,0.1599 0.95942,0.95942 0.3198,0.1599 0.47971,0.47971 0.31981,0.15991 0.47971,0.4797 0.3198,0.15991 0.47971,0.47971 0.31981,0.1599 0.3198,0.31981 0.31981,0.1599 0.31981,0.31981 0.3198,0.1599 0.15991,0.1599 0.3198,0.15991 0.31981,0.3198 0.3198,0.1599 0.15991,0.15991 0.3198,0.1599 0.15991,0.1599 0.3198,0.15991 0.15991,0.1599 0.3198,0.1599 0.31981,0.31981 0.63961,0.31981 0.1599,0.1599 0.31981,0.1599 0.1599,0.1599 0.31981,0.15991 0.1599,0.1599 0.31981,0.1599 0.1599,0.15991 0.63961,0.3198 0.15991,0.15991 0.63961,0.3198 0.1599,0.15991 0.63961,0.3198 0.15991,0.1599 0.63961,0.31981 0.1599,0.1599 0.95942,0.47971 0.15991,0.15991 1.27922,0.63961 0.1599,0.1599 6.71593,3.35797 0.47971,0.1599 1.27923,0.63961 0.47971,0.15991 0.95941,0.4797 0.47971,0.15991 0.95942,0.47971 0.47971,0.1599 0.31981,0.1599 0.47971,0.15991 0.3198,0.1599 0.47971,0.1599 0.31981,0.15991 0.47971,0.1599 0.3198,0.1599 0.47971,0.1599 0.31981,0.15991 0.47971,0.1599 0.3198,0.1599 0.95942,0.31981 0.31981,0.1599 0.95942,0.31981 0.3198,0.1599 0.95942,0.31981 0.31981,0.1599 4.79709,1.59903 0.31981,0.15991 0.95942,0.3198 0.63961,0.1599 0.95942,0.31981 0.63961,0.1599 1.43913,0.47971 0.63961,0.15991 0.95942,0.3198 0.63961,0.15991 0.47971,0.1599 1.27922,0.3198 0.47971,0.15991 1.27923,0.3198 0.47971,0.15991 7.67535,1.91883 0.79951,0.15991 0.63961,0.1599 1.59903,0.31981 0.63962,0.1599 0.79951,0.1599 0.63962,0.15991 1.59903,0.3198 0.95941,0.15991 3.99758,0.79951 6.71593,1.11932 4.47729,0.63961 0.95942,0.15991 5.1169,0.63961 1.43912,0.1599 1.27923,0.15991 1.75893,0.1599 4.79709,0.47971 2.23865,0.1599 4.15748,0.31981 5.75651,0.3198 3.83767,0.15991 4.7971,0.1599 14.39127,0.1599 v -0.1599 l 4.957,-0.1599 3.83767,-0.15991 5.75652,-0.3198 6.23622,-0.47971 4.79709,-0.47971 1.75893,-0.1599 1.27923,-0.15991 1.43912,-0.1599 5.1169,-0.63961 0.95942,-0.15991 4.47729,-0.63961 6.71593,-1.11932 3.19806,-0.63961 0.95942,-0.1599 2.39855,-0.47971 0.63961,-0.15991 0.79951,-0.1599 0.63962,-0.1599 0.79951,-0.15991 0.63961,-0.1599 1.59903,-0.31981 7.67535,-1.91883 0.47971,-0.15991 1.27923,-0.3198 0.47971,-0.15991 1.27922,-0.3198 0.47971,-0.1599 0.63961,-0.15991 0.95942,-0.3198 0.63961,-0.15991 1.43913,-0.47971 0.63961,-0.1599 7.67535,-2.55845 0.31981,-0.1599 0.95942,-0.31981 0.3198,-0.1599 0.95942,-0.31981 0.31981,-0.1599 0.95942,-0.31981 0.3198,-0.1599 0.47971,-0.1599 0.31981,-0.15991 0.47971,-0.1599 0.3198,-0.1599 0.47971,-0.1599 0.31981,-0.15991 0.47971,-0.1599 0.3198,-0.1599 0.47971,-0.15991 0.31981,-0.1599 0.47971,-0.1599 0.95942,-0.47971 0.47971,-0.15991 0.95941,-0.4797 0.47971,-0.15991 1.27923,-0.63961 0.47971,-0.1599 6.71593,-3.35797 0.1599,-0.1599 1.27923,-0.63961 0.1599,-0.15991 0.95942,-0.47971 0.1599,-0.1599 0.63961,-0.31981 0.15991,-0.1599 0.63961,-0.3198 0.1599,-0.15991 0.63961,-0.3198 0.15991,-0.15991 0.63961,-0.3198 0.1599,-0.15991 0.31981,-0.1599 0.1599,-0.1599 0.31981,-0.15991 0.1599,-0.1599 0.31981,-0.1599 0.1599,-0.1599 0.63961,-0.31981 0.31981,-0.31981 0.3198,-0.1599 0.15991,-0.1599 0.3198,-0.15991 0.15991,-0.1599 0.3198,-0.1599 0.15991,-0.15991 0.3198,-0.1599 0.31981,-0.3198 0.3198,-0.15991 0.15991,-0.1599 0.3198,-0.1599 0.31981,-0.31981 0.31981,-0.1599 0.3198,-0.31981 0.31981,-0.1599 0.47971,-0.47971 0.3198,-0.15991 0.47971,-0.4797 0.31981,-0.15991 0.47971,-0.47971 0.3198,-0.1599 0.95942,-0.95942 0.31981,-0.1599 1.43913,-1.43913 0.3198,-0.1599 1.75894,-1.75894 0.1599,-0.3198 1.27923,-1.27923 0.1599,-0.3198 0.79951,-0.79952 0.15991,-0.31981 0.47971,-0.4797 0.1599,-0.31981 0.31981,-0.31981 0.1599,-0.3198 0.3198,-0.31981 0.15991,-0.31981 0.1599,-0.1599 0.1599,-0.3198 0.31981,-0.31981 0.1599,-0.31981 0.15991,-0.1599 0.3198,-0.63961 0.15991,-0.15991 0.1599,-0.3198 0.1599,-0.1599 0.47971,-0.95942 0.1599,-0.15991 1.11933,-2.23864 0.1599,-0.47971 0.3198,-0.63961 0.15991,-0.47971 0.1599,-0.31981 0.79952,-2.39854 0.3198,-1.27923 0.31981,-1.59903 0.1599,-0.95942 0.1599,-1.59903 0.15991,-3.83767 h -0.15991 v -1.59903 h -0.1599 v -0.95942 h -0.1599 v -0.79952 h -0.1599 v -0.79951 h -0.15991 v -0.63961 h -0.1599 v -0.63962 h -0.1599 v -0.47971 h -0.15991 v -0.47971 h -0.1599 v -0.4797 h -0.1599 v -0.47971 h -0.15991 v -0.47971 h -0.1599 v -0.31981 h -0.1599 v -0.47971 h -0.15991 v -0.31981 h -0.1599 v -0.3198 h -0.1599 v -0.47971 h -0.1599 v -0.31981 h -0.15991 v -0.3198 h -0.1599 v -0.31981 h -0.1599 v -0.31981 h -0.15991 v -0.3198 h -0.1599 v -0.31981 h -0.1599 v -0.3198 l -0.15991,-0.15991 h -0.1599 v -0.3198 h -0.1599 v -0.31981 h -0.15991 v -0.31981 l -0.1599,-0.1599 h -0.1599 v -0.3198 l -0.1599,-0.15991 h -0.15991 v -0.3198 h -0.1599 v -0.31981 l -0.1599,-0.1599 h -0.15991 v -0.31981 l -0.3198,-0.31981 h -0.15991 v -0.3198 l -0.1599,-0.1599 h -0.1599 v -0.31981 l -0.31981,-0.31981 h -0.1599 v -0.3198 l -0.31981,-0.31981 h -0.1599 v -0.31981 l -0.47971,-0.4797 h -0.1599 v -0.31981 l -0.79952,-0.79952 h -0.1599 v -0.3198 l -1.43913,-1.43913 h -0.1599 v -0.31981 l -1.75894,-1.75893 -0.3198,-0.1599 -1.43913,-1.43913 -0.31981,-0.1599 -0.79951,-0.79952 -0.31981,-0.1599 -0.63961,-0.63962 -0.31981,-0.1599 -0.47971,-0.47971 -0.3198,-0.1599 -0.31981,-0.31981 -0.3198,-0.1599 -0.47971,-0.47971 -0.31981,-0.1599 -0.1599,-0.15991 -0.31981,-0.1599 -0.31981,-0.3198 -0.3198,-0.15991 -0.31981,-0.3198 -0.3198,-0.15991 -0.15991,-0.1599 -0.3198,-0.1599 -0.15991,-0.15991 -0.3198,-0.1599 -0.15991,-0.1599 -0.3198,-0.15991 -0.31981,-0.3198 -0.63961,-0.31981 -0.1599,-0.1599 -0.31981,-0.1599 -0.1599,-0.15991 -0.31981,-0.1599 -0.1599,-0.1599 -0.31981,-0.15991 -0.1599,-0.1599 -0.63961,-0.31981 -0.15991,-0.1599 -0.63961,-0.31981 -0.1599,-0.1599 -0.63961,-0.3198 -0.15991,-0.15991 -0.63961,-0.3198 -0.1599,-0.15991 -0.95942,-0.47971 -0.1599,-0.1599 -1.59904,-0.79951 -0.1599,-0.15991 -6.39612,-3.19806 -0.47971,-0.1599 -1.27923,-0.63962 -0.47971,-0.1599 -0.95941,-0.47971 -0.47971,-0.1599 -0.63962,-0.31981 -0.47971,-0.1599 -0.63961,-0.31981 -0.47971,-0.1599 -0.3198,-0.1599 -0.47971,-0.15991 -0.31981,-0.1599 -0.47971,-0.1599 -0.3198,-0.1599 -0.47971,-0.15991 -0.31981,-0.1599 -0.47971,-0.1599 -0.3198,-0.15991 -0.95942,-0.3198 -0.31981,-0.15991 -0.95942,-0.3198 -0.3198,-0.15991 -0.95942,-0.3198 -0.31981,-0.1599 -7.67535,-2.55845 -0.63961,-0.15991 -1.43913,-0.47971 -0.63961,-0.1599 -0.95942,-0.31981 -0.63961,-0.1599 -0.47971,-0.1599 -1.27922,-0.31981 -0.47971,-0.1599 -1.27923,-0.31981 -0.47971,-0.1599 -0.63961,-0.1599 -0.47971,-0.15991 -1.27922,-0.3198 -0.79952,-0.15991 -4.47729,-1.11932 -0.79951,-0.1599 -0.63961,-0.1599 -1.59903,-0.31981 -0.63962,-0.1599 -0.79951,-0.15991 -0.63961,-0.1599 -2.39855,-0.47971 -0.95942,-0.1599 -3.19806,-0.63961 -4.79709,-0.79952 -0.79952,-0.1599 -1.11932,-0.15991 -0.95942,-0.1599 -4.47729,-0.63961 -6.39612,-0.79952 -1.43913,-0.1599 -6.39612,-0.63961 -6.23622,-0.47971 -2.71835,-0.1599 -2.87826,-0.15991 -3.51787,-0.1599 -4.95699,-0.1599 z"
         id="path839" />
    </clipPath>
    <clipPath
       clipPathUnits="userSpaceOnUse"
       id="clipEmfPath4">
      <path
         d="M 0.15990309,-7.9951545 V 446.92913 H 832.29558 V -7.9951545 Z M 595.1593,268.15748 l -4.7971,0.1599 -3.03815,0.15991 -2.71836,0.1599 -2.23864,0.1599 -1.91884,0.15991 -3.51786,0.3198 -1.43913,0.15991 -1.59903,0.1599 -3.83768,0.47971 -3.35796,0.47971 -2.87826,0.47971 -1.11932,0.1599 -1.59903,0.31981 -0.95942,0.1599 -3.99758,0.79951 -0.63961,0.15991 -0.79951,0.1599 -6.39613,1.59903 -0.47971,0.1599 -0.63961,0.15991 -0.47971,0.1599 -0.63961,0.1599 -1.43913,0.47971 -0.63961,0.15991 -2.39855,0.79951 -0.3198,0.1599 -1.43913,0.47971 -0.31981,0.15991 -0.95942,0.3198 -0.63961,0.31981 -0.47971,0.1599 -0.3198,0.1599 -0.47971,0.15991 -0.63962,0.3198 -0.4797,0.15991 -0.95942,0.47971 -0.47971,0.1599 -1.91884,0.95942 -0.1599,0.1599 -1.27923,0.63961 -0.1599,0.15991 -0.63961,0.3198 -0.15991,0.15991 -0.63961,0.3198 -0.1599,0.15991 -0.31981,0.1599 -0.1599,0.1599 -0.31981,0.1599 -0.1599,0.15991 -0.31981,0.1599 -0.1599,0.1599 -0.31981,0.15991 -0.3198,0.3198 -0.31981,0.15991 -0.47971,0.47971 -0.3198,0.1599 -0.79952,0.79951 -0.3198,0.15991 -1.11933,1.11932 -0.1599,0.3198 -0.63961,0.63962 -0.15991,0.3198 -0.3198,0.31981 -0.1599,0.31981 -0.15991,0.1599 -0.3198,0.63961 -0.15991,0.1599 -0.3198,0.63962 -0.15991,0.47971 -0.1599,0.3198 -0.1599,0.47971 -0.15991,0.63961 -0.1599,0.79952 V 398.7983 h 0.1599 v 0.95942 h 0.15991 v 0.63961 h 0.1599 v 0.47971 h 0.1599 v 0.31981 h 0.15991 v 0.47971 h 0.1599 v 0.31981 h 0.1599 v 0.3198 h 0.15991 l 0.1599,0.15991 v 0.3198 h 0.1599 v 0.31981 h 0.15991 l 0.1599,0.1599 v 0.31981 h 0.1599 l 0.31981,0.3198 v 0.31981 h 0.1599 l 0.63961,0.63961 v 0.31981 h 0.15991 l 1.11932,1.11932 0.3198,0.1599 0.63962,0.63961 0.3198,0.15991 0.47971,0.47971 0.31981,0.1599 0.3198,0.31981 0.31981,0.1599 0.1599,0.1599 0.31981,0.15991 0.31981,0.3198 0.63961,0.31981 0.1599,0.1599 0.31981,0.1599 0.1599,0.15991 0.63961,0.3198 0.15991,0.15991 1.59903,0.79951 0.1599,0.15991 1.91884,0.95941 0.47971,0.15991 0.95942,0.47971 0.4797,0.1599 0.63962,0.31981 0.47971,0.1599 0.3198,0.1599 0.47971,0.1599 0.63961,0.31981 0.95942,0.31981 0.31981,0.1599 1.43913,0.47971 0.3198,0.1599 2.39855,0.79952 0.63961,0.1599 1.43913,0.47971 0.63961,0.1599 0.47971,0.15991 0.63961,0.1599 0.47971,0.1599 1.27923,0.31981 0.47971,0.1599 3.19806,0.79952 0.79951,0.1599 0.63962,0.1599 0.79951,0.15991 0.63961,0.1599 3.99758,0.79951 0.95942,0.15991 1.59903,0.3198 1.11932,0.15991 2.87826,0.47971 3.35796,0.47971 2.55845,0.3198 4.31739,0.47971 3.51786,0.31981 1.91884,0.1599 2.23864,0.1599 2.71836,0.15991 3.19806,0.1599 4.95699,0.1599 11.99274,0.15991 v -0.15991 l 4.79709,-0.1599 3.03816,-0.1599 2.71835,-0.15991 2.23864,-0.1599 1.91884,-0.1599 3.51787,-0.31981 1.43913,-0.1599 1.59903,-0.1599 3.83767,-0.47971 3.35797,-0.47971 2.87825,-0.47971 1.11932,-0.15991 0.79952,-0.1599 0.95942,-0.1599 4.79709,-0.95942 0.63961,-0.1599 0.79952,-0.15991 0.63961,-0.1599 0.79951,-0.1599 3.19807,-0.79952 0.47971,-0.1599 1.27922,-0.31981 0.47971,-0.1599 0.63961,-0.1599 0.47971,-0.15991 0.63961,-0.1599 1.43913,-0.47971 0.63961,-0.1599 2.39855,-0.79952 0.31981,-0.1599 1.43912,-0.47971 0.31981,-0.1599 0.95942,-0.31981 0.63961,-0.31981 0.47971,-0.1599 0.31981,-0.1599 0.47971,-0.1599 0.63961,-0.31981 0.47971,-0.1599 1.27922,-0.63962 0.47971,-0.1599 1.59903,-0.79951 0.15991,-0.15991 1.59903,-0.79951 0.1599,-0.15991 0.63961,-0.3198 0.1599,-0.15991 0.31981,-0.1599 0.1599,-0.1599 0.63962,-0.31981 0.3198,-0.3198 0.31981,-0.15991 0.1599,-0.1599 0.31981,-0.1599 0.3198,-0.31981 0.31981,-0.1599 0.47971,-0.47971 0.31981,-0.15991 0.79951,-0.79951 0.31981,-0.1599 0.95942,-0.95942 0.1599,-0.31981 0.63961,-0.63961 0.1599,-0.31981 0.31981,-0.3198 0.1599,-0.31981 0.15991,-0.1599 0.3198,-0.63961 0.15991,-0.15991 0.3198,-0.63961 0.15991,-0.47971 0.1599,-0.31981 0.1599,-0.47971 0.1599,-0.63961 0.15991,-0.95942 0.1599,-105.69594 h -0.1599 v -0.95942 h -0.15991 v -0.63961 h -0.1599 v -0.47971 h -0.1599 v -0.3198 h -0.1599 v -0.47971 h -0.15991 v -0.31981 l -0.1599,-0.1599 h -0.1599 v -0.31981 h -0.15991 v -0.31981 h -0.1599 v -0.3198 l -0.1599,-0.1599 h -0.15991 v -0.31981 l -0.3198,-0.31981 h -0.15991 v -0.3198 l -0.63961,-0.63962 h -0.1599 v -0.3198 l -1.11932,-1.11932 -0.31981,-0.15991 -0.79951,-0.79951 -0.31981,-0.1599 -0.47971,-0.47971 -0.31981,-0.15991 -0.3198,-0.3198 -0.31981,-0.15991 -0.1599,-0.1599 -0.31981,-0.1599 -0.1599,-0.15991 -0.31981,-0.1599 -0.1599,-0.1599 -0.31981,-0.1599 -0.1599,-0.15991 -0.63961,-0.3198 -0.1599,-0.15991 -0.63962,-0.3198 -0.1599,-0.15991 -1.27922,-0.63961 -0.15991,-0.1599 -1.59903,-0.79952 -0.47971,-0.1599 -1.27922,-0.63961 -0.47971,-0.15991 -0.63961,-0.3198 -0.47971,-0.15991 -0.31981,-0.1599 -0.47971,-0.1599 -0.63961,-0.31981 -0.95942,-0.3198 -0.31981,-0.15991 -1.43912,-0.47971 -0.31981,-0.1599 -2.39855,-0.79951 -0.63961,-0.15991 -1.43913,-0.47971 -0.63961,-0.1599 -0.47971,-0.1599 -0.63961,-0.15991 -0.47971,-0.1599 -2.55845,-0.63961 -0.47971,-0.1599 -1.27922,-0.31981 -0.79952,-0.1599 -1.27922,-0.31981 -0.79952,-0.1599 -0.63961,-0.15991 -3.99758,-0.79951 -0.95942,-0.1599 -1.59903,-0.31981 -1.11932,-0.1599 -2.87825,-0.47971 -3.35797,-0.47971 -3.83767,-0.47971 -1.59903,-0.1599 -1.43913,-0.15991 -3.51787,-0.3198 -1.91884,-0.15991 -2.23864,-0.1599 -2.71835,-0.1599 -3.03816,-0.15991 -4.79709,-0.1599 z"
         id="path842" />
    </clipPath>
    <pattern
       id="EMFhbasepattern"
       patternUnits="userSpaceOnUse"
       width="6"
       height="6"
       x="0"
       y="0" />
    <clipPath
       clipPathUnits="userSpaceOnUse"
       id="clipEmfPath1-8">
      <path
         d="M 0,0 H 530.10142 V 506.15433 H 0 Z"
         id="path1260" />
    </clipPath>
    <pattern
       id="EMFhbasepattern-7"
       patternUnits="userSpaceOnUse"
       width="6"
       height="6"
       x="0"
       y="0" />
  </defs>
  <sodipodi:namedview
     inkscape:window-maximized="1"
     inkscape:window-y="-8"
     inkscape:window-x="1272"
     inkscape:window-height="1017"
     inkscape:window-width="1920"
     fit-margin-bottom="0"
     fit-margin-right="0"
     fit-margin-left="0"
     fit-margin-top="0"
     showgrid="false"
     inkscape:document-rotation="0"
     inkscape:current-layer="layer1"
     inkscape:document-units="mm"
     inkscape:cy="210.49492"
     inkscape:cx="506.52701"
     inkscape:zoom="1.4"
     inkscape:pageshadow="2"
     inkscape:pageopacity="0.0"
     borderopacity="1.0"
     bordercolor="#666666"
     pagecolor="#ffffff"
     id="base" />
  <metadata
     id="metadata5">
    <rdf:RDF>
      <cc:Work
         rdf:about="">
        <dc:format>image/svg+xml</dc:format>
        <dc:type
           rdf:resource="http://purl.org/dc/dcmitype/StillImage" />
        <dc:title></dc:title>
      </cc:Work>
    </rdf:RDF>
  </metadata>
  <g
     transform="translate(-303.4879,-59.182277)"
     id="layer1"
     inkscape:groupmode="layer"
     inkscape:label="Layer 1">
    <path
       style="fill:none;stroke:none;stroke-width:0.264583"
       d="m 303.62011,122.28739 c 0,-8.75769 12.7875,-15.86539 28.55769,-15.86539 15.77548,0 28.55769,7.1077 28.55769,15.86539 0,8.76298 -12.78221,15.86538 -28.55769,15.86538 -15.77019,0 -28.55769,-7.1024 -28.55769,-15.86538"
       id="path856" />
    <path
       transform="matrix(0.26458333,0,0,0.26458333,302.32972,45.731619)"
       style="fill:#ededed;fill-opacity:1;fill-rule:evenodd;stroke:none"
       clip-path="url(#clipEmfPath2)"
       d="m 4.7970927,229.30103 v 3.83767 H 220.82617 v -3.83767 z"
       id="path858" />
    <path
       transform="matrix(0.26458333,0,0,0.26458333,302.32972,45.731619)"
       style="fill:#ebebeb;fill-opacity:1;fill-rule:evenodd;stroke:none"
       clip-path="url(#clipEmfPath2)"
       d="m 4.7970927,233.1387 v 4.957 H 220.82617 v -4.957 z"
       id="path860" />
    <path
       transform="matrix(0.26458333,0,0,0.26458333,302.32972,45.731619)"
       style="fill:#e9e9e9;fill-opacity:1;fill-rule:evenodd;stroke:none"
       clip-path="url(#clipEmfPath2)"
       d="m 4.7970927,238.0957 v 4.957 H 220.82617 v -4.957 z"
       id="path862" />
    <path
       transform="matrix(0.26458333,0,0,0.26458333,302.32972,45.731619)"
       style="fill:#e7e7e7;fill-opacity:1;fill-rule:evenodd;stroke:none"
       clip-path="url(#clipEmfPath2)"
       d="m 4.7970927,243.0527 v 6.87583 H 220.82617 v -6.87583 z"
       id="path864" />
    <path
       transform="matrix(0.26458333,0,0,0.26458333,302.32972,45.731619)"
       style="fill:#e5e5e5;fill-opacity:1;fill-rule:evenodd;stroke:none"
       clip-path="url(#clipEmfPath2)"
       d="m 4.7970927,249.92853 v 5.75651 H 220.82617 v -5.75651 z"
       id="path866" />
    <path
       transform="matrix(0.26458333,0,0,0.26458333,302.32972,45.731619)"
       style="fill:#e3e3e3;fill-opacity:1;fill-rule:evenodd;stroke:none"
       clip-path="url(#clipEmfPath2)"
       d="m 4.7970927,255.68504 v 4.957 H 220.82617 v -4.957 z"
       id="path868" />
    <path
       transform="matrix(0.26458333,0,0,0.26458333,302.32972,45.731619)"
       style="fill:#e1e1e1;fill-opacity:1;fill-rule:evenodd;stroke:none"
       clip-path="url(#clipEmfPath2)"
       d="m 4.7970927,260.64204 v 4.95699 H 220.82617 v -4.95699 z"
       id="path870" />
    <path
       transform="matrix(0.26458333,0,0,0.26458333,302.32972,45.731619)"
       style="fill:#dfdfdf;fill-opacity:1;fill-rule:evenodd;stroke:none"
       clip-path="url(#clipEmfPath2)"
       d="m 4.7970927,265.59903 v 4.957 H 220.82617 v -4.957 z"
       id="path872" />
    <path
       transform="matrix(0.26458333,0,0,0.26458333,302.32972,45.731619)"
       style="fill:#dddddd;fill-opacity:1;fill-rule:evenodd;stroke:none"
       clip-path="url(#clipEmfPath2)"
       d="m 4.7970927,270.55603 v 4.95699 H 220.82617 v -4.95699 z"
       id="path874" />
    <path
       transform="matrix(0.26458333,0,0,0.26458333,302.32972,45.731619)"
       style="fill:#dbdbdb;fill-opacity:1;fill-rule:evenodd;stroke:none"
       clip-path="url(#clipEmfPath2)"
       d="m 4.7970927,275.51302 v 5.1169 H 220.82617 v -5.1169 z"
       id="path876" />
    <path
       transform="matrix(0.26458333,0,0,0.26458333,302.32972,45.731619)"
       style="fill:#d9d9d9;fill-opacity:1;fill-rule:evenodd;stroke:none"
       clip-path="url(#clipEmfPath2)"
       d="m 4.7970927,280.62992 v 6.87583 H 220.82617 v -6.87583 z"
       id="path878" />
    <path
       transform="matrix(0.26458333,0,0,0.26458333,302.32972,45.731619)"
       style="fill:#d7d7d7;fill-opacity:1;fill-rule:evenodd;stroke:none"
       clip-path="url(#clipEmfPath2)"
       d="m 4.7970927,287.50575 v 5.59661 H 220.82617 v -5.59661 z"
       id="path880" />
    <path
       transform="matrix(0.26458333,0,0,0.26458333,302.32972,45.731619)"
       style="fill:#d5d5d5;fill-opacity:1;fill-rule:evenodd;stroke:none"
       clip-path="url(#clipEmfPath2)"
       d="m 4.7970927,293.10236 v 4.957 H 220.82617 v -4.957 z"
       id="path882" />
    <path
       transform="matrix(0.26458333,0,0,0.26458333,302.32972,45.731619)"
       style="fill:#d3d3d3;fill-opacity:1;fill-rule:evenodd;stroke:none"
       clip-path="url(#clipEmfPath2)"
       d="m 4.7970927,298.05936 v 4.95699 H 220.82617 v -4.95699 z"
       id="path884" />
    <path
       transform="matrix(0.26458333,0,0,0.26458333,302.32972,45.731619)"
       style="fill:#d1d1d1;fill-opacity:1;fill-rule:evenodd;stroke:none"
       clip-path="url(#clipEmfPath2)"
       d="m 4.7970927,303.01635 v 5.1169 H 220.82617 v -5.1169 z"
       id="path886" />
    <path
       transform="matrix(0.26458333,0,0,0.26458333,302.32972,45.731619)"
       style="fill:#cfcfcf;fill-opacity:1;fill-rule:evenodd;stroke:none"
       clip-path="url(#clipEmfPath2)"
       d="m 4.7970927,308.13325 v 4.63719 H 220.82617 v -4.63719 z"
       id="path888" />
    <path
       transform="matrix(0.26458333,0,0,0.26458333,302.32972,45.731619)"
       style="fill:#cdcdcd;fill-opacity:1;fill-rule:evenodd;stroke:none"
       clip-path="url(#clipEmfPath2)"
       d="m 4.7970927,312.77044 v 3.67777 H 220.82617 v -3.67777 z"
       id="path890" />
    <path
       transform="matrix(0.26458333,0,0,0.26458333,302.32972,45.731619)"
       style="fill:#cbcbcb;fill-opacity:1;fill-rule:evenodd;stroke:none"
       clip-path="url(#clipEmfPath2)"
       d="m 4.7970927,316.44821 v 4.15748 H 220.82617 v -4.15748 z"
       id="path892" />
    <path
       transform="matrix(0.26458333,0,0,0.26458333,302.32972,45.731619)"
       style="fill:#c9c9c9;fill-opacity:1;fill-rule:evenodd;stroke:none"
       clip-path="url(#clipEmfPath2)"
       d="m 4.7970927,320.60569 v 4.957 H 220.82617 v -4.957 z"
       id="path894" />
    <path
       transform="matrix(0.26458333,0,0,0.26458333,302.32972,45.731619)"
       style="fill:#c7c7c7;fill-opacity:1;fill-rule:evenodd;stroke:none"
       clip-path="url(#clipEmfPath2)"
       d="m 4.7970927,325.56269 v 3.99758 H 220.82617 v -3.99758 z"
       id="path896" />
    <path
       transform="matrix(0.26458333,0,0,0.26458333,302.32972,45.731619)"
       style="fill:#c5c5c5;fill-opacity:1;fill-rule:evenodd;stroke:none"
       clip-path="url(#clipEmfPath2)"
       d="m 4.7970927,329.56027 v 3.83767 H 220.82617 v -3.83767 z"
       id="path898" />
    <path
       transform="matrix(0.26458333,0,0,0.26458333,302.32972,45.731619)"
       style="fill:#c3c3c3;fill-opacity:1;fill-rule:evenodd;stroke:none"
       clip-path="url(#clipEmfPath2)"
       d="m 4.7970927,333.39794 v 4.63719 H 220.82617 v -4.63719 z"
       id="path900" />
    <path
       transform="matrix(0.26458333,0,0,0.26458333,302.32972,45.731619)"
       style="fill:#c1c1c1;fill-opacity:1;fill-rule:evenodd;stroke:none"
       clip-path="url(#clipEmfPath2)"
       d="m 4.7970927,338.03513 v 4.79709 H 220.82617 v -4.79709 z"
       id="path902" />
    <path
       transform="matrix(0.26458333,0,0,0.26458333,302.32972,45.731619)"
       style="fill:#bfbfbf;fill-opacity:1;fill-rule:evenodd;stroke:none"
       clip-path="url(#clipEmfPath2)"
       d="m 4.7970927,342.83222 v 3.67777 H 220.82617 v -3.67777 z"
       id="path904" />
    <path
       transform="matrix(0.26458333,0,0,0.26458333,302.32972,45.731619)"
       style="fill:#bcbcbc;fill-opacity:1;fill-rule:evenodd;stroke:none"
       clip-path="url(#clipEmfPath2)"
       d="m 4.7970927,346.50999 v 2.87826 H 220.82617 v -2.87826 z"
       id="path906" />
    <path
       style="fill:none;stroke:#000000;stroke-width:0.264423px;stroke-linecap:butt;stroke-linejoin:round;stroke-miterlimit:4;stroke-dasharray:none;stroke-opacity:1"
       d="m 303.62011,122.28739 c 0,-8.75769 12.7875,-15.86539 28.55769,-15.86539 15.77548,0 28.55769,7.1077 28.55769,15.86539 0,8.76298 -12.78221,15.86538 -28.55769,15.86538 -15.77019,0 -28.55769,-7.1024 -28.55769,-15.86538"
       id="path908" />
    <text
       xml:space="preserve"
       style="font-style:normal;font-variant:normal;font-weight:400;font-size:8.46667px;line-height:125%;font-family:Tahoma;text-align:start;letter-spacing:0px;word-spacing:0px;text-anchor:start;fill:#000000;fill-opacity:1;stroke:none;stroke-width:0.264583"
       x="316.25418"
       y="120.59028"
       id="text914"><tspan
         style="stroke-width:0.264583"
         sodipodi:role="line"
         x="316.25418"
         y="120.59028"
         id="tspan912"><tspan
           dx="0"
           dy="0"
           style="font-style:normal;font-variant:normal;font-weight:400;font-size:8.46667px;font-family:Tahoma;fill:#000000;stroke-width:0.264583"
           id="tspan910">NextGen</tspan></tspan></text>
    <text
       xml:space="preserve"
       style="font-style:normal;font-variant:normal;font-weight:400;font-size:8.46667px;line-height:125%;font-family:Tahoma;text-align:start;letter-spacing:0px;word-spacing:0px;text-anchor:start;fill:#000000;fill-opacity:1;stroke:none;stroke-width:0.264583"
       x="324.50418"
       y="130.74413"
       id="text920"><tspan
         style="stroke-width:0.264583"
         sodipodi:role="line"
         x="324.50418"
         y="130.74413"
         id="tspan918"><tspan
           dx="0"
           dy="0"
           style="font-style:normal;font-variant:normal;font-weight:400;font-size:8.46667px;font-family:Tahoma;fill:#000000;stroke-width:0.264583"
           id="tspan916">POS</tspan></tspan></text>
    <path
       style="fill:none;stroke:none;stroke-width:0.264583"
       d="m 417.38549,92.756618 c 0,-8.757692 16.57404,-15.865382 37.01923,-15.865382 20.44519,0 37.01923,7.10769 37.01923,15.865382 0,8.768272 -16.57404,15.865382 -37.01923,15.865382 -20.44519,0 -37.01923,-7.09711 -37.01923,-15.865382"
       id="path930" />
    <path
       transform="matrix(0.26458333,0,0,0.26458333,302.32972,45.731619)"
       style="fill:#ededed;fill-opacity:1;fill-rule:evenodd;stroke:none"
       clip-path="url(#clipEmfPath2)"
       d="m 434.7765,117.68867 v 3.83768 h 279.99031 v -3.83768 z"
       id="path932" />
    <path
       transform="matrix(0.26458333,0,0,0.26458333,302.32972,45.731619)"
       style="fill:#ebebeb;fill-opacity:1;fill-rule:evenodd;stroke:none"
       clip-path="url(#clipEmfPath2)"
       d="m 434.7765,121.52635 v 4.95699 h 279.99031 v -4.95699 z"
       id="path934" />
    <path
       transform="matrix(0.26458333,0,0,0.26458333,302.32972,45.731619)"
       style="fill:#e9e9e9;fill-opacity:1;fill-rule:evenodd;stroke:none"
       clip-path="url(#clipEmfPath2)"
       d="m 434.7765,126.48334 v 4.957 h 279.99031 v -4.957 z"
       id="path936" />
    <path
       transform="matrix(0.26458333,0,0,0.26458333,302.32972,45.731619)"
       style="fill:#e7e7e7;fill-opacity:1;fill-rule:evenodd;stroke:none"
       clip-path="url(#clipEmfPath2)"
       d="m 434.7765,131.44034 v 6.87583 h 279.99031 v -6.87583 z"
       id="path938" />
    <path
       transform="matrix(0.26458333,0,0,0.26458333,302.32972,45.731619)"
       style="fill:#e5e5e5;fill-opacity:1;fill-rule:evenodd;stroke:none"
       clip-path="url(#clipEmfPath2)"
       d="m 434.7765,138.31617 v 5.75651 h 279.99031 v -5.75651 z"
       id="path940" />
    <path
       transform="matrix(0.26458333,0,0,0.26458333,302.32972,45.731619)"
       style="fill:#e3e3e3;fill-opacity:1;fill-rule:evenodd;stroke:none"
       clip-path="url(#clipEmfPath2)"
       d="m 434.7765,144.07268 v 4.957 h 279.99031 v -4.957 z"
       id="path942" />
    <path
       transform="matrix(0.26458333,0,0,0.26458333,302.32972,45.731619)"
       style="fill:#e1e1e1;fill-opacity:1;fill-rule:evenodd;stroke:none"
       clip-path="url(#clipEmfPath2)"
       d="m 434.7765,149.02968 v 4.95699 h 279.99031 v -4.95699 z"
       id="path944" />
    <path
       transform="matrix(0.26458333,0,0,0.26458333,302.32972,45.731619)"
       style="fill:#dfdfdf;fill-opacity:1;fill-rule:evenodd;stroke:none"
       clip-path="url(#clipEmfPath2)"
       d="m 434.7765,153.98667 v 4.957 h 279.99031 v -4.957 z"
       id="path946" />
    <path
       transform="matrix(0.26458333,0,0,0.26458333,302.32972,45.731619)"
       style="fill:#dddddd;fill-opacity:1;fill-rule:evenodd;stroke:none"
       clip-path="url(#clipEmfPath2)"
       d="m 434.7765,158.94367 v 4.957 h 279.99031 v -4.957 z"
       id="path948" />
    <path
       transform="matrix(0.26458333,0,0,0.26458333,302.32972,45.731619)"
       style="fill:#dbdbdb;fill-opacity:1;fill-rule:evenodd;stroke:none"
       clip-path="url(#clipEmfPath2)"
       d="m 434.7765,163.90067 v 5.1169 h 279.99031 v -5.1169 z"
       id="path950" />
    <path
       transform="matrix(0.26458333,0,0,0.26458333,302.32972,45.731619)"
       style="fill:#d9d9d9;fill-opacity:1;fill-rule:evenodd;stroke:none"
       clip-path="url(#clipEmfPath2)"
       d="m 434.7765,169.01757 v 6.87583 h 279.99031 v -6.87583 z"
       id="path952" />
    <path
       transform="matrix(0.26458333,0,0,0.26458333,302.32972,45.731619)"
       style="fill:#d7d7d7;fill-opacity:1;fill-rule:evenodd;stroke:none"
       clip-path="url(#clipEmfPath2)"
       d="m 434.7765,175.8934 v 5.59661 h 279.99031 v -5.59661 z"
       id="path954" />
    <path
       transform="matrix(0.26458333,0,0,0.26458333,302.32972,45.731619)"
       style="fill:#d5d5d5;fill-opacity:1;fill-rule:evenodd;stroke:none"
       clip-path="url(#clipEmfPath2)"
       d="m 434.7765,181.49001 v 4.95699 h 279.99031 v -4.95699 z"
       id="path956" />
    <path
       transform="matrix(0.26458333,0,0,0.26458333,302.32972,45.731619)"
       style="fill:#d3d3d3;fill-opacity:1;fill-rule:evenodd;stroke:none"
       clip-path="url(#clipEmfPath2)"
       d="m 434.7765,186.447 v 4.957 h 279.99031 v -4.957 z"
       id="path958" />
    <path
       transform="matrix(0.26458333,0,0,0.26458333,302.32972,45.731619)"
       style="fill:#d1d1d1;fill-opacity:1;fill-rule:evenodd;stroke:none"
       clip-path="url(#clipEmfPath2)"
       d="m 434.7765,191.404 v 5.1169 h 279.99031 v -5.1169 z"
       id="path960" />
    <path
       transform="matrix(0.26458333,0,0,0.26458333,302.32972,45.731619)"
       style="fill:#cfcfcf;fill-opacity:1;fill-rule:evenodd;stroke:none"
       clip-path="url(#clipEmfPath2)"
       d="m 434.7765,196.5209 v 4.63719 h 279.99031 v -4.63719 z"
       id="path962" />
    <path
       transform="matrix(0.26458333,0,0,0.26458333,302.32972,45.731619)"
       style="fill:#cdcdcd;fill-opacity:1;fill-rule:evenodd;stroke:none"
       clip-path="url(#clipEmfPath2)"
       d="m 434.7765,201.15809 v 3.67777 h 279.99031 v -3.67777 z"
       id="path964" />
    <path
       transform="matrix(0.26458333,0,0,0.26458333,302.32972,45.731619)"
       style="fill:#cbcbcb;fill-opacity:1;fill-rule:evenodd;stroke:none"
       clip-path="url(#clipEmfPath2)"
       d="m 434.7765,204.83586 v 4.15748 h 279.99031 v -4.15748 z"
       id="path966" />
    <path
       transform="matrix(0.26458333,0,0,0.26458333,302.32972,45.731619)"
       style="fill:#c9c9c9;fill-opacity:1;fill-rule:evenodd;stroke:none"
       clip-path="url(#clipEmfPath2)"
       d="m 434.7765,208.99334 v 4.95699 h 279.99031 v -4.95699 z"
       id="path968" />
    <path
       transform="matrix(0.26458333,0,0,0.26458333,302.32972,45.731619)"
       style="fill:#c7c7c7;fill-opacity:1;fill-rule:evenodd;stroke:none"
       clip-path="url(#clipEmfPath2)"
       d="m 434.7765,213.95033 v 3.99758 h 279.99031 v -3.99758 z"
       id="path970" />
    <path
       transform="matrix(0.26458333,0,0,0.26458333,302.32972,45.731619)"
       style="fill:#c5c5c5;fill-opacity:1;fill-rule:evenodd;stroke:none"
       clip-path="url(#clipEmfPath2)"
       d="m 434.7765,217.94791 v 3.83767 h 279.99031 v -3.83767 z"
       id="path972" />
    <path
       transform="matrix(0.26458333,0,0,0.26458333,302.32972,45.731619)"
       style="fill:#c3c3c3;fill-opacity:1;fill-rule:evenodd;stroke:none"
       clip-path="url(#clipEmfPath2)"
       d="m 434.7765,221.78558 v 4.63719 h 279.99031 v -4.63719 z"
       id="path974" />
    <path
       transform="matrix(0.26458333,0,0,0.26458333,302.32972,45.731619)"
       style="fill:#c1c1c1;fill-opacity:1;fill-rule:evenodd;stroke:none"
       clip-path="url(#clipEmfPath2)"
       d="m 434.7765,226.42277 v 4.7971 h 279.99031 v -4.7971 z"
       id="path976" />
    <path
       transform="matrix(0.26458333,0,0,0.26458333,302.32972,45.731619)"
       style="fill:#bfbfbf;fill-opacity:1;fill-rule:evenodd;stroke:none"
       clip-path="url(#clipEmfPath2)"
       d="m 434.7765,231.21987 v 3.67777 h 279.99031 v -3.67777 z"
       id="path978" />
    <path
       transform="matrix(0.26458333,0,0,0.26458333,302.32972,45.731619)"
       style="fill:#bcbcbc;fill-opacity:1;fill-rule:evenodd;stroke:none"
       clip-path="url(#clipEmfPath2)"
       d="m 434.7765,234.89764 v 2.87825 h 279.99031 v -2.87825 z"
       id="path980" />
    <path
       style="fill:none;stroke:#000000;stroke-width:0.264423px;stroke-linecap:butt;stroke-linejoin:round;stroke-miterlimit:4;stroke-dasharray:none;stroke-opacity:1"
       d="m 417.38549,92.756618 c 0,-8.757692 16.57404,-15.865382 37.01923,-15.865382 20.44519,0 37.01923,7.10769 37.01923,15.865382 0,8.768272 -16.57404,15.865382 -37.01923,15.865382 -20.44519,0 -37.01923,-7.09711 -37.01923,-15.865382"
       id="path982" />
    <text
       xml:space="preserve"
       style="font-style:normal;font-variant:normal;font-weight:400;font-size:8.46667px;line-height:125%;font-family:Tahoma;text-align:start;letter-spacing:0px;word-spacing:0px;text-anchor:start;fill:#000000;fill-opacity:1;stroke:none;stroke-width:0.264583"
       x="433.63867"
       y="91.043159"
       id="text988"><tspan
         style="stroke-width:0.264583"
         sodipodi:role="line"
         x="433.63867"
         y="91.043159"
         id="tspan986"><tspan
           dx="0"
           dy="0"
           style="font-style:normal;font-variant:normal;font-weight:400;font-size:8.46667px;font-family:Tahoma;fill:#000000;stroke-width:0.264583"
           id="tspan984">Calculateur</tspan></tspan></text>
    <text
       xml:space="preserve"
       style="font-style:normal;font-variant:normal;font-weight:400;font-size:8.46667px;line-height:125%;font-family:Tahoma;text-align:start;letter-spacing:0px;word-spacing:0px;text-anchor:start;fill:#000000;fill-opacity:1;stroke:none;stroke-width:0.264583"
       x="444.04636"
       y="101.19701"
       id="text994"><tspan
         style="stroke-width:0.264583"
         sodipodi:role="line"
         x="444.04636"
         y="101.19701"
         id="tspan992"><tspan
           dx="0"
           dy="0"
           style="font-style:normal;font-variant:normal;font-weight:400;font-size:8.46667px;font-family:Tahoma;fill:#000000;stroke-width:0.264583"
           id="tspan990">Taxes</tspan></tspan></text>
    <path
       style="fill:none;stroke:#000000;stroke-width:0.174519px;stroke-linecap:round;stroke-linejoin:round;stroke-miterlimit:4;stroke-dasharray:none;stroke-opacity:1"
       d="M 352.40088,111.08643 417.40664,92.756618"
       id="path996" />
    <path
       sodipodi:nodetypes="cc"
       style="fill:none;stroke:#000000;stroke-width:0.170812px;stroke-linecap:round;stroke-linejoin:round;stroke-miterlimit:4;stroke-dasharray:none;stroke-opacity:1"
       d="m 360.73549,122.28739 79.22115,11.95192"
       id="path998" />
    <text
       xml:space="preserve"
       style="font-style:normal;font-variant:normal;font-weight:400;font-size:7.06107px;line-height:125%;font-family:Tahoma;text-align:start;letter-spacing:0px;word-spacing:0px;text-anchor:start;fill:#000000;fill-opacity:1;stroke:none;stroke-width:0.264583"
       x="344.04376"
       y="89.232307"
       id="text1008"><tspan
         style="stroke-width:0.264583"
         sodipodi:role="line"
         x="344.04376"
         y="89.232307"
         id="tspan1006"><tspan
           dx="0"
           dy="0"
           style="font-style:normal;font-variant:normal;font-weight:400;font-size:7.06107px;font-family:Tahoma;fill:#ff0c0c;stroke-width:0.264583"
           id="tspan1004">Panne de connexion</tspan></tspan></text>
    <text
       xml:space="preserve"
       style="font-style:normal;font-variant:normal;font-weight:400;font-size:7.06107px;line-height:125%;font-family:Tahoma;text-align:start;letter-spacing:0px;word-spacing:0px;text-anchor:start;fill:#000000;fill-opacity:1;stroke:none;stroke-width:0.264583"
       x="441.22858"
       y="64.547035"
       id="text1018"><tspan
         style="stroke-width:0.264583"
         sodipodi:role="line"
         x="441.22858"
         y="64.547035"
         id="tspan1016"><tspan
           dx="0"
           dy="0"
           style="font-style:normal;font-variant:normal;font-weight:400;font-size:7.06107px;font-family:Tahoma;fill:#ff0c0c;stroke-width:0.264583"
           id="tspan1014">Panne de serveur</tspan></tspan></text>
    <text
       xml:space="preserve"
       style="font-style:normal;font-variant:normal;font-weight:400;font-size:7.06107px;line-height:125%;font-family:Tahoma;text-align:start;letter-spacing:0px;word-spacing:0px;text-anchor:start;fill:#000000;fill-opacity:1;stroke:none;stroke-width:0.264583"
       x="452.52472"
       y="73.008575"
       id="text1024"><tspan
         style="stroke-width:0.264583"
         sodipodi:role="line"
         x="452.52472"
         y="73.008575"
         id="tspan1022"><tspan
           dx="0"
           dy="0"
           style="font-style:normal;font-variant:normal;font-weight:400;font-size:7.06107px;font-family:Tahoma;fill:#ff0c0c;stroke-width:0.264583"
           id="tspan1020">ou service</tspan></tspan></text>
    <path
       style="fill:none;stroke:#000000;stroke-width:0.174519px;stroke-linecap:round;stroke-linejoin:round;stroke-miterlimit:4;stroke-dasharray:none;stroke-opacity:1"
       d="m 352.40088,133.54123 62.54134,15.29424"
       id="path1026" />
    <text
       xml:space="preserve"
       style="font-style:normal;font-variant:normal;font-weight:400;font-size:12.7px;line-height:125%;font-family:Tahoma;text-align:start;letter-spacing:0px;word-spacing:0px;text-anchor:start;fill:#000000;fill-opacity:1;stroke:none;stroke-width:0.264583"
       x="417.47946"
       y="153.74098"
       id="text1032"><tspan
         style="stroke-width:0.264583"
         sodipodi:role="line"
         x="417.47946"
         y="153.74098"
         id="tspan1030"><tspan
           dx="0"
           dy="0"
           style="font-style:normal;font-variant:normal;font-weight:400;font-size:12.7px;font-family:Tahoma;fill:#000000;stroke-width:0.264583"
           id="tspan1028"></tspan></tspan></text>
    <path
       style="fill:none;stroke:none;stroke-width:0.264583"
       d="m 439.9778,123.52489 c 0,-3.78654 9.60384,-6.86443 21.42884,-6.86443 11.83558,0 21.42885,3.07789 21.42885,6.86443 V 150.972 c 0,3.78654 -9.59327,6.85385 -21.42885,6.85385 -11.825,0 -21.42884,-3.06731 -21.42884,-6.85385 z"
       id="path1042" />
    <path
       transform="matrix(0.26458333,0,0,0.26458333,302.32972,45.731619)"
       style="fill:#ededed;fill-opacity:1;fill-rule:evenodd;stroke:none"
       clip-path="url(#clipEmfPath2)"
       d="m 520.16475,267.99758 v 4.95699 h 162.14173 v -4.95699 z"
       id="path1044" />
    <path
       transform="matrix(0.26458333,0,0,0.26458333,302.32972,45.731619)"
       style="fill:#ebebeb;fill-opacity:1;fill-rule:evenodd;stroke:none"
       clip-path="url(#clipEmfPath2)"
       d="m 520.16475,272.95457 v 6.39613 h 162.14173 v -6.39613 z"
       id="path1046" />
    <path
       transform="matrix(0.26458333,0,0,0.26458333,302.32972,45.731619)"
       style="fill:#e9e9e9;fill-opacity:1;fill-rule:evenodd;stroke:none"
       clip-path="url(#clipEmfPath2)"
       d="m 520.16475,279.3507 v 6.55602 h 162.14173 v -6.55602 z"
       id="path1048" />
    <path
       transform="matrix(0.26458333,0,0,0.26458333,302.32972,45.731619)"
       style="fill:#e7e7e7;fill-opacity:1;fill-rule:evenodd;stroke:none"
       clip-path="url(#clipEmfPath2)"
       d="m 520.16475,285.90672 v 8.95458 h 162.14173 v -8.95458 z"
       id="path1050" />
    <path
       transform="matrix(0.26458333,0,0,0.26458333,302.32972,45.731619)"
       style="fill:#e5e5e5;fill-opacity:1;fill-rule:evenodd;stroke:none"
       clip-path="url(#clipEmfPath2)"
       d="m 520.16475,294.8613 v 7.19564 h 162.14173 v -7.19564 z"
       id="path1052" />
    <path
       transform="matrix(0.26458333,0,0,0.26458333,302.32972,45.731619)"
       style="fill:#e3e3e3;fill-opacity:1;fill-rule:evenodd;stroke:none"
       clip-path="url(#clipEmfPath2)"
       d="m 520.16475,302.05694 v 6.55602 h 162.14173 v -6.55602 z"
       id="path1054" />
    <path
       transform="matrix(0.26458333,0,0,0.26458333,302.32972,45.731619)"
       style="fill:#e1e1e1;fill-opacity:1;fill-rule:evenodd;stroke:none"
       clip-path="url(#clipEmfPath2)"
       d="m 520.16475,308.61296 v 6.39613 h 162.14173 v -6.39613 z"
       id="path1056" />
    <path
       transform="matrix(0.26458333,0,0,0.26458333,302.32972,45.731619)"
       style="fill:#dfdfdf;fill-opacity:1;fill-rule:evenodd;stroke:none"
       clip-path="url(#clipEmfPath2)"
       d="m 520.16475,315.00909 v 6.55602 h 162.14173 v -6.55602 z"
       id="path1058" />
    <path
       transform="matrix(0.26458333,0,0,0.26458333,302.32972,45.731619)"
       style="fill:#dddddd;fill-opacity:1;fill-rule:evenodd;stroke:none"
       clip-path="url(#clipEmfPath2)"
       d="m 520.16475,321.56511 v 6.39613 h 162.14173 v -6.39613 z"
       id="path1060" />
    <path
       transform="matrix(0.26458333,0,0,0.26458333,302.32972,45.731619)"
       style="fill:#dbdbdb;fill-opacity:1;fill-rule:evenodd;stroke:none"
       clip-path="url(#clipEmfPath2)"
       d="m 520.16475,327.96124 v 6.55602 h 162.14173 v -6.55602 z"
       id="path1062" />
    <path
       transform="matrix(0.26458333,0,0,0.26458333,302.32972,45.731619)"
       style="fill:#d9d9d9;fill-opacity:1;fill-rule:evenodd;stroke:none"
       clip-path="url(#clipEmfPath2)"
       d="m 520.16475,334.51726 v 8.95458 h 162.14173 v -8.95458 z"
       id="path1064" />
    <path
       transform="matrix(0.26458333,0,0,0.26458333,302.32972,45.731619)"
       style="fill:#d7d7d7;fill-opacity:1;fill-rule:evenodd;stroke:none"
       clip-path="url(#clipEmfPath2)"
       d="m 520.16475,343.47184 v 7.19563 h 162.14173 v -7.19563 z"
       id="path1066" />
    <path
       transform="matrix(0.26458333,0,0,0.26458333,302.32972,45.731619)"
       style="fill:#d5d5d5;fill-opacity:1;fill-rule:evenodd;stroke:none"
       clip-path="url(#clipEmfPath2)"
       d="m 520.16475,350.66747 v 6.55603 h 162.14173 v -6.55603 z"
       id="path1068" />
    <path
       transform="matrix(0.26458333,0,0,0.26458333,302.32972,45.731619)"
       style="fill:#d3d3d3;fill-opacity:1;fill-rule:evenodd;stroke:none"
       clip-path="url(#clipEmfPath2)"
       d="m 520.16475,357.2235 v 6.39612 h 162.14173 v -6.39612 z"
       id="path1070" />
    <path
       transform="matrix(0.26458333,0,0,0.26458333,302.32972,45.731619)"
       style="fill:#d1d1d1;fill-opacity:1;fill-rule:evenodd;stroke:none"
       clip-path="url(#clipEmfPath2)"
       d="m 520.16475,363.61962 v 6.55603 h 162.14173 v -6.55603 z"
       id="path1072" />
    <path
       transform="matrix(0.26458333,0,0,0.26458333,302.32972,45.731619)"
       style="fill:#cfcfcf;fill-opacity:1;fill-rule:evenodd;stroke:none"
       clip-path="url(#clipEmfPath2)"
       d="m 520.16475,370.17565 v 6.07632 h 162.14173 v -6.07632 z"
       id="path1074" />
    <path
       transform="matrix(0.26458333,0,0,0.26458333,302.32972,45.731619)"
       style="fill:#cdcdcd;fill-opacity:1;fill-rule:evenodd;stroke:none"
       clip-path="url(#clipEmfPath2)"
       d="m 520.16475,376.25197 v 4.79709 h 162.14173 v -4.79709 z"
       id="path1076" />
    <path
       transform="matrix(0.26458333,0,0,0.26458333,302.32972,45.731619)"
       style="fill:#cbcbcb;fill-opacity:1;fill-rule:evenodd;stroke:none"
       clip-path="url(#clipEmfPath2)"
       d="m 520.16475,381.04906 v 5.2768 h 162.14173 v -5.2768 z"
       id="path1078" />
    <path
       transform="matrix(0.26458333,0,0,0.26458333,302.32972,45.731619)"
       style="fill:#c9c9c9;fill-opacity:1;fill-rule:evenodd;stroke:none"
       clip-path="url(#clipEmfPath2)"
       d="m 520.16475,386.32586 v 6.55603 h 162.14173 v -6.55603 z"
       id="path1080" />
    <path
       transform="matrix(0.26458333,0,0,0.26458333,302.32972,45.731619)"
       style="fill:#c7c7c7;fill-opacity:1;fill-rule:evenodd;stroke:none"
       clip-path="url(#clipEmfPath2)"
       d="m 520.16475,392.88189 v 5.2768 h 162.14173 v -5.2768 z"
       id="path1082" />
    <path
       transform="matrix(0.26458333,0,0,0.26458333,302.32972,45.731619)"
       style="fill:#c5c5c5;fill-opacity:1;fill-rule:evenodd;stroke:none"
       clip-path="url(#clipEmfPath2)"
       d="m 520.16475,398.15869 v 4.79709 h 162.14173 v -4.79709 z"
       id="path1084" />
    <path
       transform="matrix(0.26458333,0,0,0.26458333,302.32972,45.731619)"
       style="fill:#c3c3c3;fill-opacity:1;fill-rule:evenodd;stroke:none"
       clip-path="url(#clipEmfPath2)"
       d="m 520.16475,402.95578 v 6.07632 h 162.14173 v -6.07632 z"
       id="path1086" />
    <path
       transform="matrix(0.26458333,0,0,0.26458333,302.32972,45.731619)"
       style="fill:#c1c1c1;fill-opacity:1;fill-rule:evenodd;stroke:none"
       clip-path="url(#clipEmfPath2)"
       d="m 520.16475,409.0321 v 6.07632 h 162.14173 v -6.07632 z"
       id="path1088" />
    <path
       transform="matrix(0.26458333,0,0,0.26458333,302.32972,45.731619)"
       style="fill:#bfbfbf;fill-opacity:1;fill-rule:evenodd;stroke:none"
       clip-path="url(#clipEmfPath2)"
       d="m 520.16475,415.10842 v 4.79709 h 162.14173 v -4.79709 z"
       id="path1090" />
    <path
       transform="matrix(0.26458333,0,0,0.26458333,302.32972,45.731619)"
       style="fill:#bcbcbc;fill-opacity:1;fill-rule:evenodd;stroke:none"
       clip-path="url(#clipEmfPath2)"
       d="m 520.16475,419.90551 v 3.83768 h 162.14173 v -3.83768 z"
       id="path1092" />
    <text
       xml:space="preserve"
       style="font-style:normal;font-variant:normal;font-weight:400;font-size:8.46667px;line-height:125%;font-family:Tahoma;text-align:start;letter-spacing:0px;word-spacing:0px;text-anchor:start;fill:#000000;fill-opacity:1;stroke:none;stroke-width:0.264583"
       x="456.02875"
       y="138.96889"
       id="text1102"><tspan
         style="stroke-width:0.264583"
         sodipodi:role="line"
         x="456.02875"
         y="138.96889"
         id="tspan1100"><tspan
           dx="0"
           dy="0"
           style="font-style:normal;font-variant:normal;font-weight:400;font-size:8.46667px;font-family:Tahoma;fill:#000000;stroke-width:0.264583"
           id="tspan1098">BD </tspan></tspan></text>
    <text
       xml:space="preserve"
       style="font-style:normal;font-variant:normal;font-weight:400;font-size:8.46667px;line-height:125%;font-family:Tahoma;text-align:start;letter-spacing:0px;word-spacing:0px;text-anchor:start;fill:#000000;fill-opacity:1;stroke:none;stroke-width:0.264583"
       x="442.57492"
       y="149.12273"
       id="text1108"><tspan
         style="stroke-width:0.264583"
         sodipodi:role="line"
         x="442.57492"
         y="149.12273"
         id="tspan1106"><tspan
           dx="0"
           dy="0"
           style="font-style:normal;font-variant:normal;font-weight:400;font-size:8.46667px;font-family:Tahoma;fill:#000000;stroke-width:0.264583"
           id="tspan1104">descriptifs</tspan></tspan></text>
    <text
       id="text1258"
       y="116.02645"
       x="379.21634"
       style="font-size:29.3264px;line-height:1.25;font-family:sans-serif;text-align:center;letter-spacing:0px;word-spacing:0px;text-anchor:middle;opacity:0.64;fill:#ff0000;stroke-width:0.733161"
       xml:space="preserve"><tspan
         style="font-style:normal;font-variant:normal;font-weight:normal;font-stretch:normal;font-family:Webdings;-inkscape-font-specification:Webdings;fill:#ff0000;stroke-width:0.733161"
         y="116.02645"
         x="379.21634"
         id="tspan1285"
         sodipodi:role="line"></tspan></text>
    <text
       xml:space="preserve"
       style="font-size:49.1012px;line-height:1.25;font-family:sans-serif;text-align:center;letter-spacing:0px;word-spacing:0px;text-anchor:middle;opacity:0.64;fill:#ff0000;stroke-width:1.22753"
       x="454.58914"
       y="112.27026"
       id="text1289"><tspan
         sodipodi:role="line"
         id="tspan1287"
         x="454.58914"
         y="112.27026"
         style="font-style:normal;font-variant:normal;font-weight:normal;font-stretch:normal;font-family:Webdings;-inkscape-font-specification:Webdings;fill:#ff0000;stroke-width:1.22753"></tspan></text>
    <path
       id="path982-9"
       d="m 435.78242,142.85957 c 0,-7.9094 12.01372,-14.32862 26.83345,-14.32862 14.81973,0 26.83346,6.41922 26.83346,14.32862 0,7.91896 -12.01373,14.32863 -26.83346,14.32863 -14.81973,0 -26.83345,-6.40967 -26.83345,-14.32863"
       style="fill:none;stroke:#000000;stroke-width:0.213944px;stroke-linecap:butt;stroke-linejoin:round;stroke-miterlimit:4;stroke-dasharray:none;stroke-opacity:1" />
  </g>
</svg>
