<svg xmlns="http://www.w3.org/2000/svg" xmlns:xlink="http://www.w3.org/1999/xlink" version="1.1" x="0px" y="0px" viewBox="0 0 50.4 50.4" enable-background="new 0 0 50.4 50.4" xml:space="preserve"><g><path d="M35.844,38.764h5.376v4.799c0,0.786,0.634,1.419,1.418,1.419s1.423-0.633,1.423-1.419v-4.799   c0.354,0,0.613-0.277,0.613-0.603v-3.58l-4.64-2.196h-9.547l-1.233-0.698c-0.394-0.226-0.896-0.086-1.121,0.31   c-0.224,0.396-0.088,0.895,0.309,1.121l1.946,1.115v9.331c0,0.785,0.637,1.419,1.421,1.419s1.42-0.634,1.42-1.419l-0.002-3.654   l2.574,4.347c0.4,0.675,1.271,0.894,1.947,0.494c0.673-0.401,0.893-1.278,0.491-1.953L35.844,38.764z"></path><path d="M47.79,27.144l-0.702-1.089l-6.533,1.29l2.319,3.408l1.107-0.699v-2.368l0.906-0.002v2.953l-2.306,1.438l-1.022-1.487   l-0.797,0.971l4.229,2.078l5.411-3.296l0.009-3.2L47.79,27.144z M46.117,29.492c-0.365,0-0.661-0.298-0.661-0.662   c0-0.367,0.296-0.662,0.661-0.662s0.663,0.295,0.663,0.662C46.78,29.194,46.482,29.492,46.117,29.492z"></path><path d="M19.531,12.612c1.741,0,3.151-1.41,3.151-3.151c0-1.74-1.41-3.153-3.151-3.153c-1.741,0-3.153,1.413-3.153,3.153   C16.379,11.201,17.791,12.612,19.531,12.612"></path><polygon points="11.333,29.054 8.71,42.748 4.818,42.748 2.253,29.059 0,29.059 2.937,44.965 10.59,44.965 13.584,29.054  "></polygon></g><g><path d="M40.762,31.554l-13.459-6.542v-7.598c0-2.093-1.628-4.145-4.076-4.145l-5.821-0.003c-1.413,0-2.649,0.729-3.368,1.835   l-3.169,5.06H7.732l0.604-1.25H5.771l0.601,1.25H6.126c-1.88,0-1.88,2.483,0,2.483l0.5-0.001l-1.041,5.564   c-0.01,0.04-0.018,0.079-0.023,0.117l-0.018,0.102H5.55c-0.003,0.041-0.005,0.083-0.005,0.127c0,0.835,0.677,1.511,1.513,1.511   c0.835,0,1.513-0.676,1.513-1.511c0-0.044-0.003-0.086-0.007-0.127h0.007l-0.02-0.1c-0.005-0.04-0.013-0.079-0.022-0.119   l-1.041-5.566l4.064-0.009c0.4-0.005,0.822-0.219,1.135-0.715l2.725-4.302l-0.002,25.559c0,0.977,0.79,1.766,1.765,1.766   c0.977,0,1.768-0.789,1.768-1.766l0.001-14.826h1.184l-0.005,14.826c0,0.977,0.792,1.766,1.77,1.766   c0.976,0,1.768-0.789,1.768-1.766l0.006-25.559h1.173v9.419c0,1.896,2.47,1.896,2.466,0v-0.799l12.734,6.154L40.762,31.554z"></path></g></svg>