<?xml version="1.0" encoding="UTF-8" standalone="no"?>
<svg
   xmlns:dc="http://purl.org/dc/elements/1.1/"
   xmlns:cc="http://creativecommons.org/ns#"
   xmlns:rdf="http://www.w3.org/1999/02/22-rdf-syntax-ns#"
   xmlns:svg="http://www.w3.org/2000/svg"
   xmlns="http://www.w3.org/2000/svg"
   xmlns:sodipodi="http://sodipodi.sourceforge.net/DTD/sodipodi-0.dtd"
   xmlns:inkscape="http://www.inkscape.org/namespaces/inkscape"
   width="1104"
   height="220"
   aria-label="A chart."
   style="overflow: hidden;"
   version="1.1"
   id="svg980"
   sodipodi:docname="TechnicalDebtGoogleTrends.svg"
   inkscape:version="0.92.2 (5c3e80d, 2017-08-06)">
  <metadata
     id="metadata984">
    <rdf:RDF>
      <cc:Work
         rdf:about="">
        <dc:format>image/svg+xml</dc:format>
        <dc:type
           rdf:resource="http://purl.org/dc/dcmitype/StillImage" />
      </cc:Work>
    </rdf:RDF>
  </metadata>
  <sodipodi:namedview
     pagecolor="#ffffff"
     bordercolor="#666666"
     borderopacity="1"
     objecttolerance="10"
     gridtolerance="10"
     guidetolerance="10"
     inkscape:pageopacity="0"
     inkscape:pageshadow="2"
     inkscape:window-width="1920"
     inkscape:window-height="1017"
     id="namedview982"
     showgrid="false"
     inkscape:zoom="1.4552053"
     inkscape:cx="436.92634"
     inkscape:cy="34.600987"
     inkscape:window-x="4648"
     inkscape:window-y="382"
     inkscape:window-maximized="1"
     inkscape:current-layer="svg980" />
  <defs
     id="defs">
    <clipPath
       id="_ABSTRACT_RENDERER_ID_32">
      <rect
         x="30"
         y="17"
         width="1068"
         height="186"
         id="rect898" />
    </clipPath>
  </defs>
  <rect
     style="fill:#ffffff;fill-opacity:0;stroke:none;stroke-width:0"
     id="rect902"
     height="186"
     width="1068"
     y="17"
     x="30" />
  <g
     id="g926"
     clip-path="url(https://trends.google.com/trends/explore?date=2004-01-01%202018-01-05&amp;q=%22technical%20debt%22#_ABSTRACT_RENDERER_ID_32)">
    <g
       id="g912">
      <rect
         style="fill:#e0e0e0;stroke:none;stroke-width:0"
         id="rect904"
         height="1"
         width="1068"
         y="156"
         x="30" />
      <rect
         style="fill:#e0e0e0;stroke:none;stroke-width:0"
         id="rect906"
         height="1"
         width="1068"
         y="110"
         x="30" />
      <rect
         style="fill:#e0e0e0;stroke:none;stroke-width:0"
         id="rect908"
         height="1"
         width="1068"
         y="63"
         x="30" />
      <rect
         style="fill:#e0e0e0;stroke:none;stroke-width:0"
         id="rect910"
         height="1"
         width="1068"
         y="17"
         x="30" />
    </g>
    <g
       id="g916">
      <rect
         style="fill:#9e9e9e;stroke:none;stroke-width:0"
         id="rect914"
         height="1"
         width="1068"
         y="202"
         x="30" />
    </g>
    <g
       id="g920">
      <path
         style="fill:none;fill-opacity:1;stroke:#2196f3;stroke-width:4"
         inkscape:connector-curvature="0"
         id="path918"
         d="m 33.656805,137.76203 6.313609,64.75647 6.31361,-79.55795 6.313609,79.55795 h 6.31361 6.313609 l 6.31361,-74.0074 6.313609,74.0074 h 6.313609 6.31361 6.313609 6.313611 6.31361 l 6.31361,-42.55425 6.31361,42.55425 h 6.31361 l 6.31361,-35.15351 6.31361,35.15351 h 6.31361 6.3136 6.31361 l 6.31361,-29.60296 6.31361,29.60296 6.31361,-27.75277 6.31361,3.70037 6.31361,-1.85019 h 6.31361 l 6.31361,25.90259 6.31361,-22.20222 6.31361,-24.0524 h 6.31361 l 6.31361,46.25462 6.31361,-20.35203 6.31361,-11.10111 6.31361,31.45314 6.31361,-27.75277 6.31361,27.75277 6.31361,-46.25462 6.3136,16.65166 6.31361,29.60296 6.31361,-12.95129 h 6.31361 6.31361 l 6.31361,-1.85019 6.31361,-7.40074 6.31361,1.85019 6.31361,-7.40074 6.31361,-5.55056 6.31361,22.20222 6.31361,-16.65166 6.31361,9.25092 6.31361,-3.70037 6.31361,1.85019 6.31361,-9.25093 6.31361,-16.65166 6.31361,18.50185 6.3136,5.55055 6.31361,7.40074 6.31361,-7.40074 h 6.31361 l 6.31361,7.40074 6.31361,-24.0524 6.31361,1.85018 6.31361,-1.85018 6.31361,-5.55056 6.31361,11.10111 6.31361,-7.40074 6.31361,7.40074 6.31361,-18.50185 6.31361,7.40074 6.31361,16.65167 6.31361,-9.25093 6.31361,-9.25092 6.31361,-7.40074 h 6.31361 l 6.3136,16.65166 6.31361,-12.95129 6.31361,7.40074 h 6.31361 l 6.31361,-7.40074 6.31361,-5.55056 6.31361,-3.70037 6.31361,-7.40074 6.31361,16.65167 6.31361,-3.70037 6.31361,-24.05241 6.31361,12.9513 6.31361,-9.25093 6.31361,22.20222 6.31361,-27.75277 6.31361,35.15351 6.31361,-20.35203 6.31361,3.70037 6.31361,-14.80148 6.3136,1.85018 6.31361,22.20222 6.31361,-9.25092 6.31361,-16.65167 6.31361,-12.95129 6.31361,18.50185 6.31361,-33.303334 6.31361,14.801484 6.31361,27.75277 6.31361,-42.554254 6.31361,24.052404 6.31361,5.55056 6.31361,-9.25093 6.31361,25.90259 6.31361,-24.0524 6.31361,-27.752779 6.31361,44.404439 6.31361,-18.50185 6.31361,3.70037 6.3136,9.25093 6.31361,-24.05241 6.31361,18.50185 6.31361,-18.50185 6.31361,-5.55055 6.31361,20.35203 6.31361,3.70037 6.31361,-22.20222 6.31361,-14.801479 6.31361,18.501849 6.31361,-11.101109 h 6.31361 l 6.31361,-25.90259 6.31361,11.10111 6.31361,3.70037 6.31361,12.951295 6.31361,-35.153516 6.31361,22.202221 6.3136,3.70037 6.31361,-12.951295 6.31361,-40.704071 6.31361,48.104811 6.31361,-44.404441 6.31361,-1.850185 6.31361,-9.250925 6.31361,9.250925 6.31361,12.951295 6.31361,-9.250925 6.31361,-9.250925 6.31361,14.80148 h 6.31361 l 6.31361,38.853886 6.31361,-16.651666 6.31361,-14.80148 h 6.31361 l 6.31361,1.850185 6.31361,9.250925 6.3136,11.101111 6.31361,-22.202221 h 6.31361 l 6.31361,22.202221 6.31365,-35.153516 6.3136,22.20222 6.3136,-18.50185 h 6.3136 l 6.3136,-16.651665 6.3136,5.550555 6.3136,-3.70037 6.3136,3.70037 6.3136,29.60296 6.3136,-29.60296 6.3137,3.70037 6.3136,-18.50185 6.3136,9.250925 6.3136,24.052405 6.3136,29.602961" />
    </g>
    <g
       id="g924">
      <rect
         style="fill:#999999;stroke:none;stroke-width:0"
         id="rect922"
         height="5"
         width="1"
         y="198"
         x="942.81659" />
    </g>
  </g>
  <g
     id="g928" />
  <g
     id="g962"
     style="fill:#000000">
    <g
       id="g932"
       style="fill:#000000">
      <text
         style="font-size:12px;font-family:Roboto, Arial, sans-serif;text-anchor:middle;fill:#000000;stroke:none;stroke-width:0"
         id="text930"
         font-size="12"
         y="215.7"
         x="33.656803">Jan 1, 2004</text>
    </g>
    <g
       id="g936"
       style="fill:#000000">
      <text
         style="font-size:12px;font-family:Roboto, Arial, sans-serif;text-anchor:middle;fill:#000000;stroke:none;stroke-width:0"
         id="text934"
         font-size="12"
         y="215.7"
         x="349.33728">Mar 1, 2008</text>
    </g>
    <g
       id="g940"
       style="fill:#000000">
      <text
         style="font-size:12px;font-family:Roboto, Arial, sans-serif;text-anchor:middle;fill:#000000;stroke:none;stroke-width:0"
         id="text938"
         font-size="12"
         y="215.7"
         x="665.01776">May 1, 2012</text>
    </g>
    <g
       id="g944"
       style="fill:#000000">
      <text
         style="font-size:12px;font-family:Roboto, Arial, sans-serif;text-anchor:middle;fill:#000000;stroke:none;stroke-width:0"
         id="text942"
         font-size="12"
         y="215.7"
         x="980.69824">Jul 1, 2016</text>
    </g>
    <g
       id="g948"
       style="fill:#000000">
      <text
         style="font-size:12px;font-family:Roboto, Arial, sans-serif;text-anchor:end;fill:#000000;stroke:none;stroke-width:0"
         id="text946"
         font-size="12"
         y="160.46388"
         x="25">25</text>
    </g>
    <g
       id="g952"
       style="fill:#000000">
      <text
         style="font-size:12px;font-family:Roboto, Arial, sans-serif;text-anchor:end;fill:#000000;stroke:none;stroke-width:0"
         id="text950"
         font-size="12"
         y="114.20925"
         x="25">50</text>
    </g>
    <g
       id="g956"
       style="fill:#000000">
      <text
         style="font-size:12px;font-family:Roboto, Arial, sans-serif;text-anchor:end;fill:#000000;stroke:none;stroke-width:0"
         id="text954"
         font-size="12"
         y="67.954628"
         x="25">75</text>
    </g>
    <g
       id="g960"
       style="fill:#000000">
      <text
         style="font-size:12px;font-family:Roboto, Arial, sans-serif;text-anchor:end;fill:#000000;stroke:none;stroke-width:0"
         id="text958"
         font-size="12"
         y="21.700001"
         x="25">100</text>
    </g>
  </g>
  <g
     id="g974">
    <g
       id="g972">
      <g
         id="g970">
        <rect
           style="fill:#ffffff;fill-opacity:0;stroke:none;stroke-width:0"
           id="rect964"
           height="16"
           width="35"
           y="183.5"
           x="925.5" />
        <text
           style="font-size:14px;font-family:Arial;text-anchor:middle;fill:#222222;stroke:none;stroke-width:0"
           id="text966"
           font-size="14"
           y="195.89999"
           x="942.81659" />
        <rect
           style="fill:#ffffff;fill-opacity:0;stroke:none;stroke-width:0"
           id="rect968"
           height="14"
           width="30"
           y="184"
           x="927.81659" />
      </g>
    </g>
  </g>
  <g
     id="g978" />
</svg>
