<?xml version="1.0" encoding="UTF-8" standalone="no"?><svg xmlns="http://www.w3.org/2000/svg" xmlns:xlink="http://www.w3.org/1999/xlink" contentStyleType="text/css" height="221px" preserveAspectRatio="none" style="width:252px;height:221px;background:#FFFFFF;" version="1.1" viewBox="0 0 252 221" width="252px" zoomAndPan="magnify"><defs/><g><rect fill="#FFFFFF" height="128.6953" style="stroke:#181818;stroke-width:1.0;" width="10" x="38" y="67.4297"/><rect fill="#FFFFFF" height="70.4297" style="stroke:#181818;stroke-width:1.0;" width="10" x="115" y="96.5625"/><line style="stroke:#181818;stroke-width:0.5;stroke-dasharray:5.0,5.0;" x1="43" x2="43" y1="36.2969" y2="214.125"/><line style="stroke:#181818;stroke-width:0.5;stroke-dasharray:5.0,5.0;" x1="119.5" x2="119.5" y1="36.2969" y2="214.125"/><line style="stroke:#181818;stroke-width:0.5;stroke-dasharray:5.0,5.0;" x1="218" x2="218" y1="135.2109" y2="214.125"/><rect fill="#E2E2F0" height="30.2969" rx="2.5" ry="2.5" style="stroke:#181818;stroke-width:0.5;" width="74" x="6" y="5"/><text fill="#000000" font-family="sans-serif" font-size="14" lengthAdjust="spacing" textLength="60" x="13" y="24.9951">:Bernard</text><rect fill="#E2E2F0" height="30.2969" rx="2.5" ry="2.5" style="stroke:#181818;stroke-width:0.5;" width="51" x="94.5" y="5"/><text fill="#000000" font-family="sans-serif" font-size="14" lengthAdjust="spacing" textLength="37" x="101.5" y="24.9951">:Alice</text><rect fill="#FFFFFF" height="128.6953" style="stroke:#181818;stroke-width:1.0;" width="10" x="38" y="67.4297"/><rect fill="#FFFFFF" height="70.4297" style="stroke:#181818;stroke-width:1.0;" width="10" x="115" y="96.5625"/><polygon fill="#181818" points="26,63.4297,36,67.4297,26,71.4297" style="stroke:#181818;stroke-width:1.0;"/><line style="stroke:#181818;stroke-width:1.0;" x1="0" x2="32" y1="67.4297" y2="67.4297"/><text fill="#000000" font-family="sans-serif" font-size="13" lengthAdjust="spacing" textLength="19" x="7" y="62.3638">init</text><polygon fill="#181818" points="103,92.5625,113,96.5625,103,100.5625" style="stroke:#181818;stroke-width:1.0;"/><line style="stroke:#181818;stroke-width:1.0;" x1="48" x2="109" y1="96.5625" y2="96.5625"/><text fill="#000000" font-family="sans-serif" font-size="13" lengthAdjust="spacing" textLength="48" x="55" y="91.4966">allô(12)</text><polygon fill="#181818" points="178,121.6953,188,125.6953,178,129.6953" style="stroke:#181818;stroke-width:1.0;"/><line style="stroke:#181818;stroke-width:1.0;stroke-dasharray:2.0,2.0;" x1="125" x2="184" y1="125.6953" y2="125.6953"/><text fill="#000000" font-family="sans-serif" font-size="13" lengthAdjust="spacing" textLength="41" x="132" y="120.6294">create</text><rect fill="#E2E2F0" height="30.2969" rx="2.5" ry="2.5" style="stroke:#181818;stroke-width:0.5;" width="56" x="190" y="104.5625"/><text fill="#000000" font-family="sans-serif" font-size="14" lengthAdjust="spacing" textLength="42" x="197" y="124.5576">:Autre</text><line style="stroke:#181818;stroke-width:1.0;" x1="49" x2="59" y1="166.9922" y2="162.9922"/><line style="stroke:#181818;stroke-width:1.0;" x1="49" x2="59" y1="166.9922" y2="170.9922"/><line style="stroke:#181818;stroke-width:1.0;stroke-dasharray:2.0,2.0;" x1="48" x2="119" y1="166.9922" y2="166.9922"/><text fill="#000000" font-family="sans-serif" font-size="13" lengthAdjust="spacing" textLength="29" x="65" y="161.9263">"oui"</text><line style="stroke:#181818;stroke-width:1.0;" x1="1" x2="11" y1="196.125" y2="192.125"/><line style="stroke:#181818;stroke-width:1.0;" x1="1" x2="11" y1="196.125" y2="200.125"/><line style="stroke:#181818;stroke-width:1.0;stroke-dasharray:2.0,2.0;" x1="0" x2="42" y1="196.125" y2="196.125"/><text fill="#000000" font-family="sans-serif" font-size="13" lengthAdjust="spacing" textLength="16" x="17" y="191.0591">15</text><!--MD5=[cce757ccc7c67a50d3a89ae41ec5390a]
@startuml
skinparam style strictuml
scale 1.0
participant ":Bernard" as Bob
participant ":Alice" as Alice
participant ":Autre" as Other
[-> Bob : init
activate Bob
Bob -> Alice : allô(12)
activate Alice

create Other
Alice - -> Other : create

Alice - ->> Bob : "oui"
deactivate Alice
[<<- - Bob : 15
deactivate Bob
@enduml

PlantUML version 1.2022.6(Tue Jun 21 17:34:49 UTC 2022)
(GPL source distribution)
Java Runtime: OpenJDK Runtime Environment
JVM: OpenJDK 64-Bit Server VM
Default Encoding: UTF-8
Language: en
Country: null
--></g></svg>