<?xml version="1.0" encoding="UTF-8" standalone="no"?><svg xmlns="http://www.w3.org/2000/svg" xmlns:xlink="http://www.w3.org/1999/xlink" contentStyleType="text/css" height="168px" preserveAspectRatio="none" style="width:462px;height:168px;background:#FFFFFF;" version="1.1" viewBox="0 0 462 168" width="462px" zoomAndPan="magnify"><defs/><g><line style="stroke:#181818;stroke-width:0.5;stroke-dasharray:5.0,5.0;" x1="102.5" x2="102.5" y1="36.2969" y2="161.6953"/><line style="stroke:#181818;stroke-width:0.5;stroke-dasharray:5.0,5.0;" x1="350" x2="350" y1="36.2969" y2="161.6953"/><rect fill="#E2E2F0" height="30.2969" rx="2.5" ry="2.5" style="stroke:#181818;stroke-width:0.5;" width="105" x="50.5" y="5"/><text fill="#000000" font-family="sans-serif" font-size="14" lengthAdjust="spacing" textLength="91" x="57.5" y="24.9951">: CaseImpôts</text><rect fill="#E2E2F0" height="30.2969" rx="2.5" ry="2.5" style="stroke:#181818;stroke-width:0.5;" width="74" x="313" y="5"/><text fill="#000000" font-family="sans-serif" font-size="14" lengthAdjust="spacing" textLength="60" x="320" y="24.9951">j : Joueur</text><polygon fill="#181818" points="91,66.4297,101,70.4297,91,74.4297" style="stroke:#181818;stroke-width:1.0;"/><line style="stroke:#181818;stroke-width:1.0;" x1="0" x2="97" y1="70.4297" y2="70.4297"/><text fill="#000000" font-family="sans-serif" font-size="13" lengthAdjust="spacing" textLength="79" x="7" y="65.3638">atterrirSur(j)</text><path d="M108,51.2969 L108,76.2969 L266,76.2969 L266,61.2969 L256,51.2969 L108,51.2969 " fill="#FEFFDD" style="stroke:#181818;stroke-width:0.5;"/><path d="M256,51.2969 L256,61.2969 L266,61.2969 L256,51.2969 " fill="#FEFFDD" style="stroke:#181818;stroke-width:0.5;"/><text fill="#000000" font-family="sans-serif" font-size="13" lengthAdjust="spacing" textLength="137" x="114" y="68.3638">selon Polymorphisme</text><polygon fill="#181818" points="338,101.5625,348,105.5625,338,109.5625" style="stroke:#181818;stroke-width:1.0;"/><line style="stroke:#181818;stroke-width:1.0;" x1="103" x2="344" y1="105.5625" y2="105.5625"/><text fill="#000000" font-family="sans-serif" font-size="13" lengthAdjust="spacing" textLength="79" x="110" y="100.4966">c = getCash</text><path d="M355,86.4297 L355,111.4297 L455,111.4297 L455,96.4297 L445,86.4297 L355,86.4297 " fill="#FEFFDD" style="stroke:#181818;stroke-width:0.5;"/><path d="M445,86.4297 L445,96.4297 L455,96.4297 L445,86.4297 " fill="#FEFFDD" style="stroke:#181818;stroke-width:0.5;"/><text fill="#000000" font-family="sans-serif" font-size="13" lengthAdjust="spacing" textLength="79" x="361" y="103.4966">selon Expert</text><polygon fill="#181818" points="338,136.6953,348,140.6953,338,144.6953" style="stroke:#181818;stroke-width:1.0;"/><line style="stroke:#181818;stroke-width:1.0;" x1="103" x2="344" y1="140.6953" y2="140.6953"/><text fill="#000000" font-family="sans-serif" font-size="13" lengthAdjust="spacing" textLength="223" x="110" y="135.6294">diminuerCash(min(200, 10% de c))</text><path d="M355,121.5625 L355,146.5625 L455,146.5625 L455,131.5625 L445,121.5625 L355,121.5625 " fill="#FEFFDD" style="stroke:#181818;stroke-width:0.5;"/><path d="M445,121.5625 L445,131.5625 L455,131.5625 L445,121.5625 " fill="#FEFFDD" style="stroke:#181818;stroke-width:0.5;"/><text fill="#000000" font-family="sans-serif" font-size="13" lengthAdjust="spacing" textLength="79" x="361" y="138.6294">selon Expert</text><!--MD5=[5f834c0939a019bd84a179ccf39fc228]
@startuml
skinparam style strictuml
scale 1.0
participant ": CaseImpôts" as im
participant "j : Joueur" as j
-> im : atterrirSur(j)
note left: selon Polymorphisme
im -> j : c = getCash
note right : selon Expert
im -> j : diminuerCash(min(200, 10% de c))
note right : selon Expert
@enduml

PlantUML version 1.2022.6(Tue Jun 21 17:34:49 UTC 2022)
(GPL source distribution)
Java Runtime: OpenJDK Runtime Environment
JVM: OpenJDK 64-Bit Server VM
Default Encoding: UTF-8
Language: en
Country: null
--></g></svg>