<?xml version="1.0" encoding="UTF-8" standalone="no"?><svg xmlns="http://www.w3.org/2000/svg" xmlns:xlink="http://www.w3.org/1999/xlink" contentStyleType="text/css" height="133px" preserveAspectRatio="none" style="width:358px;height:133px;background:#FFFFFF;" version="1.1" viewBox="0 0 358 133" width="358px" zoomAndPan="magnify"><defs/><g><line style="stroke:#181818;stroke-width:0.5;stroke-dasharray:5.0,5.0;" x1="102.5" x2="102.5" y1="36.2969" y2="126.5625"/><line style="stroke:#181818;stroke-width:0.5;stroke-dasharray:5.0,5.0;" x1="246" x2="246" y1="36.2969" y2="126.5625"/><rect fill="#E2E2F0" height="30.2969" rx="2.5" ry="2.5" style="stroke:#181818;stroke-width:0.5;" width="151" x="27.5" y="5"/><text fill="#000000" font-family="sans-serif" font-size="14" lengthAdjust="spacing" textLength="137" x="34.5" y="24.9951">: CaseAllezEnPrison</text><rect fill="#E2E2F0" height="30.2969" rx="2.5" ry="2.5" style="stroke:#181818;stroke-width:0.5;" width="74" x="209" y="5"/><text fill="#000000" font-family="sans-serif" font-size="14" lengthAdjust="spacing" textLength="60" x="216" y="24.9951">j : Joueur</text><polygon fill="#181818" points="91,66.4297,101,70.4297,91,74.4297" style="stroke:#181818;stroke-width:1.0;"/><line style="stroke:#181818;stroke-width:1.0;" x1="0" x2="97" y1="70.4297" y2="70.4297"/><text fill="#000000" font-family="sans-serif" font-size="13" lengthAdjust="spacing" textLength="79" x="7" y="65.3638">atterrirSur(j)</text><path d="M108,51.2969 L108,76.2969 L266,76.2969 L266,61.2969 L256,51.2969 L108,51.2969 " fill="#FEFFDD" style="stroke:#181818;stroke-width:0.5;"/><path d="M256,51.2969 L256,61.2969 L266,61.2969 L256,51.2969 " fill="#FEFFDD" style="stroke:#181818;stroke-width:0.5;"/><text fill="#000000" font-family="sans-serif" font-size="13" lengthAdjust="spacing" textLength="137" x="114" y="68.3638">selon Polymorphisme</text><polygon fill="#181818" points="234,101.5625,244,105.5625,234,109.5625" style="stroke:#181818;stroke-width:1.0;"/><line style="stroke:#181818;stroke-width:1.0;" x1="103" x2="240" y1="105.5625" y2="105.5625"/><text fill="#000000" font-family="sans-serif" font-size="13" lengthAdjust="spacing" textLength="119" x="110" y="100.4966">setPosition(prison)</text><path d="M251,86.4297 L251,111.4297 L351,111.4297 L351,96.4297 L341,86.4297 L251,86.4297 " fill="#FEFFDD" style="stroke:#181818;stroke-width:0.5;"/><path d="M341,86.4297 L341,96.4297 L351,96.4297 L341,86.4297 " fill="#FEFFDD" style="stroke:#181818;stroke-width:0.5;"/><text fill="#000000" font-family="sans-serif" font-size="13" lengthAdjust="spacing" textLength="79" x="257" y="103.4966">selon Expert</text><!--MD5=[dc486264517ce8cf71541d99a676766f]
@startuml
skinparam style strictuml
scale 1.0
participant ": CaseAllezEnPrison" as aep
participant "j : Joueur" as j
-> aep : atterrirSur(j)
note left: selon Polymorphisme
aep -> j : setPosition(prison)
note right : selon Expert
@enduml

PlantUML version 1.2022.6(Tue Jun 21 17:34:49 UTC 2022)
(GPL source distribution)
Java Runtime: OpenJDK Runtime Environment
JVM: OpenJDK 64-Bit Server VM
Default Encoding: UTF-8
Language: en
Country: null
--></g></svg>