<?xml version="1.0" encoding="UTF-8" standalone="no"?><svg xmlns="http://www.w3.org/2000/svg" xmlns:xlink="http://www.w3.org/1999/xlink" contentStyleType="text/css" height="423px" preserveAspectRatio="none" style="width:549px;height:423px;background:#00000000;" version="1.1" viewBox="0 0 549 423" width="549px" zoomAndPan="magnify"><defs/><g><ellipse cx="32" cy="16" fill="#222222" rx="10" ry="10" style="stroke:none;stroke-width:1.0;"/><rect fill="#F1F1F1" height="40" rx="12.5" ry="12.5" style="stroke:#181818;stroke-width:0.5;" width="50" x="7" y="232"/><text fill="#000000" font-family="sans-serif" font-size="14" lengthAdjust="spacing" textLength="40" x="12" y="256.8467">Inactif</text><path d="M234.5,87 L523,87 A12.5,12.5 0 0 1 535.5,99.5 L535.5,113.2969 L222,113.2969 L222,99.5 A12.5,12.5 0 0 1 234.5,87 " fill="#F1F1F1" style="stroke:#F1F1F1;stroke-width:1.0;"/><rect height="330.2969" rx="12.5" ry="12.5" style="stroke:#181818;stroke-width:0.5;fill:none;" width="313.5" x="222" y="87"/><line style="stroke:#181818;stroke-width:0.5;fill:none;" x1="222" x2="535.5" y1="113.2969" y2="113.2969"/><text fill="#000000" font-family="sans-serif" font-size="14" lengthAdjust="spacing" textLength="29" x="364.25" y="104.9951">Actif</text><ellipse cx="405.5" cy="134.2969" fill="#222222" rx="10" ry="10" style="stroke:none;stroke-width:1.0;"/><rect fill="#F1F1F1" height="40" rx="12.5" ry="12.5" style="stroke:#181818;stroke-width:0.5;" width="127" x="342" y="181.2969"/><text fill="#000000" font-family="sans-serif" font-size="14" lengthAdjust="spacing" textLength="117" x="347" y="206.1436">ÉmissionTonalité</text><rect fill="#F1F1F1" height="40" rx="12.5" ry="12.5" style="stroke:#181818;stroke-width:0.5;" width="104" x="353.5" y="274.2969"/><text fill="#000000" font-family="sans-serif" font-size="14" lengthAdjust="spacing" textLength="94" x="358.5" y="299.1436">Numérotation</text><rect fill="#F1F1F1" height="40" rx="12.5" ry="12.5" style="stroke:#181818;stroke-width:0.5;" width="84" x="284.5" y="367.2969"/><text fill="#000000" font-family="sans-serif" font-size="14" lengthAdjust="spacing" textLength="74" x="289.5" y="392.1436">Connexion</text><rect fill="#F1F1F1" height="40" rx="12.5" ry="12.5" style="stroke:#181818;stroke-width:0.5;" width="101" x="234" y="274.2969"/><text fill="#000000" font-family="sans-serif" font-size="14" lengthAdjust="spacing" textLength="91" x="239" y="299.1436">Conversation</text><!--MD5=[b9f85486b19284de941aeb7c86ce9de7]
link *start*Actif to ÉmissionTonalité--><g id="link_*start*Actif_ÉmissionTonalité"><path d="M405.5,144.3369 C405.5,152.4869 405.5,164.8569 405.5,175.8969 " fill="none" id="*start*Actif-to-ÉmissionTonalité" style="stroke:#181818;stroke-width:1.0;"/><polygon fill="#181818" points="405.5,181.1869,409.5,172.1869,405.5,176.1869,401.5,172.1869,405.5,181.1869" style="stroke:#181818;stroke-width:1.0;"/></g><!--MD5=[acbac6d036b73b2f02e0ae6cfbce441b]
link ÉmissionTonalité to Numérotation--><g id="link_ÉmissionTonalité_Numérotation"><path d="M405.5,221.5969 C405.5,235.3469 405.5,253.9469 405.5,268.7569 " fill="none" id="ÉmissionTonalité-to-Numérotation" style="stroke:#181818;stroke-width:1.0;"/><polygon fill="#181818" points="405.5,274.0269,409.5,265.0269,405.5,269.0269,401.5,265.0269,405.5,274.0269" style="stroke:#181818;stroke-width:1.0;"/><text fill="#000000" font-family="sans-serif" font-size="13" lengthAdjust="spacing" textLength="39" x="406.5" y="252.3638">chiffre</text></g><!--MD5=[5e1ee4bac5ee5f5694dc3a74d4efa1e7]
link Numérotation to Connexion--><g id="link_Numérotation_Connexion"><path d="M392.12,314.3369 C384.41,324.9269 374.32,338.1869 364.5,349.2969 C360.31,354.0369 355.62,358.9069 351.02,363.4769 " fill="none" id="Numérotation-to-Connexion" style="stroke:#181818;stroke-width:1.0;"/><polygon fill="#181818" points="347.18,367.2469,356.4076,363.8044,350.7511,363.7472,350.8082,358.0907,347.18,367.2469" style="stroke:#181818;stroke-width:1.0;"/><text fill="#000000" font-family="sans-serif" font-size="13" lengthAdjust="spacing" textLength="50" x="378.5" y="345.3638">terminé</text></g><!--MD5=[316bc6b0eef654ea28480b31466ba288]
link Numérotation to Numérotation--><g id="link_Numérotation_Numérotation"><path d="M457.7,286.0269 C468.09,286.9569 475.5,289.7169 475.5,294.2969 C475.5,298.0869 470.42,300.6369 462.77,301.9269 " fill="none" id="Numérotation-to-Numérotation" style="stroke:#181818;stroke-width:1.0;"/><polygon fill="#181818" points="457.7,302.5669,467.1317,305.403,462.6603,301.9379,466.1253,297.4665,457.7,302.5669" style="stroke:#181818;stroke-width:1.0;"/><text fill="#000000" font-family="sans-serif" font-size="13" lengthAdjust="spacing" textLength="39" x="481.5" y="298.8638">chiffre</text></g><!--MD5=[9d79d2dc66b9c5518c5b8f506ac51d4e]
reverse link Conversation to Connexion--><g id="link_Conversation_Connexion"><path d="M291.69,319.2869 C294.87,328.8169 298.92,339.7569 303.5,349.2969 C306.38,355.2969 310,361.5469 313.5,367.1569 " fill="none" id="Conversation-backto-Connexion" style="stroke:#181818;stroke-width:1.0;"/><polygon fill="#181818" points="290.11,314.4469,289.1082,324.2447,291.6654,319.1988,296.7113,321.756,290.11,314.4469" style="stroke:#181818;stroke-width:1.0;"/><text fill="#000000" font-family="sans-serif" font-size="13" lengthAdjust="spacing" textLength="59" x="304.5" y="345.3638">connecté</text></g><!--MD5=[ad21a0b369ff78cf72d16255db6a3eb3]
link *start to Inactif--><g id="link_*start_Inactif"><path d="M32,26.17 C32,59.67 32,176.06 32,226.91 " fill="none" id="*start-to-Inactif" style="stroke:#181818;stroke-width:1.0;"/><polygon fill="#181818" points="32,231.91,36,222.91,32,226.91,28,222.91,32,231.91" style="stroke:#181818;stroke-width:1.0;"/></g><!--MD5=[50490104954312acf7906c38a5b4ba3f]
link Inactif to Actif--><g id="link_Inactif_Actif"><path d="M57.23,252 C91.29,252 154.82,252 216.5,252 " fill="none" id="Inactif-to-Actif" style="stroke:#181818;stroke-width:1.0;"/><polygon fill="#181818" points="221.69,252,212.69,248,216.69,252,212.69,256,221.69,252" style="stroke:#181818;stroke-width:1.0;"/><text fill="#000000" font-family="sans-serif" font-size="13" lengthAdjust="spacing" textLength="124" x="75.5" y="230.0669">décrocher / tonalité</text><text fill="#000000" font-family="sans-serif" font-size="13" lengthAdjust="spacing" textLength="99" x="92" y="245.1997">[abonné valide]</text></g><!--MD5=[a5e14a1594c6945bdbd03e2702af3155]
link Actif to Inactif--><g id="link_Actif_Inactif"><path d="M221.88,274.63 C183.39,277.1 142.38,277.13 104.5,272 C90.34,270.08 75.03,266.15 62.15,262.27 " fill="none" id="Actif-to-Inactif" style="stroke:#181818;stroke-width:1.0;"/><polygon fill="#181818" points="57.15,260.74,64.577,267.2083,61.9292,262.2094,66.9281,259.5616,57.15,260.74" style="stroke:#181818;stroke-width:1.0;"/><text fill="#000000" font-family="sans-serif" font-size="13" lengthAdjust="spacing" textLength="68" x="105.5" y="268.0669">raccrocher</text></g><!--MD5=[24c9b8754c8682a18c57516798f0c032]
@startuml
skinparam style strictuml
skinparam backgroundcolor transparent
skinparam DefaultTextAlignment center
hide empty description
[*] - -> Inactif
Inactif -> Actif : décrocher / tonalité \n [abonné valide]
Actif -> Inactif : raccrocher
state Actif {
[*] - -> ÉmissionTonalité
ÉmissionTonalité - -> Numérotation : chiffre
Numérotation - -> Connexion: terminé
Numérotation - -> Numérotation : chiffre
Connexion -u-> Conversation : connecté
}
@enduml

PlantUML version 1.2022.6(Tue Jun 21 17:34:49 UTC 2022)
(GPL source distribution)
Java Runtime: OpenJDK Runtime Environment
JVM: OpenJDK 64-Bit Server VM
Default Encoding: UTF-8
Language: en
Country: null
--></g></svg>