<?xml version="1.0" encoding="UTF-8" standalone="no"?><svg xmlns="http://www.w3.org/2000/svg" xmlns:xlink="http://www.w3.org/1999/xlink" contentStyleType="text/css" height="549.9px" preserveAspectRatio="none" style="width:877px;height:549px;background:#00000000;" version="1.1" viewBox="0 0 877 549" width="877.5px" zoomAndPan="magnify"><defs/><g><polygon fill="#DDFFDD" points="81.9,7.8,81.9,8.0732,94.8797,7.2614,107.8594,8.0513,120.8391,8.3196,133.8188,6.8726,146.7984,7.699,159.7781,7.2456,172.7578,7.3015,185.7375,7.7114,198.7172,6.9012,211.6969,8.5197,224.6766,6.9806,237.6563,7.5429,250.6359,8.3615,263.6156,7.6885,276.5953,7.8887,289.575,7.7585,302.5547,8.0321,315.5344,8.1109,328.5141,8.5614,341.4938,8.6724,354.4734,8.683,367.4531,8.131,380.4328,8.4027,393.4125,8.7129,406.3922,6.8625,419.3719,8.6821,432.3516,7.4145,445.3313,8.494,458.3109,7.1565,471.2906,7.711,484.2703,8.7641,497.25,7.8,497.1866,7.8,497.3869,20.9595,497.6902,34.119,497.7911,47.2785,497.2449,60.438,497.6234,73.5975,496.5059,86.757,497.6197,99.9164,497.9627,113.0759,497.8279,126.2354,498.0469,139.3949,496.622,152.5544,496.4022,165.7139,496.4422,178.8734,497.1735,192.0329,496.9945,205.1924,498.1358,218.3519,497.0229,231.5114,496.804,244.6709,497.5467,257.8304,496.3831,270.9899,496.5751,284.1493,498.0936,297.3088,497.8164,310.4683,498.2048,323.6278,496.8317,336.7873,497.665,349.9468,498.0175,363.1063,496.6359,376.2658,497.1254,389.4253,497.4138,402.5848,498.0973,415.7443,497.2446,428.9038,497.8513,442.0633,496.5301,455.2228,496.3696,468.3822,497.9047,481.5417,496.318,494.7012,497.9117,507.8607,497.5186,521.0202,497.25,534.1797,497.25,533.8314,484.2703,533.7198,471.2906,534.7761,458.3109,533.7906,445.3313,534.9491,432.3516,533.4611,419.3719,534.9824,406.3922,534.8093,393.4125,534.4982,380.4328,534.2411,367.4531,535.1243,354.4734,534.9774,341.4938,534.3997,328.5141,534.5284,315.5344,534.0104,302.5547,535.1111,289.575,534.381,276.5953,534.4041,263.6156,533.3889,250.6359,533.6529,237.6563,534.8697,224.6766,534.7384,211.6969,534.1239,198.7172,533.7609,185.7375,533.8951,172.7578,533.2877,159.7781,534.7189,146.7984,535.1411,133.8188,534.864,120.8391,535.0831,107.8594,534.002,94.8797,534.2931,81.9,534.1797,81.3961,534.1797,82.2693,521.0202,82.2208,507.8607,82.6181,494.7012,81.6014,481.5417,81.7253,468.3822,82.4765,455.2228,82.6375,442.0633,81.2337,428.9038,81.648,415.7443,82.094,402.5848,81.1059,389.4253,82.3594,376.2658,82.2354,363.1063,81.769,349.9468,82.0849,336.7873,82.8473,323.6278,81.4933,310.4683,82.3095,297.3088,82.2713,284.1493,82.0505,270.9899,82.0832,257.8304,82.0475,244.6709,81.0886,231.5114,81.3789,218.3519,81.3,205.1924,81.983,192.0329,82.0146,178.8734,82.1103,165.7139,81.5217,152.5544,81.8122,139.3949,81.7437,126.2354,82.6499,113.0759,82.4545,99.9164,81.2688,86.757,81.8052,73.5975,81.1496,60.438,82.2749,47.2785,82.691,34.119,82.6079,20.9595,81.9,7.8" style="stroke:#00000000;stroke-width:0.65;"/><text fill="#000000" font-family="xkcd Script" font-size="16.9" font-weight="bold" lengthAdjust="spacing" textLength="161.8906" x="208.6297" y="26.2203">Couche présentation</text><polygon fill="#DDDDFF" points="568.5063,7.8,568.5063,8.0732,581.5682,7.2614,594.6301,8.0513,607.692,8.3196,620.7539,6.8726,633.8158,7.699,646.8777,7.2456,659.9396,7.3015,673.0015,7.7114,686.0634,6.9012,699.1253,8.5197,712.1872,6.9806,725.2491,7.5429,738.311,8.3615,751.3729,7.6885,764.4348,7.8887,777.4967,7.7585,790.5586,8.0321,803.6205,8.1109,816.6824,8.5614,829.7443,8.6724,842.8063,7.8,843.6893,7.8,843.1373,20.9595,843.4089,34.119,843.7192,47.2785,841.8687,60.438,843.6883,73.5975,842.4208,86.757,843.5002,99.9164,842.1627,113.0759,842.7172,126.2354,843.7703,139.3949,842.7429,152.5544,842.9431,165.7139,843.2465,178.8734,843.3474,192.0329,842.8012,205.1924,843.1796,218.3519,842.0621,231.5114,843.176,244.6709,843.5189,257.8304,843.3841,270.9899,843.6032,284.1493,842.1782,297.3088,841.9584,310.4683,841.9984,323.6278,842.7297,336.7873,842.5508,349.9468,843.6921,363.1063,842.5792,376.2658,842.3603,389.4253,843.103,402.5848,841.9394,415.7443,842.1314,428.9038,843.6499,442.0633,843.3726,455.2228,843.7611,468.3822,842.3879,481.5417,843.2212,494.7012,843.5738,507.8607,842.1921,521.0202,842.8063,534.1797,842.8063,534.0551,829.7443,534.3435,816.6824,535.027,803.6205,534.1743,790.5586,534.781,777.4967,533.4598,764.4348,533.2993,751.3729,534.8344,738.311,533.2477,725.2491,534.8414,712.1872,534.4483,699.1253,533.8314,686.0634,533.7198,673.0015,534.7761,659.9396,533.7906,646.8777,534.9491,633.8158,533.4611,620.7539,534.9824,607.692,534.8093,594.6301,534.4982,581.5682,534.2411,568.5063,534.1797,569.4508,534.1797,569.3039,521.0202,568.7263,507.8607,568.8549,494.7012,568.3369,481.5417,569.4376,468.3822,568.7076,455.2228,568.7306,442.0633,567.7154,428.9038,567.9795,415.7443,569.1962,402.5848,569.0649,389.4253,568.4504,376.2658,568.0874,363.1063,568.2216,349.9468,567.6142,336.7873,569.0454,323.6278,569.4677,310.4683,569.1906,297.3088,569.4097,284.1493,568.3285,270.9899,568.6196,257.8304,568.0024,244.6709,568.8755,231.5114,568.827,218.3519,569.2244,205.1924,568.2077,192.0329,568.3315,178.8734,569.0827,165.7139,569.2438,152.5544,567.84,139.3949,568.2542,126.2354,568.7003,113.0759,567.7122,99.9164,568.9657,86.757,568.8416,73.5975,568.3753,60.438,568.6912,47.2785,569.4535,34.119,568.0995,20.9595,568.5063,7.8" style="stroke:#00000000;stroke-width:0.65;"/><text fill="#000000" font-family="xkcd Script" font-size="16.9" font-weight="bold" lengthAdjust="spacing" textLength="120.0266" x="645.643" y="26.2203">Couche domaine</text><path d="M40.3,109.78 L40.6643,109.78 L39.5818,122.8769 L40.635,135.9739 L40.9928,149.0709 L39.0634,162.1678 L40.1653,175.2648 L39.5607,188.3618 L39.6353,201.4587 L40.1819,214.5557 L39.1016,227.6526 L41.2596,240.7496 L39.2075,253.8466 L39.9572,266.9435 L41.0487,280.0405 L40.1513,293.1374 L40.4183,306.2344 L40.2446,319.3314 L40.6094,332.4283 L40.7145,345.5253 L41.3152,358.6222 L41.4632,371.7192 L41.4774,384.8162 L40.7414,397.9131 L41.1035,411.0101 L41.5172,424.1071 L39.0499,437.204 L41.4761,450.301 L39.7861,463.3979 L41.2253,476.4949 L39.442,489.5919 L40.1813,502.6888 L41.5854,515.7858 L40.2155,528.8827 L40.3,541.9797 " fill="none" style="stroke:#181818;stroke-width:0.65;stroke-dasharray:5.0,5.0;"/><path d="M175.5,109.78 L175.8643,109.78 L174.7818,122.8769 L175.835,135.9739 L176.1928,149.0709 L174.2634,162.1678 L175.3653,175.2648 L174.7607,188.3618 L174.8353,201.4587 L175.3819,214.5557 L174.3016,227.6526 L176.4596,240.7496 L174.4075,253.8466 L175.1572,266.9435 L176.2487,280.0405 L175.3513,293.1374 L175.6183,306.2344 L175.4446,319.3314 L175.8094,332.4283 L175.9145,345.5253 L176.5152,358.6222 L176.6632,371.7192 L176.6774,384.8162 L175.9414,397.9131 L176.3035,411.0101 L176.7172,424.1071 L174.2499,437.204 L176.6761,450.301 L174.9861,463.3979 L176.4253,476.4949 L174.642,489.5919 L175.3813,502.6888 L176.7854,515.7858 L175.4155,528.8827 L175.5,541.9797 " fill="none" style="stroke:#181818;stroke-width:0.65;stroke-dasharray:5.0,5.0;"/><path d="M411.45,109.78 L411.8143,109.78 L410.7318,122.8769 L411.785,135.9739 L412.1428,149.0709 L410.2134,162.1678 L411.3153,175.2648 L410.7107,188.3618 L410.7853,201.4587 L411.3319,214.5557 L410.2516,227.6526 L412.4096,240.7496 L410.3575,253.8466 L411.1072,266.9435 L412.1987,280.0405 L411.3013,293.1374 L411.5683,306.2344 L411.3946,319.3314 L411.7594,332.4283 L411.8645,345.5253 L412.4652,358.6222 L412.6132,371.7192 L412.6274,384.8162 L411.8914,397.9131 L412.2535,411.0101 L412.6672,424.1071 L410.1999,437.204 L412.6261,450.301 L410.9361,463.3979 L412.3753,476.4949 L410.592,489.5919 L411.3313,502.6888 L412.7354,515.7858 L411.3655,528.8827 L411.45,541.9797 " fill="none" style="stroke:#181818;stroke-width:0.65;stroke-dasharray:5.0,5.0;"/><path d="M671.2063,109.78 L671.5706,109.78 L670.4881,122.8769 L671.5413,135.9739 L671.899,149.0709 L669.9697,162.1678 L671.0715,175.2648 L670.467,188.3618 L670.5415,201.4587 L671.0881,214.5557 L670.0079,227.6526 L672.1659,240.7496 L670.1138,253.8466 L670.8635,266.9435 L671.955,280.0405 L671.0576,293.1374 L671.3245,306.2344 L671.1509,319.3314 L671.5157,332.4283 L671.6207,345.5253 L672.2214,358.6222 L672.3694,371.7192 L672.3836,384.8162 L671.6476,397.9131 L672.0098,411.0101 L672.4235,424.1071 L669.9562,437.204 L672.3823,450.301 L670.6923,463.3979 L672.1315,476.4949 L670.3482,489.5919 L671.0875,502.6888 L672.4917,515.7858 L671.1218,528.8827 L671.2063,541.9797 " fill="none" style="stroke:#181818;stroke-width:0.65;stroke-dasharray:5.0,5.0;"/><path d="M809.0063,109.78 L809.3706,109.78 L808.2881,122.8769 L809.3413,135.9739 L809.699,149.0709 L807.7697,162.1678 L808.8715,175.2648 L808.267,188.3618 L808.3415,201.4587 L808.8881,214.5557 L807.8079,227.6526 L809.9659,240.7496 L807.9138,253.8466 L808.6635,266.9435 L809.755,280.0405 L808.8576,293.1374 L809.1245,306.2344 L808.9509,319.3314 L809.3157,332.4283 L809.4207,345.5253 L810.0214,358.6222 L810.1694,371.7192 L810.1836,384.8162 L809.4476,397.9131 L809.8098,411.0101 L810.2235,424.1071 L807.7562,437.204 L810.1823,450.301 L808.4923,463.3979 L809.9315,476.4949 L808.1482,489.5919 L808.8875,502.6888 L810.2917,515.7858 L808.9218,528.8827 L809.0063,541.9797 " fill="none" style="stroke:#181818;stroke-width:0.65;stroke-dasharray:5.0,5.0;"/><text fill="#000000" font-family="xkcd Script" font-size="18.2" lengthAdjust="spacing" textLength="59.8" x="6.5" y="104.337">:Joueur</text><polygon fill="#E2E2F0" points="50.7575,20.0797,49.233,22.1627,47.4299,25.2136,44.8511,27.2696,42.1412,28.394,39.9804,28.4916,37.2033,27.0854,34.583,26.1668,32.5941,24.3017,31.5508,22.1664,30.9321,20.4663,30.326,18.2456,29.3422,16.3346,30.0982,14.4688,30.7606,12.4249,33.2462,10.8084,34.995,8.711,37.1596,8.0146,39.7328,7.4148,43.0327,7.7711,44.8401,8.6235,46.9415,9.0099,49.4966,11.6277,50.3873,14.3912,50.7743,16.2768,50.336,19.3841" style="stroke:#181818;stroke-width:0.65;"/><path d="M40.3,27.95 L40.5429,27.95 L39.8212,34.97 L40.5234,41.99 L40.7619,49.01 L39.4756,56.03 L40.3,63.05 M23.4,38.35 L23.4,38.2602 L30.16,37.8572 L36.92,37.9068 L43.68,38.2712 L50.44,37.5511 L57.2,38.35 M40.3,63.05 L40.7835,63.469 L36.3696,66.473 L33.3673,70.7003 L30.5372,75.0769 L26.7051,78.5851 L23.4,82.55 M40.3,63.05 L40.3596,63.1016 L43.6521,66.9258 L47.2159,70.9851 L50.6488,74.931 L54.3314,79.0933 L57.2,82.55 " fill="none" style="stroke:#181818;stroke-width:0.65;"/><polygon fill="#E2E2F0" points="103.35,39.72,103.35,39.9933,116.5864,39.1814,129.8227,39.9713,143.0591,40.2396,156.2955,38.7926,169.5318,39.619,182.7682,39.1656,196.0045,39.2215,209.2409,39.6314,222.4773,38.8212,235.7136,40.4398,248.95,39.72,248.8455,39.4677,249.3768,39.8312,249.9409,40.2737,250.3146,40.2568,250.7998,40.5089,251.2481,40.6719,251.2353,40.6666,251.51,41.1611,251.7246,41.6308,252.0537,42.1479,252.2783,42.6217,252.2,42.97,253.083,42.97,252.531,55.422,252.8027,67.874,253.1129,80.326,251.2625,92.778,252.2,105.23,252.4716,105.3425,251.8909,105.6404,252.0329,106.2377,251.4307,106.5268,251.4111,107.0571,251.2481,107.5281,251.3711,107.825,250.7804,107.6989,250.3463,107.951,249.9254,108.2348,249.4786,108.4562,248.95,108.48,248.95,108.4749,235.7136,108.8534,222.4773,107.7358,209.2409,108.8497,196.0045,109.1926,182.7682,109.0579,169.5318,109.2769,156.2955,107.852,143.0591,107.6321,129.8227,107.6722,116.5864,108.4034,103.35,108.48,103.3174,108.4013,103.0034,108.5624,102.4018,108.0293,101.9143,107.7715,101.5494,107.8098,101.0519,107.5281,100.7849,107.4175,100.6537,106.9824,100.9309,106.7165,100.6552,106.2215,100.5844,105.8114,100.1,105.23,99.6817,105.23,100.515,92.778,100.8675,80.326,99.4859,67.874,99.9754,55.422,100.1,42.97,100.1504,42.9909,100.5513,42.6185,100.4791,42.0501,100.8563,41.6679,100.6398,41.0397,101.0519,40.6719,100.9396,40.4008,101.595,40.6832,101.8523,40.0041,102.5152,40.3045,102.9246,39.9931,103.35,39.72" style="stroke:#181818;stroke-width:0.65;"/><text fill="#000000" font-family="xkcd Script" font-size="18.2" font-style="italic" lengthAdjust="spacing" textLength="133.9" x="109.2" y="68.657">«NavigateurWeb»</text><text fill="#000000" font-family="xkcd Script" font-size="18.2" lengthAdjust="spacing" textLength="54.6" x="148.85" y="93.937">:Button</text><polygon fill="#E2E2F0" points="347.1,39.72,347.1,39.9933,359.97,39.1814,372.84,39.9713,385.71,40.2396,398.58,38.7926,411.45,39.619,424.32,39.1656,437.19,39.2215,450.06,39.6314,462.93,38.8212,475.8,39.72,475.8918,39.9417,476.1551,39.6581,476.6864,40.0216,477.2505,40.4641,477.6243,40.4472,478.0981,40.6719,478.1254,40.6832,478.2757,41.1262,478.5503,41.6208,478.765,42.0904,479.0941,42.6075,479.05,42.97,479.9224,42.97,479.933,55.422,479.381,67.874,479.6527,80.326,479.9629,92.778,479.05,105.23,478.7613,105.1104,479.1313,105.8021,478.5505,106.1001,478.6926,106.6974,478.0903,106.9864,478.0981,107.5281,478.0867,107.5007,477.7615,108.0154,477.1708,107.8893,476.7367,108.1414,476.3158,108.4252,475.8,108.48,475.8,109.0211,462.93,108.4749,450.06,108.8534,437.19,107.7358,424.32,108.8497,411.45,109.1926,398.58,109.0579,385.71,109.2769,372.84,107.852,359.97,107.6321,347.1,108.48,346.997,108.2312,346.6306,108.266,346.1482,108.0205,345.8341,108.1816,345.2326,107.6485,344.8019,107.5281,344.6646,107.4712,344.7029,107.1063,344.1542,106.4983,344.0229,106.0631,344.3002,105.7972,343.85,105.23,344.4164,105.23,344.8048,92.778,343.4317,80.326,344.265,67.874,344.6175,55.422,343.85,42.97,343.6609,42.8917,344.002,42.4945,344.2812,42.0717,344.6821,41.6992,344.6098,41.1308,344.8019,40.6719,344.8786,40.8571,345.1697,40.2598,345.6088,40.02,346.2643,40.3024,346.5215,39.6234,347.1,39.72" style="stroke:#181818;stroke-width:0.65;"/><text fill="#000000" font-family="xkcd Script" font-size="18.2" font-style="italic" lengthAdjust="spacing" textLength="117" x="352.95" y="68.657">«NodeExpress»</text><text fill="#000000" font-family="xkcd Script" font-size="18.2" lengthAdjust="spacing" textLength="66.3" x="378.3" y="93.937">:Routeur</text><polygon fill="#E2E2F0" points="589.9563,39.72,589.9563,39.9933,602.4563,39.1814,614.9563,39.9713,627.4563,40.2396,639.9563,38.7926,652.4563,39.619,664.9563,39.1656,677.4563,39.2215,689.9563,39.6314,702.4563,38.8212,714.9563,40.4398,727.4563,38.9007,739.9563,39.4629,752.4563,39.72,752.5279,39.8929,752.9016,39.8761,753.3868,40.1281,753.8298,40.2784,754.3243,40.553,754.7543,40.6719,754.8501,40.7116,755.1792,41.2287,755.4038,41.7024,755.5974,42.1634,755.6178,42.5526,755.7063,42.97,756.3089,42.97,756.6192,55.422,754.7687,67.874,756.5883,80.326,755.3208,92.778,755.7063,105.23,755.92,105.3185,755.3177,105.6075,755.2981,106.1379,755.432,106.7318,754.9252,107.0604,754.7543,107.5281,754.7718,107.5702,754.3509,107.854,753.9041,108.0755,753.3748,108.0977,752.9635,108.4046,752.4563,108.48,752.4563,107.7358,739.9563,108.8497,727.4563,109.1926,714.9563,109.0579,702.4563,109.2769,689.9563,107.852,677.4563,107.6321,664.9563,107.6722,652.4563,108.4034,639.9563,108.2245,627.4563,109.3658,614.9563,108.2529,602.4563,108.034,589.9563,108.48,589.9941,108.5714,589.386,108.0226,588.9509,107.8914,588.685,108.1686,588.19,107.8929,587.6582,107.5281,587.9522,107.6499,587.3389,107.0151,587.4052,106.6618,587.3234,106.2471,586.7075,105.6113,586.7063,105.23,586.5816,105.23,586.87,92.778,587.5535,80.326,586.7008,67.874,587.3076,55.422,586.7063,42.97,586.4845,42.8782,586.6255,42.3981,587.2886,42.1343,586.9904,41.4723,587.6715,41.2159,587.6582,40.6719,587.6924,40.7546,588.0733,40.3743,588.5187,40.1495,589.1131,40.2844,589.447,39.7906,589.9563,39.72" style="stroke:#181818;stroke-width:0.65;"/><text fill="#000000" font-family="xkcd Script" font-size="18.2" font-style="italic" lengthAdjust="spacing" textLength="150.8" x="595.8063" y="68.657">«ContrôleurGRASP»</text><text fill="#000000" font-family="xkcd Script" font-size="18.2" lengthAdjust="spacing" textLength="63.7" x="639.3563" y="93.937">:JeuRisk</text><polygon fill="#E2E2F0" points="797.9563,65,797.9563,65.0911,802.6363,64.8205,807.3163,65.0838,811.9962,65.1732,816.6763,64.6909,821.3563,65,821.3434,64.9689,821.7451,65.0196,822.2119,65.2272,822.7238,65.5439,823.0801,65.4847,823.6543,65.9519,823.876,66.0437,823.5924,66.307,823.9559,66.8383,824.3984,67.4024,824.3815,67.7762,824.6063,68.25,824.6358,68.25,824.5924,75.646,824.6836,83.042,824.7099,90.438,824.86,97.834,824.6063,105.23,824.8749,105.3413,824.6878,105.8022,824.3274,106.1914,824.2207,106.6857,824.1259,107.1849,823.6543,107.5281,823.5348,107.2394,823.3072,107.9901,822.6859,107.7901,822.364,108.3129,821.7338,108.0914,821.3563,108.48,821.3563,108.4503,816.6763,108.8013,811.9962,108.4589,807.3163,108.5256,802.6363,108.6267,797.9563,108.48,798.0253,108.6466,797.496,108.288,797.0846,108.2142,796.4825,107.6797,796.1649,107.8323,795.6582,107.5281,795.8776,107.619,795.6457,107.1422,795.5228,106.7105,794.8936,106.0691,794.6355,105.5815,794.7063,105.23,794.437,105.23,794.6807,97.834,794.6211,90.438,795.0015,83.042,794.6306,75.646,794.7063,68.25,794.5689,68.1931,794.988,67.8282,794.82,67.2202,795.0696,66.7851,795.7276,66.5191,795.6582,65.9519,795.7304,66.1263,796.2396,66.0556,796.524,65.4423,797.0899,65.5086,797.5945,65.4268,797.9563,65" style="stroke:#181818;stroke-width:0.65;"/><text fill="#000000" font-family="xkcd Script" font-size="18.2" lengthAdjust="spacing" textLength="11.7" x="803.8063" y="93.937">...</text><polygon fill="#181818" points="160.55,148.8546,160.5838,148.9391,163.0833,149.7279,165.7811,151.0123,168.4143,152.1354,170.8352,152.7275,173.55,154.0546,173.5375,154.0233,170.8814,154.923,168.2883,155.9803,165.739,157.1471,163.0387,157.9364,160.55,159.2546,160.7899,159.2546,160.2769,157.1746,160.4643,155.0946,160.7372,153.0146,160.5128,150.9346,160.55,148.8546" style="stroke:#181818;stroke-width:1.3;"/><path d="M40.3,154.0546 L40.3,154.4189 L53.105,153.3364 L65.91,154.3896 L78.715,154.7473 L91.52,152.818 L104.325,153.9199 L117.13,153.3153 L129.935,153.3898 L142.74,153.9364 L155.545,152.8562 L168.35,154.0546 " fill="none" style="stroke:#181818;stroke-width:1.3;"/><text fill="#000000" font-family="xkcd Script" font-size="16.9" lengthAdjust="spacing" textLength="49.4" x="83.525" y="146.4003">cliquer</text><path d="M408.85,219.2037 L408.8951,219.3165 L406.1611,217.9415 L403.6915,217.2274 L401.1358,216.2981 L398.2969,214.661 L395.85,214.0037 " fill="none" style="stroke:#181818;stroke-width:1.3;"/><path d="M408.85,219.2037 L408.8951,219.3165 L406.1611,220.0215 L403.6915,221.3874 L401.1358,222.5381 L398.2969,222.981 L395.85,224.4037 " fill="none" style="stroke:#181818;stroke-width:1.3;"/><path d="M176.15,219.2037 L176.15,219.5681 L189.15,218.4856 L202.15,219.5388 L215.15,219.8965 L228.15,217.9672 L241.15,219.069 L254.15,218.4645 L267.15,218.539 L280.15,219.0856 L293.15,218.0054 L306.15,220.1634 L319.15,218.1113 L332.15,218.8609 L345.15,219.9524 L358.15,219.0551 L371.15,219.322 L384.15,219.1484 L397.15,219.5132 L410.15,219.2037 " fill="none" style="stroke:#181818;stroke-width:1.3;"/><text fill="#000000" font-family="xkcd Script" font-size="16.9" lengthAdjust="spacing" textLength="68.9" x="259.35" y="188.0749">HTTP GET</text><text fill="#000000" font-family="xkcd Script" font-size="16.9" lengthAdjust="spacing" textLength="204.1" x="191.75" y="211.5495">/api/v1/démarrerAttaque/...</text><path d="M308.1,236.1037 L308.3429,236.1037 L307.6212,243.3837 L308.3234,250.6637 L308.5619,257.9437 L307.2756,265.2237 L308.1,272.5037 L308.1,272.2343 L321.0188,271.0252 L333.9375,271.1743 L346.8563,272.2675 L359.775,270.107 L372.6938,274.423 L385.6125,270.3188 L398.5313,271.8181 L411.45,274.0012 L424.3688,272.2064 L437.2875,272.7403 L450.2063,272.393 L463.125,273.1226 L476.0438,273.3327 L488.9625,274.5341 L501.8813,274.8301 L514.8,272.5037 L515.5849,272.5037 L515.0942,267.8237 L515.3357,263.1437 L515.6115,258.4637 L513.9666,253.7837 L514.8,249.1037 L515.3544,249.6581 L511.9577,246.2615 L510.0362,244.3399 L506.5955,240.8993 L504.344,238.6478 L501.8,236.1037 L501.8,238.6746 L488.8867,235.9348 L475.9733,236.4688 L463.06,237.2776 L450.1467,237.5467 L437.2333,236.0902 L424.32,237.0994 L411.4067,234.1194 L398.4933,237.0896 L385.58,238.0041 L372.6667,237.6448 L359.7533,238.2289 L346.84,234.4291 L333.9267,233.8428 L321.0133,233.9495 L308.1,236.1037 " fill="#FEFFDD" style="stroke:#181818;stroke-width:0.65;"/><path d="M501.8,236.1037 L501.732,236.1037 L501.5729,238.7037 L502.5874,241.3037 L501.5982,243.9037 L501.4036,246.5037 L501.8,249.1037 L501.8,249.3675 L504.4,248.3332 L507,248.5039 L509.6,249.8536 L512.2,249.6072 L514.8,249.1037 L515.4002,249.7039 L511.9371,246.2408 L509.8608,244.1646 L507.4824,241.7862 L504.014,238.3177 L501.8,236.1037 " fill="#FEFFDD" style="stroke:#181818;stroke-width:0.65;"/><text fill="#000000" font-family="xkcd Script" font-size="16.9" lengthAdjust="spacing" textLength="179.4" x="315.9" y="261.0241">Router handler (Express)</text><path d="M411.45,310.3529 L411.45,310.4743 L422.37,310.1135 L433.29,310.4646 L444.21,310.5838 L455.13,309.9407 L466.05,310.3529 " fill="none" style="stroke:#181818;stroke-width:1.3;"/><path d="M466.05,310.3529 L466.1714,310.3529 L465.8106,313.7329 L466.1617,317.1129 L466.2809,320.4929 L465.6378,323.8729 L466.05,327.2529 " fill="none" style="stroke:#181818;stroke-width:1.3;"/><path d="M412.75,327.2529 L412.75,327.3743 L423.41,327.0135 L434.07,327.3646 L444.73,327.4838 L455.39,326.8407 L466.05,327.2529 " fill="none" style="stroke:#181818;stroke-width:1.3;"/><path d="M412.75,327.2529 L412.7951,327.3657 L415.2611,325.9906 L417.9915,325.2766 L420.6358,324.3473 L422.9969,322.7102 L425.75,322.0529 " fill="none" style="stroke:#181818;stroke-width:1.3;"/><path d="M412.75,327.2529 L412.7951,327.3657 L415.2611,328.0706 L417.9915,329.4366 L420.6358,330.5873 L422.9969,331.0302 L425.75,332.4529 " fill="none" style="stroke:#181818;stroke-width:1.3;"/><text fill="#000000" font-family="xkcd Script" font-size="16.9" lengthAdjust="spacing" textLength="127.4" x="420.55" y="302.6987">demarrerAttaque</text><path d="M325,344.1529 L325.2429,344.1529 L324.5212,351.4329 L325.2234,358.7129 L325.4619,365.9929 L324.1756,373.2729 L325,380.5529 L325,380.2835 L338.0394,379.0744 L351.0788,379.2234 L364.1182,380.3166 L377.1576,378.1562 L390.197,382.4722 L403.2364,378.3679 L416.2758,379.8673 L429.3152,382.0503 L442.3545,380.2555 L455.3939,380.7895 L468.4333,380.4422 L481.4727,381.1718 L494.5121,381.3819 L507.5515,382.5833 L520.5909,382.8792 L533.6303,382.9077 L546.6697,381.4356 L559.7091,382.16 L572.7485,382.9873 L585.7879,378.0528 L598.8273,382.9051 L611.8667,379.525 L624.9061,382.4035 L637.9455,378.8368 L650.9848,380.3154 L664.0242,383.1238 L677.0636,380.384 L690.103,380.918 L703.1424,381.7268 L716.1818,381.9958 L729.2212,380.5394 L742.2606,381.5486 L755.3,380.5529 L754.6385,380.5529 L755.6286,375.8729 L755.9335,371.1929 L755.8137,366.5129 L756.0084,361.8329 L755.3,357.1529 L754.9053,356.7582 L752.1671,354.02 L749.5923,351.4452 L747.4519,349.3048 L744.7394,346.5923 L742.3,344.1529 L742.3,346.5151 L729.2594,343.5474 L716.2188,342.9637 L703.1781,344.9442 L690.1375,341.8412 L677.0969,342.3533 L664.0563,346.4026 L651.0156,345.6632 L637.975,346.6991 L624.9344,343.0374 L611.8938,345.2595 L598.8531,346.1997 L585.8125,342.5152 L572.7719,343.8206 L559.7313,344.5897 L546.6906,346.4123 L533.65,344.1384 L520.6094,345.7565 L507.5688,342.2331 L494.5281,341.8051 L481.4875,345.8988 L468.4469,341.6675 L455.4063,345.9173 L442.3656,344.8692 L429.325,343.2241 L416.2844,342.9265 L403.2438,345.7433 L390.2031,343.1152 L377.1625,346.2047 L364.1219,342.2367 L351.0813,346.2933 L338.0406,345.8318 L325,344.1529 " fill="#FEFFDD" style="stroke:#181818;stroke-width:0.65;"/><path d="M742.3,344.1529 L742.5831,344.1529 L742.3546,346.7529 L743.1396,349.3529 L743.009,351.9529 L742.4956,354.5529 L742.3,357.1529 L742.3,357.4628 L744.9,357.0024 L747.5,357.9808 L750.1,357.3319 L752.7,357.3523 L755.3,357.1529 L754.8029,356.6558 L752.3689,354.2218 L750.5337,352.3866 L747.8512,349.7041 L744.8649,346.7178 L742.3,344.1529 " fill="#FEFFDD" style="stroke:#181818;stroke-width:0.65;"/><text fill="#000000" font-family="xkcd Script" font-size="16.9" lengthAdjust="spacing" textLength="261.3" x="404.1781" y="369.0733">Opération système définie dans DSS</text><polygon fill="#181818" points="655.6063,422.2305,655.6401,422.3151,658.1396,423.1038,660.8374,424.3883,663.4706,425.5113,665.8914,426.1035,668.6063,427.4305,668.5937,427.3993,665.9376,428.2989,663.3445,429.3562,660.7953,430.5231,658.095,431.3124,655.6063,432.6305,655.8462,432.6305,655.3331,430.5505,655.5206,428.4705,655.7934,426.3905,655.5691,424.3105,655.6063,422.2305" style="stroke:#181818;stroke-width:1.3;"/><path d="M411.45,427.4305 L411.45,427.7949 L424.7109,426.7124 L437.9717,427.7656 L451.2326,428.1233 L464.4934,426.194 L477.7543,427.2958 L491.0151,426.6913 L504.276,426.7658 L517.5368,427.3124 L530.7977,426.2322 L544.0586,428.3902 L557.3194,426.338 L570.5803,427.0877 L583.8411,428.1792 L597.102,427.2819 L610.3628,427.5488 L623.6237,427.3752 L636.8845,427.74 L650.1454,427.845 L663.4063,427.4305 " fill="none" style="stroke:#181818;stroke-width:1.3;"/><text fill="#000000" font-family="xkcd Script" font-size="23.4" font-weight="bold" lengthAdjust="spacing" textLength="228.5563" x="427.05" y="417.8324">demarrerAttaque(...)</text><polygon fill="#181818" points="794.0563,463.9051,794.0901,463.9897,796.5896,464.7784,799.2874,466.0629,801.9206,467.1859,804.3414,467.7781,807.0563,469.1051,807.0437,469.0739,804.3876,469.9735,801.7945,471.0308,799.2453,472.1977,796.545,472.987,794.0563,474.3051,794.2962,474.3051,793.7831,472.2251,793.9706,470.1451,794.2434,468.0651,794.0191,465.9851,794.0563,463.9051" style="stroke:#181818;stroke-width:1.3;"/><path d="M671.2063,469.1051 L671.2063,469.4694 L684.2713,468.387 L697.3363,469.4402 L710.4013,469.7979 L723.4663,467.8686 L736.5313,468.9704 L749.5962,468.3659 L762.6613,468.4404 L775.7263,468.987 L788.7913,467.9067 L801.8563,469.1051 " fill="none" style="stroke:#181818;stroke-width:1.3;"/><text fill="#000000" font-family="xkcd Script" font-size="16.9" lengthAdjust="spacing" textLength="11.7" x="734.5813" y="461.4509">...</text><path d="M611,486.0051 L611.2429,486.0051 L610.5212,493.2851 L611.2234,500.5651 L611.4619,507.8451 L610.1756,515.1251 L611,522.4051 L611,522.1357 L623.87,520.9266 L636.74,521.0757 L649.61,522.1688 L662.48,520.0084 L675.35,524.3244 L688.22,520.2201 L701.09,521.7195 L713.96,523.9025 L726.83,522.1078 L739.7,522.6417 L752.57,522.2944 L765.44,523.024 L778.31,523.2341 L791.18,524.4355 L804.05,524.7314 L816.92,524.7599 L829.79,523.2878 L842.66,524.0122 L855.53,524.8395 L868.4,522.4051 L867.5666,522.4051 L869.1841,517.7251 L868.0574,513.0451 L869.0168,508.3651 L867.828,503.6851 L868.4,499.0051 L868.344,498.9492 L866.406,497.0111 L863.1602,493.7653 L860.686,491.2912 L858.2767,488.8818 L855.4,486.0051 L855.4,487.4481 L842.5368,485.9916 L829.6737,487.0008 L816.8105,484.0207 L803.9474,486.991 L791.0842,487.9055 L778.2211,487.5462 L765.3579,488.1303 L752.4947,484.3304 L739.6316,483.7442 L726.7684,483.8509 L713.9053,485.801 L701.0421,485.3238 L688.1789,488.3673 L675.3158,485.3996 L662.4526,484.8159 L649.5895,486.7965 L636.7263,483.6934 L623.8632,484.2055 L611,486.0051 " fill="#FEFFDD" style="stroke:#181818;stroke-width:0.65;"/><path d="M855.4,486.0051 L856.1499,486.0051 L855.9034,488.6051 L856.2487,491.2051 L855.0281,493.8051 L855.7689,496.4051 L855.4,499.0051 L855.4,499.6874 L858,498.4592 L860.6,498.8944 L863.2,499.1507 L865.8,499.7583 L868.4,499.0051 L868.3966,499.0017 L866.178,496.7831 L862.7475,493.3526 L860.0466,490.6517 L858.4115,489.0166 L855.4,486.0051 " fill="#FEFFDD" style="stroke:#181818;stroke-width:0.65;"/><text fill="#000000" font-family="xkcd Script" font-size="16.9" lengthAdjust="spacing" textLength="96.2" x="685.75" y="510.9255">selon la RDCU</text><!--MD5=[0287faaffd2ab02fb781e841cfa15f76]
@startuml
!include ecriture.pumlinclude
scale 1.3
skinparam sequenceMessageAlign center
skinparam participantPadding 10
skinparam sequenceBoxBorderColor transparent
actor ":Joueur" as j
box "Couche présentation" #ddffdd
participant ":Button" as b <<NavigateurWeb>> 
participant ":Routeur" as r <<NodeExpress>>
end box
box "Couche domaine" #ddddff
participant ":JeuRisk" as c <<ContrôleurGRASP>>
participant "..." as s
end box
j -> b : cliquer
b ->> r : HTTP GET\n/api/v1/démarrerAttaque/...
note over r : Router handler (Express)
r ->> r : demarrerAttaque
note over r, c: Opération système définie dans DSS
r -> c : **<size:18>demarrerAttaque(...)**
c -> s : ...
note over c, s : selon la RDCU
@enduml

@startuml
skinparam style strictuml
skinparam backgroundcolor transparent
skinparam defaultfontname xkcd Script
skinparam handwritten true
scale 1.3
skinparam sequenceMessageAlign center
skinparam participantPadding 10
skinparam sequenceBoxBorderColor transparent
actor ":Joueur" as j
box "Couche présentation" #ddffdd
participant ":Button" as b <<NavigateurWeb>> 
participant ":Routeur" as r <<NodeExpress>>
end box
box "Couche domaine" #ddddff
participant ":JeuRisk" as c <<ContrôleurGRASP>>
participant "..." as s
end box
j -> b : cliquer
b ->> r : HTTP GET\n/api/v1/démarrerAttaque/...
note over r : Router handler (Express)
r ->> r : demarrerAttaque
note over r, c: Opération système définie dans DSS
r -> c : **<size:18>demarrerAttaque(...)**
c -> s : ...
note over c, s : selon la RDCU
@enduml

PlantUML version 1.2022.6(Tue Jun 21 17:34:49 UTC 2022)
(GPL source distribution)
Java Runtime: OpenJDK Runtime Environment
JVM: OpenJDK 64-Bit Server VM
Default Encoding: UTF-8
Language: en
Country: null
--></g></svg>