<?xml version="1.0" encoding="UTF-8" standalone="no"?><svg xmlns="http://www.w3.org/2000/svg" xmlns:xlink="http://www.w3.org/1999/xlink" contentStyleType="text/css" height="342px" preserveAspectRatio="none" style="width:376px;height:342px;background:#00000000;" version="1.1" viewBox="0 0 376 342" width="376px" zoomAndPan="magnify"><defs/><g><polygon points="10,151.5609,10,151.7711,20.0139,151.1466,30.0278,151.7542,40.0417,151.9606,50.0556,150.8475,60.0694,151.4832,70.0833,151.1344,80.0972,151.1774,90.1111,151.4927,100.125,150.8695,110.1389,152.1145,120.1528,150.9306,130.1667,151.3631,140.1806,151.9928,150.1944,151.4751,160.2083,151.6291,170.2222,151.5289,180.2361,151.7394,190.25,151.8,200.2639,152.1466,210.2778,152.2319,220.2917,152.2401,230.3056,151.8155,240.3194,152.0245,250.3333,152.2631,260.3472,150.8397,270.3611,152.2394,280.375,151.2644,290.3889,152.0947,300.4028,151.0659,310.4167,151.4924,320.4306,152.3025,330.4444,151.5122,340.4583,151.6662,350.4722,151.8995,360.4861,151.9771,370.5,151.5609,370.4961,151.5609,370.7872,161.9121,369.9276,172.2634,370.7844,182.6146,371.0482,192.9659,370.9445,203.3171,371.113,213.6683,370.0169,224.0196,369.8478,234.3708,369.8786,244.7221,370.4411,255.0733,370.3035,265.4245,371.1814,275.7758,370.5,286.127,370.5,285.9523,360.4861,285.784,350.4722,286.3553,340.4583,285.4602,330.4444,285.6079,320.4306,286.776,310.4167,286.5627,300.4028,286.8615,290.3889,285.8052,280.375,286.4462,270.3611,286.7174,260.3472,285.6546,250.3333,286.0312,240.3194,286.253,230.3056,286.7788,220.2917,286.1228,210.2778,286.5896,200.2639,285.5732,190.25,285.4498,180.2361,286.6306,170.2222,285.4101,160.2083,286.636,150.1944,286.3337,140.1806,285.8591,130.1667,285.7733,120.1528,286.5858,110.1389,285.8277,100.125,286.7189,90.1111,285.5743,80.0972,286.7444,70.0833,286.6113,60.0694,286.372,50.0556,286.1742,40.0417,286.8536,30.0278,286.7406,20.0139,286.2963,10,286.127,10.2682,286.127,9.8697,275.7758,10.7165,265.4245,10.1549,255.0733,10.1726,244.7221,9.3916,234.3708,9.5948,224.0196,10.5307,213.6683,10.4298,203.3171,9.9571,192.9659,9.6778,182.6146,9.7811,172.2634,9.3138,161.9121,10,151.5609" style="stroke:#000000;stroke-width:1.5;fill:none;"/><path d="M46,84.4461 L46.2802,84.4461 L45.4476,94.4757 L46.2577,104.5052 L46.5329,114.5347 L45.0488,124.5643 L45.8964,134.5938 L45.4313,144.6233 L45.4887,154.6529 L45.9091,164.6824 L45.0782,174.7119 L46.7382,184.7414 L45.1596,194.771 L45.7363,204.8005 L46.5759,214.83 L45.8856,224.8596 L46.091,234.8891 L45.9574,244.9186 L46.238,254.9482 L46.3188,264.9777 L46.7809,275.0072 L46.8947,285.0367 L46.9057,295.0663 L46.3395,305.0958 L46.6181,315.1253 L46.9363,325.1549 L46,335.1844 " fill="none" style="stroke:#181818;stroke-width:0.5;stroke-dasharray:5.0,5.0;"/><path d="M326.5,84.4461 L326.7802,84.4461 L325.9476,94.4757 L326.7577,104.5052 L327.0329,114.5347 L325.5488,124.5643 L326.3964,134.5938 L325.9313,144.6233 L325.9887,154.6529 L326.4091,164.6824 L325.5782,174.7119 L327.2382,184.7414 L325.6596,194.771 L326.2363,204.8005 L327.0759,214.83 L326.3856,224.8596 L326.591,234.8891 L326.4574,244.9186 L326.738,254.9482 L326.8188,264.9777 L327.2809,275.0072 L327.3947,285.0367 L327.4057,295.0663 L326.8395,305.0958 L327.1181,315.1253 L327.4363,325.1549 L326.5,335.1844 " fill="none" style="stroke:#181818;stroke-width:0.5;stroke-dasharray:5.0,5.0;"/><text fill="#000000" font-family="xkcd Script" font-size="14" lengthAdjust="spacing" textLength="46" x="20" y="80.2593">:Joueur</text><polygon fill="#E2E2F0" points="54.0442,15.4459,52.8715,17.0482,51.4845,19.3951,49.5008,20.9767,47.4163,21.8415,45.7542,21.9166,43.618,20.8349,41.6023,20.1283,40.0724,18.6936,39.2699,17.0511,38.7939,15.7433,38.3277,14.0351,37.5709,12.5651,38.1525,11.1298,38.662,9.5576,40.574,8.3142,41.9192,6.7008,43.5843,6.165,45.5637,5.7037,48.1021,5.9778,49.4924,6.6335,51.1089,6.9307,53.0743,8.9443,53.7595,11.0701,54.0571,12.5206,53.72,14.9108" style="stroke:#181818;stroke-width:0.5;"/><path d="M46,21.5 L46.1868,21.5 L45.6317,26.9 L46.1718,32.3 L46.3553,37.7 L45.3659,43.1 L46,48.5 M33,29.5 L33,29.4309 L38.2,29.1209 L43.4,29.1591 L48.6,29.4394 L53.8,28.8854 L59,29.5 M46,48.5 L46.3719,48.8223 L42.9766,51.1331 L40.6672,54.3849 L38.4901,57.7515 L35.5424,60.4501 L33,63.5 M46,48.5 L46.0458,48.5397 L48.5785,51.4814 L51.3199,54.6039 L53.9606,57.6392 L56.7934,60.841 L59,63.5 " fill="none" style="stroke:#181818;stroke-width:0.5;"/><polygon fill="#E2E2F0" points="296,50,296,50.2102,306.3333,49.5857,316.6667,50.1933,327,50.3997,337.3333,49.2866,347.6667,49.9223,358,50,357.9456,49.8687,358.3046,50.0283,358.6984,50.2719,358.9725,50.2264,359.4848,50.7563,359.7678,50.7322,359.5737,50.6518,359.8533,51.0606,360.1937,51.4944,360.1807,51.782,360.3746,52.1552,360.5,52.5,360.4894,52.5,360.5595,58.1892,360.5797,63.8785,360.6952,69.5677,360.7237,75.2569,360.5,80.9461,360.7092,81.0328,360.432,81.3322,360.3499,81.7124,360.2769,82.0964,359.6921,82.2684,359.7678,82.7139,359.8543,82.9229,359.3764,82.769,359.1288,83.1712,358.644,83.0008,358.3448,83.2786,358,83.4461,358,84.1877,347.6667,83.3974,337.3333,83.5514,327,83.7848,316.6667,83.8624,306.3333,83.4422,296,83.4461,296.0366,83.5346,295.5734,83.1234,295.3292,83.2408,295.0093,83.1756,294.6425,82.9973,294.2322,82.7139,294.421,82.7921,293.937,82.2987,293.7385,81.9236,293.6015,81.574,293.6283,81.2922,293.5,80.9461,293.4345,80.9461,293.7271,75.2569,293.4418,69.5677,293.3856,63.8785,293.5761,58.1892,293.5,52.5,293.2946,52.4149,293.4866,52.0802,293.9927,51.8757,294.0735,51.4949,294.312,51.1795,294.2322,50.7322,294.1912,50.6331,294.6265,50.6841,295.0147,50.6212,295.2326,50.1474,295.6342,50.1169,296,50" style="stroke:#181818;stroke-width:0.5;"/><text fill="#000000" font-family="xkcd Script" font-size="14" lengthAdjust="spacing" textLength="53" x="300.5" y="72.2593">:Système</text><polygon fill="#181818" points="315,132.5609,315.026,132.6259,316.9487,133.2327,319.0239,134.2207,321.0495,135.0846,322.9117,135.5401,325,136.5609,324.9904,136.5368,322.9472,137.2289,320.9525,138.0422,318.9916,138.9398,316.9144,139.5469,315,140.5609,315.1845,140.5609,314.7899,138.9609,314.9341,137.3609,315.144,135.7609,314.9714,134.1609,315,132.5609" style="stroke:#181818;stroke-width:1.0;"/><path d="M46,136.5609 L46,136.8411 L55.8214,136.0085 L65.6429,136.8186 L75.4643,137.0938 L85.2857,135.6097 L95.1071,136.4573 L104.9286,135.9922 L114.75,136.0496 L124.5714,136.47 L134.3929,135.6391 L144.2143,137.2991 L154.0357,135.7205 L163.8571,136.2972 L173.6786,137.1368 L183.5,136.4465 L193.3214,136.6519 L203.1429,136.5183 L212.9643,136.7989 L222.7857,136.8797 L232.6071,137.3418 L242.4286,137.4556 L252.25,137.4666 L262.0714,136.9004 L271.8929,137.179 L281.7143,137.4972 L291.5357,135.5993 L301.3571,137.4656 L311.1786,136.1655 L321,136.5609 " fill="none" style="stroke:#181818;stroke-width:1.0;"/><text fill="#000000" font-family="xkcd Script" font-size="13" lengthAdjust="spacing" textLength="231" x="71" y="112.6156">démarrerAttaque(paysAttaquant : String,</text><text fill="#000000" font-family="xkcd Script" font-size="13" lengthAdjust="spacing" textLength="133" x="120" y="130.673">paysDéfenseur : String)</text><path d="M10,151.5609 L10,152.1214 L19.9375,150.456 L29.875,152.0763 L39.8125,152.6267 L49.75,149.6585 L59.6875,151.3537 L69.625,150.4236 L79.5625,151.5609 L79.2216,151.5609 L79.5019,153.5724 L78.9479,155.5838 L80.0546,157.5953 L79.0023,159.6068 L79.5625,161.6183 L79.4382,161.494 L77.834,163.8898 L75.5086,165.5643 L73.6054,167.6611 L71.5424,169.5982 L69.5625,171.6183 L69.5625,172.0943 L59.6354,172.2559 L49.7083,173.1801 L39.7813,173.4077 L29.8542,173.4296 L19.9271,172.2973 L10,171.6183 L10.4121,171.6183 L10.6242,167.6068 L9.3589,163.5953 L10.6031,159.5838 L9.7364,155.5724 L10,151.5609 " fill="#EEEEEE" style="stroke:#000000;stroke-width:1.5;"/><polygon fill="none" points="10,151.5609,10,151.7711,20.0139,151.1466,30.0278,151.7542,40.0417,151.9606,50.0556,150.8475,60.0694,151.4832,70.0833,151.1344,80.0972,151.1774,90.1111,151.4927,100.125,150.8695,110.1389,152.1145,120.1528,150.9306,130.1667,151.3631,140.1806,151.9928,150.1944,151.4751,160.2083,151.6291,170.2222,151.5289,180.2361,151.7394,190.25,151.8,200.2639,152.1466,210.2778,152.2319,220.2917,152.2401,230.3056,151.8155,240.3194,152.0245,250.3333,152.2631,260.3472,150.8397,270.3611,152.2394,280.375,151.2644,290.3889,152.0947,300.4028,151.0659,310.4167,151.4924,320.4306,152.3025,330.4444,151.5122,340.4583,151.6662,350.4722,151.8995,360.4861,151.9771,370.5,151.5609,370.4961,151.5609,370.7872,161.9121,369.9276,172.2634,370.7844,182.6146,371.0482,192.9659,370.9445,203.3171,371.113,213.6683,370.0169,224.0196,369.8478,234.3708,369.8786,244.7221,370.4411,255.0733,370.3035,265.4245,371.1814,275.7758,370.5,286.127,370.5,285.9523,360.4861,285.784,350.4722,286.3553,340.4583,285.4602,330.4444,285.6079,320.4306,286.776,310.4167,286.5627,300.4028,286.8615,290.3889,285.8052,280.375,286.4462,270.3611,286.7174,260.3472,285.6546,250.3333,286.0312,240.3194,286.253,230.3056,286.7788,220.2917,286.1228,210.2778,286.5896,200.2639,285.5732,190.25,285.4498,180.2361,286.6306,170.2222,285.4101,160.2083,286.636,150.1944,286.3337,140.1806,285.8591,130.1667,285.7733,120.1528,286.5858,110.1389,285.8277,100.125,286.7189,90.1111,285.5743,80.0972,286.7444,70.0833,286.6113,60.0694,286.372,50.0556,286.1742,40.0417,286.8536,30.0278,286.7406,20.0139,286.2963,10,286.127,10.2682,286.127,9.8697,275.7758,10.7165,265.4245,10.1549,255.0733,10.1726,244.7221,9.3916,234.3708,9.5948,224.0196,10.5307,213.6683,10.4298,203.3171,9.9571,192.9659,9.6778,182.6146,9.7811,172.2634,9.3138,161.9121,10,151.5609" style="stroke:#000000;stroke-width:1.5;"/><text fill="#000000" font-family="xkcd Script" font-size="13" font-weight="bold" lengthAdjust="spacing" textLength="24.5625" x="25" y="166.7304">loop</text><text fill="#000000" font-family="xkcd Script" font-size="11" font-weight="bold" lengthAdjust="spacing" textLength="70.5625" x="94.5625" y="165.5504">[pas terminé]</text><polygon fill="#181818" points="315,191.9549,315.026,192.02,316.9487,192.6267,319.0239,193.6147,321.0495,194.4786,322.9117,194.9341,325,195.9549,324.9904,195.9309,322.9472,196.6229,320.9525,197.4362,318.9916,198.3338,316.9144,198.9409,315,199.9549,315.1845,199.9549,314.7899,198.3549,314.9341,196.7549,315.144,195.1549,314.9714,193.5549,315,191.9549" style="stroke:#181818;stroke-width:1.0;"/><path d="M46,195.9549 L46,196.2351 L55.8214,195.4025 L65.6429,196.2126 L75.4643,196.4878 L85.2857,195.0037 L95.1071,195.8513 L104.9286,195.3862 L114.75,195.4436 L124.5714,195.864 L134.3929,195.0331 L144.2143,196.6931 L154.0357,195.1145 L163.8571,195.6912 L173.6786,196.5308 L183.5,195.8405 L193.3214,196.0459 L203.1429,195.9123 L212.9643,196.1929 L222.7857,196.2737 L232.6071,196.7358 L242.4286,196.8496 L252.25,196.8606 L262.0714,196.2944 L271.8929,196.573 L281.7143,196.8912 L291.5357,194.9933 L301.3571,196.8596 L311.1786,195.5596 L321,195.9549 " fill="none" style="stroke:#181818;stroke-width:1.0;"/><text fill="#000000" font-family="xkcd Script" font-size="13" lengthAdjust="spacing" textLength="253" x="60" y="190.067">annoncerAttaque(nbRégimentsAttaquant : int)</text><polygon fill="#181818" points="315,224.0123,315.026,224.0773,316.9487,224.684,319.0239,225.6721,321.0495,226.536,322.9117,226.9915,325,228.0123,324.9904,227.9882,322.9472,228.6803,320.9525,229.4936,318.9916,230.3912,316.9144,230.9983,315,232.0123,315.1845,232.0123,314.7899,230.4123,314.9341,228.8123,315.144,227.2123,314.9714,225.6123,315,224.0123" style="stroke:#181818;stroke-width:1.0;"/><path d="M46,228.0123 L46,228.2925 L55.8214,227.4599 L65.6429,228.27 L75.4643,228.5452 L85.2857,227.0611 L95.1071,227.9087 L104.9286,227.4436 L114.75,227.5009 L124.5714,227.9214 L134.3929,227.0905 L144.2143,228.7505 L154.0357,227.1719 L163.8571,227.7486 L173.6786,228.5882 L183.5,227.8979 L193.3214,228.1033 L203.1429,227.9697 L212.9643,228.2503 L222.7857,228.3311 L232.6071,228.7932 L242.4286,228.907 L252.25,228.918 L262.0714,228.3518 L271.8929,228.6304 L281.7143,228.9486 L291.5357,227.0507 L301.3571,228.917 L311.1786,227.6169 L321,228.0123 " fill="none" style="stroke:#181818;stroke-width:1.0;"/><text fill="#000000" font-family="xkcd Script" font-size="13" lengthAdjust="spacing" textLength="257" x="58" y="222.1244">annoncerDéfense(nbRégimentsDéfendant : int)</text><path d="M47,278.127 L47.0347,278.2138 L48.9316,277.1561 L51.0319,276.6068 L53.066,275.892 L54.8822,274.6326 L57,274.127 " fill="none" style="stroke:#181818;stroke-width:1.0;"/><path d="M47,278.127 L47.0347,278.2138 L48.9316,278.7561 L51.0319,279.8068 L53.066,280.692 L54.8822,281.0326 L57,282.127 " fill="none" style="stroke:#181818;stroke-width:1.0;"/><path d="M46,278.127 L46,278.4073 L56,277.5746 L66,278.3847 L76,278.6599 L86,277.1758 L96,278.0234 L106,277.5584 L116,277.6157 L126,278.0361 L136,277.2052 L146,278.8652 L156,277.2866 L166,277.8633 L176,278.703 L186,278.0127 L196,278.218 L206,278.0844 L216,278.3651 L226,278.4459 L236,278.9079 L246,279.0218 L256,279.0327 L266,278.4665 L276,278.7451 L286,279.0633 L296,277.1654 L306,279.0317 L316,277.7317 L326,278.127 " fill="none" style="stroke:#181818;stroke-width:1.0;stroke-dasharray:2.0,2.0;"/><text fill="#000000" font-family="xkcd Script" font-size="13" lengthAdjust="spacing" textLength="253" x="58" y="254.1818">résultats des deux lancers, régiments perdus</text><text fill="#000000" font-family="xkcd Script" font-size="13" lengthAdjust="spacing" textLength="254" x="59.5" y="272.2391">de l'attaquant et du défenseur le cas échéant</text><polygon fill="#181818" points="315,313.1844,315.026,313.2494,316.9487,313.8562,319.0239,314.8442,321.0495,315.7081,322.9117,316.1636,325,317.1844,324.9904,317.1603,322.9472,317.8524,320.9525,318.6657,318.9916,319.5633,316.9144,320.1704,315,321.1844,315.1845,321.1844,314.7899,319.5844,314.9341,317.9844,315.144,316.3844,314.9714,314.7844,315,313.1844" style="stroke:#181818;stroke-width:1.0;"/><path d="M46,317.1844 L46,317.4646 L55.8214,316.632 L65.6429,317.4421 L75.4643,317.7173 L85.2857,316.2332 L95.1071,317.0808 L104.9286,316.6157 L114.75,316.6731 L124.5714,317.0935 L134.3929,316.2626 L144.2143,317.9226 L154.0357,316.344 L163.8571,316.9207 L173.6786,317.7603 L183.5,317.07 L193.3214,317.2754 L203.1429,317.1418 L212.9643,317.4224 L222.7857,317.5032 L232.6071,317.9653 L242.4286,318.0791 L252.25,318.0901 L262.0714,317.5239 L271.8929,317.8025 L281.7143,318.1207 L291.5357,316.2228 L301.3571,318.0891 L311.1786,316.7891 L321,317.1844 " fill="none" style="stroke:#181818;stroke-width:1.0;"/><text fill="#000000" font-family="xkcd Script" font-size="13" lengthAdjust="spacing" textLength="103" x="135" y="311.2965">terminerAttaque()</text><!--MD5=[d330e95515633fa7054e496c9c9ec634]
@startuml
!include ecriture.pumlinclude
scale 1
skinparam sequenceMessageAlign center
'title DSS pour //Attaquer un pays//
actor ":Joueur" as c
participant ":Système" as s
c->s : démarrerAttaque(paysAttaquant : String,\npaysDéfenseur : String)
loop pas terminé
c->s : annoncerAttaque(nbRégimentsAttaquant : int)
c->s : annoncerDéfense(nbRégimentsDéfendant : int)
c<<- -s : résultats des deux lancers, régiments perdus \nde l'attaquant et du défenseur le cas échéant
end loop
c->s : terminerAttaque()
@enduml

@startuml
skinparam style strictuml
skinparam backgroundcolor transparent
skinparam defaultfontname xkcd Script
skinparam handwritten true
scale 1
skinparam sequenceMessageAlign center
actor ":Joueur" as c
participant ":Système" as s
c->s : démarrerAttaque(paysAttaquant : String,\npaysDéfenseur : String)
loop pas terminé
c->s : annoncerAttaque(nbRégimentsAttaquant : int)
c->s : annoncerDéfense(nbRégimentsDéfendant : int)
c<<- -s : résultats des deux lancers, régiments perdus \nde l'attaquant et du défenseur le cas échéant
end loop
c->s : terminerAttaque()
@enduml

PlantUML version 1.2022.6(Tue Jun 21 17:34:49 UTC 2022)
(GPL source distribution)
Java Runtime: OpenJDK Runtime Environment
JVM: OpenJDK 64-Bit Server VM
Default Encoding: UTF-8
Language: en
Country: null
--></g></svg>