<?xml version="1.0" encoding="UTF-8" standalone="no"?><svg xmlns="http://www.w3.org/2000/svg" xmlns:xlink="http://www.w3.org/1999/xlink" contentStyleType="text/css" height="185.9px" preserveAspectRatio="none" style="width:271px;height:185px;background:#00000000;" version="1.1" viewBox="0 0 271 185" width="271.7px" zoomAndPan="magnify"><defs/><g><path d="M40.3,109.78 L40.6643,109.78 L39.5818,123.3149 L40.635,136.8498 L40.9928,150.3847 L39.0634,163.9197 L40.3,177.4546 " fill="none" style="stroke:#181818;stroke-width:0.65;stroke-dasharray:5.0,5.0;"/><path d="M220.35,109.78 L220.7143,109.78 L219.6318,123.3149 L220.685,136.8498 L221.0428,150.3847 L219.1134,163.9197 L220.35,177.4546 " fill="none" style="stroke:#181818;stroke-width:0.65;stroke-dasharray:5.0,5.0;"/><text fill="#000000" font-family="xkcd Script" font-size="18.2" lengthAdjust="spacing" textLength="59.8" x="6.5" y="104.337">:Joueur</text><polygon fill="#E2E2F0" points="50.7575,20.0797,49.233,22.1627,47.4299,25.2136,44.8511,27.2696,42.1412,28.394,39.9804,28.4916,37.2033,27.0854,34.583,26.1668,32.5941,24.3017,31.5508,22.1664,30.9321,20.4663,30.326,18.2456,29.3422,16.3346,30.0982,14.4688,30.7606,12.4249,33.2462,10.8084,34.995,8.711,37.1596,8.0146,39.7328,7.4148,43.0327,7.7711,44.8401,8.6235,46.9415,9.0099,49.4966,11.6277,50.3873,14.3912,50.7743,16.2768,50.336,19.3841" style="stroke:#181818;stroke-width:0.65;"/><path d="M40.3,27.95 L40.5429,27.95 L39.8212,34.97 L40.5234,41.99 L40.7619,49.01 L39.4756,56.03 L40.3,63.05 M23.4,38.35 L23.4,38.2602 L30.16,37.8572 L36.92,37.9068 L43.68,38.2712 L50.44,37.5511 L57.2,38.35 M40.3,63.05 L40.7835,63.469 L36.3696,66.473 L33.3673,70.7003 L30.5372,75.0769 L26.7051,78.5851 L23.4,82.55 M40.3,63.05 L40.3596,63.1016 L43.6521,66.9258 L47.2159,70.9851 L50.6488,74.931 L54.3314,79.0933 L57.2,82.55 " fill="none" style="stroke:#181818;stroke-width:0.65;"/><polygon fill="#E2E2F0" points="180.7,65,180.7,65.2732,194.1333,64.4614,207.5667,65.2513,221,65.5196,234.4333,64.0726,247.8667,64.899,261.3,65,261.2293,64.8293,261.696,65.0368,262.2079,65.3535,262.5642,65.2944,263.2303,65.9832,263.5981,65.9519,263.3458,65.8474,263.7093,66.3787,264.1518,66.9428,264.1349,67.3165,264.3869,67.8017,264.55,68.25,264.5362,68.25,264.6274,75.646,264.6536,83.042,264.8038,90.438,264.8408,97.834,264.55,105.23,264.8219,105.3426,264.4616,105.7318,264.3548,106.2261,264.26,106.7253,263.4998,106.9489,263.5981,107.5281,263.7106,107.7997,263.0893,107.5998,262.7674,108.1226,262.1371,107.901,261.7483,108.2622,261.3,108.48,261.3,109.4441,247.8667,108.4166,234.4333,108.6169,221,108.9202,207.5667,109.0211,194.1333,108.4749,180.7,108.48,180.7476,108.595,180.1455,108.0604,179.8279,108.2131,179.412,108.1283,178.9352,107.8964,178.4019,107.5281,178.6473,107.6297,178.0181,106.9884,177.76,106.5007,177.582,106.0462,177.6168,105.6798,177.45,105.23,177.3648,105.23,177.7453,97.834,177.3743,90.438,177.3013,83.042,177.5489,75.646,177.45,68.25,177.183,68.1394,177.4325,67.7043,178.0906,67.4384,178.1956,66.9434,178.5056,66.5333,178.4019,65.9519,178.3485,65.8231,178.9145,65.8893,179.4191,65.8075,179.7024,65.1916,180.2245,65.152,180.7,65" style="stroke:#181818;stroke-width:0.65;"/><text fill="#000000" font-family="xkcd Script" font-size="18.2" lengthAdjust="spacing" textLength="68.9" x="186.55" y="93.937">:Système</text><polygon fill="#181818" points="205.4,148.8546,205.4338,148.9391,207.9333,149.7279,210.6311,151.0123,213.2643,152.1354,215.6852,152.7275,218.4,154.0546,218.3875,154.0233,215.7314,154.923,213.1383,155.9803,210.589,157.1471,207.8887,157.9364,205.4,159.2546,205.6399,159.2546,205.1269,157.1746,205.3143,155.0946,205.5872,153.0146,205.3628,150.9346,205.4,148.8546" style="stroke:#181818;stroke-width:1.3;"/><path d="M40.3,154.0546 L40.3,154.4189 L53.6,153.3364 L66.9,154.3896 L80.2,154.7473 L93.5,152.818 L106.8,153.9199 L120.1,153.3153 L133.4,153.3898 L146.7,153.9364 L160,152.8562 L173.3,155.0142 L186.6,152.9621 L199.9,153.7118 L213.2,154.0546 " fill="none" style="stroke:#181818;stroke-width:1.3;"/><text fill="#000000" font-family="xkcd Script" font-size="16.9" lengthAdjust="spacing" textLength="149.5" x="55.9" y="146.4003">démarrerAttaque(...)</text><!--MD5=[8e43e0ffe6c3d1d740fc4127e57ff816]
@startuml
!include ecriture.pumlinclude
scale 1.3
skinparam sequenceMessageAlign center
actor ":Joueur" as c
participant ":Système" as s
c->s : démarrerAttaque(...)
@enduml

@startuml
skinparam style strictuml
skinparam backgroundcolor transparent
skinparam defaultfontname xkcd Script
skinparam handwritten true
scale 1.3
skinparam sequenceMessageAlign center
actor ":Joueur" as c
participant ":Système" as s
c->s : démarrerAttaque(...)
@enduml

PlantUML version 1.2022.6(Tue Jun 21 17:34:49 UTC 2022)
(GPL source distribution)
Java Runtime: OpenJDK Runtime Environment
JVM: OpenJDK 64-Bit Server VM
Default Encoding: UTF-8
Language: en
Country: null
--></g></svg>