<?xml version="1.0" encoding="UTF-8" standalone="no"?><svg xmlns="http://www.w3.org/2000/svg" xmlns:xlink="http://www.w3.org/1999/xlink" contentStyleType="text/css" height="290px" preserveAspectRatio="none" style="width:602px;height:290px;background:#00000000;" version="1.1" viewBox="0 0 602 290" width="602px" zoomAndPan="magnify"><defs/><g><!--MD5=[7e8a06de9db6c7c3e9d5d933905eec0c]
class GC--><g id="elem_GC"><polygon fill="#F1F1F1" points="18.5,185,18.5,185.2102,28.2857,184.5857,38.0714,185.1933,47.8571,185.3997,57.6429,184.2866,67.4286,184.9223,77.2143,184.5735,87,184.6165,96.7857,184.9318,106.5714,184.3086,116.3571,185.5536,126.1429,184.3697,135.9286,184.8022,145.7143,185.4319,155.5,185,155.4891,184.9736,155.8623,185.1675,156.203,185.2831,156.5834,185.4943,156.9447,185.6594,157.2678,185.7322,157.4481,185.8069,157.6209,186.1714,157.7698,186.526,157.7855,186.8254,157.9963,187.2056,158,187.5,158.7022,187.5,157.2788,197.5872,158.6785,207.6743,157.7035,217.7615,158.5338,227.8487,157.505,237.9359,157.9315,248.023,158.7416,258.1102,157.9513,268.1974,158,278.2846,158.0324,278.298,157.9578,278.6813,157.8353,279.0448,157.5595,279.3447,157.5027,279.7354,157.2678,280.0523,157.1947,279.876,156.9505,280.2864,156.6306,280.514,156.2638,280.6286,155.9318,280.8269,155.5,280.7846,155.5,280.3015,145.7143,280.1324,135.9286,280.1632,126.1429,280.7257,116.3571,280.588,106.5714,281.466,96.7857,280.6099,87,280.4415,77.2143,281.0128,67.4286,280.1177,57.6429,280.2654,47.8571,281.4335,38.0714,281.2202,28.2857,281.5191,18.5,280.7846,18.459,280.6855,18.1872,280.7364,17.8682,280.6735,17.3791,280.1997,17.0736,280.1693,16.7322,280.0523,16.771,280.0684,16.7865,279.7819,16.438,279.3447,16.4353,279.0507,15.9759,278.5675,16,278.2846,15.3227,278.2846,16.5036,268.1974,15.2831,258.1102,16.509,248.023,16.2066,237.9359,15.7321,227.8487,15.6462,217.7615,16.4588,207.6743,15.7007,197.5872,16,187.5,16.1823,187.5755,15.9762,187.0759,16.483,186.8717,16.5885,186.5011,16.6612,186.117,16.7322,185.7322,16.7383,185.7468,17.1785,185.8096,17.5176,185.6283,17.8145,185.345,18.1807,185.229,18.5,185" style="stroke:#181818;stroke-width:0.5;"/><text fill="#000000" font-family="xkcd Script" font-size="14" lengthAdjust="spacing" textLength="77" x="48.5" y="205.2593">GroupeCours</text><path d="M17,214.4461 L17,214.7264 L27,213.8937 L37,214.7039 L47,214.979 L57,213.4949 L67,214.3425 L77,213.8775 L87,213.9348 L97,214.3553 L107,213.5243 L117,215.1843 L127,213.6058 L137,214.1825 L147,215.0221 L157,214.4461 " fill="#F1F1F1" style="stroke:#181818;stroke-width:0.5;"/><text fill="#000000" font-family="xkcd Script" font-size="14" lengthAdjust="spacing" textLength="92" x="22" y="233.7054">numéro : Entier</text><text fill="#000000" font-family="xkcd Script" font-size="14" lengthAdjust="spacing" textLength="130" x="22" y="253.1515">trimestre : Trimestre</text><text fill="#000000" font-family="xkcd Script" font-size="14" lengthAdjust="spacing" textLength="9" x="22" y="272.5977">...</text></g><!--MD5=[378b18254a1b2429f435e93f5e5cc50c]
class C--><g id="elem_C"><polygon fill="#DDFFDD" points="185,7,185,7.2102,195.1818,6.5857,205.3636,7.1933,215.5455,7.3997,225.7273,6.2866,235.9091,6.9223,246.0909,6.5735,256.2727,6.6165,266.4545,6.9318,276.6364,6.3086,286.8182,7.5536,297,7,296.9196,6.8059,297.3283,7.0855,297.7622,7.4259,298.0497,7.4129,298.4229,7.6068,298.7678,7.7322,298.7579,7.7282,298.9692,8.1086,299.1343,8.4698,299.3875,8.8676,299.5602,9.232,299.5,9.5,300.1793,9.5,299.7546,19.5872,299.9636,29.6743,300.2022,39.7615,298.7788,49.8487,300.1785,59.9359,299.2035,70.023,300.0338,80.1102,299.005,90.1974,299.5,100.2846,299.4789,100.2758,299.5819,100.7327,299.1921,100.9855,299.0931,101.3587,299.0185,101.742,298.7678,102.0523,298.8209,102.1805,298.4137,102.1976,298.0973,102.4337,297.6341,102.3154,297.3898,102.7257,297,102.7846,297,103.3328,286.8182,103.2291,276.6364,103.3976,266.4545,102.3015,256.2727,102.1324,246.0909,102.1632,235.9091,102.7257,225.7273,102.588,215.5455,103.466,205.3636,102.6099,195.1818,102.4415,185,102.7846,185.0291,102.8549,184.5614,102.4328,184.2267,102.3318,184.0221,102.5451,183.6414,102.3329,183.2322,102.0523,183.4584,102.146,182.9867,101.6577,183.0376,101.3859,182.9747,101.067,182.501,100.5779,182.5,100.2846,182.4041,100.2846,182.626,90.1974,183.1518,80.1102,182.4958,70.023,182.9626,59.9359,181.9462,49.8487,181.8227,39.7615,183.0036,29.6743,181.7831,19.5872,182.5,9.5,182.6567,9.5649,182.7101,9.1728,182.7104,8.7587,182.8304,8.3942,183.2271,8.1443,183.2322,7.7322,183.194,7.6401,183.6613,7.7681,183.8688,7.2691,184.3717,7.483,184.7082,7.2956,185,7" style="stroke:#181818;stroke-width:0.5;"/><text fill="#000000" font-family="xkcd Script" font-size="14" lengthAdjust="spacing" textLength="34" x="224" y="27.2593">Cours</text><path d="M183.5,36.4461 L183.5,36.7264 L193.0833,35.8937 L202.6667,36.7039 L212.25,36.979 L221.8333,35.4949 L231.4167,36.3425 L241,35.8775 L250.5833,35.9348 L260.1667,36.3553 L269.75,35.5243 L279.3333,37.1843 L288.9167,35.6058 L298.5,36.4461 " fill="#DDFFDD" style="stroke:#181818;stroke-width:0.5;"/><text fill="#000000" font-family="xkcd Script" font-size="14" lengthAdjust="spacing" textLength="67" x="188.5" y="55.7054">nom : Texte</text><text fill="#000000" font-family="xkcd Script" font-size="14" lengthAdjust="spacing" textLength="105" x="188.5" y="75.1515">nbCrédits : Entier</text><text fill="#000000" font-family="xkcd Script" font-size="14" lengthAdjust="spacing" textLength="9" x="188.5" y="94.5977">...</text></g><!--MD5=[207b08653767d711cd995cbc82c01495]
class CP--><g id="elem_CP"><polygon fill="#DDFFDD" points="9.5,30.5,9.5,30.7102,19.3333,30.0857,29.1667,30.6933,39,30.8997,48.8333,29.7866,58.6667,30.4223,68.5,30.5,68.4456,30.3687,68.8046,30.5283,69.1984,30.7719,69.4725,30.7264,69.9848,31.2563,70.2678,31.2322,70.0737,31.1518,70.3533,31.5606,70.6937,31.9944,70.6807,32.282,70.8746,32.6552,71,33,70.9894,33,71.0595,41.7785,71.0797,50.5569,71.1952,59.3354,71.2237,68.1138,71,76.8923,71.2092,76.9789,70.932,77.2783,70.8499,77.6585,70.7769,78.0425,70.1921,78.2145,70.2678,78.66,70.3543,78.869,69.8764,78.7152,69.6288,79.1173,69.144,78.9469,68.8448,79.2247,68.5,79.3923,68.5,80.1339,58.6667,79.3435,48.8333,79.4976,39,79.7309,29.1667,79.8085,19.3333,79.3884,9.5,79.3923,9.5366,79.4807,9.0734,79.0696,8.8292,79.187,8.5093,79.1218,8.1425,78.9434,7.7322,78.66,7.921,78.7382,7.437,78.2449,7.2385,77.8697,7.1015,77.5201,7.1283,77.2383,7,76.8923,6.9345,76.8923,7.2271,68.1138,6.9418,59.3354,6.8856,50.5569,7.0761,41.7785,7,33,6.7946,32.9149,6.9866,32.5802,7.4927,32.3757,7.5735,31.9949,7.812,31.6795,7.7322,31.2322,7.6912,31.1331,8.1265,31.1841,8.5147,31.1212,8.7326,30.6474,9.1342,30.6169,9.5,30.5" style="stroke:#181818;stroke-width:0.5;"/><text fill="#000000" font-family="xkcd Script" font-size="14" lengthAdjust="spacing" textLength="58" x="10" y="50.7593">Catalogue</text><text fill="#000000" font-family="xkcd Script" font-size="14" lengthAdjust="spacing" textLength="34" x="22" y="70.2054">Cours</text></g><g id="elem_GMN8"><path d="M193,183 L193.5605,183 L191.8951,193.0287 L193.5154,203.0574 L194.0658,213.0861 L191.0976,223.1147 L192.7928,233.1434 L191.8627,243.1721 L191.9773,253.2008 L192.8182,263.2295 L191.1563,273.2582 L193,283.2869 L193,284.7632 L203.05,281.6061 L213.1,282.7595 L223.15,284.4387 L233.2,283.0581 L243.25,283.4688 L253.3,283.2017 L263.35,283.7629 L273.4,283.9246 L283.45,284.8487 L293.5,285.0763 L303.55,285.0982 L313.6,283.9659 L323.65,284.5231 L333.7,285.1595 L343.75,281.3637 L353.8,285.0962 L363.85,282.4962 L373.9,284.7104 L383.95,281.9668 L394,283.1042 L404.05,285.2645 L414.1,283.1569 L424.15,283.5677 L434.2,284.1899 L444.25,284.3968 L454.3,283.2764 L464.35,284.0528 L474.4,281.7604 L484.45,284.0452 L494.5,284.7487 L504.55,284.4723 L514.6,284.9216 L524.65,281.9987 L534.7,281.5477 L544.75,281.6298 L554.8,283.1298 L564.85,282.7628 L574.9,285.104 L584.95,282.8211 L595,283.2869 L594.0852,283.2869 L595.6087,273.255 L593.2218,263.2231 L593.6157,253.1912 L596.7305,243.1594 L596.1618,233.1275 L596.9586,223.0956 L594.1419,213.0637 L595.8512,203.0319 L595,193 L595.3711,193.3711 L592.7031,190.7031 L590.9397,188.9397 L589.0792,187.0792 L587.4097,185.4097 L585,183 L585,182.9888 L574.9487,184.2335 L564.8974,181.5232 L554.8462,181.194 L544.7949,184.343 L534.7436,181.0882 L524.6923,184.3572 L514.641,183.551 L504.5897,182.2856 L494.5385,182.0566 L484.4872,184.2234 L474.4359,182.2018 L464.3846,184.5783 L454.3333,181.526 L444.2821,184.6465 L434.2308,184.2915 L424.1795,183.6532 L414.1282,183.1259 L404.0769,184.9376 L394.0256,184.6362 L383.9744,183.4513 L373.9231,183.7152 L363.8718,182.6526 L353.8205,184.9105 L343.7692,183.413 L333.7179,183.4602 L323.6667,181.3777 L313.6154,181.9194 L303.5641,184.4153 L293.5128,184.146 L283.4615,182.8855 L273.4103,182.1409 L263.359,182.4162 L253.3077,181.1702 L243.2564,184.106 L233.2051,184.9722 L223.1538,184.4037 L213.1026,184.8532 L203.0513,182.6354 L193,183 " fill="#FEFFDD" style="stroke:#181818;stroke-width:0.5;"/><path d="M585,183 L585.1868,183 L584.6317,185 L585.1718,187 L585.3553,189 L584.3659,191 L585,193 L585,192.9309 L587,192.6209 L589,192.6591 L591,192.9394 L593,192.3854 L595,193 L595.348,193.348 L592.6038,190.6038 L590.8757,188.8757 L589.2715,187.2715 L586.9461,184.9461 L585,183 " fill="#FEFFDD" style="stroke:#181818;stroke-width:1.0;"/><text fill="#000000" font-family="xkcd Script" font-size="13" lengthAdjust="spacing" textLength="342" x="199" y="202.1695">Classe de « description ». Une instance de Cours peut exister</text><text fill="#000000" font-family="xkcd Script" font-size="13" lengthAdjust="spacing" textLength="346" x="199" y="220.2269">indépendamment de l'existence d'un GroupeCours qu'elle décrit</text><text fill="#000000" font-family="xkcd Script" font-size="13" lengthAdjust="spacing" textLength="336" x="199" y="238.2842">(par exemple, avant qu'un cours soit donné la première fois).</text><text fill="#000000" font-family="xkcd Script" font-size="13" lengthAdjust="spacing" textLength="350" x="199" y="256.3416">Elle réduit également la duplication des informations (le nom et</text><text fill="#000000" font-family="xkcd Script" font-size="13" lengthAdjust="spacing" textLength="381" x="199" y="274.399">le nombre de crédits ne sont pas stockés dans chaque GroupeCours).</text></g><!--MD5=[1b394f3b3aee071b89bad3fa580da921]
link C to GC--><g id="link_C_GC"><path d="M199.73,103.16 L199.9409,103.3445 L192.8279,110.2099 L186.9512,118.157 L180.672,125.7518 L173.0687,132.1882 L167.2202,140.16 L160.3838,147.2674 L153.9406,154.7188 L147.7707,162.4093 L140.659,169.2757 L135.4219,177.7824 L128.38,184.71 " fill="none" style="stroke:#181818;stroke-width:1.0;"/><polygon fill="#000000" points="175.7076,146.7917,175.7435,146.8519,177.2704,145.6987,179.0078,144.8982,180.6766,143.9828,182.12,142.6897,183.8754,141.9195,183.8584,141.9,182.8971,141.0385,182.0218,140.2752,181.2062,139.5802,180.1847,138.6498,179.4517,138.0491,179.6214,138.1218,178.5098,139.7149,177.8935,141.5202,177.3376,143.3514,176.4302,145.0319,175.7076,146.7917" style="stroke:#000000;stroke-width:1.0;"/><text fill="#000000" font-family="xkcd Script" font-size="13" lengthAdjust="spacing" textLength="36" x="188" y="148.1695">Décrit</text><text fill="#000000" font-family="xkcd Script" font-size="13" lengthAdjust="spacing" textLength="4" x="189.9156" y="125.0287">1</text><text fill="#000000" font-family="xkcd Script" font-size="13" lengthAdjust="spacing" textLength="8" x="125.4029" y="173.1995">*</text></g><!--MD5=[537c973221694101f5e2ffab81bdc70e]
link C to C--><g id="link_C_C"><path d="M299.89,38.5 L299.8974,38.5931 L302.5828,38.5328 L305.3118,39.0184 L308.0266,39.3262 L310.6946,39.0494 L313.4273,39.5819 L313.4179,39.5486 L315.5745,40.0216 L317.7785,40.6621 L320.0154,41.4191 L322.1388,41.7747 L324.4213,42.6925 L324.6116,42.8484 L326.2203,44.9765 L328.3847,47.5598 L330.617,50.1986 L332.4548,52.5143 L334.5,55 L334.5235,55.0192 L332.4733,57.4525 L330.5299,59.9733 L328.535,62.4518 L326.6384,65.0109 L324.4213,67.3075 L324.5024,67.5945 L322.3047,68.2201 L320.0545,68.6606 L317.881,69.3721 L315.7111,70.0963 L313.4273,70.4181 L313.4018,70.0986 L310.7439,70.9351 L308.0019,70.7195 L305.3238,71.3037 L302.5799,71.0643 L299.89,71.5 " fill="none" style="stroke:#181818;stroke-width:1.0;"/><polygon fill="#000000" points="339.5234,60.0286,339.5901,60.05,339.9711,58.1748,340.7434,56.4248,341.3882,54.634,341.6142,52.7092,342.42,50.9699,342.4199,50.944,341.2438,50.8332,340.0683,50.8531,338.8932,50.9637,337.7167,50.7614,336.5422,50.9974,336.7175,51.0552,336.9389,52.7378,337.6721,54.5892,338.4676,56.4613,338.9,58.2134,339.5234,60.0286" style="stroke:#000000;stroke-width:1.0;"/><text fill="#000000" font-family="xkcd Script" font-size="13" lengthAdjust="spacing" textLength="76" x="353.5" y="60.1695">Est-préalable</text><text fill="#000000" font-family="xkcd Script" font-size="13" lengthAdjust="spacing" textLength="4" x="307.311" y="31.5783">1</text><text fill="#000000" font-family="xkcd Script" font-size="13" lengthAdjust="spacing" textLength="8" x="307.5547" y="68.6002">*</text></g><!--MD5=[73165dda18877bbb83b061b1f48ac182]
link CP to C--><g id="link_CP_C"><path d="M71.01,55 L71.01,55.2802 L81.1264,54.4476 L91.2427,55.2577 L101.3591,55.5329 L111.4755,54.0488 L121.5918,54.8964 L131.7082,54.4313 L141.8245,54.4887 L151.9409,54.9091 L162.0573,54.0782 L172.1736,55.7382 L182.29,55 " fill="none" style="stroke:#181818;stroke-width:1.0;"/><polygon fill="#000000" points="98.25,42.0287,98.2716,42.0953,96.3983,41.3096,94.6519,40.9144,92.8641,40.392,90.9404,39.4514,89.2049,39.0898,89.179,39.0898,89.0628,40.2653,89.0771,41.4409,89.1822,42.6165,88.9745,43.792,89.2049,44.9676,89.2619,45.1431,90.949,44.18,92.8026,43.7293,94.6765,43.3412,96.4321,42.5893,98.25,42.0287" style="stroke:#000000;stroke-width:1.0;"/><text fill="#000000" font-family="xkcd Script" font-size="13" lengthAdjust="spacing" textLength="62" x="102.25" y="47.1695">Répertorie</text><text fill="#000000" font-family="xkcd Script" font-size="13" lengthAdjust="spacing" textLength="4" x="78.8748" y="49.1073">1</text><text fill="#000000" font-family="xkcd Script" font-size="13" lengthAdjust="spacing" textLength="8" x="166.6472" y="50.0892">*</text></g><!--MD5=[945abb08813cbd35a306a61460081e63]
link C to GMN8--><g id="link_C_GMN8"><path d="M282,103.16 L282.2115,103.3439 L287.8813,110.043 L294.7909,117.82 L301.2967,125.246 L306.4748,131.5178 L313.4127,139.3193 L319.3599,146.2597 L325.7014,153.5427 L332.3169,161.064 L337.9879,167.7643 L345.5389,176.0988 L351.28,182.86 " fill="none" style="stroke:#181818;stroke-width:1.0;stroke-dasharray:7.0,7.0;"/></g><!--MD5=[1c60ada206d6ba868c12b1e75ba6d03c]
@startuml
!include ecriture.pumlinclude
scale 1
hide empty members
class "GroupeCours" as GC {
  numéro : Entier
  trimestre : Trimestre
  ...
}
class "Cours" as C #ddffdd {
  nom : Texte
  nbCrédits : Entier
  ...
}
class "Catalogue\nCours" as CP #ddffdd
C "1" - - "*" GC : Décrit >
C "1" - - "*" C : Est-préalable >
CP "1" - "*" C : Répertorie >
note bottom of C
Classe de « description ». Une instance de Cours peut exister 
indépendamment de l'existence d'un GroupeCours qu'elle décrit 
(par exemple, avant qu'un cours soit donné la première fois).
Elle réduit également la duplication des informations (le nom et 
le nombre de crédits ne sont pas stockés dans chaque GroupeCours).
end note
@enduml

@startuml
skinparam style strictuml
skinparam backgroundcolor transparent
skinparam defaultfontname xkcd Script
skinparam handwritten true
scale 1
hide empty members
class "GroupeCours" as GC {
  numéro : Entier
  trimestre : Trimestre
  ...
}
class "Cours" as C #ddffdd {
  nom : Texte
  nbCrédits : Entier
  ...
}
class "Catalogue\nCours" as CP #ddffdd
C "1" - - "*" GC : Décrit >
C "1" - - "*" C : Est-préalable >
CP "1" - "*" C : Répertorie >
note bottom of C
Classe de « description ». Une instance de Cours peut exister 
indépendamment de l'existence d'un GroupeCours qu'elle décrit 
(par exemple, avant qu'un cours soit donné la première fois).
Elle réduit également la duplication des informations (le nom et 
le nombre de crédits ne sont pas stockés dans chaque GroupeCours).
end note
@enduml

PlantUML version 1.2022.6(Tue Jun 21 17:34:49 UTC 2022)
(GPL source distribution)
Java Runtime: OpenJDK Runtime Environment
JVM: OpenJDK 64-Bit Server VM
Default Encoding: UTF-8
Language: en
Country: null
--></g></svg>