<?xml version="1.0" encoding="UTF-8" standalone="no"?><svg xmlns="http://www.w3.org/2000/svg" xmlns:xlink="http://www.w3.org/1999/xlink" contentStyleType="text/css" height="330px" preserveAspectRatio="none" style="width:561px;height:330px;background:#00000000;" version="1.1" viewBox="0 0 561 330" width="561px" zoomAndPan="magnify"><defs/><g><!--MD5=[7e8a06de9db6c7c3e9d5d933905eec0c]
class GC--><g id="elem_GC"><polygon fill="#F1F1F1" points="110,248,110,248.0701,116.8,247.8619,123.6,248.0644,130.4,248.1332,137.2,247.7622,144,248,143.9901,247.9761,144.2991,248.0151,144.6582,248.1748,145.052,248.4184,145.326,248.3729,145.7678,248.7322,145.9383,248.8029,145.7201,249.0054,145.9998,249.4141,146.3401,249.848,146.3271,250.1355,146.5,250.5,146.5227,250.5,146.4894,255.3892,146.5595,260.2785,146.5797,265.1677,146.6952,270.0569,146.5,274.9461,146.7067,275.0317,146.5627,275.3863,146.2855,275.6857,146.2034,276.0659,146.1305,276.4499,145.7678,276.7139,145.6758,276.4918,145.5008,277.0693,145.0228,276.9155,144.7752,277.3176,144.2904,277.1472,144,277.4461,144,277.4233,137.2,277.6933,130.4,277.4299,123.6,277.4812,116.8,277.559,110,277.4461,110.0531,277.5743,109.6459,277.2985,109.3295,277.2417,108.8663,276.8305,108.6221,276.9479,108.2322,276.7139,108.4011,276.7838,108.2227,276.4171,108.1281,276.085,107.6441,275.5916,107.4456,275.2165,107.5,274.9461,107.2929,274.9461,107.4804,270.0569,107.4345,265.1677,107.7271,260.2785,107.4418,255.3892,107.5,250.5,107.3944,250.4562,107.7167,250.1756,107.5875,249.7078,107.7795,249.3731,108.2856,249.1686,108.2322,248.7322,108.2878,248.8664,108.6795,248.812,108.8983,248.3402,109.3336,248.3912,109.7218,248.3283,110,248" style="stroke:#181818;stroke-width:0.5;"/><text fill="#000000" font-family="xkcd Script" font-size="14" lengthAdjust="spacing" textLength="33" x="110.5" y="268.2593">Client</text></g><!--MD5=[378b18254a1b2429f435e93f5e5cc50c]
class C--><g id="elem_C"><polygon fill="#FFDDDD" points="185,7,185,7.2102,194.6923,6.5857,204.3846,7.1933,214.0769,7.3997,223.7692,6.2866,233.4615,6.9223,243.1538,6.5735,252.8462,6.6165,262.5385,6.9318,272.2308,6.3086,281.9231,7.5536,291.6154,6.3697,301.3077,6.8022,311,7,311.0551,7.133,311.3426,7.12,311.7158,7.3139,312.0566,7.4295,312.437,7.6408,312.7678,7.7322,312.8414,7.7627,313.0946,8.1605,313.2673,8.5249,313.4163,8.8795,313.432,9.1789,313.5,9.5,313.9636,9.5,314.2022,19.521,312.7788,29.5419,314.1785,39.5629,313.2035,49.5839,314.0338,59.6049,313.005,69.6258,313.4315,79.6468,314.2416,89.6678,313.4513,99.6888,313.6053,109.7097,313.5,119.7307,313.6043,119.7739,313.4817,120.1373,313.2059,120.4373,313.1491,120.828,312.7379,121.0719,312.7678,121.4985,312.804,121.586,312.4841,121.8137,312.1174,121.9283,311.7853,122.1266,311.2919,121.9355,311,122.2307,311,121.5785,301.3077,121.6093,291.6154,122.1718,281.9231,122.0342,272.2308,122.9121,262.5385,122.056,252.8462,121.8876,243.1538,122.459,233.4615,121.5639,223.7692,121.7116,214.0769,122.8797,204.3846,122.6664,194.6923,122.9652,185,122.2307,184.959,122.1316,184.6872,122.1826,184.3682,122.1196,183.8791,121.6459,183.5736,121.6154,183.2322,121.4985,183.271,121.5145,183.2865,121.2281,182.938,120.7908,182.9353,120.4968,182.4759,120.0136,182.5,119.7307,181.8227,119.7307,183.0036,109.7097,181.7831,99.6888,183.009,89.6678,182.7066,79.6468,182.2321,69.6258,182.1462,59.6049,182.9588,49.5839,182.2007,39.5629,183.0919,29.5419,181.9473,19.521,182.5,9.5,182.6901,9.5788,182.7956,9.2082,182.8683,8.8241,182.9539,8.4454,183.3096,8.1785,183.2322,7.7322,183.3105,7.9212,183.6074,7.6379,183.9736,7.5219,184.2763,7.2528,184.7378,7.3671,185,7" style="stroke:#181818;stroke-width:0.5;"/><text fill="#000000" font-family="xkcd Script" font-size="14" lengthAdjust="spacing" textLength="68" x="214" y="27.2593">Description</text><text fill="#000000" font-family="xkcd Script" font-size="14" lengthAdjust="spacing" textLength="33" x="231.5" y="46.7054">Client</text><path d="M183.5,55.8923 L183.5,56.1725 L193.4231,55.3399 L203.3462,56.15 L213.2692,56.4252 L223.1923,54.9411 L233.1154,55.7887 L243.0385,55.3236 L252.9615,55.3809 L262.8846,55.8014 L272.8077,54.9705 L282.7308,56.6305 L292.6538,55.0519 L302.5769,55.6286 L312.5,55.8923 " fill="#FFDDDD" style="stroke:#181818;stroke-width:0.5;"/><text fill="#000000" font-family="xkcd Script" font-size="14" lengthAdjust="spacing" textLength="67" x="188.5" y="75.1515">nom : Texte</text><text fill="#000000" font-family="xkcd Script" font-size="14" lengthAdjust="spacing" textLength="119" x="188.5" y="94.5977">identifiant : IDClient</text><text fill="#000000" font-family="xkcd Script" font-size="14" lengthAdjust="spacing" textLength="9" x="188.5" y="114.0438">...</text></g><!--MD5=[207b08653767d711cd995cbc82c01495]
class CP--><g id="elem_CP"><polygon fill="#FFDDDD" points="9.5,40,9.5,40.2102,19.3333,39.5857,29.1667,40.1933,39,40.3997,48.8333,39.2866,58.6667,39.9223,68.5,40,68.4456,39.8687,68.8046,40.0283,69.1984,40.2719,69.4725,40.2264,69.9848,40.7563,70.2678,40.7322,70.0737,40.6518,70.3533,41.0606,70.6937,41.4944,70.6807,41.782,70.8746,42.1552,71,42.5,70.9894,42.5,71.0595,51.2785,71.0797,60.0569,71.1952,68.8354,71.2237,77.6138,71,86.3923,71.2092,86.4789,70.932,86.7783,70.8499,87.1585,70.7769,87.5425,70.1921,87.7145,70.2678,88.16,70.3543,88.369,69.8764,88.2152,69.6288,88.6173,69.144,88.4469,68.8448,88.7247,68.5,88.8923,68.5,89.6339,58.6667,88.8435,48.8333,88.9976,39,89.2309,29.1667,89.3085,19.3333,88.8884,9.5,88.8923,9.5366,88.9807,9.0734,88.5696,8.8292,88.687,8.5093,88.6218,8.1425,88.4434,7.7322,88.16,7.921,88.2382,7.437,87.7449,7.2385,87.3697,7.1015,87.0201,7.1283,86.7383,7,86.3923,6.9345,86.3923,7.2271,77.6138,6.9418,68.8354,6.8856,60.0569,7.0761,51.2785,7,42.5,6.7946,42.4149,6.9866,42.0802,7.4927,41.8757,7.5735,41.4949,7.812,41.1795,7.7322,40.7322,7.6912,40.6331,8.1265,40.6841,8.5147,40.6212,8.7326,40.1474,9.1342,40.1169,9.5,40" style="stroke:#181818;stroke-width:0.5;"/><text fill="#000000" font-family="xkcd Script" font-size="14" lengthAdjust="spacing" textLength="58" x="10" y="60.2593">Catalogue</text><text fill="#000000" font-family="xkcd Script" font-size="14" lengthAdjust="spacing" textLength="39" x="19.5" y="79.7054">Clients</text></g><g id="elem_GMN7"><path d="M181.5,202 L182.0605,202 L180.3951,212.1177 L182.0154,222.2353 L182.5658,232.353 L179.5976,242.4706 L181.2928,252.5883 L180.3627,262.7059 L180.4773,272.8236 L181.3182,282.9412 L179.6563,293.0589 L182.9764,303.1766 L179.8193,313.2942 L181.5,323.4119 L181.5,322.8845 L191.5811,324.5637 L201.6622,323.1831 L211.7432,323.5938 L221.8243,323.3267 L231.9054,323.8879 L241.9865,324.0496 L252.0676,324.9737 L262.1486,325.2013 L272.2297,325.2232 L282.3108,324.0909 L292.3919,324.6481 L302.473,325.2845 L312.5541,321.4887 L322.6351,325.2212 L332.7162,322.6212 L342.7973,324.8354 L352.8784,322.0918 L362.9595,323.2292 L373.0405,325.3895 L383.1216,323.2819 L393.2027,323.6927 L403.2838,324.3149 L413.3649,324.5218 L423.4459,323.4014 L433.527,324.1778 L443.6081,321.8854 L453.6892,324.1702 L463.7703,324.8737 L473.8514,324.5973 L483.9324,325.0466 L494.0135,322.1237 L504.0946,321.6727 L514.1757,321.7548 L524.2568,323.2548 L534.3378,322.8878 L544.4189,325.229 L554.5,323.4119 L554.0342,323.4119 L553.5852,313.2835 L555.1087,303.1552 L552.7218,293.0268 L553.1157,282.8985 L556.2305,272.7701 L555.6618,262.6418 L556.4586,252.5134 L553.6419,242.3851 L555.3512,232.2567 L556.0745,222.1284 L554.5,212 L554.2031,211.7031 L552.4397,209.9397 L550.5792,208.0792 L548.9097,206.4097 L546.4974,203.9974 L544.5,202 L544.5,203.2335 L534.4167,200.5232 L524.3333,200.194 L514.25,203.343 L504.1667,200.0882 L494.0833,203.3572 L484,202.551 L473.9167,201.2856 L463.8333,201.0566 L453.75,203.2234 L443.6667,201.2018 L433.5833,203.5783 L423.5,200.526 L413.4167,203.6465 L403.3333,203.2915 L393.25,202.6532 L383.1667,202.1259 L373.0833,203.9376 L363,203.6362 L352.9167,202.4513 L342.8333,202.7152 L332.75,201.6526 L322.6667,203.9105 L312.5833,202.413 L302.5,202.4602 L292.4167,200.3777 L282.3333,200.9194 L272.25,203.4153 L262.1667,203.146 L252.0833,201.8855 L242,201.1409 L231.9167,201.4162 L221.8333,200.1702 L211.75,203.106 L201.6667,203.9722 L191.5833,203.4037 L181.5,202 " fill="#FEFFDD" style="stroke:#181818;stroke-width:0.5;"/><path d="M544.5,202 L544.6868,202 L544.1317,204 L544.6718,206 L544.8553,208 L543.8659,210 L544.5,212 L544.5,211.9309 L546.5,211.6209 L548.5,211.6591 L550.5,211.9394 L552.5,211.3854 L554.5,212 L554.848,212.348 L552.1038,209.6038 L550.3757,207.8757 L548.7715,206.2715 L546.4461,203.9461 L544.5,202 " fill="#FEFFDD" style="stroke:#181818;stroke-width:1.0;"/><path d="M207,216.75 L207,216.75 L207.0661,216.8161 L204.9198,218.5698 L203.1607,220.7107 L201.2756,222.7256 L198.9758,224.3258 L197.25,226.5 L197.25,226.5 L197.2256,226.4756 L195.166,224.416 L193.2295,222.4795 L191.3786,220.6286 L189.2327,218.4827 L187.5,216.75 L187.5,216.75 L187.674,216.924 L189.2519,214.6019 L191.3378,212.7878 L193.4857,211.0357 L195.273,208.923 L197.25,207 L197.25,207 L197.2714,207.0214 L199.19,208.94 L201.2061,210.9561 L203.1752,212.9252 L205.2341,214.9841 L207,216.75 " fill="#FFCC4D" style="stroke:#FFCC4D;stroke-width:1.0;"/><polygon fill="#664500" points="195.0591,215.1401,195.032,215.461,194.9288,215.7051,194.8103,215.9483,194.7125,216.2308,194.5279,216.3919,194.3593,216.5649,194.1615,216.6766,193.9435,216.7301,193.7541,216.785,193.4973,216.6987,193.3335,216.6891,193.1215,216.5534,192.9176,216.3661,192.7747,216.1991,192.6312,215.9651,192.5237,215.7165,192.4348,215.431,192.383,215.1387,192.3539,214.8246,192.3674,214.5237,192.4167,214.234,192.5134,213.9806,192.6169,213.7164,192.7463,213.4781,192.9593,213.3569,193.0899,213.1307,193.3214,213.0661,193.4981,212.9547,193.747,212.9834,193.9435,212.9851,194.1208,213.0136,194.3457,213.1674,194.5213,213.3151,194.6745,213.4965,194.8097,213.7188,194.9359,213.9937,195.0067,214.2538,195.0873,214.5865,195.0731,214.8398" style="stroke:#664500;stroke-width:1.0;"/><polygon fill="#664500" points="202.1007,215.1401,202.0737,215.461,201.9704,215.7051,201.8519,215.9483,201.7541,216.2308,201.5696,216.3919,201.401,216.5649,201.2031,216.6766,200.9851,216.7301,200.7958,216.785,200.539,216.6987,200.3751,216.6891,200.1632,216.5534,199.9593,216.3661,199.8164,216.1991,199.6728,215.9651,199.5654,215.7165,199.4765,215.431,199.4247,215.1387,199.3955,214.8246,199.4091,214.5237,199.4584,214.234,199.5551,213.9806,199.6585,213.7164,199.7879,213.4781,200.0009,213.3569,200.1316,213.1307,200.3631,213.0661,200.5397,212.9547,200.7887,212.9834,200.9851,212.9851,201.1625,213.0136,201.3874,213.1674,201.563,213.3151,201.7161,213.4965,201.8513,213.7188,201.9775,213.9937,202.0484,214.2538,202.129,214.5865,202.1147,214.8398" style="stroke:#664500;stroke-width:1.0;"/><path d="M192.1935,222.0968 L192.1935,222.0968 L192.1978,222.1901 L192.2539,221.916 L192.335,222.1889 L192.408,222.2837 L192.4542,221.7926 L192.5375,222.1125 L192.5375,222.1125 L192.5266,222.0797 L193.4201,221.6185 L194.3686,221.3225 L195.3554,221.1413 L196.2103,220.5643 L197.25,220.5417 L197.25,220.5417 L197.3278,220.7751 L198.1039,220.5901 L199.1072,221.0866 L200.1382,221.6663 L201.0079,221.7622 L201.9625,222.1125 L201.9625,222.1125 L201.9639,222.1428 L202.0306,222.0952 L202.1037,222.1855 L202.1737,222.2092 L202.2495,222.36 L202.3065,222.0968 L202.3065,222.0968 L202.6014,222.1409 L202.6152,222.0734 L202.4387,221.9775 L202.5408,221.9232 L202.6559,221.8709 L202.3574,221.7566 L202.3574,221.7566 L202.2016,221.4765 L201.4825,221.4522 L200.2504,220.5055 L199.4082,220.26 L198.1646,219.2924 L197.25,218.9167 L197.25,218.9167 L197.2352,218.8901 L196.3887,219.7727 L195.1965,220.0337 L194.2083,220.6615 L193.2372,221.3202 L192.1426,221.7566 L192.1426,221.7566 L192.3256,221.784 L192.1511,221.8244 L192.2892,221.9116 L191.9216,221.9231 L192.3084,222.0475 L192.1935,222.0968 " fill="#664500" style="stroke:#664500;stroke-width:1.0;"/><text fill="#000000" font-family="xkcd Script" font-size="13" lengthAdjust="spacing" textLength="319" x="211" y="224.2371">Mauvaise classe de « description ». Il n'est pas nécessaire</text><text fill="#000000" font-family="xkcd Script" font-size="13" lengthAdjust="spacing" textLength="321" x="187.5" y="242.2945">d'avoir cette classe, car les clients sont décrits dans leur</text><text fill="#000000" font-family="xkcd Script" font-size="13" lengthAdjust="spacing" textLength="322" x="187.5" y="260.3519">propre classe Client. Si un client n'existe pas, il n'a pas de</text><text fill="#000000" font-family="xkcd Script" font-size="13" lengthAdjust="spacing" textLength="348" x="187.5" y="278.4092">sens dans le MDD. Les informations ne seraient pas dupliquées</text><text fill="#000000" font-family="xkcd Script" font-size="13" lengthAdjust="spacing" textLength="324" x="187.5" y="296.4666">s'il n'y avait pas cette classe (chaque client a un nom et un</text><text fill="#000000" font-family="xkcd Script" font-size="13" lengthAdjust="spacing" textLength="104" x="187.5" y="314.524">identifiant unique).</text></g><!--MD5=[1b394f3b3aee071b89bad3fa580da921]
link C to GC--><g id="link_C_GC"><path d="M213,122.19 L213.2385,122.3372 L207.3573,130.2785 L202.874,139.0827 L197.9355,147.6059 L191.5,155.205 L187.0485,164.0289 L181.4801,172.1633 L176.3562,180.5721 L171.5413,189.1716 L165.6616,197.1137 L161.9015,206.3644 L155.3856,213.9139 L150.7036,222.5955 L146.2454,231.4152 L140.4853,239.4313 L135.41,247.87 " fill="none" style="stroke:#181818;stroke-width:1.0;"/><polygon fill="#000000" points="194.3734,166.2832,194.4187,166.3366,195.7345,164.9474,197.316,163.8713,198.811,162.6932,200.0214,161.1798,201.6257,160.1306,201.6121,160.1085,200.5507,159.392,199.5579,158.7867,198.6129,158.2586,197.5034,157.4643,196.6242,157.0428,196.8035,157.0865,195.9699,158.8412,195.6598,160.7234,195.4136,162.6211,194.7958,164.4284,194.3734,166.2832" style="stroke:#000000;stroke-width:1.0;"/><text fill="#000000" font-family="xkcd Script" font-size="13" lengthAdjust="spacing" textLength="36" x="206" y="167.1695">Décrit</text><text fill="#000000" font-family="xkcd Script" font-size="13" lengthAdjust="spacing" textLength="4" x="204.4906" y="144.4768">1</text><text fill="#000000" font-family="xkcd Script" font-size="13" lengthAdjust="spacing" textLength="4" x="133.5333" y="236.1477">1</text></g><!--MD5=[73165dda18877bbb83b061b1f48ac182]
link CP to C--><g id="link_CP_C"><path d="M71.2,64.5 L71.2,64.7802 L81.3136,63.9476 L91.4273,64.7577 L101.5409,65.0329 L111.6545,63.5488 L121.7682,64.3964 L131.8818,63.9313 L141.9955,63.9887 L152.1091,64.4091 L162.2227,63.5782 L172.3364,65.2382 L182.45,64.5 " fill="none" style="stroke:#181818;stroke-width:1.0;"/><polygon fill="#000000" points="98.25,51.5287,98.2716,51.5953,96.3983,50.8096,94.6519,50.4144,92.8641,49.892,90.9404,48.9514,89.2049,48.5898,89.179,48.5898,89.0628,49.7653,89.0771,50.9409,89.1822,52.1165,88.9745,53.292,89.2049,54.4676,89.2619,54.6431,90.949,53.68,92.8026,53.2293,94.6765,52.8412,96.4321,52.0893,98.25,51.5287" style="stroke:#000000;stroke-width:1.0;"/><text fill="#000000" font-family="xkcd Script" font-size="13" lengthAdjust="spacing" textLength="62" x="102.25" y="56.6695">Répertorie</text><text fill="#000000" font-family="xkcd Script" font-size="13" lengthAdjust="spacing" textLength="4" x="79.1088" y="58.6073">1</text><text fill="#000000" font-family="xkcd Script" font-size="13" lengthAdjust="spacing" textLength="8" x="166.4083" y="59.6188">*</text></g><!--MD5=[8764fdf11c941ee2718ae712057ed701]
link C to GMN7--><g id="link_C_GMN7"><path d="M282.71,122.19 L282.949,122.3363 L287.6589,130.7538 L293.7698,140.029 L299.4245,149.0249 L303.5788,157.1022 L309.7216,166.397 L314.745,175.0064 L320.2139,183.8886 L325.9925,192.9603 L331.49,201.86 " fill="none" style="stroke:#181818;stroke-width:1.0;stroke-dasharray:7.0,7.0;"/></g><!--MD5=[5b7575036b34335ca6b06abfcd8c05b8]
@startuml
!include ecriture.pumlinclude
scale 1
hide empty members
class "Client" as GC {
}
class "Description\nClient" as C #ffdddd {
  nom : Texte
  identifiant : IDClient
  ...
}
class "Catalogue\nClients" as CP #ffdddd
C "1" - - "1" GC : Décrit >
CP "1" -r- "*" C : Répertorie >
note bottom of C
<:frowning_face:> Mauvaise classe de « description ». Il n'est pas nécessaire 
d'avoir cette classe, car les clients sont décrits dans leur 
propre classe Client. Si un client n'existe pas, il n'a pas de
sens dans le MDD. Les informations ne seraient pas dupliquées 
s'il n'y avait pas cette classe (chaque client a un nom et un
identifiant unique).
end note
@enduml

@startuml
skinparam style strictuml
skinparam backgroundcolor transparent
skinparam defaultfontname xkcd Script
skinparam handwritten true
scale 1
hide empty members
class "Client" as GC {
}
class "Description\nClient" as C #ffdddd {
  nom : Texte
  identifiant : IDClient
  ...
}
class "Catalogue\nClients" as CP #ffdddd
C "1" - - "1" GC : Décrit >
CP "1" -r- "*" C : Répertorie >
note bottom of C
<:frowning_face:> Mauvaise classe de « description ». Il n'est pas nécessaire 
d'avoir cette classe, car les clients sont décrits dans leur 
propre classe Client. Si un client n'existe pas, il n'a pas de
sens dans le MDD. Les informations ne seraient pas dupliquées 
s'il n'y avait pas cette classe (chaque client a un nom et un
identifiant unique).
end note
@enduml

PlantUML version 1.2022.6(Tue Jun 21 17:34:49 UTC 2022)
(GPL source distribution)
Java Runtime: OpenJDK Runtime Environment
JVM: OpenJDK 64-Bit Server VM
Default Encoding: UTF-8
Language: en
Country: null
--></g></svg>