<?xml version="1.0" encoding="UTF-8" standalone="no"?><svg xmlns="http://www.w3.org/2000/svg" xmlns:xlink="http://www.w3.org/1999/xlink" contentStyleType="text/css" height="226px" preserveAspectRatio="none" style="width:147px;height:226px;background:#00000000;" version="1.1" viewBox="0 0 147 226" width="147px" zoomAndPan="magnify"><defs/><g><!--MD5=[f35b8d93951ba498799a84be5600c0ca]
class Joueur--><g id="elem_Joueur"><polygon fill="#F1F1F1" points="9.5,7,9.5,7.2102,19.3462,6.5857,29.1923,7.1933,39.0385,7.3997,48.8846,6.2866,58.7308,6.9223,68.5769,6.5735,78.4231,6.6165,88.2692,6.9318,98.1154,6.3086,107.9615,7.5536,117.8077,6.3697,127.6538,6.8022,137.5,7,137.5551,7.133,137.8426,7.12,138.2158,7.3139,138.5566,7.4295,138.937,7.6408,139.2678,7.7322,139.3414,7.7627,139.5946,8.1605,139.7673,8.5249,139.9163,8.8795,139.932,9.1789,140,9.5,140.4636,9.5,140.7022,19.6912,139.2788,29.8824,140.6785,40.0736,139.7035,50.2648,140.5338,60.456,139.505,70.6472,140,80.8384,139.9789,80.8297,140.0819,81.2866,139.6921,81.5393,139.5931,81.9125,139.5185,82.2958,139.2678,82.6062,139.3209,82.7344,138.9137,82.7514,138.5973,82.9875,138.1341,82.8692,137.8898,83.2796,137.5,83.3384,137.5,83.8866,127.6538,83.783,117.8077,83.9514,107.9615,82.8553,98.1154,82.6862,88.2692,82.717,78.4231,83.2795,68.5769,83.1419,58.7308,84.0198,48.8846,83.1637,39.0385,82.9954,29.1923,83.5667,19.3462,82.6716,9.5,83.3384,9.4338,83.1786,9.2292,83.3918,8.8485,83.1797,8.533,83.1253,8.0447,82.6535,7.7322,82.6062,7.8305,82.6469,7.7676,82.3279,7.2939,81.8388,7.2634,81.5333,7.1852,81.208,7,80.8384,7.6518,80.8384,6.9958,70.6472,7.4626,60.456,6.4462,50.2648,6.3227,40.0736,7.5036,29.8824,6.2831,19.6912,7,9.5,7.1567,9.5649,7.2101,9.1728,7.2104,8.7587,7.3304,8.3942,7.7271,8.1443,7.7322,7.7322,7.694,7.6401,8.1613,7.7681,8.3688,7.2691,8.8717,7.483,9.2082,7.2956,9.5,7" style="stroke:#181818;stroke-width:0.5;"/><text fill="#000000" font-family="xkcd Script" font-size="14" lengthAdjust="spacing" textLength="43" x="52" y="27.2593">Joueur</text><path d="M8,36.4461 L8,36.7264 L18.0769,35.8937 L28.1538,36.7039 L38.2308,36.979 L48.3077,35.4949 L58.3846,36.3425 L68.4615,35.8775 L78.5385,35.9348 L88.6154,36.3553 L98.6923,35.5243 L108.7692,37.1843 L118.8462,35.6058 L128.9231,36.1825 L139,36.4461 " fill="#F1F1F1" style="stroke:#181818;stroke-width:0.5;"/><text fill="#000000" font-family="xkcd Script" font-size="14" lengthAdjust="spacing" textLength="71" x="13" y="55.7054">nom : String</text><text fill="#0000FF" font-family="xkcd Script" font-size="14" lengthAdjust="spacing" textLength="121" x="13" y="75.1515">/nbPaysOccupés : int</text></g><!--MD5=[aa2bb12b1d34009d39b42a242f861e93]
class Pays--><g id="elem_Pays"><polygon fill="#F1F1F1" points="34.5,163,34.5,163.2102,44.25,162.5857,54,163.1933,63.75,163.3997,73.5,162.2866,83.25,162.9223,93,162.5735,102.75,162.6165,112.5,163,112.4913,162.979,112.7654,162.9335,113.2777,163.4634,113.4803,163.2452,113.889,163.5249,114.2678,163.7322,114.4008,163.7873,114.3878,164.0748,114.5817,164.448,114.6973,164.7888,114.9085,165.1692,115,165.5,115.2391,165.5,115.5857,175.8785,115.6711,186.2569,115.6793,196.6354,115.2546,207.0138,115,217.3923,115.1428,217.4514,115.0698,217.8354,114.485,218.0074,114.7696,218.5395,114.3229,218.7687,114.2678,219.16,114.3359,219.3244,113.8511,219.154,113.5519,219.4318,113.3017,219.8278,112.8473,219.7308,112.5,219.8923,112.5,219.9976,102.75,220.2309,93,220.3085,83.25,219.8884,73.5,220.1795,63.75,219.3199,54,220.1767,44.25,220.4405,34.5,219.8923,34.5567,220.0292,34.2246,219.9346,33.7313,219.4506,33.3561,219.2521,33.0065,219.1151,32.7322,219.16,32.7141,219.1525,32.5253,218.7814,32.6492,218.5399,32.2391,218.0771,32.0408,217.7021,32,217.3923,32.2283,217.3923,31.3332,207.0138,31.4809,196.6354,32.649,186.2569,32.4357,175.8785,32,165.5,32.2262,165.5937,32.0473,165.1054,32.3912,164.8336,32.6212,164.5147,32.4403,164.0255,32.7322,163.7322,32.72,163.7027,33.1019,163.6246,33.5225,163.6401,33.7924,163.2916,34.2055,163.2889,34.5,163" style="stroke:#181818;stroke-width:0.5;"/><text fill="#000000" font-family="xkcd Script" font-size="14" lengthAdjust="spacing" textLength="28" x="59.5" y="183.2593">Pays</text><path d="M33,192.4461 L33,192.7264 L43.125,191.8937 L53.25,192.7039 L63.375,192.979 L73.5,191.4949 L83.625,192.3425 L93.75,191.8775 L103.875,191.9348 L114,192.4461 " fill="#F1F1F1" style="stroke:#181818;stroke-width:0.5;"/><text fill="#000000" font-family="xkcd Script" font-size="14" lengthAdjust="spacing" textLength="71" x="38" y="211.7054">nom : String</text></g><!--MD5=[129254b4648df46714f886143fa6f15e]
link Joueur to Pays--><g id="link_Joueur_Pays"><path d="M73.5,83.21 L73.7802,83.21 L72.9476,93.1838 L73.7577,103.1575 L74.0329,113.1313 L72.5488,123.105 L73.3964,133.0788 L72.9313,143.0525 L72.9887,153.0263 L73.5,163 " fill="none" style="stroke:#181818;stroke-width:1.0;"/><polygon fill="#000000" points="78.5,128.0287,78.5666,128.0503,78.9564,126.177,79.7368,124.4306,80.3901,122.6428,80.625,120.7191,81.4389,118.9836,81.4389,118.9577,80.2634,118.8414,79.0878,118.8558,77.9122,118.9609,76.7366,118.7531,75.5611,118.9836,75.7366,119.0406,75.949,120.7277,76.6739,122.5813,77.4614,124.4551,77.885,126.2108,78.5,128.0287" style="stroke:#000000;stroke-width:1.0;"/><text fill="#000000" font-family="xkcd Script" font-size="13" lengthAdjust="spacing" textLength="47" x="87.5" y="128.1695">Contrôle</text><text fill="#000000" font-family="xkcd Script" font-size="13" lengthAdjust="spacing" textLength="4" x="69.1563" y="105.4696">1</text><text fill="#000000" font-family="xkcd Script" font-size="13" lengthAdjust="spacing" textLength="18" x="53.5313" y="150.9844">1..*</text></g><!--MD5=[58a600d913b00bebd4bf053032abc776]
@startuml
!include ecriture.pumlinclude
scale 1
hide empty members
class Joueur {
  nom : String
  <color:blue>/nbPaysOccupés : int</color>
}
class Pays {
  nom : String
}
Joueur "1" - - "1..*" Pays : Contrôle >
@enduml

@startuml
skinparam style strictuml
skinparam backgroundcolor transparent
skinparam defaultfontname xkcd Script
skinparam handwritten true
scale 1
hide empty members
class Joueur {
  nom : String
  <color:blue>/nbPaysOccupés : int</color>
}
class Pays {
  nom : String
}
Joueur "1" - - "1..*" Pays : Contrôle >
@enduml

PlantUML version 1.2022.6(Tue Jun 21 17:34:49 UTC 2022)
(GPL source distribution)
Java Runtime: OpenJDK Runtime Environment
JVM: OpenJDK 64-Bit Server VM
Default Encoding: UTF-8
Language: en
Country: null
--></g></svg>