<?xml version="1.0" encoding="UTF-8" standalone="no"?><svg xmlns="http://www.w3.org/2000/svg" xmlns:xlink="http://www.w3.org/1999/xlink" contentStyleType="text/css" height="325px" preserveAspectRatio="none" style="width:202px;height:325px;background:#00000000;" version="1.1" viewBox="0 0 202 325" width="202px" zoomAndPan="magnify"><defs/><g><!--MD5=[f35b8d93951ba498799a84be5600c0ca]
class Joueur--><g id="elem_Joueur"><polygon fill="#F1F1F1" points="9.5,7,9.5,7.2102,19.25,6.5857,29,7.1933,38.75,7.3997,48.5,6.2866,58.25,6.9223,68,6.5735,77.75,6.6165,87.5,7,87.4913,6.979,87.7654,6.9335,88.2777,7.4634,88.4803,7.2452,88.889,7.5249,89.2678,7.7322,89.4008,7.7873,89.3878,8.0748,89.5817,8.448,89.6973,8.7888,89.9085,9.1692,90,9.5,90.2391,9.5,90.5857,19.8785,90.6711,30.2569,90.6793,40.6354,90.2546,51.0138,90,61.3923,90.1428,61.4514,90.0698,61.8354,89.485,62.0074,89.7696,62.5395,89.3229,62.7687,89.2678,63.16,89.3359,63.3244,88.8511,63.154,88.5519,63.4318,88.3017,63.8278,87.8473,63.7308,87.5,63.8923,87.5,63.9976,77.75,64.2309,68,64.3085,58.25,63.8884,48.5,64.1795,38.75,63.3199,29,64.1767,19.25,64.4405,9.5,63.8923,9.5567,64.0292,9.2246,63.9346,8.7313,63.4506,8.3561,63.2521,8.0065,63.1151,7.7322,63.16,7.7141,63.1525,7.5253,62.7814,7.6492,62.5399,7.2391,62.0771,7.0408,61.7021,7,61.3923,7.2283,61.3923,6.3332,51.0138,6.4809,40.6354,7.649,30.2569,7.4357,19.8785,7,9.5,7.2262,9.5937,7.0473,9.1054,7.3912,8.8336,7.6212,8.5147,7.4403,8.0255,7.7322,7.7322,7.72,7.7027,8.1019,7.6246,8.5225,7.6401,8.7924,7.2916,9.2055,7.2889,9.5,7" style="stroke:#181818;stroke-width:0.5;"/><text fill="#000000" font-family="xkcd Script" font-size="14" lengthAdjust="spacing" textLength="43" x="27" y="27.2593">Joueur</text><path d="M8,36.4461 L8,36.7264 L18.125,35.8937 L28.25,36.7039 L38.375,36.979 L48.5,35.4949 L58.625,36.3425 L68.75,35.8775 L78.875,35.9348 L89,36.4461 " fill="#F1F1F1" style="stroke:#181818;stroke-width:0.5;"/><text fill="#000000" font-family="xkcd Script" font-size="14" lengthAdjust="spacing" textLength="71" x="13" y="55.7054">nom : String</text></g><!--MD5=[aa2bb12b1d34009d39b42a242f861e93]
class Pays--><g id="elem_Pays"><polygon fill="#F1F1F1" points="9.5,262,9.5,262.2102,19.25,261.5857,29,262.1933,38.75,262.3997,48.5,261.2866,58.25,261.9223,68,261.5735,77.75,261.6165,87.5,262,87.4913,261.979,87.7654,261.9335,88.2777,262.4634,88.4803,262.2452,88.889,262.5249,89.2678,262.7322,89.4008,262.7873,89.3878,263.0748,89.5817,263.448,89.6973,263.7888,89.9085,264.1692,90,264.5,90.2391,264.5,90.5857,274.8785,90.6711,285.2569,90.6793,295.6354,90.2546,306.0138,90,316.3923,90.1428,316.4514,90.0698,316.8354,89.485,317.0074,89.7696,317.5395,89.3229,317.7687,89.2678,318.16,89.3359,318.3244,88.8511,318.154,88.5519,318.4318,88.3017,318.8278,87.8473,318.7308,87.5,318.8923,87.5,318.9976,77.75,319.2309,68,319.3085,58.25,318.8884,48.5,319.1795,38.75,318.3199,29,319.1767,19.25,319.4405,9.5,318.8923,9.5567,319.0292,9.2246,318.9346,8.7313,318.4506,8.3561,318.2521,8.0065,318.1151,7.7322,318.16,7.7141,318.1525,7.5253,317.7814,7.6492,317.5399,7.2391,317.0771,7.0408,316.7021,7,316.3923,7.2283,316.3923,6.3332,306.0138,6.4809,295.6354,7.649,285.2569,7.4357,274.8785,7,264.5,7.2262,264.5937,7.0473,264.1054,7.3912,263.8336,7.6212,263.5147,7.4403,263.0255,7.7322,262.7322,7.72,262.7027,8.1019,262.6246,8.5225,262.6401,8.7924,262.2916,9.2055,262.2889,9.5,262" style="stroke:#181818;stroke-width:0.5;"/><text fill="#000000" font-family="xkcd Script" font-size="14" lengthAdjust="spacing" textLength="28" x="34.5" y="282.2593">Pays</text><path d="M8,291.4461 L8,291.7264 L18.125,290.8937 L28.25,291.7039 L38.375,291.979 L48.5,290.4949 L58.625,291.3425 L68.75,290.8775 L78.875,290.9348 L89,291.4461 " fill="#F1F1F1" style="stroke:#181818;stroke-width:0.5;"/><text fill="#000000" font-family="xkcd Script" font-size="14" lengthAdjust="spacing" textLength="71" x="13" y="310.7054">nom : String</text></g><!--MD5=[7c584010ef5141f88086f5072b621c09]
class Occupation--><g id="elem_Occupation"><polygon fill="#F1F1F1" points="88,144,88,144.2102,97.5455,143.5857,107.0909,144.1933,116.6364,144.3997,126.1818,143.2866,135.7273,143.9223,145.2727,143.5735,154.8182,143.6165,164.3636,143.9318,173.9091,143.3086,183.4545,144.5536,193,144,192.9196,143.8059,193.3283,144.0855,193.7622,144.4259,194.0497,144.4129,194.4229,144.6068,194.7678,144.7322,194.7579,144.7282,194.9692,145.1086,195.1343,145.4698,195.3875,145.8676,195.5602,146.232,195.5,146.5,196.1793,146.5,195.7546,156.8785,195.9636,167.2569,196.2022,177.6354,194.7788,188.0138,195.5,198.3923,195.709,198.4788,195.2622,198.708,195.3715,199.1675,194.9082,199.3898,194.8931,199.7978,194.7678,200.16,194.8624,200.3884,194.408,200.2915,194.0741,200.4854,193.7503,200.7037,193.4066,200.874,193,200.8923,193,200.8884,183.4545,201.1795,173.9091,200.3199,164.3636,201.1767,154.8182,201.4405,145.2727,201.3368,135.7273,201.5053,126.1818,200.4092,116.6364,200.2401,107.0909,200.2709,97.5455,200.8334,88,200.8923,87.9749,200.8318,87.7334,200.9557,87.2706,200.5456,86.8956,200.3473,86.6149,200.3768,86.2322,200.16,86.0269,200.075,85.9259,199.7403,86.1392,199.5357,85.9271,199.155,85.8726,198.8395,85.5,198.3923,85.1782,198.3923,85.8192,188.0138,86.0904,177.6354,85.0276,167.2569,85.4041,156.8785,85.5,146.5,85.5388,146.5161,85.8472,146.2296,85.7916,145.7924,86.0818,145.4983,85.9152,145.0151,86.2322,144.7322,86.1458,144.5237,86.65,144.7409,86.8479,144.2186,87.3578,144.4496,87.6728,144.2101,88,144" style="stroke:#181818;stroke-width:0.5;"/><text fill="#000000" font-family="xkcd Script" font-size="14" lengthAdjust="spacing" textLength="64" x="108.5" y="164.2593">Occupation</text><path d="M86.5,173.4461 L86.5,173.7264 L96.3182,172.8937 L106.1364,173.7039 L115.9545,173.979 L125.7727,172.4949 L135.5909,173.3425 L145.4091,172.8775 L155.2273,172.9348 L165.0455,173.3553 L174.8636,172.5243 L184.6818,174.1843 L194.5,173.4461 " fill="#F1F1F1" style="stroke:#181818;stroke-width:0.5;"/><text fill="#000000" font-family="xkcd Script" font-size="14" lengthAdjust="spacing" textLength="98" x="91.5" y="192.7054">nbRégiments : int</text></g><polygon fill="#000000" points="50.511,172.9865,50.2179,173.3871,49.8711,173.9738,49.3752,174.3692,48.8541,174.5854,48.4385,174.6041,47.9045,174.3337,47.4006,174.1571,47.0181,173.7984,46.8175,173.3878,46.6985,173.0608,46.5819,172.6338,46.3927,172.2663,46.5381,171.9075,46.6655,171.5144,47.1435,171.2035,47.4798,170.8002,47.8961,170.6663,48.3909,170.5509,49.0255,170.6194,49.3731,170.7834,49.7772,170.8577,50.2686,171.3611,50.4399,171.8925,50.5143,172.2552,50.43,172.8527" style="stroke:none;stroke-width:1.0;"/><!--MD5=[b74bd70cb06aa6bfbd3b542361436cc7]
link Joueur to apoint6--><g id="link_Joueur_apoint6"><path d="M48.5,64.15 L48.7802,64.15 L47.9476,73.8 L48.7577,83.45 L49.0329,93.1 L47.5488,102.75 L48.3964,112.4 L47.9313,122.05 L47.9887,131.7 L48.4091,141.35 L47.5782,151 L49.2382,160.65 L48.5,170.3 " fill="none" style="stroke:#181818;stroke-width:1.0;"/><polygon fill="#000000" points="53.5,109.0287,53.5666,109.0503,53.9564,107.177,54.7368,105.4306,55.3901,103.6428,55.625,101.7191,56.4389,99.9836,56.4389,99.9577,55.2634,99.8414,54.0878,99.8558,52.9122,99.9609,51.7366,99.7531,50.5611,99.9836,50.7366,100.0406,50.949,101.7277,51.6739,103.5813,52.4614,105.4551,52.885,107.2108,53.5,109.0287" style="stroke:#000000;stroke-width:1.0;"/><text fill="#000000" font-family="xkcd Script" font-size="13" lengthAdjust="spacing" textLength="47" x="62.5" y="109.1695">Contrôle</text><text fill="#000000" font-family="xkcd Script" font-size="13" lengthAdjust="spacing" textLength="4" x="44.0875" y="86.1018">1</text></g><!--MD5=[e8cb3e2479a4f4fdc97b5437d03e6c77]
link apoint6 to Pays--><g id="link_apoint6_Pays"><path d="M48.5,174.8 L48.7802,174.8 L47.9476,184.4833 L48.7577,194.1667 L49.0329,203.85 L47.5488,213.5333 L48.3964,223.2167 L47.9313,232.9 L47.9887,242.5833 L48.4091,252.2667 L48.5,261.95 " fill="none" style="stroke:#181818;stroke-width:1.0;"/><text fill="#000000" font-family="xkcd Script" font-size="13" lengthAdjust="spacing" textLength="18" x="28.5313" y="249.9235">1..*</text></g><!--MD5=[867bfb3a25d15b692aab71ba847b3c0e]
link apoint6 to Occupation--><g id="link_apoint6_Occupation"><path d="M50.66,172.5 L50.66,172.5934 L57.608,172.3159 L64.556,172.5859 L71.504,172.6776 L78.452,172.1829 L85.4,172.5 " fill="none" style="stroke:#181818;stroke-width:1.0;stroke-dasharray:7.0,7.0;"/></g><!--MD5=[b7a462f4dcb969dcf01e2b32f11f500c]
@startuml
!include ecriture.pumlinclude
scale 1
hide empty members
class Joueur {
  nom : String
}
class Pays {
  nom : String
}
class Occupation {
  nbRégiments : int
}
Joueur "1" - - "1..*" Pays : Contrôle >
(Joueur, Pays) .. Occupation
@enduml

@startuml
skinparam style strictuml
skinparam backgroundcolor transparent
skinparam defaultfontname xkcd Script
skinparam handwritten true
scale 1
hide empty members
class Joueur {
  nom : String
}
class Pays {
  nom : String
}
class Occupation {
  nbRégiments : int
}
Joueur "1" - - "1..*" Pays : Contrôle >
(Joueur, Pays) .. Occupation
@enduml

PlantUML version 1.2022.6(Tue Jun 21 17:34:49 UTC 2022)
(GPL source distribution)
Java Runtime: OpenJDK Runtime Environment
JVM: OpenJDK 64-Bit Server VM
Default Encoding: UTF-8
Language: en
Country: null
--></g></svg>