<?xml version="1.0" encoding="UTF-8" standalone="no"?><svg xmlns="http://www.w3.org/2000/svg" xmlns:xlink="http://www.w3.org/1999/xlink" contentStyleType="text/css" height="419px" preserveAspectRatio="none" style="width:653px;height:419px;background:#00000000;" version="1.1" viewBox="0 0 653 419" width="653px" zoomAndPan="magnify"><defs/><g><!--MD5=[f35b8d93951ba498799a84be5600c0ca]
class Joueur--><g id="elem_Joueur"><polygon fill="#F1F1F1" points="456.5,7,456.5,7.2102,466.3462,6.5857,476.1923,7.1933,486.0385,7.3997,495.8846,6.2866,505.7308,6.9223,515.5769,6.5735,525.4231,6.6165,535.2692,6.9318,545.1154,6.3086,554.9615,7.5536,564.8077,6.3697,574.6538,6.8022,584.5,7,584.5551,7.133,584.8426,7.12,585.2158,7.3139,585.5566,7.4295,585.937,7.6408,586.2678,7.7322,586.3414,7.7627,586.5946,8.1605,586.7673,8.5249,586.9163,8.8795,586.932,9.1789,587,9.5,587.4636,9.5,587.7022,19.6912,586.2788,29.8824,587.6785,40.0736,586.7035,50.2648,587.5338,60.456,586.505,70.6472,587,80.8384,586.9789,80.8297,587.0819,81.2866,586.6921,81.5393,586.5931,81.9125,586.5185,82.2958,586.2678,82.6062,586.3209,82.7344,585.9137,82.7514,585.5973,82.9875,585.1341,82.8692,584.8898,83.2796,584.5,83.3384,584.5,83.8866,574.6538,83.783,564.8077,83.9514,554.9615,82.8553,545.1154,82.6862,535.2692,82.717,525.4231,83.2795,515.5769,83.1419,505.7308,84.0198,495.8846,83.1637,486.0385,82.9954,476.1923,83.5667,466.3462,82.6716,456.5,83.3384,456.4338,83.1786,456.2292,83.3918,455.8485,83.1797,455.533,83.1253,455.0447,82.6535,454.7322,82.6062,454.8305,82.6469,454.7676,82.3279,454.2939,81.8388,454.2634,81.5333,454.1852,81.208,454,80.8384,454.6518,80.8384,453.9958,70.6472,454.4626,60.456,453.4462,50.2648,453.3227,40.0736,454.5036,29.8824,453.2831,19.6912,454,9.5,454.1567,9.5649,454.2101,9.1728,454.2104,8.7587,454.3304,8.3942,454.7271,8.1443,454.7322,7.7322,454.694,7.6401,455.1613,7.7681,455.3688,7.2691,455.8717,7.483,456.2082,7.2956,456.5,7" style="stroke:#181818;stroke-width:0.5;"/><text fill="#000000" font-family="xkcd Script" font-size="14" lengthAdjust="spacing" textLength="43" x="499" y="27.2593">Joueur</text><path d="M455,36.4461 L455,36.7264 L465.0769,35.8937 L475.1538,36.7039 L485.2308,36.979 L495.3077,35.4949 L505.3846,36.3425 L515.4615,35.8775 L525.5385,35.9348 L535.6154,36.3553 L545.6923,35.5243 L555.7692,37.1843 L565.8462,35.6058 L575.9231,36.1825 L586,36.4461 " fill="#F1F1F1" style="stroke:#181818;stroke-width:0.5;"/><text fill="#000000" font-family="xkcd Script" font-size="14" lengthAdjust="spacing" textLength="71" x="460" y="55.7054">nom : String</text><text fill="#000000" font-family="xkcd Script" font-size="14" lengthAdjust="spacing" textLength="121" x="460" y="75.1515">/nbPaysOccupés : int</text></g><!--MD5=[18e074f27103afc71028bba2a4f1683f]
class Dé--><g id="elem_Dé"><polygon fill="#F1F1F1" points="381.5,199,381.5,199.2102,391.7857,198.5857,402.0714,199.1933,412.3571,199.3997,422.6429,198.2866,432.9286,198.9223,443.2143,198.5735,453.5,199,453.4511,198.8819,453.8449,199.1255,454.1189,199.08,454.6313,199.6098,454.8338,199.3917,455.2678,199.7322,455.2069,199.707,455.5472,200.1409,455.5342,200.4284,455.7281,200.8016,455.8437,201.1424,456,201.5,456.1785,201.5,456.2391,211.8785,456.5857,222.2569,456.6711,232.6354,456.6793,243.0138,456,253.3923,456.0784,253.4248,455.9963,253.805,455.9234,254.189,455.3386,254.3609,455.6232,254.893,455.2678,255.16,455.2299,255.0687,454.9823,255.4709,454.4975,255.3005,454.1984,255.5783,453.9482,255.9742,453.5,255.8923,453.5,255.8435,443.2143,255.9976,432.9286,256.2309,422.6429,256.3085,412.3571,255.8884,402.0714,256.1795,391.7857,255.3199,381.5,255.8923,381.5363,255.9799,381.2164,255.9147,380.8496,255.7363,380.5175,255.6417,380.0242,255.1577,379.7322,255.16,379.5314,255.0769,379.3944,254.7272,379.4212,254.4454,379.2324,254.0743,379.3563,253.8328,379,253.3923,378.8253,253.3923,378.6569,243.0138,379.2283,232.6354,378.3332,222.2569,378.4809,211.8785,379,201.5,379.1999,201.5828,379.2806,201.202,379.5191,200.8866,379.3402,200.3983,379.6841,200.1265,379.7322,199.7322,379.8075,199.9141,380.0255,199.4403,380.4271,199.4098,380.809,199.3317,381.2296,199.3472,381.5,199" style="stroke:#181818;stroke-width:0.5;"/><text fill="#000000" font-family="xkcd Script" font-size="14" lengthAdjust="spacing" textLength="15" x="410" y="219.2593">Dé</text><path d="M380,228.4461 L380,228.7264 L389.375,227.8937 L398.75,228.7039 L408.125,228.979 L417.5,227.4949 L426.875,228.3425 L436.25,227.8775 L445.625,227.9348 L455,228.4461 " fill="#F1F1F1" style="stroke:#181818;stroke-width:0.5;"/><text fill="#000000" font-family="xkcd Script" font-size="14" lengthAdjust="spacing" textLength="65" x="385" y="247.7054">valeur : int</text></g><!--MD5=[92e2dd8b56a6c469d83eadacd3cc09e1]
class JeuRisk--><g id="elem_JeuRisk"><polygon fill="#F1F1F1" points="328,30.5,328,30.7102,337.4,30.0857,346.8,30.6933,356.2,30.8997,365.6,29.7866,375,30.5,374.9901,30.4761,375.2991,30.5151,375.6582,30.6748,376.052,30.9184,376.326,30.8729,376.7678,31.2322,376.9383,31.3029,376.7201,31.5054,376.9998,31.9141,377.3401,32.348,377.3271,32.6355,377.5,33,377.5227,33,377.4894,37.8892,377.5595,42.7785,377.5797,47.6677,377.6952,52.5569,377.5,57.4461,377.7067,57.5317,377.5627,57.8863,377.2855,58.1857,377.2034,58.5659,377.1305,58.9499,376.7678,59.2139,376.6758,58.9918,376.5008,59.5693,376.0228,59.4155,375.7752,59.8176,375.2904,59.6472,375,59.9461,375,59.8776,365.6,60.6877,356.2,59.8974,346.8,60.0514,337.4,60.2848,328,59.9461,328.0531,60.0743,327.6459,59.7985,327.3295,59.7417,326.8663,59.3305,326.6221,59.4479,326.2322,59.2139,326.4011,59.2838,326.2227,58.9171,326.1281,58.585,325.6441,58.0916,325.4456,57.7165,325.5,57.4461,325.2929,57.4461,325.4804,52.5569,325.4345,47.6677,325.7271,42.7785,325.4418,37.8892,325.5,33,325.3944,32.9562,325.7167,32.6756,325.5875,32.2078,325.7795,31.8731,326.2856,31.6686,326.2322,31.2322,326.2878,31.3664,326.6795,31.312,326.8983,30.8402,327.3336,30.8912,327.7218,30.8283,328,30.5" style="stroke:#181818;stroke-width:0.5;"/><text fill="#000000" font-family="xkcd Script" font-size="14" lengthAdjust="spacing" textLength="46" x="328.5" y="50.7593">JeuRisk</text></g><!--MD5=[17fa9520e8c08ee49e2121a7deace7c0]
class PR--><g id="elem_PR"><polygon fill="#F1F1F1" points="131.5,30.5,131.5,30.7102,141.5,30.0857,151.5,30.6933,161.5,30.8997,171.5,29.7866,181.5,30.4223,191.5,30.0735,201.5,30.5,201.4511,30.3819,201.8449,30.6255,202.1189,30.58,202.6313,31.1098,202.8338,30.8917,203.2678,31.2322,203.2069,31.207,203.5472,31.6409,203.5342,31.9284,203.7281,32.3016,203.8437,32.6424,204,33,204.0595,33,204.0797,37.8892,204.1952,42.7785,204.2237,47.6677,204.2264,52.5569,204,57.4461,204.0784,57.4786,203.9963,57.8588,203.9234,58.2428,203.3386,58.4148,203.6232,58.9469,203.2678,59.2139,203.2299,59.1226,202.9823,59.5247,202.4975,59.3544,202.1984,59.6322,201.9482,60.0281,201.5,59.9461,201.5,59.8974,191.5,60.0514,181.5,60.2848,171.5,60.3624,161.5,59.9422,151.5,60.2334,141.5,59.3737,131.5,59.9461,131.5363,60.0337,131.2164,59.9685,130.8496,59.7901,130.5175,59.6956,130.0242,59.2116,129.7322,59.2139,129.5314,59.1307,129.3944,58.7811,129.4212,58.4993,129.2324,58.1282,129.3563,57.8866,129,57.4461,128.9418,57.4461,128.8856,52.5569,129.0761,47.6677,128.7777,42.7785,128.827,37.8892,129,33,129.1999,33.0828,129.2806,32.702,129.5191,32.3866,129.3402,31.8983,129.6841,31.6265,129.7322,31.2322,129.8075,31.4141,130.0255,30.9403,130.4271,30.9098,130.809,30.8317,131.2296,30.8472,131.5,30.5" style="stroke:#181818;stroke-width:0.5;"/><text fill="#000000" font-family="xkcd Script" font-size="14" lengthAdjust="spacing" textLength="69" x="132" y="50.7593">PlateauRisk</text></g><!--MD5=[aa2bb12b1d34009d39b42a242f861e93]
class Pays--><g id="elem_Pays"><polygon fill="#F1F1F1" points="255.5,345.5,255.5,345.7102,265.25,345.0857,275,345.6933,284.75,345.8997,294.5,344.7866,304.25,345.4223,314,345.0735,323.75,345.1165,333.5,345.5,333.4913,345.479,333.7654,345.4335,334.2777,345.9634,334.4803,345.7452,334.889,346.0249,335.2678,346.2322,335.4008,346.2873,335.3878,346.5748,335.5817,346.948,335.6973,347.2888,335.9085,347.6692,336,348,336.2391,348,336.5857,358.3785,336.6711,368.7569,336.6793,379.1354,336.2546,389.5138,336,399.8923,336.1428,399.9514,336.0698,400.3354,335.485,400.5074,335.7696,401.0395,335.3229,401.2687,335.2678,401.66,335.3359,401.8244,334.8511,401.654,334.5519,401.9318,334.3017,402.3278,333.8473,402.2308,333.5,402.3923,333.5,402.4976,323.75,402.7309,314,402.8085,304.25,402.3884,294.5,402.6795,284.75,401.8199,275,402.6767,265.25,402.9405,255.5,402.3923,255.5567,402.5292,255.2246,402.4346,254.7313,401.9506,254.3561,401.7521,254.0065,401.6151,253.7322,401.66,253.7141,401.6525,253.5253,401.2814,253.6492,401.0399,253.2391,400.5771,253.0408,400.2021,253,399.8923,253.2283,399.8923,252.3332,389.5138,252.4809,379.1354,253.649,368.7569,253.4357,358.3785,253,348,253.2262,348.0937,253.0473,347.6054,253.3912,347.3336,253.6212,347.0147,253.4403,346.5255,253.7322,346.2322,253.72,346.2027,254.1019,346.1246,254.5225,346.1401,254.7924,345.7916,255.2055,345.7889,255.5,345.5" style="stroke:#181818;stroke-width:0.5;"/><text fill="#000000" font-family="xkcd Script" font-size="14" lengthAdjust="spacing" textLength="28" x="280.5" y="365.7593">Pays</text><path d="M254,374.9461 L254,375.2264 L264.125,374.3937 L274.25,375.2039 L284.375,375.479 L294.5,373.9949 L304.625,374.8425 L314.75,374.3775 L324.875,374.4348 L335,374.9461 " fill="#F1F1F1" style="stroke:#181818;stroke-width:0.5;"/><text fill="#000000" font-family="xkcd Script" font-size="14" lengthAdjust="spacing" textLength="71" x="259" y="394.2054">nom : String</text></g><!--MD5=[2894a6fe5b6973de5995322feb3c284a]
class Attaque--><g id="elem_Attaque"><polygon fill="#F1F1F1" points="9.5,336,9.5,336.2102,19.3182,335.5857,29.1364,336.1933,38.9545,336.3997,48.7727,335.2866,58.5909,335.9223,68.4091,335.5735,78.2273,335.6165,88.0455,335.9318,97.8636,335.3086,107.6818,336.5536,117.5,336,117.4196,335.8059,117.8283,336.0855,118.2622,336.4259,118.5497,336.4129,118.9229,336.6068,119.2678,336.7322,119.2579,336.7282,119.4692,337.1086,119.6343,337.4698,119.8875,337.8676,120.0602,338.232,120,338.5,120.6793,338.5,120.2546,348.6912,120.4636,358.8824,120.7022,369.0736,119.2788,379.2648,120.6785,389.456,119.7035,399.6472,120,409.8384,120.1644,409.9065,119.7011,410.1288,119.686,410.5368,119.789,410.9937,119.3992,411.2464,119.2678,411.6062,119.2812,411.6386,118.9574,411.8569,118.6138,412.0273,118.2066,412.0443,117.8902,412.2804,117.5,412.3384,117.5,411.766,107.6818,412.6228,97.8636,412.8866,88.0455,412.783,78.2273,412.9514,68.4091,411.8553,58.5909,411.6862,48.7727,411.717,38.9545,412.2795,29.1364,412.1419,19.3182,413.0198,9.5,412.3384,9.4777,412.2846,9.1027,412.0863,8.822,412.1158,8.3543,411.6937,8.0196,411.5928,7.7322,411.6062,7.9321,411.689,7.72,411.3082,7.6655,410.9928,7.1938,410.5045,7.2447,410.2327,7,409.8384,7.5904,409.8384,6.5276,399.6472,6.9041,389.456,7.126,379.2648,7.6518,369.0736,6.9958,358.8824,7.4626,348.6912,7,338.5,6.8295,338.4294,6.9379,338.0601,7.448,337.8571,7.2186,337.3479,7.7425,337.1507,7.7322,336.7322,7.7586,336.7959,8.0516,336.5033,8.3942,336.3304,8.8514,336.4342,9.1083,336.0543,9.5,336" style="stroke:#181818;stroke-width:0.5;"/><text fill="#000000" font-family="xkcd Script" font-size="14" lengthAdjust="spacing" textLength="47" x="40" y="356.2593">Attaque</text><path d="M8,365.4461 L8,365.7264 L18.0909,364.8937 L28.1818,365.7039 L38.2727,365.979 L48.3636,364.4949 L58.4545,365.3425 L68.5455,364.8775 L78.6364,364.9348 L88.7273,365.3553 L98.8182,364.5243 L108.9091,366.1843 L119,365.4461 " fill="#F1F1F1" style="stroke:#181818;stroke-width:0.5;"/><text fill="#000000" font-family="xkcd Script" font-size="14" lengthAdjust="spacing" textLength="98" x="13" y="384.7054">nbAttaquant : int</text><text fill="#000000" font-family="xkcd Script" font-size="14" lengthAdjust="spacing" textLength="101" x="13" y="404.1515">nbDéfenseur : int</text></g><!--MD5=[7c584010ef5141f88086f5072b621c09]
class Occupation--><g id="elem_Occupation"><polygon fill="#F1F1F1" points="539,199,539,199.2102,548.5455,198.5857,558.0909,199.1933,567.6364,199.3997,577.1818,198.2866,586.7273,198.9223,596.2727,198.5735,605.8182,198.6165,615.3636,198.9318,624.9091,198.3086,634.4545,199.5536,644,199,643.9196,198.8059,644.3283,199.0855,644.7622,199.4259,645.0497,199.4129,645.4229,199.6068,645.7678,199.7322,645.7579,199.7282,645.9692,200.1086,646.1343,200.4698,646.3875,200.8676,646.5602,201.232,646.5,201.5,647.1793,201.5,646.7546,211.8785,646.9636,222.2569,647.2022,232.6354,645.7788,243.0138,646.5,253.3923,646.709,253.4788,646.2622,253.708,646.3715,254.1675,645.9082,254.3898,645.8931,254.7978,645.7678,255.16,645.8624,255.3884,645.408,255.2915,645.0741,255.4854,644.7503,255.7037,644.4066,255.874,644,255.8923,644,255.8884,634.4545,256.1795,624.9091,255.3199,615.3636,256.1767,605.8182,256.4405,596.2727,256.3368,586.7273,256.5053,577.1818,255.4092,567.6364,255.2401,558.0909,255.2709,548.5455,255.8334,539,255.8923,538.9749,255.8318,538.7334,255.9557,538.2706,255.5456,537.8956,255.3473,537.6149,255.3768,537.2322,255.16,537.0269,255.075,536.9259,254.7403,537.1392,254.5357,536.9271,254.155,536.8726,253.8395,536.5,253.3923,536.1782,253.3923,536.8192,243.0138,537.0904,232.6354,536.0276,222.2569,536.4041,211.8785,536.5,201.5,536.5388,201.5161,536.8472,201.2296,536.7916,200.7924,537.0818,200.4983,536.9152,200.0151,537.2322,199.7322,537.1458,199.5237,537.65,199.7409,537.8479,199.2186,538.3578,199.4496,538.6728,199.2101,539,199" style="stroke:#181818;stroke-width:0.5;"/><text fill="#000000" font-family="xkcd Script" font-size="14" lengthAdjust="spacing" textLength="64" x="559.5" y="219.2593">Occupation</text><path d="M537.5,228.4461 L537.5,228.7264 L547.3182,227.8937 L557.1364,228.7039 L566.9545,228.979 L576.7727,227.4949 L586.5909,228.3425 L596.4091,227.8775 L606.2273,227.9348 L616.0455,228.3553 L625.8636,227.5243 L635.6818,229.1843 L645.5,228.4461 " fill="#F1F1F1" style="stroke:#181818;stroke-width:0.5;"/><text fill="#000000" font-family="xkcd Script" font-size="14" lengthAdjust="spacing" textLength="98" x="542.5" y="247.7054">nbRégiments : int</text></g><!--MD5=[e2c3cf1f717dbe59ae4ba9c73a677022]
class Continent--><g id="elem_Continent"><polygon fill="#F1F1F1" points="266.5,213,266.5,213.2102,275.8333,212.5857,285.1667,213.1933,294.5,213.3997,303.8333,212.2866,313.1667,212.9223,322.5,213,322.4456,212.8687,322.8046,213.0283,323.1984,213.2719,323.4725,213.2264,323.9848,213.7563,324.2678,213.7322,324.0737,213.6518,324.3533,214.0606,324.6937,214.4944,324.6807,214.782,324.8746,215.1552,325,215.5,324.9894,215.5,325.0595,220.3892,325.0797,225.2785,325.1952,230.1677,325.2237,235.0569,325,239.9461,325.2092,240.0328,324.932,240.3322,324.8499,240.7124,324.7769,241.0964,324.1921,241.2684,324.2678,241.7139,324.3543,241.9229,323.8764,241.769,323.6288,242.1712,323.144,242.0008,322.8448,242.2786,322.5,242.4461,322.5,243.1877,313.1667,242.3974,303.8333,242.5514,294.5,242.7848,285.1667,242.8624,275.8333,242.4422,266.5,242.4461,266.5366,242.5346,266.0734,242.1234,265.8292,242.2408,265.5093,242.1756,265.1425,241.9973,264.7322,241.7139,264.921,241.7921,264.437,241.2987,264.2385,240.9236,264.1015,240.574,264.1283,240.2922,264,239.9461,263.9345,239.9461,264.2271,235.0569,263.9418,230.1677,263.8856,225.2785,264.0761,220.3892,264,215.5,263.7946,215.4149,263.9866,215.0802,264.4927,214.8757,264.5735,214.4949,264.812,214.1795,264.7322,213.7322,264.6912,213.6331,265.1265,213.6841,265.5147,213.6212,265.7326,213.1474,266.1342,213.1169,266.5,213" style="stroke:#181818;stroke-width:0.5;"/><text fill="#000000" font-family="xkcd Script" font-size="14" lengthAdjust="spacing" textLength="55" x="267" y="233.2593">Continent</text></g><polygon fill="#000000" points="501.511,227.9865,501.2179,228.3871,500.8711,228.9738,500.3752,229.3692,499.8541,229.5854,499.4385,229.6041,498.9045,229.3337,498.4006,229.1571,498.0181,228.7984,497.8175,228.3878,497.6985,228.0608,497.5819,227.6338,497.3927,227.2663,497.5381,226.9075,497.6655,226.5144,498.1435,226.2035,498.4798,225.8002,498.8961,225.6663,499.3909,225.5509,500.0255,225.6194,500.3731,225.7834,500.7772,225.8577,501.2686,226.3611,501.4399,226.8925,501.5143,227.2552,501.43,227.8527" style="stroke:none;stroke-width:1.0;"/><!--MD5=[9035fa1ff1374853dfbe9dd8167938d4]
reverse link PR to Pays--><g id="link_PR_Pays"><path d="M163.39,72.59 L163.4832,72.5968 L162.9537,76.0198 L162.9703,79.4829 L162.8091,82.9329 L162.063,86.34 L162.1265,89.8065 L162.092,89.8047 L161.8398,91.7546 L161.7615,93.7132 L161.8041,95.6777 L161.4301,97.6216 L161.6396,99.5944 L161.8856,99.6023 L161.2928,101.6771 L161.418,103.7748 L161.6309,105.8753 L161.3341,107.9595 L161.3053,110.0523 L161.3356,110.0527 L161.2632,112.2603 L161.3288,114.4696 L161.3278,116.678 L161.4539,118.8881 L161.1657,121.0929 L161.4639,121.0954 L161.4869,123.4026 L161.3176,125.7081 L161.4299,128.016 L161.5554,130.3241 L161.2627,132.6286 L160.9423,132.6185 L161.6393,135.0268 L161.2813,137.4019 L161.7253,139.8022 L161.3434,142.1766 L161.6385,144.5722 L161.6081,144.5705 L162.1068,147.0437 L161.8955,149.4766 L162.1031,151.9333 L162.346,154.392 L162.335,156.8362 L162.5193,156.8519 L162.5451,159.3355 L162.8859,161.8459 L162.7171,164.313 L163.3084,166.8446 L163.3944,169.3334 L163.6364,169.3614 L163.8834,171.8847 L164.2507,174.4219 L164.0596,176.8944 L164.2778,179.4143 L164.8586,181.9762 L164.5855,181.9351 L165.2149,184.5126 L165.5366,187.0437 L166.3047,189.642 L166.3107,192.1256 L166.7697,194.6774 L166.6198,194.649 L167.3493,197.2307 L167.4385,199.6911 L167.983,202.2377 L168.9731,204.8688 L169.1697,207.3495 L169.3582,207.3935 L170.0738,209.9349 L170.2028,212.3393 L171.0664,214.9152 L171.77,217.4537 L172.1007,219.9052 L171.8987,219.8479 L172.7605,222.364 L173.5562,224.8613 L174.4818,227.3954 L174.9021,229.7862 L175.6047,232.2571 L175.7993,232.3236 L176.1956,234.5897 L176.9675,236.9841 L178.288,239.5659 L178.5985,241.8027 L179.7238,244.3178 L179.9332,244.4034 L180.7641,246.689 L181.5241,248.9456 L182.444,251.2676 L183.7335,253.7407 L184.5,256 L184.3813,255.9399 L186.081,258.7796 L186.9734,261.2107 L188.7838,264.1063 L190.0773,266.7404 L191.2315,269.304 L191.3241,269.3613 L192.8398,271.8843 L194.6869,274.6124 L196.2346,277.1552 L197.6571,279.6205 L199.1836,282.1502 L199.2802,282.22 L200.9187,284.5786 L203.0055,287.2616 L204.5853,289.5777 L206.3737,292.0447 L208.0935,294.4622 L207.8845,294.2906 L209.8754,296.6882 L212.1179,299.2925 L214.0043,301.6043 L215.763,303.8113 L217.6988,306.1638 L217.5929,306.0673 L219.6344,308.3012 L221.4885,310.3643 L223.8577,312.8968 L225.972,315.197 L227.7366,317.1786 L227.9024,317.3437 L229.9971,319.4469 L231.7767,321.2365 L233.8888,323.3571 L235.7809,325.2585 L237.9445,327.4305 L238.0305,327.5229 L240.0423,329.3933 L242.1579,331.3752 L243.9442,333.0033 L245.9961,334.9168 L248.0599,336.843 L248.1893,336.9917 L250.1775,338.7326 L251.8143,340.07 L253.8594,341.8762 L255.9115,343.6906 L257.82,345.34 " fill="none" style="stroke:#181818;stroke-width:1.0;"/><polygon fill="#181818" points="164.72,59.53,164.7741,59.5746,163.6962,60.5551,162.9352,61.7969,162.071,62.9535,160.8674,63.8305,160.1337,65.0947,160.1108,65.0826,160.6826,66.303,161.3698,67.5844,162.1372,68.9083,162.6281,70.0859,163.5064,71.4685,163.6488,71.5858,164.2615,70.2219,165.29,69.2007,166.3693,68.2212,167.1533,66.9985,168.0927,65.9038,168.1128,65.9144,167.4087,64.624,166.7962,63.3821,166.1395,62.1168,165.5671,60.8961,164.72,59.53" style="stroke:#181818;stroke-width:1.0;"/><polygon fill="#000000" points="191.1358,232.2535,191.2059,232.2549,190.9613,230.3491,191.1274,228.4512,191.1598,226.5508,190.7524,224.6419,190.9538,222.7447,190.9453,222.7202,189.7964,222.995,188.6902,223.3931,187.6137,223.877,186.4349,224.0653,185.3994,224.6677,185.5466,224.779,186.3791,226.0582,187.6414,227.6623,188.9561,229.306,189.9657,230.7191,191.1358,232.2535" style="stroke:#000000;stroke-width:1.0;"/><text fill="#000000" font-family="xkcd Script" font-size="13" lengthAdjust="spacing" textLength="47" x="198.5" y="232.6695">Contient</text><text fill="#000000" font-family="xkcd Script" font-size="13" lengthAdjust="spacing" textLength="4" x="159.3734" y="82.0128">1</text><text fill="#000000" font-family="xkcd Script" font-size="13" lengthAdjust="spacing" textLength="14" x="234.811" y="333.7591">42</text></g><!--MD5=[8240e2595e07d9fd859689f74f35fea0]
reverse link PR to Continent--><g id="link_PR_Continent"><path d="M183.72,70.28 L183.9486,70.4421 L189.2135,78.3428 L195.8185,87.1938 L201.9871,95.7353 L206.7206,103.2592 L213.3561,112.1318 L218.9208,120.2452 L224.9117,128.6607 L231.1988,137.2863 L236.4651,145.188 L243.7633,154.5305 L248.4198,161.9998 L254.8343,170.7157 L261.4633,179.5837 L266.8444,187.5668 L272.956,196.0679 L278.7911,204.373 L284.77,212.78 " fill="none" style="stroke:#181818;stroke-width:1.0;"/><polygon fill="#181818" points="176.12,59.57,176.19,59.572,176.0233,61.0077,176.2671,62.4551,176.3772,63.8987,176.0477,65.3297,176.3267,66.7781,176.3174,66.754,177.6224,67.1617,178.9742,67.6914,180.3585,68.3059,181.6307,68.6282,183.0599,69.3597,183.2443,69.365,182.8085,67.9121,182.9113,66.4746,183.0798,65.0389,182.8659,63.5924,182.8532,62.1516,182.8613,62.1728,181.5027,61.6253,180.1812,61.1745,178.8418,60.6771,177.5365,60.2686,176.12,59.57" style="stroke:#181818;stroke-width:1.0;"/><text fill="#000000" font-family="xkcd Script" font-size="13" lengthAdjust="spacing" textLength="25" x="260.5" y="128.1695">Est-</text><text fill="#000000" font-family="xkcd Script" font-size="13" lengthAdjust="spacing" textLength="37" x="254.5" y="146.2269">divisé-</text><polygon fill="#000000" points="267.8922,163.222,267.9591,163.2429,267.1935,161.3652,266.8198,159.6099,266.3186,157.8148,265.3974,155.8885,265.0575,154.1438,265.0425,154.1226,264.0163,154.7078,263.0657,155.3995,262.1675,156.1652,261.0884,156.6758,260.2628,157.5438,260.373,157.6918,261.6632,158.5109,263.2752,159.7622,264.9264,161.0662,266.3493,162.0634,267.8922,163.222" style="stroke:#000000;stroke-width:1.0;"/><text fill="#000000" font-family="xkcd Script" font-size="13" lengthAdjust="spacing" textLength="13" x="273" y="164.2842">en</text><text fill="#000000" font-family="xkcd Script" font-size="13" lengthAdjust="spacing" textLength="4" x="174.8346" y="82.0671">1</text><text fill="#000000" font-family="xkcd Script" font-size="13" lengthAdjust="spacing" textLength="7" x="273.3876" y="201.0279">6</text></g><!--MD5=[9142284fcbfe14518069ea01446168e6]
reverse link Continent to Pays--><g id="link_Continent_Pays"><path d="M294.5,255.17 L294.7802,255.17 L293.9476,265.1867 L294.7577,275.2033 L295.0329,285.22 L293.5488,295.2367 L294.3964,305.2533 L293.9313,315.27 L293.9887,325.2867 L294.4091,335.3033 L294.5,345.32 " fill="none" style="stroke:#181818;stroke-width:1.0;"/><polygon fill="#181818" points="294.5,242.09,294.5583,242.1289,293.5851,243.2134,292.9536,244.5257,292.2109,245.7639,291.1021,246.7581,290.5,248.09,290.4784,248.0756,291.1817,249.2111,291.9936,250.4191,292.8811,251.6774,293.5082,252.7622,294.5,254.09,294.6536,254.1924,295.1252,252.7735,296.0451,251.6534,297.0198,250.5699,297.6762,249.2741,298.5,248.09,298.5189,248.1026,297.6911,246.8841,296.9495,245.723,296.1663,244.5342,295.4624,243.3983,294.5,242.09" style="stroke:#181818;stroke-width:1.0;"/><polygon fill="#000000" points="299.5,301.0287,299.5666,301.0503,299.9564,299.177,300.7368,297.4306,301.3901,295.6428,301.625,293.7191,302.4389,291.9836,302.4389,291.9577,301.2634,291.8414,300.0878,291.8558,298.9122,291.9609,297.7366,291.7531,296.5611,291.9836,296.7366,292.0406,296.949,293.7277,297.6739,295.5813,298.4614,297.4551,298.885,299.2108,299.5,301.0287" style="stroke:#000000;stroke-width:1.0;"/><text fill="#000000" font-family="xkcd Script" font-size="13" lengthAdjust="spacing" textLength="39" x="308.5" y="301.1695">Groupe</text><text fill="#000000" font-family="xkcd Script" font-size="13" lengthAdjust="spacing" textLength="4" x="289.7875" y="264.5942">1</text><text fill="#000000" font-family="xkcd Script" font-size="13" lengthAdjust="spacing" textLength="20" x="273.0313" y="297.332">4,6,</text><text fill="#000000" font-family="xkcd Script" font-size="13" lengthAdjust="spacing" textLength="20" x="273.0313" y="315.3894">7,9,</text><text fill="#000000" font-family="xkcd Script" font-size="13" lengthAdjust="spacing" textLength="11" x="277.5313" y="333.4468">12</text></g><!--MD5=[717818e8d2bcae846d844c46e53086e7]
link Pays to Pays--><g id="link_Pays_Pays"><path d="M336.21,359.6 L336.2109,359.6934 L338.869,359.4417 L341.5324,359.7377 L344.1941,359.8553 L346.85,359.3865 L349.5139,359.7294 L349.5065,359.6956 L351.6901,360.0329 L353.9112,360.5402 L356.1583,361.1657 L358.3156,361.3838 L360.5988,362.1725 L360.7835,362.335 L362.4686,364.353 L364.6932,366.8455 L366.9837,369.3958 L368.8911,371.6093 L371,374 L371.0228,374.02 L368.9091,376.3561 L366.8991,378.7834 L364.8391,381.1667 L362.8745,383.6339 L360.5988,385.8275 L360.6629,386.1188 L358.4468,386.6109 L356.1892,386.9153 L353.9922,387.4946 L351.7981,388.0868 L349.5139,388.2706 L349.5108,387.9501 L346.8561,388.598 L344.1911,388.1906 L341.5339,388.5855 L338.8686,388.1541 L336.21,388.4 " fill="none" style="stroke:#181818;stroke-width:1.0;"/><polygon fill="#000000" points="375.6337,379.0153,375.6986,379.0417,376.2246,377.202,377.1308,375.5174,377.9133,373.7823,378.2885,371.881,379.2274,370.2098,379.2255,370.1839,378.0445,369.9819,376.8732,369.91,375.7085,369.9288,374.5208,369.6354,373.3653,369.7792,373.5445,369.8232,373.615,371.5763,374.2086,373.4579,374.8662,375.3552,375.1523,377.1612,375.6337,379.0153" style="stroke:#000000;stroke-width:1.0;"/><text fill="#000000" font-family="xkcd Script" font-size="13" lengthAdjust="spacing" textLength="74" x="390" y="379.1695">Est-voisin-de</text><text fill="#000000" font-family="xkcd Script" font-size="13" lengthAdjust="spacing" textLength="4" x="343.9958" y="372.8223">1</text><text fill="#000000" font-family="xkcd Script" font-size="13" lengthAdjust="spacing" textLength="18" x="343.975" y="406.1653">1..*</text></g><!--MD5=[8ddcb71b1885427d7f83091a20ba64da]
link PR to JeuRisk--><g id="link_PR_JeuRisk"><path d="M204.38,45 L204.38,45.2802 L214.4558,44.4476 L224.5317,45.2577 L234.6075,45.5329 L244.6833,44.0488 L254.7592,44.8964 L264.835,44.4313 L274.9108,44.4887 L284.9867,44.9091 L295.0625,44.0782 L305.1383,45.7382 L315.2142,44.1596 L325.29,45 " fill="none" style="stroke:#181818;stroke-width:1.0;"/><polygon fill="#000000" points="221.25,32.0287,221.2716,32.0953,223.0163,32.4851,224.8879,33.2655,226.7182,33.9187,228.4126,34.1537,230.2951,34.9676,230.2692,34.9676,230.1529,33.792,230.1673,32.6165,230.2724,31.4409,230.0646,30.2653,230.2951,29.0898,230.3521,29.2653,228.4211,29.4777,226.6567,30.2026,224.9125,30.9901,223.0502,31.4137,221.25,32.0287" style="stroke:#000000;stroke-width:1.0;"/><text fill="#000000" font-family="xkcd Script" font-size="13" lengthAdjust="spacing" textLength="72" x="235.25" y="37.1695">Est-joué-sur</text><text fill="#000000" font-family="xkcd Script" font-size="13" lengthAdjust="spacing" textLength="4" x="211.9821" y="39.4168">1</text><text fill="#000000" font-family="xkcd Script" font-size="13" lengthAdjust="spacing" textLength="4" x="313.3559" y="38.5836">1</text></g><!--MD5=[214ba7b81572b55952c6f573ac8421ff]
link JeuRisk to Dé--><g id="link_JeuRisk_Dé"><path d="M346.97,59.75 L347.0601,59.7746 L346.2467,61.7009 L345.9617,63.7714 L345.5045,65.7949 L344.4817,67.664 L344.242,69.7468 L344.2083,69.7392 L343.5142,72.0949 L342.99,74.4892 L342.5837,76.9103 L341.7707,79.2391 L341.5275,81.6972 L341.77,81.7391 L340.7862,84.3394 L340.5104,87.0622 L340.3209,89.7998 L339.6289,92.4506 L339.2012,95.1471 L339.2313,95.1503 L338.8743,98.0446 L338.6546,100.9538 L338.3686,103.8557 L338.209,106.7713 L337.6375,109.6425 L337.9356,109.6509 L337.854,112.6684 L337.58,115.6805 L337.5876,118.7005 L337.6083,121.7209 L337.211,124.7295 L336.8913,124.7067 L337.7289,127.7958 L337.5137,130.81 L338.0988,133.8811 L337.8597,136.8935 L338.2963,139.9541 L338.2664,139.9481 L339.2138,143.0001 L339.4636,145.9131 L340.125,148.9081 L340.821,151.91 L341.2677,154.8622 L341.4412,154.9264 L342.3126,157.6892 L343.4804,160.5616 L344.1685,163.2566 L345.5721,166.2163 L346.5,169 L346.7096,169.1242 L347.9111,171.1959 L349.2167,173.3292 L350.0387,175.1761 L351.2151,177.233 L352.7056,179.4759 L352.4924,179.3005 L354.2498,181.3606 L355.7669,183.2231 L357.6326,185.3723 L358.9032,187.0319 L360.5275,188.9825 L360.4222,188.8722 L362.3787,190.7569 L363.8851,192.1703 L365.7115,193.9188 L367.8512,195.9953 L369.4331,197.4878 L369.5532,197.6397 L371.5269,199.2384 L373.1272,200.3645 L375.1952,202.0824 L377.1613,203.6715 L378.89,204.96 " fill="none" style="stroke:#181818;stroke-width:1.0;"/><polygon fill="#000000" points="352.5735,145.9121,352.6432,145.9189,352.6217,144.0056,353.009,142.1323,353.2631,140.246,353.0796,138.3168,353.5019,136.447,353.4964,136.4217,352.3233,136.5605,351.1782,136.8269,350.0526,137.1819,348.8598,137.2314,347.7612,137.7089,347.9203,137.8023,348.5424,139.2432,349.6292,140.9568,350.7727,142.7037,351.5863,144.257,352.5735,145.9121" style="stroke:#000000;stroke-width:1.0;"/><text fill="#000000" font-family="xkcd Script" font-size="13" lengthAdjust="spacing" textLength="29" x="360.5" y="146.1695">Inclut</text><text fill="#000000" font-family="xkcd Script" font-size="13" lengthAdjust="spacing" textLength="4" x="340.7253" y="82.0167">1</text><text fill="#000000" font-family="xkcd Script" font-size="13" lengthAdjust="spacing" textLength="7" x="364.126" y="195.3295">5</text></g><!--MD5=[1dd334ee4581d44c029b003f073335ab]
link JeuRisk to Joueur--><g id="link_JeuRisk_Joueur"><path d="M377.54,45 L377.54,45.2802 L387.0875,44.4476 L396.635,45.2577 L406.1825,45.5329 L415.73,44.0488 L425.2775,44.8964 L434.825,44.4313 L444.3725,44.4887 L453.92,45 " fill="none" style="stroke:#181818;stroke-width:1.0;"/><polygon fill="#000000" points="394.75,32.0287,394.7716,32.0953,396.5163,32.4851,398.3879,33.2655,400.2182,33.9187,401.9126,34.1537,403.7951,34.9676,403.7692,34.9676,403.6529,33.792,403.6673,32.6165,403.7724,31.4409,403.5646,30.2653,403.7951,29.0898,403.8521,29.2653,401.9211,29.4777,400.1567,30.2026,398.4125,30.9901,396.5502,31.4137,394.75,32.0287" style="stroke:#000000;stroke-width:1.0;"/><text fill="#000000" font-family="xkcd Script" font-size="13" lengthAdjust="spacing" textLength="27" x="408.75" y="37.1695">Joue</text><text fill="#000000" font-family="xkcd Script" font-size="13" lengthAdjust="spacing" textLength="4" x="385.4263" y="38.5836">1</text><text fill="#000000" font-family="xkcd Script" font-size="13" lengthAdjust="spacing" textLength="17" x="428.9387" y="60.0416">2:6</text></g><!--MD5=[3255e11a55079c606c4f9b815137e761]
link Joueur to apoint20--><g id="link_Joueur_apoint20"><path d="M516.15,83.4 L516.4284,83.4324 L514.4206,93.484 L514.0446,103.7255 L513.1372,113.9052 L510.4823,123.8815 L510.1435,134.1273 L508.5009,144.2214 L507.3771,154.3759 L506.614,164.5724 L504.6079,174.6242 L505.0761,184.9639 L502.3274,194.9293 L501.7195,205.1438 L501.3728,215.3887 L499.62,225.47 " fill="none" style="stroke:#181818;stroke-width:1.0;"/><polygon fill="#000000" points="515.9221,145.9952,515.9858,146.0244,516.5895,144.2086,517.5665,142.5641,518.422,140.8638,518.8777,138.9802,519.8867,137.3504,519.8837,137.3246,518.7026,137.0733,517.5366,136.9517,516.381,136.9202,515.1893,136.578,514.0483,136.6711,514.2292,136.7074,514.2171,138.4945,514.7332,140.3877,515.3138,142.2939,515.5193,144.1247,515.9221,145.9952" style="stroke:#000000;stroke-width:1.0;"/><text fill="#000000" font-family="xkcd Script" font-size="13" lengthAdjust="spacing" textLength="47" x="525.5" y="146.1695">Contrôle</text><text fill="#000000" font-family="xkcd Script" font-size="13" lengthAdjust="spacing" textLength="4" x="511.0983" y="105.3968">1</text></g><!--MD5=[6227be6feca1e48ba00a66b1585bcec9]
link apoint20 to Pays--><g id="link_apoint20_Pays"><path d="M498.59,229.64 L498.6609,229.7008 L496.5195,231.7691 L494.7937,234.194 L492.9325,236.5027 L490.6264,238.4295 L488.9363,240.885 L488.9113,240.8611 L487.3254,242.2963 L485.8655,243.8517 L484.493,245.4908 L482.819,246.8417 L481.5673,248.5963 L481.7337,248.7775 L479.7645,249.8706 L478.281,251.493 L476.8567,253.1799 L475.0877,254.4912 L473.5,256 L473.5192,256.0235 L471.8193,257.3594 L470.2068,258.8022 L468.5521,260.1934 L466.978,261.683 L465.1413,262.852 L465.3262,263.086 L463.6094,264.4477 L461.7733,265.6584 L460.1118,267.0901 L458.4585,268.5321 L456.5459,269.6461 L456.3512,269.3915 L454.9715,271.2296 L452.9508,272.2293 L451.4174,273.8664 L449.3821,274.8471 L447.7582,276.3658 L447.7401,276.3413 L446.1675,277.9563 L444.1711,279 L442.4248,280.3808 L440.6994,281.7899 L438.8227,282.9948 L438.93,283.1455 L435.1942,285.5776 L431.6418,288.2672 L427.7926,290.5403 L424.3861,293.4346 L420.6853,295.9159 L420.8222,296.1174 L417.157,298.5519 L413.5598,301.0864 L409.6467,303.156 L405.9652,305.5664 L402.4888,308.2788 L402.3379,308.0474 L398.8943,310.5917 L395.2807,312.8753 L391.9137,315.537 L388.1257,317.5531 L384.588,319.953 L384.5068,319.824 L381.192,322.2099 L377.5301,324.0443 L374.1151,326.2709 L370.9416,328.8813 L367.338,330.8083 L367.4388,330.9736 L364.2591,333.0681 L360.7658,334.6485 L357.6652,336.8729 L354.4791,338.957 L351.0937,340.7141 L350.9866,340.5335 L348.0952,342.4426 L345.1688,344.2926 L342.3112,346.2588 L339.1858,347.7732 L336.21,349.54 " fill="none" style="stroke:#181818;stroke-width:1.0;"/><text fill="#000000" font-family="xkcd Script" font-size="13" lengthAdjust="spacing" textLength="18" x="343.975" y="340.5986">1..*</text></g><!--MD5=[83a5f04f59992246deb0e73e28997d65]
link apoint20 to Occupation--><g id="link_apoint20_Occupation"><path d="M501.66,227.5 L501.66,227.5934 L508.608,227.3159 L515.556,227.5859 L522.504,227.6776 L529.452,227.1829 L536.4,227.5 " fill="none" style="stroke:#181818;stroke-width:1.0;stroke-dasharray:7.0,7.0;"/></g><!--MD5=[6bad1d13e6bb4db20254dafc4dfbc398]
link Attaque to Pays--><g id="link_Attaque_Pays"><path d="M120.11,390.59 L120.1289,390.6815 L122.1604,390.8407 L124.3026,391.5362 L126.4088,392.0571 L128.3964,392.0036 L130.5481,392.7452 L130.5421,392.7112 L132.6911,392.944 L134.8705,393.3483 L137.071,393.8718 L139.1988,393.9846 L141.4284,394.6727 L141.4636,394.9162 L143.6315,394.7195 L145.9021,395.2337 L148.1852,395.8348 L150.3954,395.9311 L152.6439,396.2929 L152.6472,396.323 L154.9311,396.5254 L157.2299,396.8651 L159.5215,397.1386 L161.8267,397.5384 L164.0875,397.5263 L164.1072,397.8238 L166.4204,397.9809 L168.7208,397.946 L171.0398,398.192 L173.3597,398.4512 L175.652,398.2932 L175.6459,397.9728 L177.9734,398.6389 L180.2808,398.2499 L182.6035,398.663 L184.9104,398.25 L187.2303,398.5142 L187.2292,398.4838 L189.5389,398.7627 L191.8236,398.3308 L194.123,398.3183 L196.4236,398.341 L198.7154,398.1097 L198.7335,398.2938 L200.9721,397.886 L203.2417,397.7928 L205.4612,397.1907 L207.7554,397.3477 L210,397 L210.0383,397.2406 L212.1852,396.8519 L214.351,396.5826 L216.4284,395.7583 L218.5706,395.3409 L220.7703,395.2839 L220.7152,395.0133 L222.9435,394.8147 L225.1098,394.3113 L227.366,394.2501 L229.4686,393.4337 L231.6625,393.0662 L231.627,392.918 L233.8398,392.6498 L235.9009,391.7477 L238.0699,391.2964 L240.3443,391.2861 L242.4309,390.4905 L242.4811,390.6775 L244.5954,390.2477 L246.5535,389.2361 L248.7071,388.9532 L250.8182,388.5115 L252.83,387.7 " fill="none" style="stroke:#181818;stroke-width:1.0;"/><polygon fill="#000000" points="163.0012,387.1375,163.0214,387.2046,164.7828,387.5536,166.6625,388.2958,168.5037,388.9099,170.2182,389.1029,172.1081,389.8789,172.0822,389.8783,171.9404,388.7005,171.9291,387.5255,172.0086,386.3525,171.7753,385.1727,171.9801,384.0024,172.041,384.1766,170.1151,384.4311,168.3668,385.1942,166.6402,386.0194,164.7876,386.4835,163.0012,387.1375" style="stroke:#000000;stroke-width:1.0;"/><text fill="#000000" font-family="xkcd Script" font-size="13" lengthAdjust="spacing" textLength="32" x="177" y="392.1695">Lance</text><text fill="#000000" font-family="xkcd Script" font-size="13" lengthAdjust="spacing" textLength="18" x="128.1062" y="387.6674">1..*</text><text fill="#000000" font-family="xkcd Script" font-size="13" lengthAdjust="spacing" textLength="4" x="241.0513" y="405.9276">1</text></g><!--MD5=[75f55f22803d04e092adc82381beca10]
link Pays to Attaque--><g id="link_Pays_Attaque"><path d="M252.7,374 L252.7,374.2802 L242.4931,373.4476 L232.2862,374.2577 L222.0792,374.5329 L211.8723,373.0488 L201.6654,373.8964 L191.4585,373.4313 L181.2515,373.4887 L171.0446,373.9091 L160.8377,373.0782 L150.6308,374.7382 L140.4238,373.1596 L130.2169,373.7363 L120.01,374 " fill="none" style="stroke:#181818;stroke-width:1.0;"/><polygon fill="#000000" points="137.5,361.0287,137.5216,361.0953,139.2663,361.4851,141.1379,362.2655,142.9682,362.9187,144.6626,363.1537,146.5451,363.9676,146.5192,363.9676,146.4029,362.792,146.4173,361.6165,146.5224,360.4409,146.3146,359.2653,146.5451,358.0898,146.6021,358.2653,144.6711,358.4777,142.9067,359.2026,141.1625,359.9901,139.3002,360.4137,137.5,361.0287" style="stroke:#000000;stroke-width:1.0;"/><text fill="#000000" font-family="xkcd Script" font-size="13" lengthAdjust="spacing" textLength="83" x="151.5" y="366.1695">Défend-contre</text><text fill="#000000" font-family="xkcd Script" font-size="13" lengthAdjust="spacing" textLength="4" x="240.8981" y="368.5811">1</text><text fill="#000000" font-family="xkcd Script" font-size="13" lengthAdjust="spacing" textLength="18" x="127.994" y="349.9621">1..*</text><text fill="#000000" font-family="xkcd Script" font-size="13" lengthAdjust="spacing" textLength="4" x="134.994" y="368.0195"> </text></g><!--MD5=[cb58dba901e7893bc780f14db630dd50]
link Joueur to Dé--><g id="link_Joueur_Dé"><path d="M472.99,83.05 L473.0585,83.1135 L470.2079,85.7826 L467.759,88.8239 L465.1793,91.744 L462.1694,94.2655 L459.755,97.3387 L459.727,97.3186 L457.3501,100.3604 L455.1146,103.5038 L452.9774,106.7178 L450.5015,109.6884 L448.5,113 L448.7158,113.1182 L447.124,114.93 L446.1623,117.0867 L445.2774,119.2856 L443.9453,121.2396 L442.8484,123.3224 L442.876,123.3349 L441.8487,125.4942 L440.9471,127.7104 L439.9849,129.8991 L439.1384,132.1403 L437.9145,134.2105 L438.1933,134.3164 L437.3441,136.5629 L436.315,138.7412 L435.5492,141.0194 L434.7957,143.3023 L433.6512,145.4367 L433.346,145.3388 L433.2104,147.7963 L432.0698,149.9313 L431.6931,152.3115 L430.5298,154.4391 L430.0113,156.7738 L429.9819,156.7657 L429.7164,159.1046 L428.7648,161.2562 L428.2181,163.5183 L427.7053,165.7896 L426.9474,167.994 L427.1275,168.036 L426.4387,170.1689 L426.0577,172.3735 L425.1786,174.462 L425.0424,176.7236 L424.4123,178.8702 L424.6513,178.9178 L424.1954,180.9697 L423.8582,183.0452 L422.9698,185.0109 L422.4854,187.0571 L422.359,189.1746 L422.0867,189.1283 L422.0094,191.0713 L421.6253,192.9621 L421.6861,194.9287 L420.9873,196.7659 L420.74,198.68 " fill="none" style="stroke:#181818;stroke-width:1.0;"/><polygon fill="#000000" points="451.4411,145.5851,451.4929,145.6323,452.6195,144.0856,454.0498,142.8155,455.3813,141.4553,456.3875,139.7991,457.8439,138.5527,457.8332,138.5291,456.7141,137.939,455.6487,137.468,454.6207,137.0797,453.4639,136.4063,452.4875,136.1323,452.6709,136.1526,452.0694,137.9997,452.0034,139.9061,452.0028,141.8198,451.622,143.6914,451.4411,145.5851" style="stroke:#000000;stroke-width:1.0;"/><text fill="#000000" font-family="xkcd Script" font-size="13" lengthAdjust="spacing" textLength="34" x="462.5" y="146.1695">Jette</text><text fill="#000000" font-family="xkcd Script" font-size="13" lengthAdjust="spacing" textLength="4" x="460.171" y="105.5752">1</text><text fill="#000000" font-family="xkcd Script" font-size="13" lengthAdjust="spacing" textLength="24" x="394.9333" y="187.0661">1,2,3</text></g><!--MD5=[7c3ce29d928856b4ee7bab87a668c8cb]
@startuml
!include ecriture.pumlinclude
scale 1
hide empty members
class Joueur {
  nom : String
  /nbPaysOccupés : int
}
class Dé {
  valeur : int
}

class JeuRisk

class "PlateauRisk" as PR

class Pays {
  nom : String
}

class Attaque {
  nbAttaquant : int
  nbDéfenseur : int
}

class Occupation {
  nbRégiments : int
}

PR "1" *- - "42" Pays : Contient >
PR "1" *- - "6" Continent : Est-\ndivisé-\nen >
Continent "1" *- - "4,6,\n7,9,\n12" Pays : Groupe >
Pays "1" - - "1..*" Pays : Est-voisin-de >
JeuRisk "1" -l- "1" PR : Est-joué-sur >
JeuRisk "1" -d- "5" Dé : Inclut >
' ligne suivante contient un espace large ( )
Joueur "   2:6" -l- "1" JeuRisk : Joue >
Joueur "1" - - "1..*" Pays : Contrôle >
(Joueur, Pays) .. Occupation
'Joueur "1" - - "*" Régiment : Contrôle >
'Pays "1" -l- "*" Régiment : < Protège-\nou-\nattaque
Pays "1" -l- "1..*" Attaque : Lance >
Pays "1" - - "1..*\n" Attaque : Défend-contre >
Joueur "1" - - "1,2,3" Dé : Jette >

@enduml

@startuml
skinparam style strictuml
skinparam backgroundcolor transparent
skinparam defaultfontname xkcd Script
skinparam handwritten true
scale 1
hide empty members
class Joueur {
  nom : String
  /nbPaysOccupés : int
}
class Dé {
  valeur : int
}

class JeuRisk

class "PlateauRisk" as PR

class Pays {
  nom : String
}

class Attaque {
  nbAttaquant : int
  nbDéfenseur : int
}

class Occupation {
  nbRégiments : int
}

PR "1" *- - "42" Pays : Contient >
PR "1" *- - "6" Continent : Est-\ndivisé-\nen >
Continent "1" *- - "4,6,\n7,9,\n12" Pays : Groupe >
Pays "1" - - "1..*" Pays : Est-voisin-de >
JeuRisk "1" -l- "1" PR : Est-joué-sur >
JeuRisk "1" -d- "5" Dé : Inclut >
Joueur "   2:6" -l- "1" JeuRisk : Joue >
Joueur "1" - - "1..*" Pays : Contrôle >
(Joueur, Pays) .. Occupation
Pays "1" -l- "1..*" Attaque : Lance >
Pays "1" - - "1..*\n" Attaque : Défend-contre >
Joueur "1" - - "1,2,3" Dé : Jette >

@enduml

PlantUML version 1.2022.6(Tue Jun 21 17:34:49 UTC 2022)
(GPL source distribution)
Java Runtime: OpenJDK Runtime Environment
JVM: OpenJDK 64-Bit Server VM
Default Encoding: UTF-8
Language: en
Country: null
--></g></svg>