<?xml version="1.0" encoding="UTF-8" standalone="no"?><svg xmlns="http://www.w3.org/2000/svg" xmlns:xlink="http://www.w3.org/1999/xlink" contentStyleType="text/css" height="245.6px" preserveAspectRatio="none" style="width:358px;height:245px;background:#00000000;" version="1.1" viewBox="0 0 358 245" width="358.4px" zoomAndPan="magnify"><defs/><g><!--MD5=[2e8987c52304ead4414887c2e3c78ede]
cluster ST--><g id="cluster_ST"><path d="M6.8,138.9495 L6.8,139.3979 L14.9462,138.0656 L23.0923,139.3619 L31.2385,139.8022 L39.3846,137.4276 L47.5308,138.7837 L55.6769,138.0397 L63.8231,138.1314 L71.9692,138.8041 L80.1154,137.4746 L88.2615,140.1306 L96.4077,137.6049 L104.5538,138.5276 L112.7,138.9495 L114.7,140.9495 L114.9938,141.0391 L115.7617,144.6031 L116.9864,148.3064 L118.0383,151.957 L119.3014,155.6721 L120.3,159.3064 L120.3,159.8166 L128.2483,160.5559 L136.1966,160.738 L144.1448,160.7555 L152.0931,159.8496 L160.0414,160.2954 L167.9897,160.8045 L175.9379,157.7679 L183.8862,160.7539 L191.8345,158.6739 L199.7828,160.4452 L207.731,158.2504 L215.6793,159.1603 L223.6276,160.8885 L231.5759,159.2025 L239.5241,159.5311 L247.4724,160.0288 L255.4207,160.1944 L263.369,159.2981 L271.3172,159.9191 L279.2655,158.0853 L287.2138,159.9131 L295.1621,160.4759 L303.1103,160.2548 L311.0586,160.6142 L319.0069,158.2759 L326.9552,157.9151 L334.9034,157.9808 L342.8517,159.1808 L350.8,159.3064 L352.8,161.3064 L352.3807,161.3064 L354.2537,169.0307 L352.4274,176.755 L352.0682,184.4794 L353.287,192.2037 L351.3774,199.928 L351.6925,207.6523 L354.1844,215.3766 L353.7294,223.1009 L354.3669,230.8252 L352.8,238.5495 L350.8,240.5495 L350.8,239.863 L342.8,241.2305 L334.8,241.8091 L326.8,239.5417 L318.8,240.345 L310.8,240.8183 L302.8,241.9399 L294.8,240.5406 L286.8,241.5363 L278.8,239.3681 L270.8,239.1047 L262.8,241.6239 L254.8,239.02 L246.8,241.6353 L238.8,240.9903 L230.8,239.978 L222.8,239.7948 L214.8,241.5282 L206.8,239.9109 L198.8,241.8122 L190.8,239.3703 L182.8,241.8667 L174.8,241.5827 L166.8,241.0721 L158.8,240.6502 L150.8,242.0996 L142.8,241.8585 L134.8,240.9106 L126.8,241.1216 L118.8,240.2716 L110.8,242.0779 L102.8,240.8799 L94.8,240.9177 L86.8,239.2517 L78.8,239.685 L70.8,241.6818 L62.8,241.4663 L54.8,240.4579 L46.8,239.8622 L38.8,240.0825 L30.8,239.0857 L22.8,241.4343 L14.8,242.1272 L6.8,240.5495 L4.8,238.5495 L5.923,238.5495 L6.2825,230.4162 L4.5083,222.2828 L4.9861,214.1495 L3.9731,206.0162 L5.406,197.8828 L5.3264,189.7495 L5.9784,181.6162 L4.3101,173.4828 L4.5133,165.3495 L5.746,157.2162 L6.0103,149.0828 L4.8,140.9495 L6.8,138.9495 " style="stroke:#000000;stroke-width:1.2000000000000002;fill:none;"/><path d="M4.8,159.3064 L4.8,159.5306 L13.05,158.8645 L21.3,159.5126 L29.55,159.7327 L37.8,158.5455 L46.05,159.2235 L54.3,158.8515 L62.55,158.8974 L70.8,159.2337 L79.05,158.569 L87.3,159.897 L95.55,158.6341 L103.8,159.0955 L112.05,159.7672 L120.3,159.3064 " style="stroke:#000000;stroke-width:1.2000000000000002;fill:none;"/><text fill="#000000" font-family="xkcd Script" font-size="11.2" font-weight="bold" lengthAdjust="spacing" textLength="105.1" x="8" y="152.7569">Services Techniques</text></g><!--MD5=[f6e6e24a8096a8e61f901e9be08ab5fd]
cluster D--><g id="cluster_D"><path d="M6.8,5.3495 L6.8,5.7979 L15.41,4.4656 L24.02,5.7619 L32.63,6.2022 L41.24,3.8276 L49.85,5.3495 L51.85,7.3495 L51.7971,7.3334 L52.6799,10.9324 L53.8292,14.6127 L55.1636,18.3495 L55.8598,21.8916 L57.45,25.7064 L57.45,26.8875 L65.4125,24.3618 L73.375,25.2845 L81.3375,26.6279 L89.3,25.5234 L97.2625,25.852 L105.225,25.6383 L113.1875,26.0873 L121.15,26.2166 L129.1125,26.9559 L137.075,27.138 L145.0375,27.1555 L153,26.2496 L160.9625,26.6954 L168.925,27.2045 L176.8875,24.1679 L184.85,27.1539 L192.8125,25.0739 L200.775,26.8452 L208.7375,24.6504 L216.7,25.5603 L224.6625,27.2885 L232.625,25.6025 L240.5875,25.9311 L248.55,26.4288 L256.5125,26.5944 L264.475,25.6981 L272.4375,26.3191 L280.4,25.7064 L282.4,27.7064 L281.1788,27.7064 L283.0067,35.4307 L283.5695,43.155 L283.3483,50.8794 L283.7078,58.6037 L281.3694,66.328 L281.0087,74.0523 L281.0743,81.7766 L282.2744,89.5009 L281.9807,97.2252 L282.4,104.9495 L280.4,106.9495 L280.4,108.4032 L272.3529,106.5769 L264.3059,106.2177 L256.2588,107.4365 L248.2118,105.5269 L240.1647,105.842 L232.1176,108.3339 L224.0706,107.8789 L216.0235,108.5164 L207.9765,106.263 L199.9294,107.6305 L191.8824,108.2091 L183.8353,105.9417 L175.7882,106.745 L167.7412,107.2183 L159.6941,108.3399 L151.6471,106.9406 L143.6,107.9363 L135.5529,105.7681 L127.5059,105.5047 L119.4588,108.0239 L111.4118,105.42 L103.3647,108.0353 L95.3176,107.3903 L87.2706,106.378 L79.2235,106.1948 L71.1765,107.9282 L63.1294,106.3109 L55.0824,108.2122 L47.0353,105.7703 L38.9882,108.2667 L30.9412,107.9827 L22.8941,107.4721 L14.8471,107.0502 L6.8,106.9495 L4.8,104.9495 L6.3501,104.9495 L6.109,96.8162 L5.1611,88.6828 L5.3721,80.5495 L4.5221,72.4162 L6.3284,64.2828 L5.1304,56.1495 L5.1682,48.0162 L3.5022,39.8828 L3.9355,31.7495 L5.9323,23.6162 L5.7168,15.4828 L4.8,7.3495 L6.8,5.3495 " style="stroke:#000000;stroke-width:1.2000000000000002;fill:none;"/><path d="M4.8,25.7064 L4.8,25.9306 L12.3214,25.2645 L19.8429,25.9126 L27.3643,26.1327 L34.8857,24.9455 L42.4071,25.6235 L49.9286,25.2515 L57.45,25.7064 " style="stroke:#000000;stroke-width:1.2000000000000002;fill:none;"/><text fill="#000000" font-family="xkcd Script" font-size="11.2" font-weight="bold" lengthAdjust="spacing" textLength="42.25" x="8" y="19.1569">Domaine</text></g><!--MD5=[6d90bd632e1dbd4e1012d34a6301881d]
entity Persistance--><g id="elem_Persistance"><path d="M255.6,175.7495 L255.6,175.899 L262.16,175.4549 L268.72,175.887 L275.28,176.0337 L281.84,175.2422 L288.4,175.7495 L290.4,177.7495 L290.3483,177.73 L291.2363,180.6022 L292.3849,183.573 L293.7147,186.6124 L294.4202,189.4155 L296,192.5495 L296,192.9432 L303.12,192.1013 L310.24,192.4089 L317.36,192.8567 L324.48,192.4885 L331.6,192.5495 L333.6,194.5495 L333.6485,194.5495 L333.5773,199.5809 L333.727,204.6123 L333.7701,209.6437 L334.0165,214.675 L333.6,219.7064 L331.6,221.7064 L331.6,223.138 L324,223.1555 L316.4,222.2496 L308.8,222.6954 L301.2,223.2045 L293.6,220.1679 L286,223.1539 L278.4,221.0739 L270.8,222.8452 L263.2,220.6504 L255.6,221.7064 L253.6,219.7064 L253.4539,219.7064 L255.1821,211.315 L253.496,202.9237 L253.8246,194.5323 L254.3224,186.1409 L253.6,177.7495 L255.6,175.7495 " fill="#F1F1F1" style="stroke:#181818;stroke-width:0.4000000000000001;"/><path d="M253.6,192.5495 L253.6,192.7737 L262.08,192.1076 L270.56,192.7557 L279.04,192.9758 L287.52,191.7886 L296,192.5495 " fill="#F1F1F1" style="stroke:#181818;stroke-width:0.4000000000000001;"/><text fill="#000000" font-family="xkcd Script" font-size="11.2" lengthAdjust="spacing" textLength="56" x="261.6" y="210.3569">Persistance</text></g><!--MD5=[0893ab4698c3815aa4742f88d610473a]
entity Sécurité--><g id="elem_Sécurité"><path d="M162,175.7495 L162,175.899 L168.56,175.4549 L175.12,175.887 L181.68,176.0337 L188.24,175.2422 L194.8,175.7495 L196.8,177.7495 L196.7483,177.73 L197.6363,180.6022 L198.7849,183.573 L200.1147,186.6124 L200.8202,189.4155 L202.4,192.5495 L202.4,192.9432 L206.64,192.1013 L210.88,192.4089 L215.12,192.8567 L219.36,192.4885 L223.6,192.5495 L225.6,194.5495 L225.6485,194.5495 L225.5773,199.5809 L225.727,204.6123 L225.7701,209.6437 L226.0165,214.675 L225.6,219.7064 L223.6,221.7064 L223.6,223.138 L215.9,223.1555 L208.2,222.2496 L200.5,222.6954 L192.8,223.2045 L185.1,220.1679 L177.4,223.1539 L169.7,221.0739 L162,221.7064 L160,219.7064 L161.1388,219.7064 L158.944,211.315 L159.8539,202.9237 L161.5821,194.5323 L159.896,186.1409 L160,177.7495 L162,175.7495 " fill="#F1F1F1" style="stroke:#181818;stroke-width:0.4000000000000001;"/><path d="M160,192.5495 L160,192.7737 L168.48,192.1076 L176.96,192.7557 L185.44,192.9758 L193.92,191.7886 L202.4,192.5495 " fill="#F1F1F1" style="stroke:#181818;stroke-width:0.4000000000000001;"/><text fill="#000000" font-family="xkcd Script" font-size="11.2" lengthAdjust="spacing" textLength="41.6" x="168" y="210.3569">Sécurité</text></g><!--MD5=[78b4700ce668221453e5e84305c1062b]
entity Journalisation--><g id="elem_Journalisation"><path d="M41.6,175.7495 L41.6,175.899 L48.16,175.4549 L54.72,175.887 L61.28,176.0337 L67.84,175.2422 L74.4,175.7495 L76.4,177.7495 L76.3483,177.73 L77.2363,180.6022 L78.3849,183.573 L79.7147,186.6124 L80.4202,189.4155 L82,192.5495 L82,193.7306 L89.9333,191.2049 L97.8667,192.1276 L105.8,193.471 L113.7333,192.3665 L121.6667,192.6951 L129.6,192.5495 L131.6,194.5495 L131.5773,194.5495 L131.727,199.5809 L131.7701,204.6123 L132.0165,209.6437 L132.0772,214.675 L131.6,219.7064 L129.6,221.7064 L129.6,223.1555 L121.6,222.2496 L113.6,222.6954 L105.6,223.2045 L97.6,220.1679 L89.6,223.1539 L81.6,221.0739 L73.6,222.8452 L65.6,220.6504 L57.6,221.5603 L49.6,223.2885 L41.6,221.7064 L39.6,219.7064 L39.496,219.7064 L39.8246,211.315 L40.3224,202.9237 L40.488,194.5323 L39.5917,186.1409 L39.6,177.7495 L41.6,175.7495 " fill="#F1F1F1" style="stroke:#181818;stroke-width:0.4000000000000001;"/><path d="M39.6,192.5495 L39.6,192.7737 L48.08,192.1076 L56.56,192.7557 L65.04,192.9758 L73.52,191.7886 L82,192.5495 " fill="#F1F1F1" style="stroke:#181818;stroke-width:0.4000000000000001;"/><text fill="#000000" font-family="xkcd Script" font-size="11.2" lengthAdjust="spacing" textLength="68" x="47.6" y="210.3569">Journalisation</text></g><!--MD5=[c1fe354191168b098bc4322397caaff0]
entity POS--><g id="elem_POS"><path d="M209.2,42.1495 L209.2,42.299 L215.76,41.8549 L222.32,42.287 L228.88,42.4337 L235.44,41.6422 L242,42.1495 L244,44.1495 L243.9483,44.13 L244.8363,47.0022 L245.9849,49.973 L247.3147,53.0124 L248.0202,55.8155 L249.6,58.9495 L249.6,59.3432 L251.92,58.5013 L254.24,58.8089 L256.56,59.2567 L258.88,58.8885 L261.2,58.9495 L263.2,60.9495 L263.2485,60.9495 L263.1773,65.9809 L263.327,71.0123 L263.3701,76.0437 L263.6165,81.075 L263.2,86.1064 L261.2,88.1064 L261.2,89.538 L253.7714,89.5555 L246.3429,88.6496 L238.9143,89.0954 L231.4857,89.6045 L224.0571,86.5679 L216.6286,89.5539 L209.2,88.1064 L207.2,86.1064 L206.5675,86.1064 L208.3388,77.715 L206.144,69.3237 L207.0539,60.9323 L208.7821,52.5409 L207.2,44.1495 L209.2,42.1495 " fill="#F1F1F1" style="stroke:#181818;stroke-width:0.4000000000000001;"/><path d="M207.2,58.9495 L207.2,59.1737 L215.68,58.5076 L224.16,59.1557 L232.64,59.3758 L241.12,58.1886 L249.6,58.9495 " fill="#F1F1F1" style="stroke:#181818;stroke-width:0.4000000000000001;"/><text fill="#000000" font-family="xkcd Script" font-size="11.2" lengthAdjust="spacing" textLength="19.2" x="215.2" y="76.7569">POS</text></g><!--MD5=[8d691b8338ee9b20123877de7bc86082]
entity Stocks--><g id="elem_Stocks"><path d="M125.2,42.1495 L125.2,42.299 L131.76,41.8549 L138.32,42.287 L144.88,42.4337 L151.44,41.6422 L158,42.1495 L160,44.1495 L159.9483,44.13 L160.8363,47.0022 L161.9849,49.973 L163.3147,53.0124 L164.0202,55.8155 L165.6,58.9495 L165.6,59.3432 L167.92,58.5013 L170.24,58.8089 L172.56,59.2567 L174.88,58.8885 L177.2,58.9495 L179.2,60.9495 L179.2485,60.9495 L179.1773,65.9809 L179.327,71.0123 L179.3701,76.0437 L179.6165,81.075 L179.2,86.1064 L177.2,88.1064 L177.2,89.538 L169.7714,89.5555 L162.3429,88.6496 L154.9143,89.0954 L147.4857,89.6045 L140.0571,86.5679 L132.6286,89.5539 L125.2,88.1064 L123.2,86.1064 L122.5675,86.1064 L124.3388,77.715 L122.144,69.3237 L123.0539,60.9323 L124.7821,52.5409 L123.2,44.1495 L125.2,42.1495 " fill="#F1F1F1" style="stroke:#181818;stroke-width:0.4000000000000001;"/><path d="M123.2,58.9495 L123.2,59.1737 L131.68,58.5076 L140.16,59.1557 L148.64,59.3758 L157.12,58.1886 L165.6,58.9495 " fill="#F1F1F1" style="stroke:#181818;stroke-width:0.4000000000000001;"/><text fill="#000000" font-family="xkcd Script" font-size="11.2" lengthAdjust="spacing" textLength="32" x="131.2" y="76.7569">Stocks</text></g><!--MD5=[ad000ca27ad192a16f39f577b87fcf87]
entity Taxes--><g id="elem_Taxes"><path d="M41.2,42.1495 L41.2,42.299 L47.76,41.8549 L54.32,42.287 L60.88,42.4337 L67.44,41.6422 L74,42.1495 L76,44.1495 L75.9483,44.13 L76.8363,47.0022 L77.9849,49.973 L79.3147,53.0124 L80.0202,55.8155 L81.6,58.9495 L81.6,59.3432 L83.92,58.5013 L86.24,58.8089 L88.56,59.2567 L90.88,58.8885 L93.2,58.9495 L95.2,60.9495 L95.2485,60.9495 L95.1773,65.9809 L95.327,71.0123 L95.3701,76.0437 L95.6165,81.075 L95.2,86.1064 L93.2,88.1064 L93.2,89.538 L85.7714,89.5555 L78.3429,88.6496 L70.9143,89.0954 L63.4857,89.6045 L56.0571,86.5679 L48.6286,89.5539 L41.2,88.1064 L39.2,86.1064 L38.5675,86.1064 L40.3388,77.715 L38.144,69.3237 L39.0539,60.9323 L40.7821,52.5409 L39.2,44.1495 L41.2,42.1495 " fill="#F1F1F1" style="stroke:#181818;stroke-width:0.4000000000000001;"/><path d="M39.2,58.9495 L39.2,59.1737 L47.68,58.5076 L56.16,59.1557 L64.64,59.3758 L73.12,58.1886 L81.6,58.9495 " fill="#F1F1F1" style="stroke:#181818;stroke-width:0.4000000000000001;"/><text fill="#000000" font-family="xkcd Script" font-size="11.2" lengthAdjust="spacing" textLength="27.2" x="47.2" y="76.7569">Taxes</text></g><!--MD5=[18041e86664a270c71e29493713aa7c3]
link D to ST--><!--MD5=[441d9b8068b47676a8e0e03e4f3f7bf4]
@startuml
!include ecriture.pumlinclude
scale 0.8
allowmixing
package "Services Techniques" as ST <<Folder>> {
    package Persistance <<Folder>> {
    }
    package Sécurité <<Folder>> {
    }
    package Journalisation <<Folder>> {
    }
}
package Domaine as D <<Folder>> {
    package POS <<Folder>> {
    }
    package Stocks <<Folder>> {
    }
    package Taxes <<Folder>> {
    }
}

D -d[hidden]- ST

' skinparam legendfontsize 5
' legend center
' Filename: %filename()
' end legend

@enduml

@startuml
skinparam style strictuml
skinparam backgroundcolor transparent
skinparam defaultfontname xkcd Script
skinparam handwritten true
scale 0.8
allowmixing
package "Services Techniques" as ST <<Folder>> {
    package Persistance <<Folder>> {
    }
    package Sécurité <<Folder>> {
    }
    package Journalisation <<Folder>> {
    }
}
package Domaine as D <<Folder>> {
    package POS <<Folder>> {
    }
    package Stocks <<Folder>> {
    }
    package Taxes <<Folder>> {
    }
}

D -d[hidden]- ST


@enduml

PlantUML version 1.2022.6(Tue Jun 21 17:34:49 UTC 2022)
(GPL source distribution)
Java Runtime: OpenJDK Runtime Environment
JVM: OpenJDK 64-Bit Server VM
Default Encoding: UTF-8
Language: en
Country: null
--></g></svg>