<?xml version="1.0" encoding="UTF-8" standalone="no"?><svg xmlns="http://www.w3.org/2000/svg" xmlns:xlink="http://www.w3.org/1999/xlink" contentStyleType="text/css" height="246px" preserveAspectRatio="none" style="width:290px;height:246px;background:#00000000;" version="1.1" viewBox="0 0 290 246" width="290px" zoomAndPan="magnify"><defs/><g><!--MD5=[f35b8d93951ba498799a84be5600c0ca]
class Joueur--><g id="elem_Joueur"><polygon fill="#F1F1F1" points="147.5,7,147.5,7.2102,157.7308,6.5857,167.9615,7.1933,178.1923,7.3997,188.4231,6.2866,198.6538,6.9223,208.8846,6.5735,219.1154,6.6165,229.3462,6.9318,239.5769,6.3086,249.8077,7.5536,260.0385,6.3697,270.2692,6.8022,280.5,7,280.5551,7.133,280.8426,7.12,281.2158,7.3139,281.5566,7.4295,281.937,7.6408,282.2678,7.7322,282.3414,7.7627,282.5946,8.1605,282.7673,8.5249,282.9163,8.8795,282.932,9.1789,283,9.5,283.4636,9.5,283.7022,19.5872,282.2788,29.6743,283.6785,39.7615,282.7035,49.8487,283.5338,59.9359,282.505,70.023,282.9315,80.1102,283.7416,90.1974,283,100.2846,282.985,100.2783,282.886,100.6515,282.8114,101.0349,282.6888,101.3983,282.413,101.6983,282.2678,102.0523,282.3044,102.1408,281.8412,102.0225,281.5969,102.4328,281.277,102.6605,280.9103,102.775,280.5,102.7846,280.5,103.3976,270.2692,102.3015,260.0385,102.1324,249.8077,102.1632,239.5769,102.7257,229.3462,102.588,219.1154,103.466,208.8846,102.6099,198.6538,102.4415,188.4231,103.0128,178.1923,102.1177,167.9615,102.2654,157.7308,103.4335,147.5,102.7846,147.5556,102.9187,147.2401,102.8643,146.7518,102.3926,146.4801,102.4435,146.1611,102.3806,145.7322,102.0523,145.5868,101.9921,145.5563,101.6865,145.4781,101.3613,145.4936,101.0748,145.1452,100.6376,145,100.2846,145.4626,100.2846,144.4462,90.1974,144.3227,80.1102,145.5036,70.023,144.2831,59.9359,145.509,49.8487,145.2066,39.7615,144.7321,29.6743,144.6462,19.5872,145,9.5,145.1413,9.5585,145.0543,9.1083,145.4752,8.8684,145.2691,8.3688,145.7759,8.1645,145.7322,7.7322,145.794,7.8814,146.117,7.6612,146.4454,7.4539,146.8856,7.5167,147.2247,7.3354,147.5,7" style="stroke:#181818;stroke-width:0.5;"/><text fill="#000000" font-family="xkcd Script" font-size="14" lengthAdjust="spacing" textLength="43" x="192.5" y="27.2593">Joueur</text><path d="M146,36.4461 L146,36.7264 L155.7143,35.8937 L165.4286,36.7039 L175.1429,36.979 L184.8571,35.4949 L194.5714,36.3425 L204.2857,35.8775 L214,35.9348 L223.7143,36.3553 L233.4286,35.5243 L243.1429,37.1843 L252.8571,35.6058 L262.5714,36.1825 L272.2857,37.0221 L282,36.4461 " fill="#F1F1F1" style="stroke:#181818;stroke-width:0.5;"/><text fill="#000000" font-family="xkcd Script" font-size="14" lengthAdjust="spacing" textLength="71" x="151" y="55.7054">nom : String</text><text fill="#000000" font-family="xkcd Script" font-size="14" lengthAdjust="spacing" textLength="85" x="151" y="75.1515">nbLancers : int</text><text fill="#000000" font-family="xkcd Script" font-size="14" lengthAdjust="spacing" textLength="126" x="151" y="94.5977">nbLancersGagnés : int</text></g><!--MD5=[18e074f27103afc71028bba2a4f1683f]
class Dé--><g id="elem_Dé"><polygon fill="#F1F1F1" points="9.5,183,9.5,183.2102,19.6667,182.5857,29.8333,183.1933,40,183.3997,50.1667,182.2866,60.3333,182.9223,70.5,183,70.4456,182.8687,70.8046,183.0283,71.1984,183.2719,71.4725,183.2264,71.9848,183.7563,72.2678,183.7322,72.0737,183.6518,72.3533,184.0606,72.6937,184.4944,72.6807,184.782,72.8746,185.1552,73,185.5,72.9681,185.5,73.1785,195.8785,73.2391,206.2569,73.5857,216.6354,73.6711,227.0138,73,237.3923,73.2092,237.4789,72.932,237.7783,72.8499,238.1585,72.7769,238.5425,72.1921,238.7145,72.2678,239.16,72.3543,239.369,71.8764,239.2152,71.6288,239.6173,71.144,239.4469,70.8448,239.7247,70.5,239.8923,70.5,240.6339,60.3333,239.8435,50.1667,239.9976,40,240.2309,29.8333,240.3085,19.6667,239.8884,9.5,239.8923,9.5366,239.9807,9.0734,239.5696,8.8292,239.687,8.5093,239.6218,8.1425,239.4434,7.7322,239.16,7.921,239.2382,7.437,238.7449,7.2385,238.3697,7.1015,238.0201,7.1283,237.7383,7,237.3923,6.8035,237.3923,7.6814,227.0138,6.8253,216.6354,6.6569,206.2569,7.2283,195.8785,7,185.5,6.7946,185.4149,6.9866,185.0802,7.4927,184.8757,7.5735,184.4949,7.812,184.1795,7.7322,183.7322,7.6912,183.6331,8.1265,183.6841,8.5147,183.6212,8.7326,183.1474,9.1342,183.1169,9.5,183" style="stroke:#181818;stroke-width:0.5;"/><text fill="#000000" font-family="xkcd Script" font-size="14" lengthAdjust="spacing" textLength="15" x="32.5" y="203.2593">Dé</text><path d="M8,212.4461 L8,212.7264 L18.6667,211.8937 L29.3333,212.7039 L40,212.979 L50.6667,211.4949 L61.3333,212.3425 L72,212.4461 " fill="#F1F1F1" style="stroke:#181818;stroke-width:0.5;"/><text fill="#000000" font-family="xkcd Script" font-size="14" lengthAdjust="spacing" textLength="54" x="13" y="231.7054">face : int</text></g><!--MD5=[3f82ddbf4ff68524ab2929a496fcdbe9]
class JeuDeDés--><g id="elem_JeuDeDés"><polygon fill="#F1F1F1" points="10.5,40.5,10.5,40.7102,20.3333,40.0857,30.1667,40.6933,40,40.8997,49.8333,39.7866,59.6667,40.4223,69.5,40.5,69.4456,40.3687,69.8046,40.5283,70.1984,40.7719,70.4725,40.7264,70.9848,41.2563,71.2678,41.2322,71.0737,41.1518,71.3533,41.5606,71.6937,41.9944,71.6807,42.282,71.8746,42.6552,72,43,71.9894,43,72.0595,47.8892,72.0797,52.7785,72.1952,57.6677,72.2237,62.5569,72,67.4461,72.2092,67.5328,71.932,67.8322,71.8499,68.2124,71.7769,68.5964,71.1921,68.7684,71.2678,69.2139,71.3543,69.4229,70.8764,69.269,70.6288,69.6712,70.144,69.5008,69.8448,69.7786,69.5,69.9461,69.5,70.6877,59.6667,69.8974,49.8333,70.0514,40,70.2848,30.1667,70.3624,20.3333,69.9422,10.5,69.9461,10.5366,70.0346,10.0734,69.6234,9.8292,69.7408,9.5093,69.6756,9.1425,69.4973,8.7322,69.2139,8.921,69.2921,8.437,68.7987,8.2385,68.4236,8.1015,68.074,8.1283,67.7922,8,67.4461,7.9345,67.4461,8.2271,62.5569,7.9418,57.6677,7.8856,52.7785,8.0761,47.8892,8,43,7.7946,42.9149,7.9866,42.5802,8.4927,42.3757,8.5735,41.9949,8.812,41.6795,8.7322,41.2322,8.6912,41.1331,9.1265,41.1841,9.5147,41.1212,9.7326,40.6474,10.1342,40.6169,10.5,40.5" style="stroke:#181818;stroke-width:0.5;"/><text fill="#000000" font-family="xkcd Script" font-size="14" lengthAdjust="spacing" textLength="58" x="11" y="60.7593">JeuDeDés</text></g><!--MD5=[cea1b6f057c68a44b89edb703cbc6a63]
link JeuDeDés to Dé--><g id="link_JeuDeDés_Dé"><path d="M40,69.71 L40.2802,69.71 L39.4476,79.9991 L40.2577,90.2882 L40.5329,100.5773 L39.0488,110.8664 L39.8964,121.1555 L39.4313,131.4445 L39.4887,141.7336 L39.9091,152.0227 L39.0782,162.3118 L40.7382,172.6009 L40,182.89 " fill="none" style="stroke:#181818;stroke-width:1.0;"/><polygon fill="#000000" points="45,148.0287,45.0666,148.0503,45.4564,146.177,46.2368,144.4306,46.8901,142.6428,47.125,140.7191,47.9389,138.9836,47.9389,138.9577,46.7634,138.8414,45.5878,138.8558,44.4122,138.9609,43.2366,138.7531,42.0611,138.9836,42.2366,139.0406,42.449,140.7277,43.1739,142.5813,43.9614,144.4551,44.385,146.2108,45,148.0287" style="stroke:#000000;stroke-width:1.0;"/><text fill="#000000" font-family="xkcd Script" font-size="13" lengthAdjust="spacing" textLength="30" x="54" y="148.1695">inclut</text><text fill="#000000" font-family="xkcd Script" font-size="13" lengthAdjust="spacing" textLength="4" x="35.2875" y="92.2569">1</text><text fill="#000000" font-family="xkcd Script" font-size="13" lengthAdjust="spacing" textLength="7" x="32.2781" y="171.3195">2</text></g><!--MD5=[fe4526010a78db52d3eaf5acd7d5350a]
link JeuDeDés to Joueur--><g id="link_JeuDeDés_Joueur"><path d="M72.32,55 L72.32,55.2802 L82.6643,54.4476 L93.0086,55.2577 L103.3529,55.5329 L113.6971,54.0488 L124.0414,54.8964 L134.3857,54.4313 L144.73,55 " fill="none" style="stroke:#181818;stroke-width:1.0;"/><polygon fill="#000000" points="89.5,42.0287,89.5216,42.0953,91.2663,42.4851,93.1379,43.2655,94.9682,43.9187,96.6626,44.1537,98.5451,44.9676,98.5192,44.9676,98.4029,43.792,98.4173,42.6165,98.5224,41.4409,98.3146,40.2653,98.5451,39.0898,98.6021,39.2653,96.6711,39.4777,94.9067,40.2026,93.1625,40.9901,91.3002,41.4137,89.5,42.0287" style="stroke:#000000;stroke-width:1.0;"/><text fill="#000000" font-family="xkcd Script" font-size="13" lengthAdjust="spacing" textLength="23" x="103.5" y="47.1695">joue</text><text fill="#000000" font-family="xkcd Script" font-size="13" lengthAdjust="spacing" textLength="4" x="79.8275" y="49.1582">1</text><text fill="#000000" font-family="xkcd Script" font-size="13" lengthAdjust="spacing" textLength="8" x="129.174" y="50.2554">*</text></g><!--MD5=[b4f20bb32617de3d5d97acec19a1dad1]
@startuml
!include ecriture.pumlinclude
'left to right direction
hide empty members
class Joueur {
  nom : String
  nbLancers : int
  nbLancersGagnés : int
}
class Dé {
  face : int
}
class JeuDeDés

JeuDeDés "1" - - "2" Dé : inclut > 
Joueur "*" -l- "1" JeuDeDés : joue > 
@enduml

@startuml
skinparam style strictuml
skinparam backgroundcolor transparent
skinparam defaultfontname xkcd Script
skinparam handwritten true
hide empty members
class Joueur {
  nom : String
  nbLancers : int
  nbLancersGagnés : int
}
class Dé {
  face : int
}
class JeuDeDés

JeuDeDés "1" - - "2" Dé : inclut > 
Joueur "*" -l- "1" JeuDeDés : joue > 
@enduml

PlantUML version 1.2022.6(Tue Jun 21 17:34:49 UTC 2022)
(GPL source distribution)
Java Runtime: OpenJDK Runtime Environment
JVM: OpenJDK 64-Bit Server VM
Default Encoding: UTF-8
Language: en
Country: null
--></g></svg>