<?xml version="1.0" encoding="UTF-8" standalone="no"?><svg xmlns="http://www.w3.org/2000/svg" xmlns:xlink="http://www.w3.org/1999/xlink" contentStyleType="text/css" height="282px" preserveAspectRatio="none" style="width:427px;height:282px;background:#00000000;" version="1.1" viewBox="0 0 427 282" width="427px" zoomAndPan="magnify"><defs/><g><!--MD5=[18e074f27103afc71028bba2a4f1683f]
class Dé--><g id="elem_Dé"><polygon fill="#F1F1F1" points="53,191,53,191.2102,62.375,190.5857,71.75,191.1933,81.125,191.3997,90.5,190.2866,99.875,190.9223,109.25,190.5735,118.625,190.6165,128,191,127.9913,190.979,128.2654,190.9335,128.7777,191.4634,128.9803,191.2452,129.389,191.5249,129.7678,191.7322,129.9008,191.7873,129.8878,192.0748,130.0817,192.448,130.1973,192.7888,130.4085,193.1692,130.5,193.5,130.7391,193.5,131.0857,203.4173,131.1711,213.3346,131.1793,223.2519,130.7546,233.1692,130.9636,243.0865,131.2022,253.0038,129.7788,262.9211,130.5,272.8384,130.709,272.925,130.2622,273.1542,130.3715,273.6136,129.9082,273.8359,129.8931,274.2439,129.7678,274.6062,129.8624,274.8346,129.408,274.7376,129.0741,274.9315,128.7503,275.1498,128.4066,275.3202,128,275.3384,128,275.3345,118.625,275.6256,109.25,274.766,99.875,275.6228,90.5,275.8866,81.125,275.783,71.75,275.9514,62.375,274.8553,53,275.3384,52.9168,275.1376,52.5672,275.0006,52.2854,275.0274,51.9143,274.8386,51.6727,274.9625,51.2322,274.6062,51.1784,274.5839,50.9801,274.2089,51.0096,273.9282,50.5875,273.4605,50.4866,273.1258,50.5,272.8384,51.149,272.8384,50.9357,262.9211,51.2345,253.0038,50.1782,243.0865,50.8192,233.1692,51.0904,223.2519,50.0276,213.3346,50.4041,203.4173,50.5,193.5,50.5388,193.5161,50.8472,193.2296,50.7916,192.7924,51.0818,192.4983,50.9152,192.0151,51.2322,191.7322,51.1458,191.5237,51.65,191.7409,51.8479,191.2186,52.3578,191.4496,52.6728,191.2101,53,191" style="stroke:#181818;stroke-width:0.5;"/><text fill="#000000" font-family="xkcd Script" font-size="14" lengthAdjust="spacing" textLength="15" x="83" y="211.2593">Dé</text><path d="M51.5,220.4461 L51.5,220.7264 L61.25,219.8937 L71,220.7039 L80.75,220.979 L90.5,219.4949 L100.25,220.3425 L110,219.8775 L119.75,219.9348 L129.5,220.4461 " fill="#F1F1F1" style="stroke:#181818;stroke-width:0.5;"/><polygon fill="none" points="64.5166,232.1759,64.0768,232.7767,63.5567,233.6568,62.8128,234.2499,62.0311,234.5742,61.4078,234.6024,60.6067,234.1967,59.8509,233.9318,59.2771,233.3937,58.9762,232.7778,58.7977,232.2874,58.6229,231.6468,58.3391,231.0955,58.5572,230.5573,58.7482,229.9677,59.4653,229.5015,59.9697,228.8964,60.5941,228.6955,61.3364,228.5225,62.2883,228.6253,62.8097,228.8712,63.4158,228.9826,64.1529,229.7378,64.4098,230.5349,64.5214,231.0789,64.395,231.9752" style="stroke:#038048;stroke-width:1.0;"/><text fill="#000000" font-family="xkcd Script" font-size="14" lengthAdjust="spacing" textLength="54" x="70.5" y="239.7054">face : int</text><path d="M51.5,247.8923 L51.5,248.1725 L61.25,247.3399 L71,248.15 L80.75,248.4252 L90.5,246.9411 L100.25,247.7887 L110,247.3236 L119.75,247.3809 L129.5,247.8923 " fill="#F1F1F1" style="stroke:#181818;stroke-width:0.5;"/><text fill="#000000" font-family="xkcd Script" font-size="14" lengthAdjust="spacing" textLength="56" x="56.5" y="267.1515">brasser()</text></g><!--MD5=[3f82ddbf4ff68524ab2929a496fcdbe9]
class JeuDeDés--><g id="elem_JeuDeDés"><polygon fill="#F1F1F1" points="9.5,7,9.5,7.2102,19.625,6.5857,29.75,7.1933,39.875,7.3997,50,6.2866,60.125,6.9223,70.25,6.5735,80.375,6.6165,90.5,6.9318,100.625,6.3086,110.75,7.5536,120.875,6.3697,131,6.8022,141.125,7.4319,151.25,6.9142,161.375,7.0682,171.5,7,171.4959,6.9902,171.8763,7.2014,172.2376,7.3665,172.6354,7.6197,172.9998,7.7924,173.2678,7.7322,173.477,7.8189,173.4926,8.1183,173.7034,8.4985,173.9234,8.8825,173.6315,9.0545,174,9.5,174.6785,9.5,173.7035,19.3526,174.5338,29.2051,173.505,39.0577,173.9315,48.9102,174.7416,58.7628,173.9513,68.6154,174.1053,78.4679,174.3386,88.3205,174.4162,98.173,173.9961,108.0256,174.2872,117.8781,174,127.7307,173.8237,127.6577,173.9411,128.1205,173.8759,128.5077,173.6976,128.8481,173.603,129.2231,173.2678,129.4985,173.2061,129.3497,172.831,129.4441,172.4814,129.6,172.1996,129.9197,171.8285,130.0237,171.5,130.2307,171.5,130.9121,161.375,130.056,151.25,129.8876,141.125,130.459,131,129.5639,120.875,129.7116,110.75,130.8797,100.625,130.6664,90.5,130.9652,80.375,129.9089,70.25,130.5499,60.125,130.8211,50,129.7583,39.875,130.1348,29.75,130.3567,19.625,130.8825,9.5,130.2307,9.4995,130.2294,9.2055,130.2267,8.7223,129.7673,8.3529,129.5828,8.15,129.8,7.7322,129.4985,7.5114,129.407,7.7425,129.2098,7.503,128.8177,7.2104,128.4036,7.0375,128.0391,7,127.7307,7.4588,127.7307,6.7007,117.8781,7.5919,108.0256,6.4473,98.173,7.6174,88.3205,7.4843,78.4679,7.245,68.6154,7.0472,58.7628,7.7266,48.9102,7.6136,39.0577,7.1693,29.2051,7.2682,19.3526,7,9.5,6.9599,9.4834,7.3671,9.2378,7.3406,8.8126,7.4925,8.4614,7.3984,8.0082,7.7322,7.7322,7.6805,7.6074,8.1535,7.7492,8.4942,7.5717,8.7874,7.2797,9.1054,7.0472,9.5,7" style="stroke:#181818;stroke-width:0.5;"/><text fill="#000000" font-family="xkcd Script" font-size="14" lengthAdjust="spacing" textLength="58" x="61.5" y="27.2593">JeuDeDés</text><path d="M8,36.4461 L8,36.7264 L17.7059,35.8937 L27.4118,36.7039 L37.1176,36.979 L46.8235,35.4949 L56.5294,36.3425 L66.2353,35.8775 L75.9412,35.9348 L85.6471,36.3553 L95.3529,35.5243 L105.0588,37.1843 L114.7647,35.6058 L124.4706,36.1825 L134.1765,37.0221 L143.8824,36.3318 L153.5882,36.5371 L163.2941,36.4035 L173,36.4461 " fill="#F1F1F1" style="stroke:#181818;stroke-width:0.5;"/><path d="M8,44.4461 L8,44.7264 L17.7059,43.8937 L27.4118,44.7039 L37.1176,44.979 L46.8235,43.4949 L56.5294,44.3425 L66.2353,43.8775 L75.9412,43.9348 L85.6471,44.3553 L95.3529,43.5243 L105.0588,45.1843 L114.7647,43.6058 L124.4706,44.1825 L134.1765,45.0221 L143.8824,44.3318 L153.5882,44.5371 L163.2941,44.4035 L173,44.4461 " fill="#F1F1F1" style="stroke:#181818;stroke-width:0.5;"/><text fill="#000000" font-family="xkcd Script" font-size="14" lengthAdjust="spacing" textLength="79" x="13" y="63.7054">getJoueurs()</text><text fill="#000000" font-family="xkcd Script" font-size="14" lengthAdjust="spacing" textLength="155" x="13" y="83.1515">demarrerJeu(nom: string)</text><text fill="#000000" font-family="xkcd Script" font-size="14" lengthAdjust="spacing" textLength="108" x="13" y="102.5977">jouer(nom: string)</text><text fill="#000000" font-family="xkcd Script" font-size="14" lengthAdjust="spacing" textLength="150" x="13" y="122.0438">terminerJeu(nom: string)</text></g><!--MD5=[f35b8d93951ba498799a84be5600c0ca]
class Joueur--><g id="elem_Joueur"><polygon fill="#F1F1F1" points="245,20.5,245,20.7102,255.1765,20.0857,265.3529,20.6933,275.5294,20.8997,285.7059,19.7866,295.8824,20.4223,306.0588,20.0735,316.2353,20.1165,326.4118,20.4318,336.5882,19.8086,346.7647,21.0536,356.9412,19.8697,367.1176,20.3022,377.2941,20.9319,387.4706,20.4142,397.6471,20.5682,407.8235,20.4681,418,20.5,418.0228,20.555,418.3841,20.7201,418.7818,20.9733,419.1463,21.146,419.5009,21.295,419.7678,21.2322,419.8462,21.2647,420.057,21.6449,420.2769,22.0289,419.985,22.2009,420.5625,22.733,420.5,23,420.2035,23,421.0338,33.0872,420.005,43.1743,420.4315,53.2615,421.2416,63.3487,420.4513,73.4359,420.6053,83.523,420.8386,93.6102,420.9162,103.6974,420.5,113.7846,420.4988,113.7841,420.442,114.1748,420.0308,114.4186,420.1482,114.8815,420.083,115.2687,419.7678,115.5523,419.8245,115.6892,419.4924,115.8876,418.999,115.6965,418.6239,115.7908,418.2743,115.9467,418,116.2846,418,116.2257,407.8235,116.088,397.6471,116.966,387.4706,116.1099,377.2941,115.9415,367.1176,116.5128,356.9412,115.6177,346.7647,115.7654,336.5882,116.9335,326.4118,116.7202,316.2353,117.0191,306.0588,115.9628,295.8824,116.6038,285.7059,116.875,275.5294,115.8122,265.3529,116.1887,255.1765,116.4105,245,116.2846,245.0831,116.4853,244.6459,116.1368,244.3519,116.1341,243.8687,115.6747,243.4994,115.4902,243.2322,115.5523,243.3873,115.6166,242.865,115.1073,243.0961,114.9101,242.8565,114.518,242.5639,114.1039,242.5,113.7846,242.1462,113.7846,242.9588,103.6974,242.2007,93.6102,243.0919,83.523,241.9473,73.4359,243.1174,63.3487,242.9843,53.2615,242.745,43.1743,242.5472,33.0872,242.5,23,242.7238,23.0927,242.8354,22.7247,242.845,22.3145,243.0219,21.9736,243.0457,21.5692,243.2322,21.2322,243.3236,21.4529,243.6055,21.1335,243.9614,20.9925,244.2153,20.6055,244.5948,20.5217,245,20.5" style="stroke:#181818;stroke-width:0.5;"/><text fill="#000000" font-family="xkcd Script" font-size="14" lengthAdjust="spacing" textLength="43" x="310" y="40.7593">Joueur</text><path d="M243.5,49.9461 L243.5,50.2264 L253.2778,49.3937 L263.0556,50.2039 L272.8333,50.479 L282.6111,48.9949 L292.3889,49.8425 L302.1667,49.3775 L311.9444,49.4348 L321.7222,49.8553 L331.5,49.0243 L341.2778,50.6843 L351.0556,49.1058 L360.8333,49.6825 L370.6111,50.5221 L380.3889,49.8318 L390.1667,50.0371 L399.9444,49.9035 L409.7222,50.1842 L419.5,49.9461 " fill="#F1F1F1" style="stroke:#181818;stroke-width:0.5;"/><polygon fill="none" points="256.5166,61.6759,256.0768,62.2767,255.5567,63.1568,254.8128,63.7499,254.0311,64.0742,253.4078,64.1024,252.6067,63.6967,251.8509,63.4318,251.2771,62.8937,250.9762,62.2778,250.7977,61.7874,250.6229,61.1468,250.3391,60.5955,250.5572,60.0573,250.7482,59.4677,251.4653,59.0015,251.9697,58.3964,252.5941,58.1955,253.3364,58.0225,254.2883,58.1253,254.8097,58.3712,255.4158,58.4826,256.1529,59.2378,256.4098,60.0349,256.5214,60.5789,256.395,61.4752" style="stroke:#038048;stroke-width:1.0;"/><text fill="#000000" font-family="xkcd Script" font-size="14" lengthAdjust="spacing" textLength="69" x="262.5" y="69.2054">nom : string</text><polygon fill="none" points="256.5166,81.122,256.0768,81.7229,255.5567,82.6029,254.8128,83.196,254.0311,83.5204,253.4078,83.5485,252.6067,83.1429,251.8509,82.8779,251.2771,82.3399,250.9762,81.7239,250.7977,81.2335,250.6229,80.5929,250.3391,80.0417,250.5572,79.5035,250.7482,78.9139,251.4653,78.4476,251.9697,77.8426,252.5941,77.6417,253.3364,77.4687,254.2883,77.5715,254.8097,77.8173,255.4158,77.9288,256.1529,78.6839,256.4098,79.4811,256.5214,80.025,256.395,80.9213" style="stroke:#038048;stroke-width:1.0;"/><text fill="#000000" font-family="xkcd Script" font-size="14" lengthAdjust="spacing" textLength="111" x="262.5" y="88.6515">nbLancers : number</text><polygon fill="none" points="256.5166,100.5681,256.0768,101.169,255.5567,102.0491,254.8128,102.6422,254.0311,102.9665,253.4078,102.9946,252.6067,102.589,251.8509,102.324,251.2771,101.786,250.9762,101.1701,250.7977,100.6797,250.6229,100.0391,250.3391,99.4878,250.5572,98.9496,250.7482,98.36,251.4653,97.8937,251.9697,97.2887,252.5941,97.0878,253.3364,96.9148,254.2883,97.0176,254.8097,97.2635,255.4158,97.3749,256.1529,98.1301,256.4098,98.9272,256.5214,99.4712,256.395,100.3675" style="stroke:#038048;stroke-width:1.0;"/><text fill="#000000" font-family="xkcd Script" font-size="14" lengthAdjust="spacing" textLength="152" x="262.5" y="108.0977">nbLancersGagnés : number</text></g><!--MD5=[cea1b6f057c68a44b89edb703cbc6a63]
link JeuDeDés to Dé--><g id="link_JeuDeDés_Dé"><path d="M78.13,130.01 L78.2234,130.0123 L77.8784,132.7971 L78.0808,135.5952 L78.105,138.389 L77.5429,141.1686 L77.7923,143.9678 L77.7578,143.9678 L77.6041,146.7957 L77.6245,149.6236 L77.7659,152.4516 L77.4902,155.2794 L77.7987,158.1075 L78.0447,158.1137 L77.5886,160.8887 L77.8507,163.6817 L78.2004,166.4769 L78.0403,169.2593 L78.1483,172.0484 L78.1786,172.05 L78.2724,174.72 L78.5042,177.3972 L78.6695,180.0709 L78.9616,182.7511 L78.84,185.41 " fill="none" style="stroke:#181818;stroke-width:1.0;"/><polygon fill="#181818" points="79.23,190.68,79.296,190.7036,79.764,188.779,80.6188,186.9928,81.3476,185.1615,81.6624,183.182,82.5503,181.4077,82.5307,181.3908,81.7042,182.1721,80.9767,183.0387,80.318,183.9645,79.4223,184.6862,78.8585,185.6938,78.979,185.8336,77.8642,184.7963,77.1011,184.1672,76.3808,183.5878,75.411,182.7187,74.5724,182.002,74.5925,182.0128,75.4946,183.7326,76.4879,185.5014,77.4372,187.2465,78.4705,189.0367,79.23,190.68" style="stroke:#181818;stroke-width:1.0;"/><text fill="#000000" font-family="xkcd Script" font-size="13" lengthAdjust="spacing" textLength="10" x="66.7387" y="178.9696">d1</text></g><!--MD5=[cea1b6f057c68a44b89edb703cbc6a63]
link JeuDeDés to Dé--><g id="link_JeuDeDés_Dé"><path d="M103.6,130.01 L103.6934,130.0124 L103.4875,132.7968 L103.8291,135.5953 L103.9924,138.3892 L103.5694,141.1681 L103.958,143.9678 L103.9234,143.9678 L103.7671,146.7957 L103.7848,149.6236 L103.9236,152.4516 L103.6453,155.2794 L103.9512,158.1075 L104.1972,158.1141 L103.5968,160.8882 L103.7144,163.6815 L103.9198,166.4772 L103.6153,169.2592 L103.5789,172.0484 L103.6092,172.0501 L103.4169,174.72 L103.3626,177.3974 L103.2417,180.0712 L103.2477,182.7521 L102.84,185.41 " fill="none" style="stroke:#181818;stroke-width:1.0;"/><polygon fill="#181818" points="102.43,190.68,102.4916,190.7133,103.245,188.8814,104.3596,187.2448,105.3566,185.5445,105.9666,183.6352,107.1123,182.0153,107.0954,181.9957,106.1605,182.6433,105.3105,183.3901,104.5195,184.2058,103.5251,184.7839,102.8157,185.6949,102.9558,185.8149,101.9202,184.6989,101.2938,183.9334,100.7173,183.2106,99.8503,182.239,99.1361,181.3983,99.1576,181.4059,99.7849,183.2511,100.5098,185.1309,101.1876,186.994,101.9552,188.8889,102.43,190.68" style="stroke:#181818;stroke-width:1.0;"/><text fill="#000000" font-family="xkcd Script" font-size="13" lengthAdjust="spacing" textLength="13" x="90.2615" y="178.9696">d2</text></g><!--MD5=[fe4526010a78db52d3eaf5acd7d5350a]
link JeuDeDés to Joueur--><g id="link_JeuDeDés_Joueur"><path d="M174.11,68.5 L174.11,68.7802 L183.85,67.9476 L193.59,68.7577 L203.33,69.0329 L213.07,67.5488 L222.81,68.3964 L232.55,67.9313 L242.29,68.5 " fill="none" style="stroke:#181818;stroke-width:1.0;"/><text fill="#000000" font-family="xkcd Script" font-size="13" lengthAdjust="spacing" textLength="32" x="192.25" y="60.6695">        </text><text fill="#000000" font-family="xkcd Script" font-size="13" lengthAdjust="spacing" textLength="31" x="203.6004" y="83.3404">[nom]</text></g><!--MD5=[17c38229ce9191f5f8a39487646964a1]
@startuml
!include ecriture.pumlinclude
'left to right direction
hide empty methods
class Dé {
    +face : int
    brasser()
}
class JeuDeDés {
    '-joueurs: Map<string, Joueur>;
    ' -d1 : De;
    ' -d2 : De;

    getJoueurs()
    demarrerJeu(nom: string)
    jouer(nom: string)
    terminerJeu(nom: string)
}
class Joueur {
    +nom : string
    +nbLancers : number
    +nbLancersGagnés : number
}
JeuDeDés - -> "d1" Dé
JeuDeDés - -> "d2" Dé
JeuDeDés -r- "[nom]" Joueur : "        "
@enduml

@startuml
skinparam style strictuml
skinparam backgroundcolor transparent
skinparam defaultfontname xkcd Script
skinparam handwritten true
hide empty methods
class Dé {
    +face : int
    brasser()
}
class JeuDeDés {

    getJoueurs()
    demarrerJeu(nom: string)
    jouer(nom: string)
    terminerJeu(nom: string)
}
class Joueur {
    +nom : string
    +nbLancers : number
    +nbLancersGagnés : number
}
JeuDeDés - -> "d1" Dé
JeuDeDés - -> "d2" Dé
JeuDeDés -r- "[nom]" Joueur : "        "
@enduml

PlantUML version 1.2022.6(Tue Jun 21 17:34:49 UTC 2022)
(GPL source distribution)
Java Runtime: OpenJDK Runtime Environment
JVM: OpenJDK 64-Bit Server VM
Default Encoding: UTF-8
Language: en
Country: null
--></g></svg>