<?xml version="1.0" encoding="UTF-8" standalone="no"?><svg xmlns="http://www.w3.org/2000/svg" xmlns:xlink="http://www.w3.org/1999/xlink" contentStyleType="text/css" height="432px" preserveAspectRatio="none" style="width:483px;height:432px;background:#00000000;" version="1.1" viewBox="0 0 483 432" width="483.2px" zoomAndPan="magnify"><defs/><g><!--MD5=[ab4376919c0c48ac6244b94af79c3d81]
cluster P--><g id="cluster_P"><path d="M77.6671,13.4512 C81.5814,7.8472 85.6523,8.4088 89.0506,13.977 C91.3941,7.109 96.1029,7.8791 100.5037,11.7913 C103.9685,5.5772 108.7165,5.0973 112.4386,11.5489 C116.184,6.2195 120.8458,5.7352 125.1346,10.8909 C127.5324,5.6998 132.8951,5.7604 135.948,10.1516 C139.6284,5.2264 143.1316,5.9196 146.7106,10.2693 C150.7749,4.98 154.472,4.8 158.4468,10.3662 C162.3713,5.3254 167.1373,6.9427 169.6686,11.9258 C173.5609,5.6189 178.5293,6.823 181.7268,12.6182 C185.3692,7.5151 190.298,8.4405 192.9404,13.7004 C196.3958,7.4053 200.7941,7.6668 204.4611,13.4994 C211.0105,8.2263 218.3521,9.7028 220,18.7996 C220.048,18.8115 220.075,18.8528 220.0341,18.8961 C225.8715,20.2609 227.4248,25.2109 222.4612,29.1358 C227.0553,31.3932 228.6849,35.7872 223.8418,39.3236 C228.527,41.9302 228.9248,46.6077 224.6894,49.9274 C230.0428,52.1835 229.7907,55.8559 225.7911,59.2208 C230.2142,62.9412 229.835,67.4157 224.6339,70.1135 C228.9876,73.4178 229.2053,78.4149 223.4217,80.5407 C226.5012,83.9613 225.9379,88.1541 221.2199,89.7002 C225.9317,97.8528 224.1184,102.942 214.4,104.3996 C214.9804,103.9033 215.4736,104.2277 215.5612,104.8925 C212.2144,111.3003 207.8407,110.4317 203.6395,105.8165 C200.1731,110.4884 196.1819,111.3114 193.0884,105.4432 C189.8562,110.9332 184.918,112.735 180.4511,106.8101 C177.5221,112.0431 172.9476,111.7571 169.9106,106.9232 C166.0746,113.0942 161.3137,112.3038 157.631,106.7624 C155.0711,111.7327 150.3657,111.1875 147.6144,106.9711 C144.4314,112.4991 139.5001,112.5432 135.9101,107.4182 C131.3346,113.2246 127.7085,111.4369 124.4652,106.0554 C120.7239,110.4285 117.3047,110.4243 113.8069,105.768 C110.4865,111.0819 106.2716,112.6306 101.9796,106.799 C98.6901,112.108 93.0811,111.8398 90.3951,106.1626 C80.0973,113.3848 75.0009,109.8074 72,98.7996 C72.7298,98.6781 73.1821,99.2005 72.9417,99.9053 C67.6514,97.1477 66.231,90.9967 72.0204,87.4213 C64.6509,83.8722 63.8869,79.4446 70.1558,74.0005 C64.5854,70.0121 64.6687,64.4814 70.4782,60.7703 C65.1879,56.7208 65.5527,49.9258 71.8164,46.999 C64.7098,43.5461 65.4889,36.986 71.7697,33.4869 C62.7049,24.1724 65.4911,16.4291 77.6,13.1996 C77.7593,13.2493 77.7634,13.3333 77.6671,13.4512 " style="stroke:#181818;stroke-width:0.8000000000000002;fill:none;"/><text fill="#000000" font-family="Arial" font-size="11.2" font-weight="bold" lengthAdjust="spacing" textLength="148" x="72" y="27.5957">Domaine (du problème)</text></g><!--MD5=[e964c2537204c4818a6857a4ece8a291]
cluster C--><g id="cluster_C"><path d="M90.2587,194.8326 C92.5664,190.2746 97.5867,189.7979 100.7829,193.7313 C104.0146,187.4709 109.9061,186.5708 113.6569,193.2134 C116.2525,188.864 121.2023,188.2486 124.0825,192.8831 C128.0502,187.1973 133.231,186.0048 137.4056,192.6597 C140.2583,187.556 144.8799,186.8867 148.2509,192.1157 C150.6024,186.874 154.6304,184.3588 159.3873,189.5475 C164.561,184.8979 168.7795,184.0752 171.9939,191.5798 C175.6169,186.9923 180.447,186.7174 183.2783,192.4458 C187.1038,187.3866 190.9518,188.1538 194.2374,193.0407 C197.4501,186.0944 203.6784,186.379 207.3913,192.5387 C211.52,187.6545 215.9228,187.7087 218.9514,193.7073 C226.215,188.202 232.5633,190.8764 234.4,199.5996 C235.5963,199.1322 236.2504,199.585 236.116,200.8888 C243.6073,203.8859 244.1769,209.9004 237.4092,214.275 C244.1242,216.8299 245.0838,221.9288 239.3857,226.4919 C247.958,228.4335 247.6939,236.0134 242.4524,240.896 C247.8969,246.7673 246.8509,250.6071 239.6134,253.657 C244.3369,258.3524 244.2014,264.4964 236.9534,266.7618 C243.2505,275.1448 238.9089,284.0715 228.8,285.1996 C229.8161,285.4449 230.0992,286.1763 229.4134,287.0011 C226.1242,291.508 222.3389,291.5511 219.0145,287.0416 C216.0496,293.2077 210.4729,295.9293 205.4975,289.139 C202.4927,294.0422 199.4084,295.9389 194.8679,290.7579 C191.6989,296.5003 187.7499,297.7897 183.3249,292.0169 C178.9863,297.3751 174.7801,297.4484 170.674,291.7509 C167.4042,296.7038 163.2334,297.1673 159.3608,292.4566 C155.8788,297.3416 152.3542,297.8261 148.8366,292.4934 C144.1151,298.1224 139.4705,297.6949 136.2538,290.9617 C132.9814,296.1141 127.6403,295.9206 124.4483,290.8689 C120.7576,295.0096 116.377,294.9367 114.0072,289.4381 C108.6811,294.9378 103.9759,294.0633 101.1507,286.8992 C93.3023,292.4462 84.1596,290.993 83.2,279.5996 C84.302,279.1568 84.8564,279.5543 84.975,280.6991 C77.8206,278.3653 76.8478,271.7344 82.7371,267.2329 C76.9967,264.007 75.9692,258.4348 82.1284,254.634 C74.6127,250.6141 74.4142,246.2336 80.7543,240.834 C75.3087,236.5075 76.4436,231.452 81.9526,228.1613 C75.3048,223.7736 75.205,216.2817 83.0911,212.9843 C75.6777,204.5565 79.0589,197.2688 88.8,193.9996 C89.7201,193.4774 90.2201,193.8111 90.2587,194.8326 " fill="#90EE90" style="stroke:#181818;stroke-width:0.8000000000000002;"/><text fill="#000000" font-family="Arial" font-size="11.2" font-weight="bold" lengthAdjust="spacing" textLength="131.2" x="93.2" y="208.3957">Conception logicielle</text></g><!--MD5=[ae8e8d8430e8f8d0f717af7422021a23]
cluster E--><g id="cluster_E"><rect height="104" rx="2" ry="2" style="stroke:#181818;stroke-width:0.8000000000000002;fill:none;" width="178.4" x="76.8" y="323.5996"/><text fill="#000000" font-family="Arial" font-size="11.2" font-weight="bold" lengthAdjust="spacing" textLength="124.8" x="103.6" y="335.5957">Solution exécutable</text></g><!--MD5=[c31a855ebeac6ee3d0a2de96cc45ec0c]
entity PP--><g id="elem_PP"><path d="M128.4343,48.0591 C131.278,43.5515 136.4122,43.2576 139.0108,48.3296 C141.1987,44.3705 144.8863,43.2288 147.8042,47.5549 C151.0321,43.2615 153.9174,42.4014 157.2514,47.4476 C159.4117,43.6124 162.2756,43.176 165.3668,46.3735 C168.8654,41.1738 173.3396,41.7652 175.525,47.5842 C178.3222,43.7625 181.764,43.6483 184.1542,48.0132 C187.6149,43.6653 190.458,44.0454 192.8856,48.9846 C195.8146,44.4273 199.0958,43.6232 202.9065,47.9953 C208.9165,50.8714 209.2716,54.3116 203.9672,58.347 C209.5347,59.473 209.3606,62.7344 206.9902,66.7247 C209.9967,70.5138 210.1424,74.3469 204.6078,75.924 C207.8484,80.204 207.3572,83.4148 202.0014,85.3069 C200.427,90.7638 196.6975,92.2827 192.4989,87.8208 C190.1871,93.0324 186.0065,92.762 183.1695,88.3288 C181.6453,92.8686 178.1999,94.3164 174.6878,90.2993 C173.3926,94.6745 170.1916,96.3845 166.2856,93.2016 C162.1507,97.7921 157.6916,97.1094 155.7843,91.0128 C152.6699,93.6864 149.6943,93.6584 148.1381,89.3149 C144.4852,93.1345 139.9844,92.7478 137.8048,87.6145 C134.4896,90.9825 131.0803,89.891 129.6901,85.5803 C124.1484,84.2495 122.7615,79.7226 127.233,75.8606 C122.1789,73.3502 121.5422,69.6269 126.4037,66.26 C123.3674,63.1913 123.118,60.2689 127.7035,58.4722 C122.4071,55.2595 123.8866,50.581 128.4343,48.0591 " fill="#FF0000" style="stroke:#181818;stroke-width:0.4000000000000001;"/><text fill="#000000" font-family="Arial" font-size="11.2" lengthAdjust="spacing" textLength="61.6" x="134" y="63.5957">Complexité</text><text fill="#000000" font-family="Arial" font-size="11.2" lengthAdjust="spacing" textLength="53.6" x="138" y="76.6332">inhérente</text></g><!--MD5=[8ad42e69c823d91e931492f14bc2a1bb]
entity S--><g id="elem_S"><rect fill="#F1F1F1" height="29.0375" rx="2" ry="2" style="stroke:#181818;stroke-width:0.4000000000000001;" width="155.2" x="5.6" y="139.5996"/><text fill="#000000" font-family="Arial" font-size="11.2" lengthAdjust="spacing" textLength="139.2" x="13.6" y="157.9957">Spécification d'exigences</text></g><!--MD5=[36dc586d67e0f1d076b0ce70c9875d3e]
entity CC--><g id="elem_CC"><path d="M118.7527,228.5559 C121.1122,223.5752 125.6495,224.5001 128.0279,228.5364 C130.7914,224.3016 134.9337,224.0535 137.6761,228.5597 C140.0818,222.7341 145.3301,222.524 148.2933,228.0378 C151.1548,223.281 153.9244,223.0145 157.0961,227.7503 C160.3525,223.135 164.253,222.9772 167.4691,227.7946 C170.5171,224.2733 173.6977,223.3654 176.4675,228.0979 C179.2896,223.0562 183.9033,224.0609 186.4704,228.3707 C189.0995,223.5726 193.178,223.399 196.0565,228.1195 C200.1401,223.7887 203.2194,224.1187 206.3071,229.2037 C209.0058,225.0311 213.4682,225.554 215.5902,229.8368 C219.5098,231.7348 219.967,234.9194 216.7922,237.8778 C221.2848,240.2715 221.5256,244.5324 217.3645,247.4438 C222.3898,250.9547 222.0664,254.1092 216.8315,257.0508 C220.9784,261.3253 220.3455,264.4108 215.0066,266.9338 C213.1869,270.9202 209.3347,270.9551 206.7234,267.8598 C203.2761,272.6768 200.2852,272.0074 196.8089,267.8919 C193.7549,272.5442 189.7622,273.2876 186.4113,268.2092 C184.5168,272.686 179.9326,274.7884 176.4114,269.9566 C174.1875,274.7877 171.2058,275.5194 167.6775,271.2018 C164.0473,275.7933 159.9521,275.6176 157.7836,269.8111 C154.6221,275.4224 150.5958,274.2801 147.425,269.8206 C144.2575,274.2682 139.8956,273.9444 137.6027,268.9141 C134.3249,271.8919 131.3125,271.7637 129.1906,267.5602 C125.7286,271.9788 120.6282,271.9786 118.3047,266.3292 C112.5796,264.4078 112.5513,260.5455 116.2017,256.598 C111.6742,254.9709 110.5851,252.1384 113.4018,248.0935 C110.1141,244.6807 110.8866,240.0086 115.9584,238.9275 C111.4691,233.9248 113.0678,230.8175 118.7527,228.5559 " fill="#FFC0CB" style="stroke:#181818;stroke-width:0.4000000000000001;"/><text fill="#000000" font-family="Arial" font-size="11.2" lengthAdjust="spacing" textLength="61.6" x="135.6" y="244.3957">Complexité</text><text fill="#000000" font-family="Arial" font-size="11.2" lengthAdjust="spacing" textLength="85.6" x="123.6" y="257.4332">circonstancielle</text></g><!--MD5=[c8439cd5eaeefc99cddadab5367aafe8]
entity EE--><g id="elem_EE"><path d="M119.2887,365.0787 C122.2539,360.6926 124.9829,361.117 127.9265,365.1009 C130.6292,360.2067 134.5376,360.1258 137.3264,365.0183 C139.3749,360.5994 143.7316,360.1491 146.0849,364.7214 C148.7868,360.2939 153.3857,360.0585 155.5161,365.28 C157.8865,360.5828 162.3841,361.1051 165.0747,364.9204 C168.0135,360.4087 170.876,360.8461 174.2824,364.3857 C177.5248,360.5171 180.6979,359.6592 183.4706,364.8616 C185.8525,360.6067 189.3126,359.9511 192.1937,364.3589 C195.4831,360.0102 198.5569,360.2961 201.4704,364.7548 C205.1335,360.6108 209.2997,359.342 212.2501,365.5006 C214.5261,361.0996 218.8408,360.8584 221.5468,365.0346 C224.2208,361.8612 227.3804,362.3101 229.4357,365.7705 C233.0592,367.9457 233.5248,371.0652 230.4003,374.0287 C235.0784,376.8821 235.7439,380.994 230.4587,383.9064 C234.6118,386.0693 235.9728,390.8504 231.1443,393.6456 C234.5218,396.8616 233.8788,400.0199 229.9369,402.2032 C227.5765,406.7273 224.024,406.9642 220.6373,403.3803 C218.5815,408.8475 215.4983,408.5482 211.733,405.0849 C208.2949,409.2852 204.1755,410.1154 201.4911,404.3132 C199.949,408.691 195.4952,410.0393 192.1525,406.4143 C189.5541,410.8737 186.8824,411.6907 183.2396,407.4891 C180.7134,412.0258 177.83,412.7279 174.5435,408.2201 C172.0925,411.865 167.9604,411.2996 165.9487,407.6991 C162.2125,411.6163 158.3017,410.295 156.4166,405.6407 C152.8477,410.6978 148.6235,409.5224 145.9446,404.6977 C143.2451,408.873 140.3416,408.0873 137.7401,404.5929 C134.4669,408.4253 131.0149,408.3447 128.0394,404.2295 C123.6901,408.3147 120.5994,407.0882 118.6829,401.8008 C114.9585,399.6457 114.3487,396.9461 117.4021,393.7171 C112.3863,392.0836 110.1539,387.6993 114.8801,383.63 C111.4229,380.6268 111.2198,376.3324 116.0468,374.3733 C112.9386,369.9555 113.3459,366.3395 119.2887,365.0787 " fill="#FFA500" style="stroke:#181818;stroke-width:0.4000000000000001;"/><text fill="#000000" font-family="Arial" font-size="11.2" lengthAdjust="spacing" textLength="61.6" x="142.8" y="380.3957">Complexité</text><text fill="#000000" font-family="Arial" font-size="11.2" lengthAdjust="spacing" textLength="100" x="123.6" y="393.4332">environnementale</text></g><g id="elem_GMN4"><path d="M246,50.3996 L246,82.6121 L370,82.6121 L370,58.3996 L362,50.3996 L246,50.3996 " fill="#FEFFDD" style="stroke:#181818;stroke-width:0.4000000000000001;"/><path d="M362,50.3996 L362,58.3996 L370,58.3996 L362,50.3996 " fill="#FEFFDD" style="stroke:#181818;stroke-width:0.8000000000000002;"/><text fill="#000000" font-family="Arial" font-size="10.4" lengthAdjust="spacing" textLength="47.2" x="280.8" y="64.0532">Exemple:</text><text fill="#000000" font-family="Arial" font-size="10.4" lengthAdjust="spacing" textLength="107.2" x="250.8" y="76.1594">Lois fiscales (impôts)</text></g><g id="elem_GMN10"><path d="M260.4,218.7996 L260.4,275.2246 L458,275.2246 L458,226.7996 L450,218.7996 L260.4,218.7996 " fill="#FEFFDD" style="stroke:#181818;stroke-width:0.4000000000000001;"/><path d="M450,218.7996 L450,226.7996 L458,226.7996 L450,218.7996 " fill="#FEFFDD" style="stroke:#181818;stroke-width:0.8000000000000002;"/><text fill="#000000" font-family="Arial" font-size="10.4" lengthAdjust="spacing" textLength="52.8" x="329.2" y="232.4532">Exemples:</text><text fill="#000000" font-family="Arial" font-size="10.4" lengthAdjust="spacing" textLength="88" x="311.6" y="244.5594">Framework REST,</text><text fill="#000000" font-family="Arial" font-size="10.4" lengthAdjust="spacing" textLength="146.4" x="282.4" y="256.6657">utilisation du patron Visiteur,</text><text fill="#000000" font-family="Arial" font-size="10.4" lengthAdjust="spacing" textLength="180.8" x="265.2" y="268.7719">intégration avec un logiciel "ancien"</text></g><g id="elem_GMN15"><path d="M274.4,361.1996 L274.4,405.5184 L477.6,405.5184 L477.6,369.1996 L469.6,361.1996 L274.4,361.1996 " fill="#FEFFDD" style="stroke:#181818;stroke-width:0.4000000000000001;"/><path d="M469.6,361.1996 L469.6,369.1996 L477.6,369.1996 L469.6,361.1996 " fill="#FEFFDD" style="stroke:#181818;stroke-width:0.8000000000000002;"/><text fill="#000000" font-family="Arial" font-size="10.4" lengthAdjust="spacing" textLength="52.8" x="346" y="374.8532">Exemples:</text><text fill="#000000" font-family="Arial" font-size="10.4" lengthAdjust="spacing" textLength="96.8" x="324" y="386.9594">Application mobile,</text><text fill="#000000" font-family="Arial" font-size="10.4" lengthAdjust="spacing" textLength="186.4" x="279.2" y="399.0657">déploiement dans conteneur Docker</text></g><!--MD5=[eca472c658097b46fecc867470fb1e43]
link PP to GMN4--><g id="link_PP_GMN4"><path d="M207.872,66.3996 C220.52,66.3996 233.168,66.3996 245.808,66.3996 " fill="none" id="PP-GMN4" style="stroke:#181818;stroke-width:0.8000000000000002;stroke-dasharray:7.0,7.0;"/></g><!--MD5=[54b466f033fc859a3a602351050995ee]
link CC to GMN10--><g id="link_CC_GMN10"><path d="M221.376,247.1996 C234.296,247.1996 247.216,247.1996 260.144,247.1996 " fill="none" id="CC-GMN10" style="stroke:#181818;stroke-width:0.8000000000000002;stroke-dasharray:7.0,7.0;"/></g><!--MD5=[2ef8a8103cbd0838e5f725f9a4a0927b]
link GMN15 to EE--><g id="link_GMN15_EE"><path d="M274.312,383.1996 C261.432,383.1996 248.544,383.1996 235.664,383.1996 " fill="none" id="GMN15-EE" style="stroke:#181818;stroke-width:0.8000000000000002;stroke-dasharray:7.0,7.0;"/></g><!--MD5=[c59cac793282cfdfc9d13a807a8fe753]
link P to S--><g id="link_P_S"><path d="M83.2,111.0536 C83.2,111.2856 83.2,111.5175 83.2,111.7494 C83.2,112.6768 83.2,113.6033 83.2,114.5271 C83.2,121.9176 83.2,129.1356 83.2,135.2956 " fill="none" id="P-to-S" style="stroke:#181818;stroke-width:0.8000000000000002;"/><polygon fill="#181818" points="83.2,139.3916,86.4,132.1916,83.2,135.3916,80,132.1916,83.2,139.3916" style="stroke:#181818;stroke-width:0.8000000000000002;"/></g><!--MD5=[6e9e79cbd51b6e4ec2e6c7793813b079]
link S to C--><g id="link_S_C"><path d="M83.2,168.7116 C83.2,171.8646 83.2,175.4179 83.2,179.2252 C83.2,181.1288 83.2,183.0959 83.2,185.1083 C83.2,185.6114 83.2,186.1173 83.2,186.6258 C83.2,186.88 83.2,187.1349 83.2,187.3903 " fill="none" id="S-to-C" style="stroke:#181818;stroke-width:0.8000000000000002;"/><polygon fill="#181818" points="83.2,187.3903,86.4,180.1903,83.2,183.3903,80,180.1903,83.2,187.3903" style="stroke:#181818;stroke-width:0.8000000000000002;"/></g><!--MD5=[311cdee09890d755c451d6c721b78759]
link C to E--><g id="link_C_E"><path d="M83.2,292.0011 C83.2,292.2415 83.2,292.4823 83.2,292.7236 C83.2,293.2061 83.2,293.6904 83.2,294.1763 C83.2,295.1481 83.2,296.1265 83.2,297.1104 C83.2,299.0783 83.2,301.0686 83.2,303.0737 C83.2,307.084 83.2,311.1539 83.2,315.2236 C83.2,317.2585 83.2,319.2934 83.2,321.3207 C83.2,321.8276 83.2,322.3339 83.2,322.8397 C83.2,323.0926 83.2,323.3453 83.2,323.5979 " fill="none" id="C-to-E" style="stroke:#181818;stroke-width:0.8000000000000002;"/><polygon fill="#181818" points="83.2,323.5979,86.4,316.3979,83.2,319.5979,80,316.3979,83.2,323.5979" style="stroke:#181818;stroke-width:0.8000000000000002;"/></g><!--MD5=[a0a60e49c50d30add90d9703f9092f02]
@startuml
scale 0.8
skinparam style strictuml
skinparam backgroundColor transparent
skinparam packageBackgroundColor transparent
skinparam defaultFontName Arial 
skinparam defaultTextAlignment center
cloud "Domaine (du problème)" as P {
 cloud "Complexité\ninhérente" as PP #red {
 }
}
note right of PP: Exemple:\nLois fiscales (impôts)
rectangle "Spécification d'exigences" as S {
}
cloud "Conception logicielle" as C #lightgreen {
cloud "Complexité\ncirconstancielle" as CC #pink {
}
}
note right of CC: Exemples:\nFramework REST,\nutilisation du patron Visiteur,\nintégration avec un logiciel "ancien"
rectangle "Solution exécutable" as E {
cloud "Complexité\nenvironnementale" as EE #orange {
}
}
note left of EE: Exemples:\nApplication mobile,\ndéploiement dans conteneur Docker
P - -> S 
S - -> C
C - -> E
@enduml

PlantUML version 1.2022.6(Tue Jun 21 17:34:49 UTC 2022)
(GPL source distribution)
Java Runtime: OpenJDK Runtime Environment
JVM: OpenJDK 64-Bit Server VM
Default Encoding: UTF-8
Language: en
Country: null
--></g></svg>