<?xml version="1.0" encoding="UTF-8" standalone="no"?><svg xmlns="http://www.w3.org/2000/svg" xmlns:xlink="http://www.w3.org/1999/xlink" contentStyleType="text/css" height="265px" preserveAspectRatio="none" style="width:241px;height:265px;background:#00000000;" version="1.1" viewBox="0 0 241 265" width="241px" zoomAndPan="magnify"><defs/><g><!--MD5=[6ea93574f71f75ac542a4032e198fe98]
cluster Système--><g id="cluster_Système"><polygon points="95.5,7,95.5,7.2102,105.2857,6.5857,115.0714,7.1933,124.8571,7.3997,134.6429,6.2866,144.4286,6.9223,154.2143,6.5735,164,6.6165,173.7857,6.9318,183.5714,6.3086,193.3571,7.5536,203.1429,6.3697,212.9286,6.8022,222.7143,7.4319,232.5,7,232.4891,6.9736,232.8623,7.1675,233.203,7.2831,233.5834,7.4943,233.9447,7.6594,234.2678,7.7322,234.4481,7.8069,234.6209,8.1714,234.7698,8.526,234.7855,8.8254,234.9963,9.2056,235,9.5,235.7022,9.5,234.2788,19.38,235.6785,29.26,234.7035,39.14,235.5338,49.02,234.505,58.9,234.9315,68.78,235.7416,78.66,234.9513,88.54,235.1053,98.42,235.3386,108.3,235.4162,118.18,234.9961,128.06,235.2872,137.94,234.4276,147.82,235.2844,157.7,235.5482,167.58,235.4445,177.46,235.613,187.34,234.5169,197.22,234.3478,207.1,234.3786,216.98,234.9411,226.86,234.8035,236.74,235.6814,246.62,235,256.5,234.9462,256.4777,234.7479,256.8098,234.7774,257.2362,234.3553,257.4756,234.2543,257.848,234.2678,258.2678,234.3505,258.4676,233.9698,258.5484,233.6544,258.7869,233.1661,258.608,232.8943,258.9519,232.5,259,232.5,259.5904,222.7143,258.5276,212.9286,258.9041,203.1429,259.126,193.3571,259.6518,183.5714,258.9958,173.7857,259.4626,164,258.4462,154.2143,258.3227,144.4286,259.5036,134.6429,258.2831,124.8571,259.509,115.0714,259.2066,105.2857,258.7321,95.5,259,95.4549,258.8911,95.205,258.9948,94.7547,258.6149,94.5148,258.7429,94.0153,258.244,93.7322,258.2678,93.9224,258.3465,93.7349,257.976,93.5148,257.5919,93.3074,257.2131,93.3702,256.9462,93,256.5,93.6136,256.5,93.1693,246.62,93.2682,236.74,92.8697,226.86,93.7165,216.98,93.1549,207.1,93.1726,197.22,92.3916,187.34,92.5948,177.46,93.5307,167.58,93.4298,157.7,92.9571,147.82,92.6778,137.94,92.7811,128.06,92.3138,118.18,93.4147,108.3,93.7396,98.42,93.5264,88.54,93.6949,78.66,92.8633,68.78,93.0872,58.9,92.6124,49.02,93.284,39.14,93.2468,29.26,93.5524,19.38,93,9.5,92.9293,9.4707,93.1051,9.1293,93.4295,8.8495,93.6141,8.5117,93.4279,8.0204,93.7322,7.7322,93.7075,7.6725,94.1048,7.6318,94.3614,7.2512,94.838,7.4017,95.1794,7.2259,95.5,7" style="stroke:#181818;stroke-width:1.0;fill:none;"/><text fill="#000000" font-family="xkcd Script" font-size="14" font-weight="bold" lengthAdjust="spacing" textLength="54.8125" x="136.5938" y="24.2593">Système</text></g><g id="elem_other"><polygon fill="#F1F1F1" points="182.784,63.2409,182.4032,65.9233,180.9496,67.9644,179.2817,69.9978,177.9048,72.3596,175.3071,73.7062,172.9339,75.1531,170.1484,76.0868,167.0795,76.5341,164.4142,76.9927,160.7993,76.2713,158.4925,76.1911,155.509,75.0565,152.6384,73.4907,150.627,72.0943,148.606,70.1379,147.094,68.0596,145.8422,65.6727,145.1131,63.2287,144.7023,60.6027,144.8936,58.0871,145.5877,55.6651,146.9483,53.5467,148.405,51.3377,150.2264,49.3456,153.2246,48.3319,155.0635,46.4408,158.3228,45.9011,160.8093,44.9695,164.3144,45.2092,167.0797,45.2241,169.5765,45.4623,172.7419,46.7482,175.2141,47.9826,177.3701,49.4993,179.2733,51.3578,181.0498,53.656,182.0466,55.8308,183.1818,58.6126,182.981,60.73" style="stroke:#181818;stroke-width:0.5;"/><text fill="#000000" font-family="xkcd Script" font-size="14" lengthAdjust="spacing" textLength="9" x="159.3987" y="64.4998">...</text></g><g id="elem_JP"><polygon fill="#F1F1F1" points="212.9482,147.6014,211.9559,152.7633,208.1685,156.6909,203.8228,160.6039,200.2353,165.1487,193.4667,167.74,187.2832,170.5245,180.0256,172.3211,172.0293,173.1819,165.0848,174.0643,155.6658,172.6762,149.6553,172.5218,141.8817,170.3384,134.4022,167.3255,129.1613,164.6382,123.8956,160.8735,119.9559,156.8741,116.6945,152.2811,114.7948,147.5779,113.7242,142.5246,114.2227,137.6838,116.0313,133.0232,119.5763,128.9467,123.3719,124.6959,128.1176,120.8624,135.9295,118.9118,140.7211,115.2725,149.2132,114.234,155.6921,112.4413,164.8247,112.9026,172.0297,112.9312,178.5354,113.3896,186.7829,115.864,193.2243,118.2395,198.8419,121.1581,203.8008,124.7344,208.4297,129.157,211.0267,133.3421,213.9848,138.6952,213.4614,142.7697" style="stroke:#181818;stroke-width:0.5;"/><text fill="#000000" font-family="xkcd Script" font-size="14" lengthAdjust="spacing" textLength="54" x="137.169" y="136.8141">Attaquer</text><text fill="#000000" font-family="xkcd Script" font-size="14" lengthAdjust="spacing" textLength="44" x="142.169" y="156.2602">un pays</text></g><g id="elem_Démarrer"><polygon fill="#F1F1F1" points="217.7249,228.7968,216.629,231.708,212.4462,233.9232,207.6469,236.1301,203.6849,238.6933,196.2098,240.1547,189.3808,241.7251,181.3656,242.7384,172.5346,243.2239,164.8651,243.7216,154.4629,242.9387,147.825,242.8516,139.24,241.6202,130.9797,239.9209,125.1918,238.4054,119.3763,236.2821,115.0254,234.0265,111.4236,231.4361,109.3255,228.7835,108.1433,225.9335,108.6937,223.2034,110.6911,220.5748,114.6062,218.2758,118.798,215.8783,124.0391,213.7163,132.6665,212.6162,137.9582,210.5637,147.3368,209.9779,154.492,208.9669,164.5779,209.2271,172.5351,209.2432,179.7198,209.5017,188.8282,210.8973,195.9421,212.237,202.146,213.8831,207.6227,215.9001,212.7347,218.3944,215.6028,220.7547,218.8696,223.7738,218.2917,226.0718" style="stroke:#D3D3D3;stroke-width:0.5;"/><text fill="#808080" font-family="xkcd Script" font-size="14" lengthAdjust="spacing" textLength="59" x="131.3538" y="231.0818">Démarrer</text></g><!--MD5=[0cfebb0c7f68f9aba321a3cfa8dd0164]
entity J--><g id="elem_J"><polygon fill="#F1F1F1" points="35.5442,72.9459,34.3715,74.5482,32.9845,76.8951,31.0008,78.4767,28.9163,79.3415,27.2542,79.4166,25.118,78.3349,23.1023,77.6283,21.5724,76.1936,20.7699,74.5511,20.2939,73.2433,19.8277,71.5351,19.0709,70.0651,19.6525,68.6298,20.162,67.0576,22.074,65.8142,23.4192,64.2008,25.0843,63.665,27.0637,63.2037,29.6021,63.4778,30.9924,64.1335,32.6089,64.4307,34.5743,66.4443,35.2595,68.5701,35.5571,70.0206,35.22,72.4108" style="stroke:#181818;stroke-width:0.5;"/><path d="M27.5,79 L27.6868,79 L27.1317,84.4 L27.6718,89.8 L27.8553,95.2 L26.8659,100.6 L27.5,106 M14.5,87 L14.5,86.9309 L19.7,86.6209 L24.9,86.6591 L30.1,86.9394 L35.3,86.3854 L40.5,87 M27.5,106 L27.8719,106.3223 L24.4766,108.6331 L22.1672,111.8849 L19.9901,115.2515 L17.0424,117.9501 L14.5,121 M27.5,106 L27.5458,106.0397 L30.0785,108.9814 L32.8199,112.1039 L35.4606,115.1392 L38.2934,118.341 L40.5,121 " fill="none" style="stroke:#181818;stroke-width:0.5;"/><text fill="#000000" font-family="xkcd Script" font-size="14" lengthAdjust="spacing" textLength="43" x="6" y="137.7593">Joueur</text></g><!--MD5=[377e2cd37c5d25b46661956537368ef0]
link J to JP--><g id="link_J_JP"><path d="M49.22,108.32 L49.3017,108.5881 L59.0875,110.8487 L69.3523,114.6808 L79.4611,118.0012 L89.0569,119.6387 L99.3326,123.5066 L109.2256,126.1189 L119.42,129.72 " fill="none" style="stroke:#181818;stroke-width:1.0;"/></g><!--MD5=[57d6df1e9842fcea7fc7c58d92fd981d]
link J to other--><g id="link_J_other"><path d="M49.22,95.68 L49.3017,95.9481 L58.7249,92.2056 L68.6271,90.0345 L78.3734,87.3518 L87.6067,82.9861 L97.5198,80.8509 L107.0502,77.46 L116.7329,74.5689 L126.5215,72.0251 L135.9453,68.2842 L145.88,66.22 " fill="none" style="stroke:#181818;stroke-width:1.0;"/></g><!--MD5=[1c0ae5422280158d099ac65cfdb8bc6a]
@startuml
!include ecriture.pumlinclude
skinparam usecase<<blah>> {
  fontcolor gray
  bordercolor lightgray
}
hide stereotype
scale 1
left to right direction
skinparam packageStyle rect
actor Joueur as J
rectangle "Système" {
  (...) as other
  (Attaquer\nun pays) as JP
  (Démarrer) <<blah>>
  J - - JP
  J - - other
}
@enduml

@startuml
skinparam style strictuml
skinparam backgroundcolor transparent
skinparam defaultfontname xkcd Script
skinparam handwritten true
skinparam usecase<<blah>> {
  fontcolor gray
  bordercolor lightgray
}
hide stereotype
scale 1
left to right direction
skinparam packageStyle rect
actor Joueur as J
rectangle "Système" {
  (...) as other
  (Attaquer\nun pays) as JP
  (Démarrer) <<blah>>
  J - - JP
  J - - other
}
@enduml

PlantUML version 1.2022.6(Tue Jun 21 17:34:49 UTC 2022)
(GPL source distribution)
Java Runtime: OpenJDK Runtime Environment
JVM: OpenJDK 64-Bit Server VM
Default Encoding: UTF-8
Language: en
Country: null
--></g></svg>